<?xml version="1.0" encoding="utf-8"?>
<!-- Generator: Adobe Illustrator 22.0.1, SVG Export Plug-In . SVG Version: 6.00 Build 0)  -->
<svg version="1.1" id="Слой_1" xmlns="http://www.w3.org/2000/svg" xmlns:xlink="http://www.w3.org/1999/xlink" x="0px" y="0px"
	 viewBox="0 0 200 200" style="enable-background:new 0 0 200 200;" xml:space="preserve">
<style type="text/css">
	.st0{fill:#B75151;}
	.st1{fill:#FC633A;}
	.st2{fill:#D3644F;}
	.st3{fill:#CE4C42;}
	.st4{fill:#C46053;}
	.st5{fill:#773837;}
	.st6{fill:#E24B2D;}
	.st7{fill:#CC4C33;}
	.st8{enable-background:new    ;}
	.st9{fill:#EDF4F9;}
	.st10{fill:url(#SVGID_1_);}
	.st11{fill:url(#SVGID_2_);}
	.st12{fill:url(#SVGID_3_);}
	.st13{fill:url(#SVGID_4_);}
	.st14{fill:url(#SVGID_5_);}
	.st15{fill:url(#SVGID_6_);}
	.st16{fill:url(#SVGID_7_);}
	.st17{fill:url(#SVGID_8_);}
	.st18{fill:url(#SVGID_9_);}
	.st19{fill:url(#SVGID_10_);}
	.st20{fill:url(#SVGID_11_);}
	.st21{fill:#FEC111;}
	.st22{fill:#FDB813;}
	.st23{fill:#FA624E;}
	.st24{fill:#56676E;}
	.st25{fill:#093F61;}
	.st26{fill:#0A4B73;}
	.st27{fill:#0B507A;}
	.st28{fill:#9C493F;}
	.st29{fill:#BFCBE3;}
	.st30{fill:#E1E4EA;}
	.st31{fill:#B73D37;}
	.st32{fill:#DE4B38;}
	.st33{fill:#FA8778;}
	.st34{fill:#07334E;}
	.st35{fill:#025074;}
	.st36{fill:#71CFF3;}
	.st37{fill:#B1C2E3;}
	.st38{fill:#A9BBDF;}
	.st39{fill:#D0D9EA;}
	.st40{fill:#B7C4DF;}
	.st41{fill:#D7D8DA;}
	.st42{fill:#868687;}
	.st43{clip-path:url(#SVGID_13_);enable-background:new    ;}
	.st44{clip-path:url(#SVGID_15_);enable-background:new    ;}
	.st45{fill:#71C6DB;}
	.st46{fill:#49B8B5;}
	.st47{fill:#374246;}
	.st48{fill:#89D8E8;}
	.st49{fill:#60A8BA;}
	.st50{clip-path:url(#SVGID_17_);enable-background:new    ;}
	.st51{fill:#174969;}
	.st52{clip-path:url(#SVGID_19_);}
	.st53{fill:#72CFE3;}
	.st54{fill:#BBC3D3;}
	.st55{fill:#A4B0C8;}
	.st56{fill:#BDBDBD;}
	.st57{fill:#ECC6AF;}
	.st58{fill:#969696;}
	.st59{fill:#D7D7D7;}
	.st60{fill:#7A7A7A;}
	.st61{fill:#8E8A80;}
	.st62{fill:#E2E8F2;}
	.st63{fill:#DAE1EB;}
	.st64{fill:#ECECEC;}
	.st65{fill:#E6EDF7;}
	.st66{fill:#C1D8F7;}
	.st67{fill:#A1B400;}
	.st68{fill:#844810;}
	.st69{fill:#D9E6F7;}
	.st70{fill:#B3D246;}
	.st71{fill:#798700;}
	.st72{fill:#230E01;}
	.st73{fill:#5B3520;}
	.st74{fill:#9F9B90;}
	.st75{fill:#2B1101;}
	.st76{fill:#5A3520;}
	.st77{fill:#692901;}
	.st78{fill:#3D1701;}
	.st79{fill:#4A2C1A;}
	.st80{fill:#4C1C01;}
	.st81{fill:#572201;}
	.st82{fill:#DBDCDE;}
	.st83{fill:#C7C8C9;}
	.st84{fill:#F0F0F0;}
	.st85{fill:#FAFBFD;}
	.st86{fill:#E5E6E8;}
	.st87{fill:#7AA6AE;}
	.st88{fill:#88B9C3;}
	.st89{clip-path:url(#SVGID_21_);enable-background:new    ;}
	.st90{fill:#9ED7E2;}
	.st91{clip-path:url(#SVGID_23_);enable-background:new    ;}
	.st92{fill:#7EACB5;}
	.st93{fill:#6F979E;}
	.st94{fill:#557379;}
	.st95{fill:#64616C;}
	.st96{fill:#B6B7B8;}
	.st97{opacity:0.3;}
	.st98{fill:#55D6D2;}
	.st99{fill:#BCF1FF;}
	.st100{fill:#68D6F9;}
	.st101{opacity:0.3;fill:#55D6D2;}
	.st102{fill:#414D54;}
	.st103{fill:#5F7078;}
</style>
<g>
	<polygon class="st0" points="99.6,8.2 99.6,82.2 121.8,94.8 193.3,62.3 	"/>
	<polygon class="st1" points="121.8,94.8 193.3,135.3 193.3,62.3 193.3,62.3 	"/>
	<polygon class="st2" points="6,135.3 77.4,94.8 6,62.3 	"/>
	<polygon class="st3" points="99.6,8.2 6,62.3 6,62.3 77.4,94.8 99.6,82.2 	"/>
	<polygon class="st4" points="99.6,189.4 193.3,135.3 193.3,129.6 99.6,183.7 	"/>
	<polygon class="st5" points="189.7,131.7 183.4,128.1 183.4,128.1 177.5,124.7 177.5,124.7 171.5,121.2 171.5,121.2 165.5,117.8 
		165.5,117.8 159.5,114.3 159.5,114.3 153.5,110.9 153.5,110.9 147.5,107.4 147.5,107.4 141.8,104.1 141.8,104.1 135.8,100.6 
		135.8,100.6 129.8,97.2 129.8,97.2 123.8,93.7 123.8,93.7 117.8,90.3 117.8,90.3 111.8,86.8 111.8,86.8 105.8,83.3 105.8,83.3 
		99.6,79.8 93.4,83.3 93.4,83.3 87.4,86.8 87.4,86.8 81.7,90.1 81.7,90.1 75.5,93.7 75.5,93.7 69.5,97.2 69.5,97.2 63.5,100.6 
		63.5,100.6 57.5,104.1 57.5,104.1 51.7,107.4 51.7,107.4 45.5,111 45.5,111 39.8,114.3 39.8,114.3 33.6,117.9 33.6,117.9 
		27.8,121.2 27.8,121.2 21.6,124.8 21.6,124.8 15.8,128.1 15.8,128.1 9.6,131.7 15.8,135.3 15.8,135.3 21.6,138.6 21.6,138.6 
		27.8,142.2 27.8,142.2 33.8,145.7 33.8,145.7 39.8,149.1 39.8,149.1 45.8,152.6 45.8,152.6 51.8,156.1 51.8,156.1 57.7,159.5 
		57.7,159.5 63.7,163 63.7,163 69.7,166.4 69.7,166.4 75.7,169.9 75.7,169.9 81.7,173.3 81.7,173.3 87.7,176.8 87.7,176.8 
		93.7,180.2 93.7,180.2 99.7,183.7 105.6,180.2 105.6,180.2 110.7,177.3 111.6,176.8 111.6,176.8 117.6,173.3 117.6,173.3 
		122.7,170.4 123.8,169.7 123.8,169.7 129.6,166.4 129.6,166.4 134.7,163.5 135.6,163 135.6,163 141.5,159.5 141.5,159.5 
		146.7,156.6 147.5,156 147.5,156 153.5,152.6 153.5,152.6 158.6,149.6 159.5,149.1 159.5,149.1 165.5,145.7 165.5,145.7 
		170.6,142.7 171.5,142.2 171.5,142.2 177.5,138.8 177.5,138.8 182.6,135.8 183.4,135.3 183.4,135.3 	"/>
	<polygon class="st6" points="189.7,131.7 99.6,79.8 99.6,12 189.7,64 	"/>
	<polygon class="st1" points="9.6,131.7 99.6,79.8 99.6,12 9.6,64 	"/>
	<polygon class="st7" points="99.6,189.4 6,135.3 6,129.6 99.6,183.7 	"/>
	<g class="st8">
		<g>
			<path class="st9" d="M143.3,54.3L182,76.6l-0.1,35.4l-38.7-22.3L143.3,54.3z M168.8,81.1l0-0.5l-12.2-7.1l0,12l0.7,0.4l11.5,6.6
				L168.8,81.1L168.8,81.1z M155.2,73.3l0-0.5l-9.4-5.4l0,12l0.7,0.4l8.7,5L155.2,73.3L155.2,73.3z M179.4,98.8l0-12l-9.4-5.4l0,12
				l0.7,0.4L179.4,98.8L179.4,98.8z M168.8,71.9l0-0.4l-12.2-7.1l0,8.7l0.7,0.4l11.5,6.6L168.8,71.9L168.8,71.9z M168.7,93.6l0-0.5
				l-12.2-7.1l0,8.7l0.7,0.4l11.5,6.6L168.7,93.6L168.7,93.6z M155.2,64l0-0.4l-9.4-5.4l0,8.7l0.7,0.4l8.7,5L155.2,64L155.2,64z
				 M155.1,85.8l0-0.5l-9.4-5.4l0,8.7l0.7,0.4l8.7,5L155.1,85.8L155.1,85.8z M179.5,86.4l0-8.7l-9.4-5.4l0,8.7l0.7,0.4L179.5,86.4
				L179.5,86.4z M179.4,108.1l0-8.7l-9.4-5.4l0,8.7l0.7,0.4L179.4,108.1L179.4,108.1z"/>
		</g>
		<g>
			
				<linearGradient id="SVGID_1_" gradientUnits="userSpaceOnUse" x1="271.257" y1="112.9245" x2="247.6805" y2="62.3749" gradientTransform="matrix(1 0 0 1 -98.5239 0)">
				<stop  offset="0" style="stop-color:#9ED7E2"/>
				<stop  offset="1" style="stop-color:#2EABE3"/>
			</linearGradient>
			<polygon class="st10" points="145.8,66.9 146.5,67.3 155.2,72.3 155.2,64 155.2,63.6 145.8,58.2 			"/>
			
				<linearGradient id="SVGID_2_" gradientUnits="userSpaceOnUse" x1="278.5481" y1="109.5229" x2="254.972" y2="58.9742" gradientTransform="matrix(1 0 0 1 -98.5239 0)">
				<stop  offset="0" style="stop-color:#9ED7E2"/>
				<stop  offset="1" style="stop-color:#2EABE3"/>
			</linearGradient>
			<polygon class="st11" points="156.5,73.1 157.2,73.5 168.8,80.2 168.8,71.9 168.8,71.4 156.5,64.4 			"/>
			
				<linearGradient id="SVGID_3_" gradientUnits="userSpaceOnUse" x1="285.8396" y1="106.1223" x2="262.2634" y2="55.5734" gradientTransform="matrix(1 0 0 1 -98.5239 0)">
				<stop  offset="0" style="stop-color:#9ED7E2"/>
				<stop  offset="1" style="stop-color:#2EABE3"/>
			</linearGradient>
			<polygon class="st12" points="170.1,72.2 170.1,80.9 170.8,81.4 179.5,86.4 179.5,78.1 179.5,77.6 			"/>
			
				<linearGradient id="SVGID_4_" gradientUnits="userSpaceOnUse" x1="274.3615" y1="111.4758" x2="250.7853" y2="60.9267" gradientTransform="matrix(1 0 0 1 -98.5239 0)">
				<stop  offset="0" style="stop-color:#9ED7E2"/>
				<stop  offset="1" style="stop-color:#2EABE3"/>
			</linearGradient>
			<polygon class="st13" points="156.5,85.6 157.2,86 168.7,92.7 168.8,81.1 168.8,80.7 156.5,73.6 			"/>
			
				<linearGradient id="SVGID_5_" gradientUnits="userSpaceOnUse" x1="262.8833" y1="116.8295" x2="239.307" y2="66.2802" gradientTransform="matrix(1 0 0 1 -98.5239 0)">
				<stop  offset="0" style="stop-color:#9ED7E2"/>
				<stop  offset="1" style="stop-color:#2EABE3"/>
			</linearGradient>
			<polygon class="st14" points="145.7,88.6 146.5,89.1 155.1,94.1 155.1,85.8 155.1,85.3 145.8,79.9 			"/>
			
				<linearGradient id="SVGID_6_" gradientUnits="userSpaceOnUse" x1="267.07" y1="114.8766" x2="243.4938" y2="64.3276" gradientTransform="matrix(1 0 0 1 -98.5239 0)">
				<stop  offset="0" style="stop-color:#9ED7E2"/>
				<stop  offset="1" style="stop-color:#2EABE3"/>
			</linearGradient>
			<polygon class="st15" points="145.8,79.4 146.5,79.8 155.1,84.8 155.2,73.3 155.2,72.8 145.8,67.4 			"/>
			
				<linearGradient id="SVGID_7_" gradientUnits="userSpaceOnUse" x1="270.1748" y1="113.4287" x2="246.5984" y2="62.8793" gradientTransform="matrix(1 0 0 1 -98.5239 0)">
				<stop  offset="0" style="stop-color:#9ED7E2"/>
				<stop  offset="1" style="stop-color:#2EABE3"/>
			</linearGradient>
			<polygon class="st16" points="156.5,94.8 157.2,95.3 168.7,101.9 168.7,93.6 168.7,93.2 156.5,86.1 			"/>
			
				<linearGradient id="SVGID_8_" gradientUnits="userSpaceOnUse" x1="277.4663" y1="110.0276" x2="253.8903" y2="59.4791" gradientTransform="matrix(1 0 0 1 -98.5239 0)">
				<stop  offset="0" style="stop-color:#9ED7E2"/>
				<stop  offset="1" style="stop-color:#2EABE3"/>
			</linearGradient>
			<polygon class="st17" points="170,102.7 170.8,103.1 179.4,108.1 179.4,99.8 179.4,99.3 170.1,93.9 			"/>
			
				<linearGradient id="SVGID_9_" gradientUnits="userSpaceOnUse" x1="281.6528" y1="108.0749" x2="258.0766" y2="57.526" gradientTransform="matrix(1 0 0 1 -98.5239 0)">
				<stop  offset="0" style="stop-color:#9ED7E2"/>
				<stop  offset="1" style="stop-color:#2EABE3"/>
			</linearGradient>
			<polygon class="st18" points="170.1,93.4 170.8,93.8 179.4,98.8 179.5,87.3 179.5,86.9 170.1,81.4 			"/>
		</g>
	</g>
	<g>
		
			<linearGradient id="SVGID_10_" gradientUnits="userSpaceOnUse" x1="718.5901" y1="51.0219" x2="714.6885" y2="36.1956" gradientTransform="matrix(-1 0 0 1 796.6393 0)">
			<stop  offset="0" style="stop-color:#9ED7E2"/>
			<stop  offset="1" style="stop-color:#2EABE3"/>
		</linearGradient>
		<polygon class="st19" points="82.9,39.7 75.4,44 75.5,53.8 83,49.4 		"/>
	</g>
	<g>
		
			<linearGradient id="SVGID_11_" gradientUnits="userSpaceOnUse" x1="711.0814" y1="49.4271" x2="707.1797" y2="34.6009" gradientTransform="matrix(-1 0 0 1 796.6393 0)">
			<stop  offset="0" style="stop-color:#9ED7E2"/>
			<stop  offset="1" style="stop-color:#2EABE3"/>
		</linearGradient>
		<polygon class="st20" points="91.3,44.6 91.3,34.9 83.7,39.2 83.8,48.9 		"/>
	</g>
	<g class="st8">
		<g>
			<path class="st9" d="M92.6,45.3L74.2,55.9l-0.1-12.5l18.3-10.6L92.6,45.3z M75.5,53.8l7.5-4.3l-0.1-9.7L75.4,44L75.5,53.8
				L75.5,53.8z M83.8,49l7.5-4.3l-0.1-9.7l-7.5,4.3L83.8,49L83.8,49z"/>
		</g>
	</g>
	<g>
		<path class="st21" d="M107.6,152.4c0.1,0,0.1,0,0.1,0l11.1-6.5c0.1-0.1,0.1-0.2,0.1-0.3c0-0.1-0.1-0.2-0.1-0.3L99.1,134
			c0,0-0.1,0-0.1,0c-0.1,0-0.1,0-0.1,0l-11.1,6.5c-0.1,0.1-0.1,0.2-0.1,0.3c0,0.1,0.1,0.2,0.1,0.3l19.7,11.4
			C107.5,152.4,107.5,152.4,107.6,152.4z"/>
		<polygon class="st22" points="118.7,145.7 107.6,152.1 87.9,140.7 99,134.3 		"/>
	</g>
	<polygon class="st23" points="116.5,144.4 118.7,145.7 107.6,152.1 105.4,150.9 	"/>
	<polygon class="st23" points="99,134.3 101.2,135.6 90.1,142 87.9,140.7 	"/>
	<g>
		<path class="st23" d="M99.8,140.9c-2.1,1.2-2.1,3.1,0,4.3c2,1.2,5.4,1.2,7.4,0c2.1-1.2,2.1-3.1,0-4.3
			C105.2,139.7,101.9,139.7,99.8,140.9z"/>
	</g>
	<g>
		<path class="st21" d="M128.4,141.8c0.1,0,0.1,0,0.1,0l11.1-6.5c0.1-0.1,0.1-0.2,0.1-0.3c0-0.1-0.1-0.2-0.1-0.3L120,123.4
			c0,0-0.1,0-0.1,0c-0.1,0-0.1,0-0.1,0l-11.1,6.5c-0.1,0.1-0.1,0.2-0.1,0.3c0,0.1,0.1,0.2,0.1,0.3l19.7,11.4
			C128.3,141.8,128.4,141.8,128.4,141.8z"/>
		<polygon class="st22" points="139.5,135.1 128.4,141.5 108.7,130.1 119.8,123.7 		"/>
	</g>
	<polygon class="st23" points="137.3,133.8 139.5,135.1 128.4,141.5 126.2,140.3 	"/>
	<polygon class="st23" points="119.8,123.7 122,125 110.9,131.4 108.7,130.1 	"/>
	<g>
		<path class="st23" d="M120.7,130.3c-2.1,1.2-2.1,3.1,0,4.3c2,1.2,5.4,1.2,7.4,0c2.1-1.2,2.1-3.1,0-4.3
			C126.1,129.1,122.7,129.1,120.7,130.3z"/>
	</g>
	<g>
		<path class="st24" d="M87.8,60.8c-0.4-0.2-0.7,0-0.7,0.4c0,0.4,0.3,1,0.7,1.2c0.4,0.2,0.7,0,0.7-0.4C88.5,61.6,88.2,61,87.8,60.8z
			"/>
	</g>
	<g>
		<g>
			<polygon class="st25" points="92.4,58.2 92.4,58.9 91.2,58.2 91.2,57.5 			"/>
		</g>
		<polygon class="st26" points="89.7,60.5 93.9,58.1 93.8,58.9 89.7,61.2 		"/>
		<polygon class="st27" points="89.7,59.7 92.4,58.2 91.2,57.5 91.9,57 93.9,58.1 89.7,60.5 		"/>
	</g>
	<g>
		<g class="st8">
			<path class="st28" d="M85.4,59.7l4.4-2.5c0,0,0,0,0,0L85.4,59.7C85.3,59.7,85.4,59.7,85.4,59.7L85.4,59.7z"/>
			<path class="st29" d="M88.8,62.9c0-0.1,0-0.2-0.1-0.3c0,0,0,0,0,0c0-0.1-0.1-0.2-0.1-0.3c0,0,0-0.1,0-0.1c0-0.1-0.1-0.2-0.1-0.3
				c0,0,0,0,0-0.1c0-0.1-0.1-0.1-0.1-0.2c0,0,0-0.1-0.1-0.1c0-0.1-0.1-0.1-0.1-0.2c0,0,0-0.1-0.1-0.1c0-0.1-0.1-0.1-0.1-0.2
				c0,0,0-0.1-0.1-0.1c0-0.1-0.1-0.1-0.1-0.2c0,0,0,0,0-0.1c-0.1-0.1-0.1-0.2-0.2-0.2c0,0,0,0-0.1-0.1c-0.1-0.1-0.1-0.1-0.2-0.2
				c0,0-0.1,0-0.1-0.1c-0.1,0-0.1-0.1-0.2-0.1c0,0,0,0-0.1-0.1c-0.1-0.1-0.2-0.1-0.2-0.2c-0.1,0-0.1-0.1-0.2-0.1c0,0,0,0-0.1,0
				c0,0-0.1,0-0.1-0.1c0,0,0,0-0.1,0c-0.1,0-0.1,0-0.2,0c0,0,0,0,0,0c0,0,0,0,0,0c-0.1,0-0.1,0-0.2,0c0,0,0,0-0.1,0c0,0-0.1,0-0.1,0
				c0,0,0,0-0.1,0c0,0-0.1,0-0.1,0c0,0,0,0-0.1,0c0,0-0.1,0-0.1,0c0,0-0.1,0-0.1,0l4.4-2.5c0,0,0,0,0,0l0,0c0,0,0,0,0,0
				c0,0,0.1,0,0.1,0c0,0,0,0,0.1,0c0,0,0.1,0,0.1,0c0,0,0,0,0.1,0c0,0,0.1,0,0.1,0c0,0,0,0,0.1,0c0.1,0,0.1,0,0.2,0c0,0,0,0,0,0
				c0,0,0,0,0,0c0,0,0,0,0,0c0,0,0.1,0,0.2,0c0,0,0,0,0.1,0c0,0,0.1,0,0.1,0.1c0,0,0,0,0.1,0c0.1,0,0.1,0.1,0.2,0.1
				c0.1,0,0.2,0.1,0.2,0.2c0,0,0,0,0.1,0.1c0.1,0,0.1,0.1,0.2,0.1c0,0,0.1,0,0.1,0.1c0.1,0.1,0.1,0.1,0.2,0.2c0,0,0,0,0.1,0.1
				c0.1,0.1,0.1,0.2,0.2,0.2c0,0,0,0,0,0c0,0,0,0,0,0.1c0,0.1,0.1,0.1,0.1,0.2c0,0,0,0.1,0.1,0.1c0,0.1,0.1,0.1,0.1,0.2
				c0,0,0,0.1,0.1,0.1c0,0.1,0.1,0.1,0.1,0.2c0,0,0,0.1,0.1,0.1c0,0.1,0.1,0.1,0.1,0.2c0,0,0,0,0,0.1c0,0,0,0,0,0
				c0,0.1,0.1,0.2,0.1,0.3c0,0,0,0.1,0,0.1c0,0.1,0.1,0.2,0.1,0.3c0,0,0,0,0,0c0,0.1,0,0.2,0.1,0.3c0,0,0,0.1,0,0.1
				c0,0.1,0,0.2,0,0.3c0,0.2,0,0.5-0.1,0.6c-0.1,0.3-0.3,0.5-0.5,0.7l-4.4,2.5c0.4-0.2,0.6-0.7,0.6-1.3
				C88.8,63.2,88.8,63.1,88.8,62.9C88.8,63,88.8,63,88.8,62.9z"/>
			<g>
				<path class="st30" d="M86.8,59.8c-1.1-0.6-2-0.1-2,1.2c0,1.3,0.9,2.9,2,3.5c1.1,0.6,2,0.1,2-1.2C88.8,62.1,87.9,60.5,86.8,59.8z
					"/>
			</g>
			<g>
				<path class="st24" d="M86.8,61.4c-0.4-0.2-0.7,0-0.7,0.4c0,0.4,0.3,1,0.7,1.2c0.4,0.2,0.7,0,0.7-0.4
					C87.5,62.1,87.2,61.6,86.8,61.4z"/>
			</g>
		</g>
	</g>
	<polygon class="st25" points="85.3,63.1 85.3,63.8 83.4,62.7 83.4,62 	"/>
	<g>
		<polygon class="st27" points="84.1,61.5 85.3,62.3 86.8,61.4 86.8,62.2 85.3,63.1 83.4,62 		"/>
		<g>
			<polygon class="st26" points="86.8,63 85.3,63.8 85.3,63.1 86.8,62.2 			"/>
			<path class="st26" d="M86.3,62.5l1-0.6c0.1,0.2,0.2,0.4,0.2,0.6L86.8,63C86.6,62.9,86.4,62.7,86.3,62.5z"/>
		</g>
		<path class="st27" d="M86.8,61.4c0.2,0.1,0.4,0.3,0.5,0.5l-1,0.6c-0.1-0.2-0.2-0.4-0.2-0.7L86.8,61.4z"/>
	</g>
	<g class="st8">
		<g>
			<polygon class="st31" points="86.7,119.3 85.4,118.5 85.4,107 86.7,107.8 			"/>
		</g>
		<g>
			<polygon class="st31" points="86.7,107.8 85.4,107 126.3,83.6 127.6,84.3 			"/>
		</g>
		<g>
			<polygon class="st31" points="127.6,84.3 127.6,95.8 86.7,119.3 86.7,107.8 			"/>
		</g>
	</g>
	<g>
		<g>
			<g class="st8">
				<g>
					<polygon class="st25" points="47.3,83.6 47.3,84.4 45.9,83.6 45.9,82.8 					"/>
				</g>
				<g>
					<polygon class="st25" points="39.5,89 39.5,89.8 37.4,88.6 37.4,87.8 					"/>
				</g>
				<g>
					<polygon class="st26" points="48.8,83.6 48.8,84.4 39.5,89.8 39.5,89 					"/>
				</g>
				<g>
					<polygon class="st27" points="48.8,83.6 39.5,89 37.4,87.8 38.2,87.3 39.5,88.1 47.3,83.6 45.9,82.8 46.7,82.4 					"/>
				</g>
			</g>
		</g>
	</g>
	<g>
		<g>
			<polygon class="st32" points="47.9,84.1 47.9,94.6 40.3,99 40.3,88.5 			"/>
		</g>
		<g>
			<polygon class="st33" points="47.9,84.1 40.3,88.5 39.6,88.1 47.1,83.7 			"/>
		</g>
	</g>
	<g class="st8">
		<path class="st34" d="M49.8,66.5C49.8,66.5,49.8,66.4,49.8,66.5c-0.1-0.1-0.2-0.2-0.2-0.3c0,0,0-0.1-0.1-0.1
			c0-0.1-0.1-0.1-0.1-0.2c0,0,0-0.1,0-0.1c-0.1-0.1-0.1-0.2-0.2-0.3c0,0,0,0,0-0.1c0-0.1-0.1-0.2-0.1-0.3c0,0,0-0.1,0-0.1
			c0-0.1-0.1-0.2-0.1-0.2c0,0,0-0.1,0-0.1c0-0.1-0.1-0.2-0.1-0.3c0,0,0-0.1,0-0.1c0-0.1-0.1-0.3-0.1-0.4c0,0,0-0.1,0-0.1
			c0-0.1,0-0.2,0-0.3c0,0,0,0,0-0.1c0,0,0-0.1,0-0.2c0-0.1,0-0.2,0-0.3c0-0.1,0-0.1,0-0.2c0-0.1,0-0.2,0-0.3c0,0,0-0.1,0-0.1
			c0-0.2,0-0.3,0-0.5c0-0.2,0-0.3,0-0.5c0-0.1,0-0.1,0-0.2c0-0.1,0-0.2,0-0.3c0,0,0,0,0,0c0-0.2,0-0.4,0.1-0.6c0-0.1,0-0.1,0-0.2
			c0-0.2,0-0.3,0.1-0.5c0-0.1,0-0.1,0-0.2c0-0.2,0.1-0.4,0.1-0.6c0,0,0-0.1,0-0.1c0.1-0.2,0.1-0.4,0.2-0.7c0,0,0,0,0-0.1
			c0,0,0-0.1,0-0.1c0-0.2,0.1-0.3,0.1-0.5c0-0.1,0-0.1,0.1-0.2c0.1-0.2,0.1-0.4,0.2-0.6c0,0,0-0.1,0-0.1c0.1-0.2,0.2-0.4,0.3-0.7
			c0-0.1,0.1-0.1,0.1-0.2c0.1-0.2,0.1-0.3,0.2-0.5c0-0.1,0.1-0.1,0.1-0.2c0.1-0.2,0.2-0.4,0.3-0.6c0,0,0-0.1,0-0.1
			c0.1-0.2,0.2-0.4,0.3-0.6c0-0.1,0.1-0.1,0.1-0.2c0.1-0.2,0.2-0.3,0.3-0.5c0-0.1,0.1-0.1,0.1-0.2c0.1-0.2,0.2-0.4,0.3-0.5
			c0,0,0-0.1,0.1-0.1c0.1-0.2,0.3-0.4,0.4-0.6c0-0.1,0.1-0.1,0.1-0.2c0.1-0.1,0.2-0.3,0.3-0.4c0-0.1,0.1-0.1,0.1-0.2
			c0.1-0.2,0.2-0.3,0.4-0.5c0,0,0-0.1,0.1-0.1c0.2-0.2,0.3-0.4,0.5-0.5c0,0,0.1-0.1,0.1-0.1c0.1-0.1,0.2-0.3,0.4-0.4
			c0-0.1,0.1-0.1,0.1-0.2c0.1-0.1,0.3-0.3,0.4-0.4c0,0,0.1-0.1,0.1-0.1c0.2-0.2,0.3-0.3,0.5-0.5c0,0,0.1-0.1,0.1-0.1
			c0.1-0.1,0.3-0.2,0.4-0.3c0,0,0.1,0,0.1-0.1c0,0,0.1-0.1,0.1-0.1c0.1,0,0.1-0.1,0.2-0.1c0.1-0.1,0.2-0.1,0.3-0.2
			c0.1,0,0.1-0.1,0.2-0.1c0.1-0.1,0.2-0.1,0.3-0.2c0,0,0.1-0.1,0.1-0.1c0.1-0.1,0.3-0.2,0.4-0.3c0.1-0.1,0.3-0.2,0.4-0.2
			c0,0,0.1,0,0.1-0.1c0.1,0,0.2-0.1,0.2-0.1c0,0,0,0,0,0c0.2-0.1,0.4-0.2,0.5-0.2c0,0,0.1,0,0.1,0c0.1-0.1,0.3-0.1,0.4-0.1
			c0.1,0,0.1,0,0.2-0.1c0.1,0,0.3-0.1,0.4-0.1c0,0,0.1,0,0.1,0c0.2,0,0.3-0.1,0.5-0.1c0,0,0,0,0,0c0,0,0.1,0,0.1,0
			c0.1,0,0.2,0,0.3,0c0.1,0,0.1,0,0.2,0c0.1,0,0.2,0,0.3,0c0.1,0,0.1,0,0.2,0c0.1,0,0.2,0,0.2,0c0.1,0,0.1,0,0.2,0
			c0.1,0,0.2,0,0.2,0c0.1,0,0.1,0,0.2,0c0.1,0,0.1,0,0.2,0c0.1,0,0.1,0,0.2,0c0.1,0,0.1,0,0.2,0.1c0,0,0.1,0,0.1,0
			c0.1,0,0.2,0.1,0.2,0.1c0,0,0.1,0,0.1,0c0.1,0.1,0.2,0.1,0.3,0.2l0.7,0.4c-0.1-0.1-0.2-0.1-0.3-0.2c0,0-0.1,0-0.1,0
			c-0.1,0-0.2-0.1-0.2-0.1c0,0-0.1,0-0.1,0c-0.1,0-0.1,0-0.2-0.1c-0.1,0-0.1,0-0.2,0c-0.1,0-0.1,0-0.2,0c-0.1,0-0.1,0-0.2,0
			c-0.1,0-0.2,0-0.2,0c-0.1,0-0.1,0-0.2,0c-0.1,0-0.2,0-0.2,0c-0.1,0-0.1,0-0.2,0c-0.1,0-0.2,0-0.3,0c-0.1,0-0.1,0-0.2,0
			c-0.1,0-0.2,0-0.3,0c0,0-0.1,0-0.1,0c-0.2,0-0.3,0.1-0.5,0.1c0,0-0.1,0-0.1,0c-0.1,0-0.2,0.1-0.4,0.1c-0.1,0-0.1,0-0.2,0.1
			c-0.1,0-0.3,0.1-0.4,0.1c0,0-0.1,0-0.1,0c-0.2,0.1-0.4,0.1-0.5,0.2c-0.1,0-0.2,0.1-0.3,0.1c0,0-0.1,0-0.1,0.1
			c-0.1,0.1-0.3,0.2-0.4,0.2c-0.1,0.1-0.3,0.2-0.4,0.3c0,0-0.1,0.1-0.1,0.1c-0.1,0.1-0.2,0.1-0.3,0.2c-0.1,0-0.1,0.1-0.2,0.1
			c-0.1,0.1-0.2,0.1-0.3,0.2c-0.1,0-0.1,0.1-0.2,0.1c-0.1,0.1-0.1,0.1-0.2,0.2c-0.1,0.1-0.3,0.2-0.4,0.3c0,0-0.1,0.1-0.1,0.1
			c-0.2,0.1-0.3,0.3-0.5,0.5c0,0-0.1,0.1-0.1,0.1c-0.1,0.1-0.3,0.3-0.4,0.4c-0.1,0.1-0.1,0.1-0.1,0.2c-0.1,0.1-0.2,0.3-0.4,0.4
			c0,0-0.1,0.1-0.1,0.1c-0.2,0.2-0.3,0.4-0.5,0.5c0,0,0,0.1-0.1,0.1c-0.1,0.2-0.3,0.3-0.4,0.5c0,0.1-0.1,0.1-0.1,0.2
			c-0.1,0.1-0.2,0.3-0.3,0.4c0,0.1-0.1,0.1-0.1,0.2c-0.1,0.2-0.3,0.4-0.4,0.6c0,0,0,0.1-0.1,0.1c-0.1,0.2-0.2,0.3-0.3,0.5
			c0,0.1-0.1,0.1-0.1,0.2c-0.1,0.2-0.2,0.3-0.3,0.5c0,0.1-0.1,0.1-0.1,0.2c-0.1,0.2-0.2,0.4-0.3,0.6c0,0,0,0.1,0,0.1
			C51.1,55,51,55.2,51,55.4c0,0.1-0.1,0.1-0.1,0.2c-0.1,0.2-0.1,0.3-0.2,0.5c0,0.1-0.1,0.1-0.1,0.2c-0.1,0.2-0.2,0.4-0.3,0.7
			c0,0,0,0.1,0,0.1c-0.1,0.2-0.1,0.4-0.2,0.6c0,0.1,0,0.1-0.1,0.2c-0.1,0.2-0.1,0.3-0.1,0.5c0,0.1,0,0.1-0.1,0.2
			c-0.1,0.2-0.1,0.4-0.2,0.7c0,0,0,0.1,0,0.1c0,0.2-0.1,0.4-0.1,0.6c0,0.1,0,0.1,0,0.2c0,0.2-0.1,0.3-0.1,0.5c0,0.1,0,0.1,0,0.2
			c0,0.2-0.1,0.4-0.1,0.6c0,0.1,0,0.2,0,0.4c0,0.1,0,0.1,0,0.2c0,0.2,0,0.4,0,0.5c0,0.2,0,0.3,0,0.5c0,0,0,0.1,0,0.1
			c0,0.1,0,0.2,0,0.3c0,0.1,0,0.1,0,0.2c0,0.1,0,0.2,0,0.3c0,0.1,0,0.1,0,0.2c0,0.1,0,0.2,0.1,0.3c0,0,0,0.1,0,0.1
			c0,0.1,0.1,0.3,0.1,0.4c0,0,0,0.1,0,0.1c0,0.1,0.1,0.2,0.1,0.3c0,0,0,0.1,0,0.1c0,0.1,0.1,0.2,0.1,0.2c0,0,0,0.1,0,0.1
			c0,0.1,0.1,0.2,0.1,0.3c0,0,0,0,0,0.1c0.1,0.1,0.1,0.2,0.2,0.3c0,0,0,0.1,0,0.1c0,0.1,0.1,0.1,0.1,0.2c0,0,0,0.1,0.1,0.1
			c0,0.1,0.1,0.1,0.1,0.2c0,0,0,0.1,0.1,0.1c0.1,0.1,0.1,0.2,0.2,0.2c0,0,0,0,0,0c0.1,0.1,0.1,0.2,0.2,0.2c0,0,0,0,0.1,0.1
			c0.1,0.1,0.1,0.1,0.2,0.2c0,0,0.1,0,0.1,0.1c0.1,0,0.1,0.1,0.2,0.1c0,0,0.1,0,0.1,0.1c0.1,0.1,0.2,0.1,0.3,0.2l-0.7-0.4
			c-0.1-0.1-0.2-0.1-0.3-0.2c0,0-0.1,0-0.1-0.1c-0.1,0-0.1-0.1-0.2-0.1c0,0-0.1,0-0.1-0.1c-0.1,0-0.1-0.1-0.2-0.2c0,0,0,0-0.1-0.1
			c-0.1-0.1-0.2-0.2-0.2-0.2c0,0,0,0,0,0C50,66.6,49.9,66.6,49.8,66.5z"/>
		<g>
			<path class="st35" d="M58.1,47c-4.9,2.8-8.9,9.7-8.8,15.3c0,5.6,4,7.9,8.9,5.1c4.9-2.8,8.9-9.7,8.8-15.3C67,46.5,63,44.2,58.1,47
				z"/>
			<path class="st36" d="M54.2,67.6c1,0,2.2-0.4,3.5-1.1c4.6-2.7,8.3-9.1,8.3-14.4c0-3.3-1.5-5.3-3.9-5.3c-1,0-2.2,0.4-3.5,1.1
				c-4.6,2.7-8.3,9.1-8.3,14.4C50.3,65.6,51.8,67.6,54.2,67.6z"/>
		</g>
	</g>
	<g>
		<g>
			<g>
				<g class="st8">
					<g>
						<polygon class="st37" points="115.7,87.6 104.2,80.9 104.6,80.7 116,87.4 						"/>
					</g>
					<g>
						<polygon class="st38" points="102,95.5 90.5,88.8 104.2,80.9 115.7,87.6 						"/>
					</g>
					<g>
						<polygon class="st38" points="101.5,95.7 90.1,89.1 90.5,88.8 102,95.5 						"/>
					</g>
					<g>
						<polygon class="st39" points="101.5,97.5 90.1,90.9 90.1,89.1 101.5,95.7 						"/>
					</g>
					<g>
						<polygon class="st40" points="116,87.4 116,89.2 101.5,97.5 101.5,95.7 102,95.5 115.7,87.6 						"/>
					</g>
					<g>
						<polygon class="st41" points="112.3,77.1 100.8,70.5 106.1,67.4 117.6,74.1 						"/>
					</g>
					<g>
						<polygon class="st40" points="102.9,94.9 91.5,88.3 91.8,82.1 103.3,88.7 						"/>
					</g>
					<g>
						<polygon class="st41" points="99.3,84.6 87.8,78 100.8,70.5 112.3,77.1 						"/>
					</g>
					<g>
						<path class="st39" d="M117.6,74.1l-3.3,8.2l0.4,5.8l-11.8,6.8l0.4-6.2c-2.2,1.3-4-0.2-4-3.3c0-0.3,0-2.2,0-2.5l13-5.8
							L117.6,74.1z"/>
					</g>
					<g>
						<g class="st8">
							<path class="st30" d="M95.5,85.9l-6.3-3.7c-0.9-0.5-1.5-1.8-1.5-3.5c0-0.3,0-0.5,0-0.8l11.5,5.1c0,0.3,0,2.1,0,2.3
								c0,1.7,0.6,3,1.5,3.5l0,0L95.5,85.9L95.5,85.9z"/>
						</g>
					</g>
				</g>
			</g>
			<g>
				<g class="st8">
					<g>
						<polygon class="st42" points="113,76.7 99.4,68.8 99.4,68.6 113,76.5 						"/>
					</g>
					<g>
						<polygon class="st42" points="113,76.5 99.4,68.6 99.4,68.3 113,76.2 						"/>
					</g>
					<g>
						<polygon class="st29" points="113,76.2 99.4,68.3 99.4,62.2 113,70.1 						"/>
					</g>
					<g>
						<defs>
							<path id="SVGID_12_" d="M104.4,50.5l13.6,7.9c-0.1-0.1-0.3-0.1-0.5,0l-13.6-7.9C104.1,50.4,104.3,50.4,104.4,50.5z"/>
						</defs>
						<use xlink:href="#SVGID_12_"  style="overflow:visible;fill:#E1E4EA;"/>
						<clipPath id="SVGID_13_">
							<use xlink:href="#SVGID_12_"  style="overflow:visible;"/>
						</clipPath>
						<g class="st43">
							<path class="st30" d="M117.5,58.5l-13.6-7.9c0.1-0.1,0.3-0.1,0.4-0.1l13.6,7.9C117.8,58.4,117.6,58.4,117.5,58.5L117.5,58.5z
								"/>
							<path class="st30" d="M117.9,58.4l-13.6-7.9c0.1,0,0.1,0,0.2,0.1l13.6,7.9C118,58.4,117.9,58.4,117.9,58.4L117.9,58.4z"/>
						</g>
					</g>
					<g>
						<polygon class="st29" points="113,70.1 99.4,62.2 99.4,54.2 113,62.1 						"/>
					</g>
					<g>
						<polygon class="st30" points="113.8,60.6 100.1,52.7 103.9,50.6 117.5,58.5 						"/>
					</g>
					<g>
						<defs>
							<path id="SVGID_14_" d="M113,62.1l-13.6-7.9c0-0.5,0.4-1.2,0.8-1.4l13.6,7.9C113.3,60.9,113,61.5,113,62.1z"/>
						</defs>
						<use xlink:href="#SVGID_14_"  style="overflow:visible;fill:#E1E4EA;"/>
						<clipPath id="SVGID_15_">
							<use xlink:href="#SVGID_14_"  style="overflow:visible;"/>
						</clipPath>
						<g class="st44">
							<path class="st29" d="M113,62.1l-13.6-7.9c0-0.2,0-0.4,0.1-0.6l13.6,7.9C113,61.7,113,61.9,113,62.1L113,62.1z"/>
							<path class="st29" d="M113.1,61.5l-13.6-7.9c0-0.1,0.1-0.2,0.2-0.4l13.6,7.9C113.2,61.2,113.1,61.3,113.1,61.5L113.1,61.5z"
								/>
							<path class="st30" d="M113.3,61.1l-13.6-7.9c0.1-0.2,0.3-0.4,0.5-0.5l13.6,7.9C113.6,60.7,113.4,60.9,113.3,61.1L113.3,61.1z
								"/>
						</g>
					</g>
					<g>
						<path class="st40" d="M117.5,58.5c0.4-0.3,0.8,0,0.8,0.5l0,8.1l0,6.1l0,0.3l-0.1,0.2l-5.2,3l0-0.2l0-0.3l0-6.1l0-8.1
							c0-0.5,0.4-1.2,0.8-1.4L117.5,58.5z"/>
					</g>
				</g>
			</g>
			<g>
				<g class="st8">
					<g class="st8">
						<g class="st8">
							<path class="st45" d="M104.3,80.6c-0.6,0.4-1.4,0.7-2.1,0.9c-1.9,0.6-4,0.8-6.1,0.7l0,1.3c2.1,0.2,4.2,0,6.1-0.7
								c0.8-0.2,1.5-0.6,2.1-0.9l8.8-5.1l0-1.3L104.3,80.6z"/>
							<path class="st45" d="M96.1,82.2l0,1.3c-2-0.2-3.9-0.7-5.5-1.6c-1.9-1.1-2.9-2.5-2.8-4l0-1.3c0,1.4,0.9,2.9,2.8,4
								C92.2,81.5,94.1,82.1,96.1,82.2L96.1,82.2z"/>
						</g>
					</g>
					<g>
						<path class="st46" d="M113,75.5l-8.8,5.1c-3.8,2.2-9.9,2.2-13.6,0c-3.8-2.2-3.8-5.7,0-7.9l8.8-5.1L113,75.5z"/>
					</g>
				</g>
			</g>
			<g>
				<g class="st8">
					<g>
						<path class="st47" d="M109.4,54.6c0.6,0.4,0.5,0.9,0,1.3c-0.6,0.3-1.5,0.3-2.1,0s-0.5-0.9,0-1.3
							C107.9,54.2,108.9,54.2,109.4,54.6z"/>
					</g>
					<g>
						<path class="st24" d="M109.4,54.5c0.6,0.3,0.5,0.9,0,1.2s-1.5,0.3-2.1,0c-0.6-0.3-0.5-0.9,0-1.2
							C107.9,54.2,108.9,54.2,109.4,54.5z"/>
					</g>
				</g>
			</g>
		</g>
		<path class="st48" d="M113,75.5l-8.8,5.1c-3.8,2.2-9.9,2.2-13.6,0c-3.8-2.2-3.8-5.7,0-7.9l8.8-5.1L113,75.5z"/>
		<g>
			<g class="st8">
				<g>
					<polygon class="st49" points="111.8,76.3 113,75.6 113.1,65.1 111.9,65.8 					"/>
				</g>
				<g class="st8">
					<defs>
						<path id="SVGID_16_" class="st8" d="M101.4,52.8l-1.2,0.7c1.2-0.7,3-0.6,4.9,0.5l1.2-0.7C104.4,52.2,102.6,52.1,101.4,52.8z"
							/>
					</defs>
					<clipPath id="SVGID_17_">
						<use xlink:href="#SVGID_16_"  style="overflow:visible;"/>
					</clipPath>
					<g class="st50">
						<path class="st49" d="M105,54l1.2-0.7c-0.7-0.4-1.4-0.7-2.1-0.8l-1.2,0.7C103.6,53.3,104.3,53.6,105,54L105,54z"/>
						<path class="st49" d="M103,53.2l1.2-0.7c-1-0.2-1.9-0.1-2.7,0.3l-1.2,0.7C101.1,53.1,102,53,103,53.2L103,53.2z"/>
						<path class="st51" d="M100.3,53.5l1.2-0.7c0,0-0.1,0-0.1,0.1l-1.2,0.7C100.2,53.5,100.3,53.5,100.3,53.5L100.3,53.5z"/>
					</g>
				</g>
				<g class="st8">
					<defs>
						<path id="SVGID_18_" class="st8" d="M111.9,65.8l1.2-0.7c0-4.3-3-9.6-6.8-11.8L105,54C108.8,56.2,111.9,61.5,111.9,65.8z"/>
					</defs>
					<clipPath id="SVGID_19_">
						<use xlink:href="#SVGID_18_"  style="overflow:visible;"/>
					</clipPath>
					<g class="st52">
						<path class="st49" d="M111.9,65.8l1.2-0.7c0-1.7-0.4-3.5-1.2-5.2l-1.2,0.7C111.4,62.3,111.9,64.1,111.9,65.8L111.9,65.8z"/>
						<path class="st49" d="M110.7,60.6l1.2-0.7c-0.6-1.3-1.4-2.6-2.3-3.7l-1.2,0.7C109.3,58,110.1,59.3,110.7,60.6L110.7,60.6z"/>
						<path class="st49" d="M108.4,56.9l1.2-0.7c-1-1.2-2.1-2.2-3.3-2.9L105,54C106.2,54.7,107.4,55.7,108.4,56.9L108.4,56.9z"/>
					</g>
				</g>
				<g>
					<path class="st53" d="M105,54c-3.8-2.2-6.8-0.4-6.8,3.9l0,10.5l13.7,7.9l0-10.5C111.9,61.5,108.8,56.2,105,54z"/>
				</g>
			</g>
		</g>
	</g>
	<g>
		<path class="st39" d="M107.7,76.2l1.1-0.6l-5.6,3.2c-1,0.6-2.4,1-3.8,1.2v-8.6L107.7,76.2z"/>
		<path class="st39" d="M89.9,76.7c0,0.1,0,0.2,0,0.3C90,76.9,89.9,76.8,89.9,76.7z"/>
		<path class="st54" d="M90.1,77.3c0.3-0.5,0.8-1,1.6-1.5l7.7-4.5V80c-0.6,0.1-1.3,0.1-1.9,0.1c-2.2,0-4.3-0.5-5.8-1.3
			c-0.9-0.5-1.6-1.2-1.7-1.8C90,77.1,90.1,77.2,90.1,77.3z"/>
		<path class="st40" d="M90,77C90,77,90,77,90,77C90,77,90,77,90,77z"/>
		<path class="st55" d="M91.7,75.8c-0.8,0.4-1.3,1-1.6,1.5C90.1,77.2,90,77.1,90,77c0,0,0,0,0,0c0-0.1,0-0.2,0-0.3
			c0-0.7,0.6-1.4,1.7-2.1l7.7-4.5v1.2L91.7,75.8z"/>
		<polygon class="st40" points="99.4,71.4 99.4,70.1 108.8,75.6 107.7,76.2 		"/>
	</g>
	<g>
		<g class="st8">
			<g>
				<polygon class="st56" points="160,140.1 158.8,139.4 158.8,143.5 160,144.2 				"/>
			</g>
			<g>
				<polygon class="st57" points="161.3,139.3 160.1,138.7 158.8,139.4 160,140.1 				"/>
			</g>
			<g>
				<polygon class="st58" points="160,140.1 160,144.2 161.3,143.4 161.3,139.3 				"/>
			</g>
		</g>
	</g>
	<g>
		<g class="st8">
			<g>
				<polygon class="st59" points="122.3,118.4 121.2,117.7 121.2,121.8 122.3,122.5 				"/>
			</g>
			<g>
				<polygon class="st57" points="123.6,117.6 122.5,117 121.2,117.7 122.3,118.4 				"/>
			</g>
			<g>
				<polygon class="st58" points="122.3,118.4 122.3,122.5 123.6,121.7 123.6,117.6 				"/>
			</g>
		</g>
	</g>
	<g>
		<g class="st8">
			<g>
				<polygon class="st58" points="177,130.3 175.9,129.7 175.9,133.7 177,134.4 				"/>
			</g>
			<g>
				<polygon class="st57" points="178.3,129.6 177.2,128.9 175.9,129.7 177,130.3 				"/>
			</g>
			<g>
				<polygon class="st60" points="177,130.3 177,134.4 178.3,133.7 178.3,129.6 				"/>
			</g>
		</g>
	</g>
	<g>
		<g class="st8">
			<g>
				<polygon class="st61" points="139.2,98.7 137.8,97.9 137.8,99.6 139.2,100.4 				"/>
			</g>
			<g>
				<polygon class="st62" points="140.7,97.9 139.3,97.1 137.7,98 139.1,98.8 				"/>
			</g>
			<g>
				<polygon class="st62" points="139.2,100.4 137.8,99.6 122.8,108.4 124.1,109.1 				"/>
			</g>
			<g>
				<polygon class="st59" points="122.5,110.1 121.1,109.3 121.2,120.2 122.5,121 				"/>
			</g>
			<g>
				<polygon class="st59" points="122.5,108.4 121.1,107.6 121.1,109.3 122.5,110.1 				"/>
			</g>
			<g>
				<polygon class="st62" points="124.1,107.5 122.8,106.7 121.1,107.6 122.5,108.4 				"/>
			</g>
			<g>
				<polygon class="st56" points="122.5,108.4 122.5,110.1 122.5,121 140.9,110.3 140.8,99.5 140.8,97.8 139.2,98.7 139.2,100.4 
					124.1,109.1 124.1,107.5 				"/>
			</g>
		</g>
	</g>
	<g>
		<g class="st8">
			<g>
				<polygon class="st63" points="122.5,116.9 122.5,121 160,142.9 160,138.8 				"/>
			</g>
			<g>
				<polygon class="st64" points="122.5,116.9 160,138.8 178.3,128.2 140.8,106.3 				"/>
			</g>
		</g>
	</g>
	<g>
		<g class="st8">
			<g>
				<polygon class="st63" points="122.5,113 122.5,117 160,138.9 160,134.9 				"/>
			</g>
			<g>
				<polygon class="st65" points="122.5,113 160,134.9 178.3,124.3 140.8,102.4 				"/>
			</g>
		</g>
	</g>
	<g>
		<g class="st8">
			<g>
				<polygon class="st66" points="122.5,113 122.5,114.9 160,136.8 160,134.9 				"/>
			</g>
			<g>
				<polygon class="st67" points="123.6,113.7 145.4,126.4 145.4,128.2 123.6,115.5 				"/>
			</g>
			<g>
				<polygon class="st68" points="160,134.9 160,136.8 178.3,126.2 178.3,124.3 				"/>
			</g>
			<g>
				<polygon class="st69" points="122.5,113 160,134.9 178.3,124.3 140.8,102.4 				"/>
			</g>
			<g>
				<polygon class="st70" points="123.7,113.7 145.4,126.4 163.7,115.7 141.9,103 				"/>
			</g>
		</g>
	</g>
	<g>
		<g class="st8">
			<g>
				<polygon class="st71" points="150.8,124.3 150.8,126.1 159.3,131.3 159.3,126.5 				"/>
			</g>
			<g>
				<polygon class="st67" points="159.3,126.5 159.3,131.3 171.4,124.3 171.4,120.7 				"/>
			</g>
			<g>
				<polygon class="st70" points="150.8,124.3 159.3,127.7 171.4,120.7 162.9,117.3 				"/>
			</g>
		</g>
	</g>
	<g>
		<g class="st8">
			<g>
				<polygon class="st61" points="176.7,116.3 175.3,115.5 175.3,119.4 176.7,120.2 				"/>
			</g>
			<g>
				<polygon class="st62" points="178.3,115.3 176.9,114.6 175.3,115.5 176.7,116.3 				"/>
			</g>
			<g>
				<polygon class="st62" points="175.3,119.4 161.6,127.3 161.4,128.2 161.4,128.8 161.6,128.9 176.7,120.2 				"/>
			</g>
			<polygon class="st59" points="160,126 160,129.9 160,142.9 158.7,142.1 158.6,129.1 158.6,125.2 			"/>
			<g>
				<polygon class="st62" points="161.6,125 160.2,124.3 158.6,125.2 160,126 				"/>
			</g>
			<polygon class="st56" points="161.6,125 161.6,128.9 176.7,120.2 176.7,116.3 178.3,115.3 178.3,119.2 178.3,122.6 178.3,122.6 
				178.3,124.5 178.3,124.6 178.3,124.6 178.3,128.3 178.3,128.3 178.3,132.2 160,142.9 160,138.8 160,138.8 160,136.9 160,136.9 
				160,129.9 160,126 			"/>
		</g>
	</g>
	<g class="st8">
		<g>
			<polygon class="st72" points="156.1,144.5 146.8,139.1 146.8,130.8 156.1,136.2 			"/>
		</g>
		<g class="st8">
			<g class="st8">
				<path class="st73" d="M154.5,142.2l-9.3-5.4c0.1,0.1,0.2,0,0.3,0l9.3,5.4C154.7,142.2,154.6,142.2,154.5,142.2L154.5,142.2z"/>
			</g>
		</g>
		<g class="st8">
			<g class="st8">
				<path class="st73" d="M154.8,142.1l-9.3-5.4c0.3-0.2,0.5-0.5,0.5-0.8c0-0.1-0.1-0.3-0.1-0.3l9.3,5.4c0.1,0,0.1,0.2,0.1,0.3
					C155.3,141.6,155.1,142,154.8,142.1L154.8,142.1z"/>
			</g>
		</g>
		<g class="st8">
			<g class="st8">
				<path class="st74" d="M154.8,141l-9.3-5.4c0.1-0.1,0.3-0.1,0.3,0l9.3,5.4C155.1,141,155,141,154.8,141L154.8,141z"/>
			</g>
		</g>
		<g class="st8">
			<g class="st8">
				<path class="st74" d="M154.5,142.2l-9.3-5.4c-0.1,0-0.1-0.2-0.1-0.3c0-0.3,0.2-0.7,0.5-0.8l9.3,5.4c-0.3,0.2-0.5,0.5-0.5,0.8
					C154.3,142,154.4,142.1,154.5,142.2L154.5,142.2z"/>
			</g>
		</g>
		<g>
			<polygon class="st72" points="156.1,135.2 146.8,129.7 146.8,125.9 156.1,131.3 			"/>
		</g>
		<g>
			<polygon class="st75" points="144,151.5 134.7,146.1 146.8,139.1 156.1,144.5 			"/>
		</g>
		<g>
			<polygon class="st76" points="144,143.2 134.7,137.7 146.8,130.8 156.1,136.2 			"/>
		</g>
		<g>
			<polygon class="st75" points="144,142.1 134.7,136.7 146.8,129.7 156.1,135.2 			"/>
		</g>
		<g class="st8">
			<g class="st8">
				<path class="st73" d="M154.8,134.5l-9.3-5.4c0.3-0.2,0.5-0.5,0.5-0.8c0-0.2-0.1-0.3-0.1-0.3l9.3,5.4c0.1,0,0.1,0.2,0.1,0.3
					C155.3,134,155.1,134.3,154.8,134.5L154.8,134.5z"/>
			</g>
		</g>
		<g class="st8">
			<g class="st8">
				<path class="st73" d="M154.5,134.5l-9.3-5.4c0.1,0.1,0.2,0,0.3,0l9.3,5.4C154.7,134.6,154.6,134.6,154.5,134.5L154.5,134.5z"/>
			</g>
		</g>
		<g class="st8">
			<g class="st8">
				<path class="st75" d="M143.3,153.3l-9.3-5.4c0,0,0,0,0,0L143.3,153.3C143.3,153.3,143.3,153.3,143.3,153.3L143.3,153.3z"/>
			</g>
		</g>
		<g class="st8">
			<g class="st8">
				<path class="st74" d="M154.8,133.4l-9.3-5.4c0.1-0.1,0.3-0.1,0.3,0l9.3,5.4C155.1,133.3,154.9,133.3,154.8,133.4L154.8,133.4z"
					/>
			</g>
		</g>
		<g class="st8">
			<g class="st8">
				<path class="st74" d="M154.5,134.5l-9.3-5.4c-0.1,0-0.1-0.2-0.1-0.3c0-0.3,0.2-0.7,0.5-0.8l9.3,5.4c-0.3,0.2-0.5,0.5-0.5,0.8
					C154.3,134.4,154.4,134.5,154.5,134.5L154.5,134.5z"/>
			</g>
		</g>
		<g>
			<polygon class="st77" points="156.1,129.9 146.8,124.5 147.5,124 156.8,129.5 			"/>
		</g>
		<g>
			<polygon class="st78" points="156.1,130.2 146.8,124.8 146.8,124.5 156.1,129.9 			"/>
		</g>
		<g>
			<polygon class="st79" points="144,151.5 134.7,146.1 134.7,137.7 144,143.2 			"/>
		</g>
		<g>
			<polygon class="st76" points="144,138.2 134.7,132.8 146.8,125.9 156.1,131.3 			"/>
		</g>
		<g>
			<polygon class="st79" points="144,142.1 134.7,136.7 134.7,132.8 144,138.2 			"/>
		</g>
		<g>
			<polygon class="st80" points="144,137.1 134.7,131.7 146.8,124.8 156.1,130.2 			"/>
		</g>
		<g>
			<polygon class="st78" points="143.3,153.3 134,147.9 133.9,132.6 143.2,138 			"/>
		</g>
		<g>
			<polygon class="st78" points="143.2,138 133.9,132.6 133.9,132.2 143.2,137.6 			"/>
		</g>
		<g>
			<polygon class="st78" points="143.2,137.6 133.9,132.2 133.9,131.9 143.2,137.3 			"/>
		</g>
		<path class="st81" d="M156.8,130.2l0-0.5l0-0.3l-0.7,0.4l0,0.3l-12.1,7l0-0.3l-0.7,0.4l0,0.3l0,0.5l0,15.3c0,0.3,3-1.3,6.8-3.4
			c3.7-2.2,6.8-4.1,6.8-4.4L156.8,130.2z"/>
		<g>
			<polygon class="st77" points="143.2,137.3 133.9,131.9 134.7,131.5 144,136.9 			"/>
		</g>
	</g>
	<g>
		<g>
			<polygon class="st82" points="55.3,104.7 55.3,105.2 66.6,111.8 66.6,111.3 			"/>
		</g>
		<g>
			<polygon class="st83" points="66.6,111.3 66.6,111.8 78,105.2 78,104.7 			"/>
		</g>
		<polygon class="st84" points="55.3,104.7 66.6,111.3 78,104.7 66.7,98.1 		"/>
	</g>
	<g>
		<g>
			<polygon class="st82" points="62.5,80.9 62.5,105.1 66.6,107.5 66.6,83.3 			"/>
		</g>
		<g>
			<polygon class="st83" points="66.6,83.3 66.6,107.5 70.8,105.1 70.8,80.9 			"/>
		</g>
		<polygon class="st84" points="62.5,80.9 66.6,83.3 70.8,80.9 66.7,78.5 		"/>
	</g>
	<path class="st29" d="M80.4,79l0-3.8c0,2-1.3,4.1-4,5.6l0,3.8C79,83.1,80.4,81,80.4,79z"/>
	<g>
		<path class="st82" d="M55.3,82c0.2,0.1,0.4,0.2,0.6,0.3c0.1,0,0.1,0.1,0.2,0.1c0.2,0.1,0.3,0.1,0.5,0.2c0.1,0,0.1,0.1,0.2,0.1
			c0.2,0.1,0.4,0.2,0.6,0.2c0,0,0.1,0,0.1,0c0.2,0.1,0.4,0.2,0.7,0.2c5.2,1.7,11.9,1.3,16.3-1.3l1.9-1.1c2.7-1.6,4-3.6,4-5.6l0,3.8
			c0,2-1.3,4.1-4,5.6l-1.9,1.1c-4.4,2.6-11.1,3-16.3,1.3v0c0,0,0,0-0.1,0c-0.2-0.1-0.5-0.2-0.7-0.2c0,0-0.1,0-0.1,0
			c-0.2-0.1-0.4-0.1-0.6-0.2c-0.1,0-0.1-0.1-0.2-0.1c-0.2-0.1-0.3-0.1-0.5-0.2c-0.1,0-0.1-0.1-0.2-0.1c-0.2-0.1-0.4-0.2-0.6-0.3
			L50,82.8l0-3.8L55.3,82z"/>
	</g>
	<path class="st85" d="M50.1,79l5.5,3.2c5.3,3,13.8,3,19.1-0.1l1.9-1.1c5.3-3.1,5.4-8,0.2-11.1l-5.3-3.1L50.1,79z"/>
	<path class="st86" d="M64.7,82.4c3.3,0,6.4-0.7,8.7-2.1l1.9-1.1c2-1.1,3.1-2.6,3.1-4c0-1.4-1-2.8-2.9-3.9l-4.3-2.5L53.7,79l2.5,1.4
		C58.5,81.7,61.5,82.4,64.7,82.4z"/>
	<path class="st83" d="M75.6,73.1l-4.3-2.5l-16,9.2L53.7,79l17.6-10.1l4.3,2.5c1.9,1.1,2.9,2.5,2.9,3.9c0,0.3-0.1,0.6-0.1,0.9
		C78,75,77.1,74,75.6,73.1z"/>
	<g>
		<g class="st8">
			<g>
				<polygon class="st87" points="62,68.3 62.8,67.8 62.8,72.7 62,73.2 				"/>
			</g>
			<g class="st8">
				<g>
					<path class="st87" d="M62.3,67.6l0.8-0.5c-0.2,0.1-0.3,0.3-0.3,0.5L62,68.1C62,67.9,62.1,67.7,62.3,67.6L62.3,67.6z"/>
					<path class="st87" d="M62,68.1l0.8-0.5c0,0.1,0,0.1,0,0.2L62,68.3C62,68.2,62,68.2,62,68.1L62,68.1z"/>
				</g>
			</g>
			<g>
				<polygon class="st88" points="63.9,69.9 64.7,69.4 64.8,69.5 64,70 				"/>
			</g>
			<g>
				<polygon class="st87" points="64.7,70.4 65.5,69.9 65.5,70.3 64.7,70.8 				"/>
			</g>
			<g>
				<polygon class="st88" points="64.6,70.3 65.4,69.9 65.5,69.9 64.7,70.4 				"/>
			</g>
			<g>
				<defs>
					<path id="SVGID_20_" d="M61.9,66.8l0.8-0.5c0.3-0.1,0.6-0.2,1.1,0.1L63,67C62.5,66.7,62.1,66.7,61.9,66.8z"/>
				</defs>
				<use xlink:href="#SVGID_20_"  style="overflow:visible;fill:#9ED7E2;"/>
				<clipPath id="SVGID_21_">
					<use xlink:href="#SVGID_20_"  style="overflow:visible;"/>
				</clipPath>
				<g class="st89">
					<path class="st90" d="M61.9,66.8l0.8-0.5c0.1-0.1,0.3-0.1,0.4-0.1l-0.8,0.5C62.1,66.7,62,66.7,61.9,66.8L61.9,66.8z"/>
					<path class="st90" d="M62.3,66.7l0.8-0.5c0.1,0,0.2,0,0.3,0.1l-0.8,0.5C62.5,66.7,62.4,66.7,62.3,66.7L62.3,66.7z"/>
					<path class="st90" d="M62.6,66.8l0.8-0.5c0.1,0,0.2,0.1,0.4,0.2L63,67C62.9,66.9,62.8,66.8,62.6,66.8L62.6,66.8z"/>
				</g>
			</g>
			<g class="st8">
				<defs>
					<path id="SVGID_22_" class="st8" d="M63,67l0.8-0.5c0.1,0,0.1,0.1,0.2,0.1c0.4,0.3,0.7,0.7,1,1.1c0.4,0.8,0.5,1.7,0.5,2.1
						l-0.8,0.5c0-0.4,0-1.3-0.5-2.1c-0.2-0.5-0.6-0.9-1-1.1C63.1,67,63.1,67,63,67z"/>
				</defs>
				<use xlink:href="#SVGID_22_"  style="overflow:visible;fill:#9ED7E2;"/>
				<clipPath id="SVGID_23_">
					<use xlink:href="#SVGID_22_"  style="overflow:visible;"/>
				</clipPath>
				<g class="st91">
					<path class="st92" d="M63,67l0.8-0.5c0,0,0,0,0,0L63,67C63,67,63,67,63,67L63,67z"/>
					<path class="st90" d="M63,67l0.8-0.5c0,0,0.1,0.1,0.1,0.1c0.1,0.1,0.2,0.1,0.2,0.2l-0.8,0.5c-0.1-0.1-0.2-0.1-0.2-0.2
						C63.1,67,63.1,67,63,67L63,67z"/>
					<path class="st90" d="M63.4,67.2l0.8-0.5c0.3,0.3,0.5,0.6,0.7,1c0.1,0.2,0.2,0.4,0.2,0.6l-0.8,0.5c-0.1-0.2-0.1-0.4-0.2-0.6
						C64,67.8,63.7,67.5,63.4,67.2L63.4,67.2z"/>
					<path class="st90" d="M64.4,68.8l0.8-0.5c0.1,0.2,0.1,0.5,0.2,0.7l-0.8,0.5C64.5,69.3,64.5,69,64.4,68.8L64.4,68.8z"/>
					<path class="st90" d="M64.6,69.5l0.8-0.5c0.1,0.4,0.1,0.7,0.1,0.8l-0.8,0.5C64.6,70.1,64.6,69.8,64.6,69.5L64.6,69.5z"/>
					<polygon class="st93" points="64.6,70.3 65.4,69.9 65.4,69.9 64.6,70.3 64.6,70.3 					"/>
				</g>
			</g>
			<g>
				<path class="st94" d="M63,67c0.1,0,0.1,0.1,0.2,0.1c0.4,0.3,0.7,0.7,1,1.1c0.4,0.8,0.5,1.7,0.5,2.1l0.1,0.1l0,0.4l-0.8-0.5
					l0-0.4L64,70c0-0.4,0-1-0.3-1.6c-0.1-0.3-0.3-0.5-0.6-0.6c0,0-0.1,0-0.1-0.1c-0.9-0.5-1,0.4-1,0.6l0,4.9l-0.6-0.4l0-4.9l0,0
					C61.4,67.2,61.8,66.3,63,67z"/>
			</g>
		</g>
	</g>
	<path class="st95" d="M66.2,80.5c-0.1-0.7,0.5-1.4,1.5-1.5c0.9-0.2,1.8,0.2,2,0.9c0.1,0.7-0.5,1.4-1.5,1.5
		C67.2,81.6,66.3,81.2,66.2,80.5z"/>
	<g>
		<polygon class="st96" points="33.6,65.5 33.6,111.2 14.6,129.7 13.9,129.3 13.9,76.9 		"/>
	</g>
	<polygon class="st84" points="13.9,76.9 14.6,77.4 34.3,66 34.3,65 	"/>
	<g>
		<polygon class="st83" points="34.3,65.9 34.3,111.7 14.6,123.1 14.7,77.4 		"/>
	</g>
	<g class="st97">
		<polygon class="st98" points="54.1,77.4 54,123.6 34.3,112.2 34.3,65.9 		"/>
	</g>
	<g>
		<polygon class="st86" points="54.1,122.3 54,129.7 34.4,141.1 34.4,133.8 		"/>
	</g>
	<g>
		<polygon class="st83" points="34.4,133.8 34.4,141.1 14.6,129.7 14.6,122.3 		"/>
	</g>
	<g>
		<polygon class="st83" points="34.4,133.8 34.4,141.1 14.6,129.7 14.6,122.3 		"/>
	</g>
	<polygon class="st84" points="54.1,122.3 34.4,133.8 14.6,122.3 34.3,110.9 	"/>
	<polygon class="st99" points="17.5,122.3 34.3,112.6 51.2,122.3 34.4,132.1 	"/>
	<polygon class="st99" points="17.5,122.3 34.3,112.6 51.2,122.3 34.4,132.1 	"/>
	<polygon class="st100" points="45.8,125.4 34.3,118.8 22.9,125.4 34.4,132.1 	"/>
	<g>
		<polygon class="st82" points="34.3,112.6 34.3,118.8 45.8,125.4 51.2,122.3 		"/>
		<polygon class="st83" points="17.5,122.3 22.9,125.4 34.3,118.8 34.3,112.6 		"/>
	</g>
	<polygon class="st101" points="54.1,77.4 54.1,122.3 34.4,133.8 34.4,88.8 	"/>
	<polygon class="st101" points="34.4,88.8 34.4,133.8 14.6,122.3 14.7,77.4 	"/>
	<g>
		<g class="st8">
			<g>
				<path class="st102" d="M26.7,85.8l0.8,0.5c-0.2-0.1-0.5-0.1-0.7,0.1l-0.8-0.5C26.2,85.7,26.5,85.7,26.7,85.8z"/>
			</g>
			<g>
				<path class="st102" d="M26,88.8l-0.8-0.5c-0.2-0.1-0.3-0.3-0.3-0.7c0-0.7,0.5-1.5,1-1.8l0.8,0.5c-0.6,0.3-1,1.1-1,1.8
					C25.7,88.5,25.8,88.7,26,88.8z"/>
			</g>
			<g>
				<path class="st103" d="M26.7,86.3c0.6-0.3,1-0.1,1,0.6c0,0.7-0.5,1.5-1,1.8c-0.6,0.3-1,0.1-1-0.6C25.7,87.5,26.2,86.7,26.7,86.3
					z"/>
			</g>
		</g>
	</g>
	<g class="st8">
		<g>
			<polygon class="st31" points="37.3,147.7 36,146.9 36,135.4 37.3,136.2 			"/>
		</g>
		<g>
			<polygon class="st31" points="37.3,136.2 36,135.4 66.5,117.9 67.8,118.7 			"/>
		</g>
		<g>
			<polygon class="st31" points="67.8,118.7 67.8,130.2 37.3,147.7 37.3,136.2 			"/>
		</g>
	</g>
	<g class="st8">
		<g>
			<polygon class="st72" points="133,158 123.7,152.6 123.7,144.2 133,149.6 			"/>
		</g>
		<g class="st8">
			<g class="st8">
				<path class="st73" d="M131.4,155.6l-9.3-5.4c0.1,0.1,0.2,0,0.3,0l9.3,5.4C131.6,155.7,131.5,155.7,131.4,155.6L131.4,155.6z"/>
			</g>
		</g>
		<g class="st8">
			<g class="st8">
				<path class="st73" d="M131.7,155.6l-9.3-5.4c0.3-0.2,0.5-0.5,0.5-0.8c0-0.1-0.1-0.3-0.1-0.3l9.3,5.4c0.1,0.1,0.1,0.2,0.1,0.3
					C132.2,155.1,132,155.4,131.7,155.6L131.7,155.6z"/>
			</g>
		</g>
		<g class="st8">
			<g class="st8">
				<path class="st74" d="M131.7,154.5l-9.3-5.4c0.1-0.1,0.3-0.1,0.3,0l9.3,5.4C132,154.4,131.9,154.4,131.7,154.5L131.7,154.5z"/>
			</g>
		</g>
		<g class="st8">
			<g class="st8">
				<path class="st74" d="M131.4,155.6l-9.3-5.4c-0.1,0-0.1-0.2-0.1-0.3c0-0.3,0.2-0.7,0.5-0.8l9.3,5.4c-0.3,0.2-0.5,0.5-0.5,0.8
					C131.3,155.5,131.3,155.6,131.4,155.6L131.4,155.6z"/>
			</g>
		</g>
		<g>
			<polygon class="st72" points="133,148.6 123.7,143.2 123.7,139.3 133,144.7 			"/>
		</g>
		<g>
			<polygon class="st75" points="120.9,165 111.6,159.6 123.7,152.6 133,158 			"/>
		</g>
		<g>
			<polygon class="st76" points="120.9,156.6 111.6,151.2 123.7,144.2 133,149.6 			"/>
		</g>
		<g>
			<polygon class="st75" points="120.9,155.6 111.6,150.2 123.7,143.2 133,148.6 			"/>
		</g>
		<g class="st8">
			<g class="st8">
				<path class="st73" d="M131.7,148l-9.3-5.4c0.3-0.2,0.5-0.5,0.5-0.8c0-0.2-0.1-0.3-0.1-0.3l9.3,5.4c0.1,0,0.1,0.2,0.1,0.3
					C132.2,147.4,132,147.8,131.7,148L131.7,148z"/>
			</g>
		</g>
		<g class="st8">
			<g class="st8">
				<path class="st73" d="M131.4,148l-9.3-5.4c0.1,0.1,0.2,0,0.3,0l9.3,5.4C131.6,148,131.5,148,131.4,148L131.4,148z"/>
			</g>
		</g>
		<g class="st8">
			<g class="st8">
				<path class="st75" d="M120.2,166.8l-9.3-5.4c0,0,0,0,0,0L120.2,166.8C120.2,166.8,120.2,166.8,120.2,166.8L120.2,166.8z"/>
			</g>
		</g>
		<g class="st8">
			<g class="st8">
				<path class="st74" d="M131.7,146.9l-9.3-5.4c0.1-0.1,0.3-0.1,0.3,0l9.3,5.4C132,146.8,131.9,146.8,131.7,146.9L131.7,146.9z"/>
			</g>
		</g>
		<g class="st8">
			<g class="st8">
				<path class="st74" d="M131.4,148l-9.3-5.4c-0.1,0-0.1-0.2-0.1-0.3c0-0.3,0.2-0.7,0.5-0.8l9.3,5.4c-0.3,0.2-0.5,0.5-0.5,0.8
					C131.2,147.8,131.3,147.9,131.4,148L131.4,148z"/>
			</g>
		</g>
		<g>
			<polygon class="st77" points="133,143.3 123.7,137.9 124.4,137.5 133.7,142.9 			"/>
		</g>
		<g>
			<polygon class="st78" points="133,143.6 123.7,138.2 123.7,137.9 133,143.3 			"/>
		</g>
		<g>
			<polygon class="st79" points="120.9,165 111.6,159.6 111.6,151.2 120.9,156.6 			"/>
		</g>
		<g>
			<polygon class="st76" points="120.9,151.7 111.6,146.3 123.7,139.3 133,144.7 			"/>
		</g>
		<g>
			<polygon class="st79" points="120.9,155.6 111.6,150.2 111.6,146.3 120.9,151.7 			"/>
		</g>
		<g>
			<polygon class="st80" points="120.9,150.6 111.6,145.2 123.7,138.2 133,143.6 			"/>
		</g>
		<g>
			<polygon class="st78" points="120.2,166.8 110.9,161.4 110.8,146.1 120.2,151.5 			"/>
		</g>
		<g>
			<polygon class="st78" points="120.2,151.5 110.8,146.1 110.8,145.6 120.2,151 			"/>
		</g>
		<g>
			<polygon class="st78" points="120.2,151 110.8,145.6 110.8,145.3 120.2,150.7 			"/>
		</g>
		<path class="st81" d="M133.7,143.6l0-0.5l0-0.3l-0.7,0.4l0,0.3l-12.1,7l0-0.3l-0.7,0.4l0,0.3l0,0.5l0,15.3c0,0.3,3-1.3,6.8-3.4
			c3.7-2.2,6.8-4.1,6.8-4.4L133.7,143.6z"/>
		<g>
			<polygon class="st77" points="120.2,150.7 110.8,145.3 111.6,144.9 120.9,150.3 			"/>
		</g>
	</g>
	<g>
		<g class="st8">
			<g>
				<polygon class="st56" points="101,174.4 99.8,173.8 99.8,177.8 101,178.5 				"/>
			</g>
			<g>
				<polygon class="st57" points="102.3,173.7 101.1,173 99.8,173.8 101,174.4 				"/>
			</g>
			<g>
				<polygon class="st58" points="101,174.4 101,178.5 102.3,177.8 102.3,173.7 				"/>
			</g>
		</g>
	</g>
	<g>
		<g class="st8">
			<g>
				<polygon class="st59" points="63.3,152.7 62.2,152.1 62.2,156.1 63.3,156.8 				"/>
			</g>
			<g>
				<polygon class="st57" points="64.6,152 63.5,151.3 62.2,152.1 63.3,152.7 				"/>
			</g>
			<g>
				<polygon class="st58" points="63.3,152.7 63.3,156.8 64.6,156 64.6,152 				"/>
			</g>
		</g>
	</g>
	<g>
		<g class="st8">
			<g>
				<polygon class="st58" points="118,164.7 116.9,164 116.9,168.1 118,168.7 				"/>
			</g>
			<g>
				<polygon class="st57" points="119.3,163.9 118.2,163.2 116.9,164 118,164.7 				"/>
			</g>
			<g>
				<polygon class="st60" points="118,164.7 118,168.7 119.3,168 119.3,163.9 				"/>
			</g>
		</g>
	</g>
	<g>
		<g class="st8">
			<g>
				<polygon class="st61" points="80.2,133.1 78.8,132.3 78.8,133.9 80.2,134.7 				"/>
			</g>
			<g>
				<polygon class="st62" points="81.7,132.2 80.3,131.4 78.7,132.3 80.1,133.1 				"/>
			</g>
			<g>
				<polygon class="st62" points="80.2,134.7 78.8,133.9 63.8,142.7 65.1,143.5 				"/>
			</g>
			<g>
				<polygon class="st59" points="63.5,144.4 62.1,143.6 62.2,154.5 63.5,155.3 				"/>
			</g>
			<g>
				<polygon class="st59" points="63.5,142.7 62.1,142 62.1,143.6 63.5,144.4 				"/>
			</g>
			<g>
				<polygon class="st62" points="65.1,141.8 63.8,141 62.1,142 63.5,142.7 				"/>
			</g>
			<g>
				<polygon class="st56" points="63.5,142.7 63.5,144.4 63.5,155.3 81.9,144.7 81.8,133.8 81.8,132.1 80.2,133.1 80.2,134.7 
					65.1,143.5 65.1,141.8 				"/>
			</g>
		</g>
	</g>
	<g>
		<g class="st8">
			<g>
				<polygon class="st63" points="63.5,151.3 63.5,155.3 101,177.2 101,173.2 				"/>
			</g>
			<g>
				<polygon class="st64" points="63.5,151.3 101,173.2 119.3,162.5 81.8,140.6 				"/>
			</g>
		</g>
	</g>
	<g>
		<g class="st8">
			<g>
				<polygon class="st63" points="63.5,147.3 63.5,151.4 101,173.3 101,169.3 				"/>
			</g>
			<g>
				<polygon class="st65" points="63.5,147.3 101,169.3 119.3,158.6 81.8,136.7 				"/>
			</g>
		</g>
	</g>
	<g>
		<g class="st8">
			<g>
				<polygon class="st66" points="63.5,147.3 63.5,149.2 101,171.1 101,169.3 				"/>
			</g>
			<g>
				<polygon class="st67" points="64.6,148 86.4,160.7 86.4,162.6 64.6,149.8 				"/>
			</g>
			<g>
				<polygon class="st68" points="101,169.3 101,171.1 119.3,160.5 119.3,158.6 				"/>
			</g>
			<g>
				<polygon class="st69" points="63.5,147.3 101,169.3 119.3,158.6 81.8,136.7 				"/>
			</g>
			<g>
				<polygon class="st70" points="64.7,148 86.4,160.7 104.7,150.1 82.9,137.4 				"/>
			</g>
		</g>
	</g>
	<g>
		<g class="st8">
			<g>
				<polygon class="st71" points="91.8,158.6 91.8,160.5 100.3,165.6 100.3,160.9 				"/>
			</g>
			<g>
				<polygon class="st67" points="100.3,160.9 100.3,165.6 112.4,158.6 112.4,155 				"/>
			</g>
			<g>
				<polygon class="st70" points="91.8,158.6 100.3,162 112.4,155 103.9,151.6 				"/>
			</g>
		</g>
	</g>
	<g>
		<g class="st8">
			<g>
				<polygon class="st61" points="117.7,150.6 116.3,149.8 116.3,153.7 117.7,154.5 				"/>
			</g>
			<g>
				<polygon class="st62" points="119.3,149.7 117.9,148.9 116.3,149.8 117.7,150.6 				"/>
			</g>
			<g>
				<polygon class="st62" points="116.3,153.7 102.6,161.7 102.4,162.5 102.4,163.1 102.6,163.2 117.7,154.5 				"/>
			</g>
			<polygon class="st59" points="101,160.3 101,164.2 101,177.2 99.7,176.4 99.6,163.4 99.6,159.5 			"/>
			<g>
				<polygon class="st62" points="102.6,159.4 101.2,158.6 99.6,159.5 101,160.3 				"/>
			</g>
			<polygon class="st56" points="102.6,159.4 102.6,163.2 117.7,154.5 117.7,150.6 119.3,149.7 119.3,153.5 119.3,156.9 
				119.3,156.9 119.3,158.8 119.3,158.9 119.3,158.9 119.3,162.6 119.3,162.7 119.3,166.6 101,177.2 101,173.2 101,173.2 101,171.2 
				101,171.3 101,164.2 101,160.3 			"/>
		</g>
	</g>
</g>
</svg>
