<?xml version="1.0" encoding="utf-8"?>
<!-- Generator: Adobe Illustrator 22.0.1, SVG Export Plug-In . SVG Version: 6.00 Build 0)  -->
<svg version="1.1" id="Слой_1" xmlns="http://www.w3.org/2000/svg" xmlns:xlink="http://www.w3.org/1999/xlink" x="0px" y="0px"
	 viewBox="0 0 200 200" style="enable-background:new 0 0 200 200;" xml:space="preserve">
<style type="text/css">
	.st0{fill:#B75151;}
	.st1{fill:#FC633A;}
	.st2{fill:#D3644F;}
	.st3{fill:#CE4C42;}
	.st4{fill:#C46053;}
	.st5{fill:#773837;}
	.st6{fill:#E24B2D;}
	.st7{fill:#CC4C33;}
	.st8{fill:#B6B7B8;}
	.st9{fill:#F0F0F0;}
	.st10{fill:#D4D5D7;}
	.st11{fill:#C7C8C9;}
	.st12{fill:#E5E6E8;}
	.st13{fill:#DBDBDB;}
	.st14{fill:#BCF1FF;}
	.st15{fill:#68D6F9;}
	.st16{fill:#DBDCDE;}
	.st17{opacity:0.3;fill:#55D6D2;}
	.st18{enable-background:new    ;}
	.st19{fill:#414D54;}
	.st20{fill:#5F7078;}
	.st21{fill:#B0ACA8;}
	.st22{fill:#FFF9F5;}
	.st23{fill:#D4CFCB;}
	.st24{fill:#8B9B00;}
	.st25{fill:#566000;}
	.st26{fill:#93A300;}
	.st27{fill:#FDA713;}
	.st28{fill:#FD8813;}
	.st29{fill:#FDB813;}
	.st30{fill:#840C0C;}
	.st31{fill:#F71616;}
	.st32{fill:#8B0C0C;}
	.st33{fill:#96180C;}
	.st34{fill:#F12613;}
	.st35{fill:#D12110;}
	.st36{fill:#D14436;}
	.st37{fill:#B1C2E3;}
	.st38{fill:#A9BBDF;}
	.st39{fill:#D0D9EA;}
	.st40{fill:#B7C4DF;}
	.st41{fill:#D7D8DA;}
	.st42{fill:#E1E4EA;}
	.st43{fill:#868687;}
	.st44{fill:#BFCBE3;}
	.st45{clip-path:url(#SVGID_2_);enable-background:new    ;}
	.st46{clip-path:url(#SVGID_4_);enable-background:new    ;}
	.st47{fill:#71C6DB;}
	.st48{fill:#49B8B5;}
	.st49{fill:#374246;}
	.st50{fill:#56676E;}
	.st51{fill:#89D8E8;}
	.st52{fill:#60A8BA;}
	.st53{clip-path:url(#SVGID_6_);enable-background:new    ;}
	.st54{fill:#174969;}
	.st55{clip-path:url(#SVGID_8_);}
	.st56{fill:#72CFE3;}
	.st57{fill:#BBC3D3;}
	.st58{fill:#A4B0C8;}
	.st59{fill:#B73D37;}
	.st60{fill:#093F61;}
	.st61{fill:#0A4B73;}
	.st62{fill:#0B507A;}
	.st63{fill:#9C493F;}
	.st64{fill:#DE4B38;}
	.st65{fill:#FA8778;}
	.st66{fill:#07334E;}
	.st67{fill:#025074;}
	.st68{fill:#71CFF3;}
	.st69{fill:#FAFBFD;}
	.st70{fill:#7AA6AE;}
	.st71{fill:#88B9C3;}
	.st72{clip-path:url(#SVGID_10_);enable-background:new    ;}
	.st73{fill:#9ED7E2;}
	.st74{clip-path:url(#SVGID_12_);enable-background:new    ;}
	.st75{fill:#7EACB5;}
	.st76{fill:#6F979E;}
	.st77{fill:#557379;}
	.st78{fill:#64616C;}
	.st79{fill:#BDBDBD;}
	.st80{fill:#ECC6AF;}
	.st81{fill:#969696;}
	.st82{fill:#D7D7D7;}
	.st83{fill:#7A7A7A;}
	.st84{fill:#8E8A80;}
	.st85{fill:#E2E8F2;}
	.st86{fill:#DAE1EB;}
	.st87{fill:#ECECEC;}
	.st88{fill:#E6EDF7;}
	.st89{fill:#C1D8F7;}
	.st90{fill:#2574A8;}
	.st91{fill:#844810;}
	.st92{fill:#D9E6F7;}
	.st93{fill:#22A6EF;}
	.st94{fill:#6BB8EF;}
	.st95{fill:#F26E30;}
	.st96{fill:#FFCA00;}
</style>
<g>
	<polygon class="st0" points="100.3,8.6 100.3,82.6 122.5,95.2 193.9,62.7 	"/>
	<polygon class="st1" points="122.5,95.2 194,135.7 194,62.7 193.9,62.7 	"/>
	<polygon class="st2" points="6.6,135.7 78.1,95.2 6.6,62.7 	"/>
	<polygon class="st3" points="100.3,8.6 6.6,62.7 6.6,62.7 78.1,95.2 100.3,82.6 	"/>
	<polygon class="st4" points="100.3,189.8 194,135.7 194,130 100.3,184.1 	"/>
	<polygon class="st5" points="190.3,132.1 184.1,128.5 184.1,128.5 178.1,125.1 178.1,125.1 172.1,121.6 172.1,121.6 166.1,118.2 
		166.1,118.2 160.2,114.7 160.2,114.7 154.2,111.3 154.2,111.3 148.2,107.8 148.2,107.8 142.4,104.5 142.4,104.5 136.4,101 
		136.4,101 130.5,97.6 130.5,97.6 124.5,94.1 124.5,94.1 118.5,90.6 118.5,90.6 112.5,87.2 112.5,87.2 106.5,83.7 106.5,83.7 
		100.3,80.1 94.1,83.7 94.1,83.7 88.1,87.2 88.1,87.2 82.3,90.5 82.3,90.5 76.1,94.1 76.1,94.1 70.1,97.5 70.1,97.6 64.2,101 
		64.2,101 58.2,104.5 58.2,104.5 52.4,107.8 52.4,107.8 46.2,111.4 46.2,111.4 40.4,114.7 40.4,114.7 34.2,118.3 34.2,118.3 
		28.5,121.6 28.5,121.6 22.3,125.2 22.3,125.2 16.5,128.5 16.5,128.5 10.3,132.1 16.5,135.7 16.5,135.7 22.3,139 22.3,139 
		28.5,142.6 28.5,142.6 34.5,146.1 34.5,146.1 40.4,149.5 40.4,149.5 46.4,153 46.4,153 52.4,156.4 52.4,156.4 58.4,159.9 
		58.4,159.9 64.4,163.4 64.4,163.4 70.4,166.8 70.4,166.8 76.4,170.3 76.4,170.3 82.4,173.7 82.4,173.7 88.3,177.2 88.3,177.2 
		94.3,180.6 94.3,180.6 100.3,184.1 106.3,180.6 106.3,180.6 111.4,177.7 112.3,177.2 112.3,177.2 118.3,173.7 118.3,173.7 
		123.4,170.8 124.5,170.1 124.5,170.1 130.2,166.8 130.2,166.8 135.3,163.9 136.2,163.4 136.2,163.4 142.2,159.9 142.2,159.9 
		147.3,156.9 148.2,156.4 148.2,156.4 154.2,153 154.2,153 159.3,150 160.2,149.5 160.2,149.5 166.1,146.1 166.1,146.1 171.3,143.1 
		172.1,142.6 172.1,142.6 178.1,139.2 178.1,139.2 183.2,136.2 184.1,135.7 184.1,135.7 	"/>
	<polygon class="st6" points="190.3,132.7 100.3,80.7 100.3,13 190.3,64.9 	"/>
	<polygon class="st1" points="10.3,132.1 100.3,80.1 100.3,12.4 10.3,64.4 	"/>
	<polygon class="st7" points="100.3,189.8 6.6,135.7 6.6,130 100.3,184.1 	"/>
	<g>
		<polygon class="st8" points="99.6,28 99.5,73.8 80.6,92.3 79.9,91.8 79.9,39.5 		"/>
	</g>
	<polygon class="st9" points="79.9,39.5 80.6,39.9 100.3,28.6 100.3,27.6 	"/>
	<g>
		<polygon class="st10" points="120.7,39.5 120.7,91.9 120,92.3 100.9,80.9 100.9,28.9 120,39.9 		"/>
	</g>
	<g>
		<polygon class="st11" points="100.3,28.5 100.3,74.2 80.6,85.7 80.6,39.9 		"/>
	</g>
	<g>
		<polygon class="st12" points="120,39.9 120,86.2 100.2,74.8 100.3,28.5 		"/>
	</g>
	<g>
		<polygon class="st12" points="120,84.9 120,92.3 100.4,103.7 100.4,96.3 		"/>
	</g>
	<g>
		<polygon class="st11" points="100.4,96.3 100.4,103.7 80.6,92.3 80.6,84.9 		"/>
	</g>
	<g>
		<polygon class="st11" points="100.4,96.3 100.4,103.7 80.6,92.3 80.6,84.9 		"/>
	</g>
	<polygon class="st13" points="120.7,39.5 120,40 100.3,28.5 100.3,27.6 	"/>
	<polygon class="st9" points="120,84.9 100.4,96.3 80.6,84.9 100.3,73.5 	"/>
	<polygon class="st14" points="83.5,84.9 100.3,75.2 117.2,84.9 100.4,94.7 	"/>
	<polygon class="st14" points="83.5,84.9 100.3,75.2 117.2,84.9 100.4,94.7 	"/>
	<polygon class="st15" points="111.8,88 100.3,81.4 88.9,88 100.4,94.7 	"/>
	<g>
		<polygon class="st16" points="100.3,75.2 100.3,81.4 111.8,88 117.2,84.9 		"/>
		<polygon class="st11" points="83.5,84.9 88.9,88 100.3,81.4 100.3,75.2 		"/>
	</g>
	<polygon class="st17" points="120.1,39.9 120,84.9 100.4,96.3 100.4,51.4 	"/>
	<polygon class="st17" points="100.4,51.4 100.4,96.3 80.6,84.9 80.6,39.9 	"/>
	<g>
		<g class="st18">
			<g>
				<path class="st19" d="M92.7,48.4l0.8,0.5c-0.2-0.1-0.5-0.1-0.7,0.1l-0.8-0.5C92.2,48.3,92.5,48.3,92.7,48.4z"/>
			</g>
			<g>
				<path class="st19" d="M92,51.4l-0.8-0.5c-0.2-0.1-0.3-0.3-0.3-0.7c0-0.7,0.5-1.5,1-1.8l0.8,0.5c-0.6,0.3-1,1.1-1,1.8
					C91.7,51,91.8,51.3,92,51.4z"/>
			</g>
			<g>
				<path class="st20" d="M92.7,48.9c0.6-0.3,1-0.1,1,0.6c0,0.7-0.5,1.5-1,1.8c-0.6,0.3-1,0.1-1-0.6C91.7,50,92.1,49.2,92.7,48.9z"
					/>
			</g>
		</g>
	</g>
	<g>
		<g class="st18">
			<g>
				<polygon class="st21" points="172.2,87.3 178.6,83.6 178.6,83.1 172.2,86.8 				"/>
			</g>
			<g>
				<polygon class="st22" points="172.2,86.8 178.6,83.1 160.3,72.6 153.9,76.3 				"/>
			</g>
			<g>
				<polygon class="st23" points="153.9,76.3 153.9,76.9 172.2,87.3 172.2,86.8 				"/>
			</g>
		</g>
	</g>
	<g>
		<g class="st18">
			<g>
				<polygon class="st24" points="168.7,76.2 169.9,75.5 169,75 167.8,75.7 				"/>
			</g>
			<g>
				<polygon class="st25" points="169.9,76.9 171.1,76.2 171.1,75.8 169.9,76.5 				"/>
			</g>
			<g>
				<polygon class="st24" points="170.8,77.5 172,76.8 171.1,76.2 169.9,76.9 				"/>
			</g>
			<g>
				<polygon class="st25" points="170.8,82.3 172,81.6 172,76.8 170.8,77.5 				"/>
			</g>
			<g>
				<polygon class="st25" points="170.1,76.7 171.3,76 171.3,75 170.1,75.7 				"/>
			</g>
			<g>
				<polygon class="st24" points="170.1,75.7 171.3,75 169.7,74.1 168.5,74.8 				"/>
			</g>
			<g>
				<polygon class="st26" points="168.5,74.8 168.5,75.7 168.7,75.9 168.7,76.2 167.8,75.7 167.8,80.5 170.8,82.3 170.8,77.5 
					169.9,76.9 169.9,76.5 170.1,76.7 170.1,75.7 				"/>
			</g>
		</g>
	</g>
	<g>
		<g>
			<path class="st27" d="M161.2,76.9c0,0,0.1-0.1,0.1-0.2c0.1-0.1,0.1-0.1,0.1-0.2c0,0,0.1-0.1,0.2-0.3c0.1-0.2,0.1-0.3,0.1-0.3
				c0-0.1,0.1-0.1,0.1-0.2c0-0.1,0.1-0.2,0.1-0.2c0-0.2,0.1-0.3,0.1-0.5c0-0.1,0-0.3,0-0.4c0-0.5-0.1-0.8-0.2-0.9
				c-0.1-0.2-0.1-0.4-0.1-0.4c0-0.1-0.1-0.2-0.1-0.3c0-0.1-0.1-0.1-0.1-0.2c0,0-0.1-0.1-0.2-0.3c-0.1-0.1-0.2-0.2-0.3-0.2
				c-0.1-0.1-0.2-0.1-0.3-0.2c-0.1,0-0.1-0.1-0.2-0.1c0,0-0.1,0-0.1,0c-0.1,0-0.1,0-0.2-0.1c-0.1,0-0.1,0-0.2,0c0,0-0.2,0-0.3,0
				c-0.5,0-0.8,0.2-0.9,0.3c0.1-0.1,0.2-0.1,0.3-0.1c0.4-0.2,0.9-0.2,1.3,0c0.4,0.2,0.4,0.5,0,0.8c-0.4,0.2-0.9,0.2-1.3,0
				c-0.4-0.2-0.4-0.5,0-0.8c-0.1,0-0.2,0-0.3,0.1c0,0-0.1,0.1-0.3,0.2c-0.1,0.1-0.2,0.2-0.3,0.3c-0.2,0.3-0.3,0.5-0.4,0.8
				c-0.1,0.3-0.2,0.6-0.2,0.7c0,0.1,0,0.2,0,0.4c0,0.1,0,0.3,0,0.5c0,0.1,0,0.1,0,0.3c0,0.1,0,0.2,0,0.2c0,0.1,0,0.2,0.1,0.2
				c0,0.1,0,0.2,0.1,0.2c0,0,0,0.1,0,0.1c0.1,0.2,0.2,0.4,0.3,0.5c0,0,0.1,0.1,0.1,0.2c0.1,0.1,0.1,0.1,0.2,0.2
				c0.1,0.1,0.2,0.2,0.3,0.2c0.6,0.4,1.7,0.3,2.3,0C161.1,77,161.2,76.9,161.2,76.9z"/>
		</g>
		<g>
			<path class="st28" d="M160.8,72.4l0-0.4c0,0.1-0.1,0.3-0.3,0.4c-0.4,0.2-0.9,0.2-1.3,0c-0.2-0.1-0.3-0.2-0.3-0.4l0,0.4
				c0,0.1,0.1,0.3,0.3,0.4c0.4,0.2,1,0.2,1.3,0C160.7,72.7,160.8,72.5,160.8,72.4z"/>
		</g>
		<g>
			<path class="st29" d="M159.3,70.6c-0.3,0.2-0.3,0.5,0,0.6c0.3,0.2,0.8,0.2,1.1,0c0.3-0.2,0.3-0.5,0-0.6
				C160.1,70.4,159.6,70.4,159.3,70.6z"/>
		</g>
		<g>
			<path class="st29" d="M160.7,72.3c0.1,0,0.3-0.2,0.4-0.5c0.1-0.1,0.1-0.2,0.1-0.3c0-0.1,0-0.1,0-0.1c0-0.1,0-0.1,0-0.2
				c0,0,0-0.1-0.1-0.3c-0.1-0.1-0.1-0.2-0.2-0.2c0,0-0.1-0.1-0.3-0.2c-0.1-0.1-0.3-0.1-0.3-0.1c-0.2,0-0.5-0.1-0.7,0
				c-0.2,0-0.3,0.1-0.3,0.1c-0.1,0-0.1,0.1-0.3,0.1c0.1-0.1,0.2,0,0.3,0c0.3-0.2,0.8-0.2,1.1,0c0.3,0.2,0.3,0.4,0,0.6
				c-0.3,0.2-0.8,0.2-1.1,0c-0.3-0.2-0.3-0.4,0-0.6c-0.1-0.1-0.2-0.1-0.3,0c0,0-0.1,0.1-0.1,0.1c-0.1,0.1-0.1,0.1-0.1,0.1
				c0,0-0.1,0.1-0.2,0.2c0,0,0,0.1,0,0.1c0,0.1,0,0.1,0,0.2c0,0.1,0,0.2,0,0.3c0,0.1,0.1,0.3,0.3,0.5c0.2,0.1,0.4,0.2,0.6,0.3
				c0.2,0,0.5,0.1,0.7,0c0.2,0,0.3-0.1,0.3-0.1C160.6,72.4,160.7,72.3,160.7,72.3z"/>
		</g>
	</g>
	<g>
		<g class="st18">
			<g>
				<polygon class="st30" points="172.4,85.7 175.4,83.9 175.4,82.9 172.4,84.7 				"/>
			</g>
			<g>
				<polygon class="st31" points="172.4,84.7 175.4,82.9 173.4,81.8 170.3,83.5 				"/>
			</g>
			<g>
				<polygon class="st32" points="170.3,83.5 170.3,84.5 172.4,85.7 172.4,84.7 				"/>
			</g>
		</g>
	</g>
	<g>
		<path class="st33" d="M163,80C163,79.9,163,79.9,163,80C163,79.9,163,79.9,163,80C163,79.9,163,79.9,163,80
			C163,79.9,163,79.9,163,80C163,79.9,163,79.9,163,80C163,79.9,163,79.9,163,80c0-0.1,0-0.1,0-0.1c0,0,0,0,0,0c0,0,0,0,0,0
			c0,0,0,0,0,0c0,0,0,0,0,0c0,0,0,0,0,0c0,0,0,0,0,0c0,0,0,0,0,0c0,0,0,0,0,0c0,0,0,0,0,0c0,0,0,0,0,0c0,0,0,0,0,0c0,0,0,0,0,0
			c0,0,0,0,0,0c0,0,0-0.1,0-0.1c0,0,0,0,0,0c0,0,0,0,0,0c0,0,0,0,0,0c0,0,0,0,0,0c0,0,0,0,0,0c0,0,0-0.1,0.1-0.1c0,0,0,0,0,0
			c0,0,0,0,0,0c0,0,0,0,0,0c0,0,0,0,0,0c0,0,0,0,0,0c0,0,0,0,0,0c0,0,0,0,0,0c0,0,0,0,0,0c0,0,0.1-0.1,0.2-0.1c0,0,0.1,0,0.1,0
			c0,0,0,0,0.1,0c0.1,0,0.1,0,0.1-0.1c0,0,0,0,0,0c0,0,0,0,0.1,0c0,0,0,0,0,0c0,0,0.1,0,0.1,0c0,0,0,0,0,0c0,0,0,0,0,0c0,0,0,0,0,0
			c0,0,0,0,0.1,0c0,0,0,0,0,0c0,0,0,0,0,0c0,0,0,0,0,0c0,0,0,0,0,0c0,0,0,0,0,0l0,0c0,0,0.1,0,0.1,0c0,0,0.1,0,0.2,0c0,0,0,0,0,0
			c0,0,0,0,0.1,0c0,0,0,0,0,0c0,0,0,0,0,0c0,0,0,0,0,0c0,0,0,0,0,0c0,0,0.1,0,0.1,0c0,0,0.1,0,0.1,0c0,0,0,0,0,0c0.1,0,0.1,0,0.2,0
			c0,0,0,0,0,0c0,0,0,0,0,0c0,0,0.1,0,0.1,0c0,0,0.1,0,0.2,0.1c0,0,0,0,0,0c0,0,0,0,0,0c0.1,0,0.1,0.1,0.2,0.1c0,0,0,0,0,0
			c0,0,0,0,0,0c0,0,0,0,0,0c0,0,0,0,0,0c0,0,0,0,0,0c0,0,0,0,0,0c0,0,0,0,0,0c0,0,0,0,0,0c0,0,0,0,0.1,0.1c0,0,0,0,0.1,0.1
			c0,0,0,0,0,0c0,0,0,0.1,0,0.1c0,0,0,0,0,0c0,0,0,0,0,0c0,0,0,0,0,0c0,0,0,0,0,0c0,0,0,0,0,0l0,0c0,0,0,0,0,0c0,0,0,0,0,0
			c0,0,0,0,0,0c0,0,0,0,0,0c0,0,0,0,0,0c0,0,0,0,0,0c0,0,0,0,0,0c0,0,0,0,0,0c0,0,0,0,0,0c0,0,0,0,0,0c0,0,0,0,0,0c0,0,0,0,0,0
			c0,0,0,0,0,0c0,0,0,0,0,0c0,0,0,0,0,0c0,0,0,0,0,0c0,0,0,0,0,0l0,0c0,0,0,0,0,0c0,0,0,0,0,0.1c0,0,0,0,0,0c0,0,0,0,0,0
			c0,0,0,0,0,0c0,0,0,0,0,0c0,0,0,0,0,0c0,0,0,0-0.1,0.1c0,0,0,0-0.1,0.1c0,0,0,0-0.1,0c0,0,0,0,0,0c0,0,0,0,0,0c0,0,0,0,0,0
			c0,0-0.1,0-0.1,0c0,0,0,0,0,0c0,0,0,0,0,0c0,0,0,0,0,0c0,0-0.1,0-0.1,0.1c0,0,0,0,0,0c0,0,0,0-0.1,0c0,0-0.1,0-0.1,0c0,0,0,0,0,0
			l0,0c0,0,0,0,0,0c0,0,0,0,0,0c0,0,0,0,0,0c0,0,0,0,0,0c0,0,0,0,0,0c-0.1,0-0.1,0-0.1,0c0,0,0,0,0,0c-0.1,0-0.1,0-0.1,0
			c0,0,0,0,0,0c-0.1,0-0.1,0-0.2,0c0,0,0,0,0,0c0,0-0.1,0-0.1,0c0,0,0,0,0,0c0,0,0,0,0,0c0,0,0,0-0.1,0c0,0,0,0-0.1,0c0,0,0,0,0,0
			c0,0-0.1,0-0.1,0c0,0,0,0,0,0c0,0-0.1,0-0.1,0c0,0,0,0,0,0c0,0,0,0,0,0c0,0,0,0,0,0c0,0-0.1,0-0.1,0c0,0,0,0,0,0
			c-0.1,0-0.2-0.1-0.2-0.1c0,0,0,0,0,0c-0.1,0-0.2-0.1-0.2-0.1c0,0,0,0,0,0c0,0,0,0,0,0c0,0,0,0,0,0c0,0,0,0,0,0c0,0,0,0,0,0
			c0,0,0,0,0,0c0,0,0,0,0,0c0,0,0,0,0,0c0,0-0.1-0.1-0.1-0.1c0,0,0,0,0,0c0,0,0,0,0,0c0,0,0,0,0,0c0,0,0,0,0,0c0,0,0,0,0-0.1
			c0,0,0,0,0,0c0,0,0,0,0,0c0,0,0,0,0,0c0,0,0,0,0,0C163,80,163,80,163,80C163,80,163,80,163,80C163,80,163,80,163,80
			C163,80,163,80,163,80C163,80,163,80,163,80C163,80,163,80,163,80z"/>
		<g>
			<path class="st34" d="M165.6,79.9C165.6,79.9,165.6,79.9,165.6,79.9C165.6,79.9,165.6,79.9,165.6,79.9z"/>
			<path class="st34" d="M165.7,79.9C165.7,79.9,165.6,79.9,165.7,79.9C165.6,79.9,165.7,79.9,165.7,79.9z"/>
			<path class="st34" d="M165.6,79.9C165.6,79.9,165.6,79.9,165.6,79.9C165.6,79.9,165.6,79.9,165.6,79.9z"/>
			<path class="st34" d="M165.5,80c0.1,0,0.1-0.1,0.1-0.1C165.6,79.9,165.6,80,165.5,80C165.5,80,165.5,80,165.5,80z"/>
			<path class="st34" d="M162.1,77.9c0-1.3,1-2.4,2.3-2.4c1.3,0,2.3,1.1,2.3,2.4c0,0.8-0.4,1.5-1,2c0,0,0,0,0,0c0,0,0,0,0,0
				c-0.1,0-0.1,0.1-0.2,0.1c0,0-0.1,0.1-0.1,0.1c0,0,0,0-0.1,0c-0.6,0.3-1.4,0.3-2,0c0,0-0.1,0-0.1-0.1c0,0,0,0,0,0c0,0,0,0-0.1,0
				c0,0,0,0,0,0c0,0,0,0,0,0c0,0,0,0,0,0c0,0,0,0-0.1,0c0,0,0,0,0,0C162.4,79.4,162.1,78.7,162.1,77.9z"/>
		</g>
		<g>
			<path class="st35" d="M163.7,76c0-0.1,0.1-0.2,0.2-0.2c0-0.9,0.1-1.7,0.2-2.1c0,0-0.1,0.1-0.1,0.1c-0.1,0.3-0.2,0.7-0.2,0.9
				C163.8,75.2,163.7,75.7,163.7,76z"/>
		</g>
		<g>
			<path class="st35" d="M164.7,73.7C164.7,73.7,164.6,73.7,164.7,73.7c-0.2-0.2-0.4-0.2-0.5-0.1c-0.1,0.4-0.2,1.2-0.2,2.1
				c0.2-0.1,0.7-0.2,0.9,0c0.1,0.1,0.2,0.2,0.2,0.3C165,75.4,164.9,74.4,164.7,73.7z"/>
		</g>
		<g>
			<path class="st35" d="M165,76c0-0.2,0-0.7-0.1-1.3c0-0.3-0.1-0.6-0.2-0.9c0,0.1,0,0.1-0.1,0.2c-0.1,0.1-0.3,0.1-0.5,0
				c-0.1,0-0.1-0.1-0.1-0.2c0,0.1-0.1,0.4-0.2,0.9c-0.1,0.4-0.1,0.8-0.1,1.3c0,0.1,0.1,0.2,0.2,0.3c0.3,0.1,0.7,0.1,0.9,0
				C165,76.2,165,76.1,165,76z"/>
		</g>
		<g>
			<path class="st35" d="M164.8,73.5c0.2,0.1,0.2,0.4,0,0.5c-0.2,0.1-0.6,0.1-0.9,0c-0.2-0.1-0.2-0.4,0-0.5
				C164.2,73.4,164.6,73.4,164.8,73.5z M164.1,73.6c-0.1,0.1-0.1,0.2,0,0.3c0.1,0.1,0.3,0.1,0.5,0c0.1-0.1,0.1-0.2,0-0.3
				C164.5,73.6,164.3,73.6,164.1,73.6L164.1,73.6z"/>
		</g>
		<g>
			<path class="st35" d="M165.2,73.6c0-0.1,0-0.2-0.1-0.3c-0.1-0.1-0.3-0.2-0.3-0.2c-0.1,0-0.2-0.1-0.4,0c-0.2,0-0.3,0.1-0.4,0.1
				c0,0,0,0,0,0.1c0,0.1,0.1,0.2,0.1,0.2c0.2-0.1,0.6-0.1,0.9,0c0.2,0.1,0.2,0.4,0,0.5c-0.2,0.1-0.6,0.1-0.9,0
				c-0.2-0.1-0.2-0.4,0-0.5c-0.1,0-0.1-0.1-0.1-0.2c0,0,0-0.1,0-0.1c-0.2,0.1-0.2,0.2-0.2,0.2c0,0-0.1,0.1,0,0.3
				c0,0.1,0.1,0.2,0.2,0.2c0.1,0.1,0.2,0.1,0.3,0.2c0.3,0.1,0.6,0,0.7-0.1c0.1,0,0.2-0.1,0.2-0.2C165.1,73.8,165.2,73.7,165.2,73.6z
				"/>
		</g>
		<g>
			<path class="st36" d="M163.9,73.2c-0.2,0.1-0.2,0.4,0,0.5c0.2,0.1,0.6,0.1,0.9,0c0.2-0.1,0.2-0.4,0-0.5
				C164.6,73.1,164.2,73.1,163.9,73.2z"/>
		</g>
		<g>
			<path class="st36" d="M164.9,74c0.1,0,0.2-0.1,0.2-0.2c0.1-0.1,0-0.2,0-0.3c-0.1-0.2-0.2-0.3-0.5-0.4c-0.2,0-0.4,0-0.4,0
				c-0.1,0-0.2,0-0.4,0.1c0,0,0.1,0,0.1,0c0.2-0.1,0.6-0.1,0.9,0c0.2,0.1,0.2,0.4,0,0.5c-0.2,0.1-0.6,0.1-0.9,0
				c-0.2-0.1-0.2-0.4,0-0.5c0,0-0.1,0-0.1,0c-0.1,0-0.1,0.1-0.1,0.1c0,0-0.1,0.1-0.1,0.1c0,0.1-0.1,0.2,0,0.3
				c0.1,0.2,0.2,0.3,0.5,0.4c0.2,0,0.4,0,0.4,0C164.6,74.1,164.8,74.1,164.9,74z"/>
		</g>
	</g>
	<g>
		<g>
			<g>
				<g class="st18">
					<g>
						<polygon class="st37" points="186.6,130.1 177.3,124.7 177.6,124.5 186.9,129.9 						"/>
					</g>
					<g>
						<polygon class="st38" points="175.4,136.5 166.1,131.1 177.3,124.7 186.6,130.1 						"/>
					</g>
					<g>
						<polygon class="st38" points="175.1,136.7 165.7,131.3 166.1,131.1 175.4,136.5 						"/>
					</g>
					<g>
						<polygon class="st39" points="175.1,138.2 165.7,132.8 165.7,131.3 175.1,136.7 						"/>
					</g>
					<g>
						<polygon class="st40" points="186.9,129.9 186.9,131.4 175.1,138.2 175.1,136.7 175.4,136.5 186.6,130.1 						"/>
					</g>
					<g>
						<polygon class="st41" points="183.9,121.6 174.5,116.1 178.8,113.6 188.2,119.1 						"/>
					</g>
					<g>
						<polygon class="st40" points="176.2,136.1 166.9,130.7 167.2,125.6 176.5,131 						"/>
					</g>
					<g>
						<polygon class="st41" points="173.2,127.7 163.9,122.3 174.5,116.1 183.9,121.6 						"/>
					</g>
					<g>
						<path class="st39" d="M188.2,119.1l-2.7,6.7l0.3,4.7l-9.6,5.5l0.3-5.1c-1.8,1.1-3.3-0.2-3.3-2.7c0-0.2,0-1.8,0-2l10.6-4.7
							L188.2,119.1z"/>
					</g>
					<g>
						<g class="st18">
							<path class="st42" d="M170.2,128.7l-5.1-3c-0.7-0.4-1.2-1.4-1.2-2.9c0-0.2,0-0.4,0-0.6l9.4,4.2c0,0.2,0,1.7,0,1.9
								c0,1.4,0.5,2.4,1.2,2.9l0,0L170.2,128.7L170.2,128.7z"/>
						</g>
					</g>
				</g>
			</g>
			<g>
				<g class="st18">
					<g>
						<polygon class="st43" points="184.5,121.2 173.3,114.8 173.3,114.6 184.5,121.1 						"/>
					</g>
					<g>
						<polygon class="st43" points="184.5,121.1 173.3,114.6 173.3,114.4 184.5,120.8 						"/>
					</g>
					<g>
						<polygon class="st44" points="184.5,120.8 173.3,114.4 173.3,109.4 184.4,115.9 						"/>
					</g>
					<g>
						<defs>
							<path id="SVGID_1_" d="M177.5,99.8l11.1,6.5c-0.1-0.1-0.3-0.1-0.4,0L177,99.9C177.2,99.8,177.3,99.8,177.5,99.8z"/>
						</defs>
						<use xlink:href="#SVGID_1_"  style="overflow:visible;fill:#E1E4EA;"/>
						<clipPath id="SVGID_2_">
							<use xlink:href="#SVGID_1_"  style="overflow:visible;"/>
						</clipPath>
						<g class="st45">
							<path class="st42" d="M188.1,106.3L177,99.9c0.1-0.1,0.2-0.1,0.3-0.1l11.1,6.5C188.3,106.2,188.2,106.3,188.1,106.3
								L188.1,106.3z"/>
							<path class="st42" d="M188.4,106.2l-11.1-6.5c0.1,0,0.1,0,0.1,0l11.1,6.5C188.5,106.3,188.5,106.2,188.4,106.2L188.4,106.2z"
								/>
						</g>
					</g>
					<g>
						<polygon class="st44" points="184.4,115.9 173.3,109.4 173.3,102.8 184.4,109.3 						"/>
					</g>
					<g>
						<polygon class="st42" points="185.1,108.1 174,101.6 177,99.9 188.1,106.3 						"/>
					</g>
					<g>
						<defs>
							<path id="SVGID_3_" d="M184.4,109.3l-11.1-6.5c0-0.4,0.3-1,0.6-1.2l11.1,6.5C184.7,108.3,184.4,108.8,184.4,109.3z"/>
						</defs>
						<use xlink:href="#SVGID_3_"  style="overflow:visible;fill:#E1E4EA;"/>
						<clipPath id="SVGID_4_">
							<use xlink:href="#SVGID_3_"  style="overflow:visible;"/>
						</clipPath>
						<g class="st46">
							<path class="st44" d="M184.4,109.3l-11.1-6.5c0-0.2,0-0.3,0.1-0.5l11.1,6.5C184.5,108.9,184.4,109.1,184.4,109.3L184.4,109.3
								z"/>
							<path class="st44" d="M184.5,108.8l-11.1-6.5c0-0.1,0.1-0.2,0.1-0.3l11.1,6.5C184.6,108.6,184.6,108.7,184.5,108.8
								L184.5,108.8z"/>
							<path class="st42" d="M184.7,108.5l-11.1-6.5c0.1-0.2,0.2-0.3,0.4-0.4l11.1,6.5C184.9,108.2,184.8,108.3,184.7,108.5
								L184.7,108.5z"/>
						</g>
					</g>
					<g>
						<path class="st40" d="M188.1,106.3c0.4-0.2,0.6,0,0.6,0.4l0,6.6l0,5l0,0.3l-0.1,0.2l-4.3,2.5l0-0.1l0-0.3l0-5l0-6.6
							c0-0.4,0.3-1,0.6-1.2L188.1,106.3z"/>
					</g>
				</g>
			</g>
			<g>
				<g class="st18">
					<g class="st18">
						<g class="st18">
							<path class="st47" d="M177.3,124.4c-0.5,0.3-1.1,0.6-1.7,0.8c-1.5,0.5-3.3,0.7-5,0.5l0,1.1c1.7,0.1,3.4,0,5-0.5
								c0.6-0.2,1.2-0.5,1.7-0.8l7.2-4.2l0-1.1L177.3,124.4z"/>
							<path class="st47" d="M170.6,125.7l0,1.1c-1.6-0.1-3.2-0.6-4.5-1.3c-1.6-0.9-2.3-2.1-2.3-3.2l0-1.1c0,1.2,0.8,2.4,2.3,3.2
								C167.4,125.2,169,125.6,170.6,125.7L170.6,125.7z"/>
						</g>
					</g>
					<g>
						<path class="st48" d="M184.5,120.3l-7.2,4.2c-3.1,1.8-8.1,1.8-11.1,0c-3.1-1.8-3.1-4.7,0-6.5l7.2-4.2L184.5,120.3z"/>
					</g>
				</g>
			</g>
			<g>
				<g class="st18">
					<g>
						<path class="st49" d="M181.5,103.1c0.5,0.3,0.4,0.8,0,1c-0.5,0.3-1.2,0.3-1.7,0c-0.5-0.3-0.4-0.8,0-1
							C180.3,102.8,181.1,102.8,181.5,103.1z"/>
					</g>
					<g>
						<path class="st50" d="M181.5,103.1c0.5,0.3,0.4,0.7,0,1c-0.5,0.3-1.2,0.3-1.7,0c-0.5-0.3-0.4-0.7,0-1
							C180.3,102.8,181.1,102.8,181.5,103.1z"/>
					</g>
				</g>
			</g>
		</g>
		<path class="st51" d="M184.5,120.3l-7.2,4.2c-3.1,1.8-8.1,1.8-11.1,0c-3.1-1.8-3.1-4.7,0-6.5l7.2-4.2L184.5,120.3z"/>
		<g>
			<g class="st18">
				<g>
					<polygon class="st52" points="183.5,120.9 184.5,120.3 184.5,111.7 183.5,112.3 					"/>
				</g>
				<g class="st18">
					<defs>
						<path id="SVGID_5_" class="st18" d="M175,101.7l-1,0.6c1-0.6,2.4-0.5,4,0.4l1-0.6C177.4,101.2,176,101.1,175,101.7z"/>
					</defs>
					<clipPath id="SVGID_6_">
						<use xlink:href="#SVGID_5_"  style="overflow:visible;"/>
					</clipPath>
					<g class="st53">
						<path class="st52" d="M178,102.7l1-0.6c-0.6-0.3-1.2-0.6-1.7-0.7l-1,0.6C176.8,102.1,177.4,102.3,178,102.7L178,102.7z"/>
						<path class="st52" d="M176.3,102l1-0.6c-0.8-0.2-1.6-0.1-2.2,0.2l-1,0.6C174.7,101.9,175.4,101.8,176.3,102L176.3,102z"/>
						<path class="st54" d="M174.1,102.2l1-0.6c0,0-0.1,0-0.1,0.1L174.1,102.2C174,102.3,174,102.3,174.1,102.2L174.1,102.2z"/>
					</g>
				</g>
				<g class="st18">
					<defs>
						<path id="SVGID_7_" class="st18" d="M183.5,112.3l1-0.6c0-3.5-2.5-7.8-5.6-9.6l-1,0.6C181,104.5,183.5,108.8,183.5,112.3z"/>
					</defs>
					<clipPath id="SVGID_8_">
						<use xlink:href="#SVGID_7_"  style="overflow:visible;"/>
					</clipPath>
					<g class="st55">
						<path class="st52" d="M183.5,112.3l1-0.6c0-1.4-0.4-2.8-1-4.2l-1,0.6C183.2,109.5,183.5,111,183.5,112.3L183.5,112.3z"/>
						<path class="st52" d="M182.5,108.1l1-0.6c-0.5-1.1-1.1-2.1-1.9-3l-1,0.6C181.4,106,182,107,182.5,108.1L182.5,108.1z"/>
						<path class="st52" d="M180.7,105.1l1-0.6c-0.8-1-1.7-1.8-2.7-2.4l-1,0.6C178.9,103.3,179.9,104.1,180.7,105.1L180.7,105.1z"/>
					</g>
				</g>
				<g>
					<path class="st56" d="M178,102.7c-3.1-1.8-5.6-0.4-5.6,3.2l0,8.5l11.2,6.4l0-8.5C183.5,108.8,181,104.5,178,102.7z"/>
				</g>
			</g>
		</g>
	</g>
	<g>
		<path class="st39" d="M180.1,120.8l0.9-0.5l-4.5,2.6c-0.8,0.5-1.9,0.8-3.1,1v-7L180.1,120.8z"/>
		<path class="st39" d="M165.6,121.2c0,0.1,0,0.2,0,0.2C165.6,121.4,165.6,121.3,165.6,121.2z"/>
		<path class="st57" d="M165.8,121.7c0.2-0.4,0.7-0.8,1.3-1.2l6.3-3.7v7c-0.5,0.1-1,0.1-1.6,0.1c-1.8,0-3.5-0.4-4.7-1.1
			c-0.8-0.4-1.3-1-1.4-1.5C165.7,121.5,165.7,121.6,165.8,121.7z"/>
		<path class="st40" d="M165.7,121.4C165.7,121.4,165.7,121.5,165.7,121.4C165.7,121.5,165.7,121.4,165.7,121.4z"/>
		<path class="st58" d="M167,120.5c-0.6,0.4-1.1,0.8-1.3,1.2c0-0.1-0.1-0.2-0.1-0.2c0,0,0,0,0,0c0-0.1,0-0.2,0-0.2
			c0-0.5,0.5-1.2,1.4-1.7l6.3-3.7v1L167,120.5z"/>
		<polygon class="st40" points="173.3,116.9 173.3,115.8 181,120.3 180.1,120.8 		"/>
	</g>
	<g class="st18">
		<g>
			<polygon class="st59" points="94.9,111.6 96.2,110.9 96.2,94.3 95,95.1 			"/>
		</g>
		<g>
			<polygon class="st59" points="95,95.1 96.2,94.3 72.3,80.6 71,81.3 			"/>
		</g>
		<g>
			<polygon class="st59" points="71,81.3 71,97.9 94.9,111.6 95,95.1 			"/>
		</g>
	</g>
	<g class="st18">
		<g>
			<polygon class="st59" points="160.3,149.4 161.6,148.6 161.6,132.1 160.4,132.8 			"/>
		</g>
		<g>
			<polygon class="st59" points="160.4,132.8 161.6,132.1 114.6,105.2 113.3,105.9 			"/>
		</g>
		<g>
			<polygon class="st59" points="113.3,105.9 113.3,122.5 160.3,149.4 160.4,132.8 			"/>
		</g>
	</g>
	<g class="st18">
		<g>
			<polygon class="st59" points="85.5,89.6 86.8,88.9 86.8,37.8 85.5,38.5 			"/>
		</g>
		<g>
			<polygon class="st59" points="85.5,38.5 86.8,37.8 72.3,29.4 71,30.2 			"/>
		</g>
		<g>
			<polygon class="st59" points="71,30.2 71,81.3 85.5,89.6 85.5,38.5 			"/>
		</g>
	</g>
	<g>
		<path class="st50" d="M165.2,100c0.3-0.2,0.6,0,0.6,0.4c0,0.4-0.3,0.9-0.6,1.1c-0.3,0.2-0.6,0-0.6-0.4
			C164.6,100.7,164.9,100.2,165.2,100z"/>
	</g>
	<g>
		<g>
			<polygon class="st60" points="161.1,97.7 161.1,98.4 162.2,97.7 162.2,97.1 			"/>
		</g>
		<polygon class="st61" points="163.5,99.8 159.9,97.7 159.9,98.3 163.5,100.4 		"/>
		<polygon class="st62" points="163.5,99.1 161.1,97.7 162.2,97.1 161.6,96.7 159.9,97.7 163.5,99.8 		"/>
	</g>
	<g>
		<g class="st18">
			<path class="st63" d="M167.3,99l-3.8-2.2c0,0,0,0,0,0L167.3,99C167.3,99.1,167.3,99.1,167.3,99L167.3,99z"/>
			<path class="st44" d="M164.3,101.9c0-0.1,0-0.2,0.1-0.3c0,0,0,0,0,0c0-0.1,0.1-0.2,0.1-0.3c0,0,0,0,0-0.1c0-0.1,0.1-0.2,0.1-0.3
				c0,0,0,0,0-0.1c0-0.1,0.1-0.1,0.1-0.2c0,0,0-0.1,0-0.1c0-0.1,0.1-0.1,0.1-0.1c0,0,0-0.1,0.1-0.1c0,0,0.1-0.1,0.1-0.1
				c0,0,0-0.1,0.1-0.1c0-0.1,0.1-0.1,0.1-0.2c0,0,0,0,0-0.1c0.1-0.1,0.1-0.1,0.2-0.2c0,0,0,0,0,0c0,0,0.1-0.1,0.1-0.1
				c0,0,0,0,0.1-0.1c0,0,0.1-0.1,0.1-0.1c0,0,0,0,0.1,0c0.1,0,0.1-0.1,0.2-0.1c0.1,0,0.1-0.1,0.2-0.1c0,0,0,0,0,0c0,0,0.1,0,0.1,0
				c0,0,0,0,0,0c0,0,0.1,0,0.1,0c0,0,0,0,0,0c0,0,0,0,0,0c0,0,0.1,0,0.1,0c0,0,0,0,0.1,0c0,0,0.1,0,0.1,0c0,0,0,0,0.1,0
				c0,0,0.1,0,0.1,0c0,0,0,0,0.1,0c0,0,0.1,0,0.1,0c0,0,0,0,0.1,0l-3.8-2.2c0,0,0,0,0,0l0,0c0,0,0,0,0,0c0,0-0.1,0-0.1,0
				c0,0,0,0-0.1,0c0,0-0.1,0-0.1,0c0,0,0,0-0.1,0c0,0-0.1,0-0.1,0c0,0,0,0-0.1,0c0,0-0.1,0-0.1,0c0,0,0,0,0,0c0,0,0,0,0,0
				c0,0,0,0,0,0c0,0-0.1,0-0.1,0c0,0,0,0,0,0c0,0-0.1,0-0.1,0c0,0,0,0,0,0c-0.1,0-0.1,0.1-0.2,0.1c-0.1,0-0.1,0.1-0.2,0.1
				c0,0,0,0-0.1,0c0,0-0.1,0.1-0.1,0.1c0,0,0,0-0.1,0.1c0,0-0.1,0.1-0.1,0.1c0,0,0,0,0,0c-0.1,0.1-0.1,0.1-0.2,0.2c0,0,0,0,0,0
				c0,0,0,0,0,0c0,0.1-0.1,0.1-0.1,0.2c0,0,0,0.1-0.1,0.1c0,0-0.1,0.1-0.1,0.1c0,0,0,0.1-0.1,0.1c0,0-0.1,0.1-0.1,0.1
				c0,0,0,0.1,0,0.1c0,0.1-0.1,0.1-0.1,0.2c0,0,0,0,0,0.1c0,0,0,0,0,0c0,0.1-0.1,0.2-0.1,0.3c0,0,0,0,0,0.1c0,0.1-0.1,0.2-0.1,0.3
				c0,0,0,0,0,0c0,0.1,0,0.2-0.1,0.3c0,0,0,0,0,0.1c0,0.1,0,0.2,0,0.3c0,0.2,0,0.4,0.1,0.6c0.1,0.3,0.2,0.5,0.4,0.6l3.8,2.2
				c-0.3-0.2-0.5-0.6-0.5-1.1C164.3,102.2,164.3,102.1,164.3,101.9C164.3,101.9,164.3,101.9,164.3,101.9z"/>
			<g>
				<path class="st42" d="M166.1,99.2c1-0.6,1.8-0.1,1.8,1c0,1.1-0.8,2.5-1.8,3.1c-1,0.6-1.8,0.1-1.8-1
					C164.3,101.1,165.1,99.8,166.1,99.2z"/>
			</g>
			<g>
				<path class="st50" d="M166.1,100.5c0.3-0.2,0.6,0,0.6,0.4c0,0.4-0.3,0.9-0.6,1.1c-0.3,0.2-0.6,0-0.6-0.4
					S165.7,100.7,166.1,100.5z"/>
			</g>
		</g>
	</g>
	<polygon class="st60" points="167.4,102 167.4,102.7 169.1,101.7 169.1,101.1 	"/>
	<g>
		<polygon class="st62" points="168.4,100.7 167.3,101.3 166.1,100.6 166.1,101.3 167.4,102 169.1,101.1 		"/>
		<g>
			<polygon class="st61" points="166.1,101.9 167.4,102.7 167.4,102 166.1,101.3 			"/>
			<path class="st61" d="M166.5,101.5l-0.9-0.5c-0.1,0.2-0.2,0.4-0.2,0.6l0.6,0.4C166.3,101.8,166.4,101.7,166.5,101.5z"/>
		</g>
		<path class="st62" d="M166,100.6c-0.2,0.1-0.3,0.3-0.4,0.5l0.9,0.5c0.1-0.2,0.2-0.4,0.2-0.6L166,100.6z"/>
	</g>
	<g>
		<g>
			<g class="st18">
				<g>
					<polygon class="st60" points="122.7,72 122.7,72.8 124,72 124,71.3 					"/>
				</g>
				<g>
					<polygon class="st60" points="130.5,77.4 130.5,78.2 132.5,77 132.5,76.2 					"/>
				</g>
				<g>
					<polygon class="st61" points="121.1,72 121.1,72.8 130.5,78.2 130.5,77.4 					"/>
				</g>
				<g>
					<polygon class="st62" points="121.1,72 130.5,77.4 132.5,76.2 131.7,75.8 130.4,76.5 122.7,72 124,71.3 123.2,70.8 					"/>
				</g>
			</g>
		</g>
	</g>
	<g>
		<g>
			<polygon class="st64" points="122,72.5 122,83 129.6,87.4 129.6,76.9 			"/>
		</g>
		<g>
			<polygon class="st65" points="122,72.5 129.6,76.9 130.3,76.5 122.8,72.1 			"/>
		</g>
	</g>
	<g class="st18">
		<path class="st66" d="M155.2,71.1C155.2,71.1,155.2,71.1,155.2,71.1c0.1-0.1,0.1-0.2,0.2-0.2c0,0,0-0.1,0.1-0.1
			c0-0.1,0.1-0.1,0.1-0.2c0,0,0,0,0-0.1c0-0.1,0.1-0.2,0.1-0.3c0,0,0,0,0,0c0-0.1,0.1-0.2,0.1-0.2c0,0,0-0.1,0-0.1
			c0-0.1,0.1-0.1,0.1-0.2c0,0,0-0.1,0-0.1c0-0.1,0-0.2,0.1-0.2c0,0,0-0.1,0-0.1c0-0.1,0.1-0.2,0.1-0.3c0,0,0,0,0-0.1
			c0-0.1,0-0.1,0-0.2c0,0,0,0,0-0.1c0,0,0-0.1,0-0.1c0-0.1,0-0.2,0-0.2c0,0,0-0.1,0-0.1c0-0.1,0-0.2,0-0.3c0,0,0-0.1,0-0.1
			c0-0.1,0-0.3,0-0.4c0-0.1,0-0.3,0-0.4c0,0,0-0.1,0-0.1c0-0.1,0-0.2,0-0.3c0,0,0,0,0,0c0-0.2,0-0.4-0.1-0.5c0-0.1,0-0.1,0-0.2
			c0-0.1,0-0.3-0.1-0.4c0-0.1,0-0.1,0-0.2c0-0.2-0.1-0.3-0.1-0.5c0,0,0,0,0-0.1c0-0.2-0.1-0.4-0.1-0.6c0,0,0,0,0-0.1
			c0,0,0-0.1,0-0.1c0-0.1-0.1-0.3-0.1-0.4c0-0.1,0-0.1-0.1-0.2c-0.1-0.2-0.1-0.3-0.2-0.5c0,0,0,0,0-0.1c-0.1-0.2-0.1-0.4-0.2-0.6
			c0-0.1,0-0.1-0.1-0.2c-0.1-0.1-0.1-0.3-0.2-0.4c0-0.1-0.1-0.1-0.1-0.2c-0.1-0.2-0.1-0.3-0.2-0.5c0,0,0-0.1,0-0.1
			c-0.1-0.2-0.2-0.4-0.3-0.5c0,0-0.1-0.1-0.1-0.1c-0.1-0.1-0.1-0.3-0.2-0.4c0-0.1-0.1-0.1-0.1-0.2c-0.1-0.1-0.2-0.3-0.3-0.4
			c0,0,0-0.1,0-0.1c-0.1-0.2-0.2-0.3-0.3-0.5c0,0-0.1-0.1-0.1-0.1c-0.1-0.1-0.2-0.2-0.3-0.4c0,0-0.1-0.1-0.1-0.1
			c-0.1-0.1-0.2-0.3-0.3-0.4c0,0,0,0-0.1-0.1c-0.1-0.2-0.3-0.3-0.4-0.4c0,0-0.1-0.1-0.1-0.1c-0.1-0.1-0.2-0.2-0.3-0.3
			c0,0-0.1-0.1-0.1-0.1c-0.1-0.1-0.2-0.2-0.4-0.3c0,0,0,0-0.1-0.1c-0.1-0.1-0.3-0.3-0.4-0.4c0,0-0.1-0.1-0.1-0.1
			c-0.1-0.1-0.2-0.2-0.3-0.3c0,0-0.1,0-0.1-0.1c0,0-0.1,0-0.1-0.1c0,0-0.1-0.1-0.1-0.1c-0.1-0.1-0.1-0.1-0.2-0.2
			c0,0-0.1-0.1-0.1-0.1c-0.1-0.1-0.2-0.1-0.2-0.2c0,0-0.1-0.1-0.1-0.1c-0.1-0.1-0.2-0.1-0.4-0.2c-0.1-0.1-0.2-0.1-0.4-0.2
			c0,0-0.1,0-0.1-0.1c-0.1,0-0.1-0.1-0.2-0.1c0,0,0,0,0,0c-0.1-0.1-0.3-0.1-0.4-0.2c0,0-0.1,0-0.1,0c-0.1,0-0.2-0.1-0.4-0.1
			c0,0-0.1,0-0.1,0c-0.1,0-0.2-0.1-0.3-0.1c0,0-0.1,0-0.1,0c-0.1,0-0.3-0.1-0.4-0.1c0,0,0,0,0,0c0,0-0.1,0-0.1,0c-0.1,0-0.2,0-0.3,0
			c0,0-0.1,0-0.1,0c-0.1,0-0.1,0-0.2,0c0,0-0.1,0-0.1,0c-0.1,0-0.1,0-0.2,0c0,0-0.1,0-0.1,0c-0.1,0-0.1,0-0.2,0c0,0-0.1,0-0.1,0
			c-0.1,0-0.1,0-0.2,0c0,0-0.1,0-0.1,0c-0.1,0-0.1,0-0.2,0.1c0,0-0.1,0-0.1,0c-0.1,0-0.1,0.1-0.2,0.1c0,0-0.1,0-0.1,0
			c-0.1,0-0.2,0.1-0.3,0.1l-0.6,0.4c0.1-0.1,0.2-0.1,0.3-0.1c0,0,0.1,0,0.1,0c0.1,0,0.1-0.1,0.2-0.1c0,0,0.1,0,0.1,0
			c0.1,0,0.1,0,0.2-0.1c0,0,0.1,0,0.1,0c0.1,0,0.1,0,0.2,0c0,0,0.1,0,0.1,0c0.1,0,0.1,0,0.2,0c0,0,0.1,0,0.1,0c0.1,0,0.1,0,0.2,0
			c0,0,0.1,0,0.1,0c0.1,0,0.1,0,0.2,0c0,0,0.1,0,0.1,0c0.1,0,0.2,0,0.3,0c0,0,0.1,0,0.1,0c0.1,0,0.3,0,0.4,0.1c0,0,0.1,0,0.1,0
			c0.1,0,0.2,0.1,0.3,0.1c0,0,0.1,0,0.1,0c0.1,0,0.2,0.1,0.4,0.1c0,0,0.1,0,0.1,0c0.1,0.1,0.3,0.1,0.4,0.2c0.1,0,0.2,0.1,0.2,0.1
			c0,0,0.1,0,0.1,0.1c0.1,0.1,0.2,0.1,0.4,0.2c0.1,0.1,0.2,0.1,0.4,0.2c0,0,0.1,0.1,0.1,0.1c0.1,0.1,0.2,0.1,0.2,0.2
			c0,0,0.1,0.1,0.1,0.1c0.1,0.1,0.1,0.1,0.2,0.2c0,0,0.1,0.1,0.1,0.1c0.1,0,0.1,0.1,0.2,0.1c0.1,0.1,0.2,0.2,0.3,0.3
			c0,0,0.1,0.1,0.1,0.1c0.1,0.1,0.3,0.3,0.4,0.4c0,0,0,0,0.1,0.1c0.1,0.1,0.2,0.2,0.4,0.3c0,0,0.1,0.1,0.1,0.1
			c0.1,0.1,0.2,0.2,0.3,0.3c0,0,0.1,0.1,0.1,0.1c0.1,0.1,0.3,0.3,0.4,0.4c0,0,0,0,0.1,0.1c0.1,0.1,0.2,0.3,0.3,0.4
			c0,0,0.1,0.1,0.1,0.1c0.1,0.1,0.2,0.2,0.3,0.4c0,0,0.1,0.1,0.1,0.1c0.1,0.2,0.2,0.3,0.3,0.5c0,0,0,0.1,0,0.1
			c0.1,0.1,0.2,0.3,0.3,0.4c0,0.1,0.1,0.1,0.1,0.2c0.1,0.1,0.2,0.3,0.2,0.4c0,0,0.1,0.1,0.1,0.1c0.1,0.2,0.2,0.4,0.3,0.5
			c0,0,0,0.1,0,0.1c0.1,0.2,0.2,0.3,0.2,0.5c0,0.1,0.1,0.1,0.1,0.2c0.1,0.1,0.1,0.3,0.2,0.4c0,0.1,0,0.1,0.1,0.2
			c0.1,0.2,0.1,0.4,0.2,0.6c0,0,0,0.1,0,0.1c0.1,0.2,0.1,0.3,0.2,0.5c0,0.1,0,0.1,0.1,0.2c0,0.1,0.1,0.3,0.1,0.4c0,0.1,0,0.1,0,0.2
			c0.1,0.2,0.1,0.4,0.1,0.6c0,0,0,0,0,0.1c0,0.2,0.1,0.3,0.1,0.5c0,0.1,0,0.1,0,0.2c0,0.1,0,0.3,0.1,0.4c0,0.1,0,0.1,0,0.2
			c0,0.2,0,0.4,0.1,0.5c0,0.1,0,0.2,0,0.3c0,0,0,0.1,0,0.1c0,0.1,0,0.3,0,0.4c0,0.1,0,0.3,0,0.4c0,0,0,0.1,0,0.1c0,0.1,0,0.2,0,0.3
			c0,0,0,0.1,0,0.1c0,0.1,0,0.2,0,0.2c0,0,0,0.1,0,0.1c0,0.1,0,0.2,0,0.3c0,0,0,0,0,0.1c0,0.1,0,0.2-0.1,0.3c0,0,0,0.1,0,0.1
			c0,0.1,0,0.2-0.1,0.2c0,0,0,0.1,0,0.1c0,0.1,0,0.1-0.1,0.2c0,0,0,0.1,0,0.1c0,0.1-0.1,0.2-0.1,0.2c0,0,0,0,0,0
			c0,0.1-0.1,0.2-0.1,0.3c0,0,0,0,0,0.1c0,0.1-0.1,0.1-0.1,0.2c0,0,0,0.1-0.1,0.1c0,0.1-0.1,0.1-0.1,0.2c0,0,0,0-0.1,0.1
			c-0.1,0.1-0.1,0.1-0.2,0.2c0,0,0,0,0,0c-0.1,0.1-0.1,0.1-0.2,0.2c0,0,0,0-0.1,0.1c0,0-0.1,0.1-0.1,0.1c0,0,0,0-0.1,0.1
			c0,0-0.1,0.1-0.1,0.1c0,0,0,0-0.1,0c-0.1,0.1-0.1,0.1-0.2,0.1l0.6-0.4c0.1,0,0.2-0.1,0.2-0.1c0,0,0,0,0.1,0c0.1,0,0.1-0.1,0.1-0.1
			c0,0,0,0,0.1-0.1c0,0,0.1-0.1,0.1-0.1c0,0,0,0,0.1-0.1c0.1-0.1,0.1-0.1,0.2-0.2c0,0,0,0,0,0C155.1,71.3,155.1,71.2,155.2,71.1z"/>
		<g>
			<path class="st67" d="M148.2,54.7c4.1,2.4,7.5,8.2,7.5,12.9c0,4.7-3.4,6.7-7.5,4.3s-7.5-8.2-7.5-12.9
				C140.7,54.3,144.1,52.4,148.2,54.7z"/>
			<path class="st68" d="M151.5,72.1c-0.9,0-1.9-0.3-2.9-0.9c-3.9-2.2-7-7.7-7-12.2c0-2.8,1.2-4.4,3.3-4.4c0.9,0,1.9,0.3,2.9,0.9
				c3.9,2.2,7,7.7,7,12.2C154.8,70.4,153.6,72.1,151.5,72.1z"/>
		</g>
	</g>
	<g>
		<g>
			<polygon class="st16" points="153.2,110.4 153.2,110.9 141.9,117.5 141.9,117 			"/>
		</g>
		<g>
			<polygon class="st11" points="141.9,117 141.9,117.5 130.4,110.9 130.5,110.4 			"/>
		</g>
		<polygon class="st9" points="153.2,110.4 141.9,117 130.5,110.4 141.8,103.8 		"/>
	</g>
	<g>
		<g>
			<polygon class="st16" points="145.9,86.6 145.9,110.8 141.8,113.2 141.8,89 			"/>
		</g>
		<g>
			<polygon class="st11" points="141.8,89 141.8,113.2 137.7,110.8 137.7,86.6 			"/>
		</g>
		<polygon class="st9" points="145.9,86.6 141.8,89 137.7,86.6 141.8,84.2 		"/>
	</g>
	<path class="st44" d="M128.1,84.7l0-3.8c0,2,1.3,4.1,4,5.6l0,3.8C129.4,88.8,128.1,86.7,128.1,84.7z"/>
	<g>
		<path class="st16" d="M153.2,87.7c-0.2,0.1-0.4,0.2-0.6,0.3c-0.1,0-0.1,0.1-0.2,0.1c-0.2,0.1-0.3,0.1-0.5,0.2
			c-0.1,0-0.1,0.1-0.2,0.1c-0.2,0.1-0.4,0.2-0.6,0.2c0,0-0.1,0-0.1,0c-0.2,0.1-0.4,0.2-0.7,0.2c-5.2,1.7-11.9,1.3-16.3-1.3l-1.9-1.1
			c-2.7-1.6-4-3.6-4-5.6l0,3.8c0,2,1.3,4.1,4,5.6l1.9,1.1c4.4,2.6,11.1,3,16.3,1.3v0c0,0,0,0,0.1,0c0.2-0.1,0.5-0.2,0.7-0.2
			c0,0,0.1,0,0.1,0c0.2-0.1,0.4-0.1,0.6-0.2c0.1,0,0.1-0.1,0.2-0.1c0.2-0.1,0.3-0.1,0.5-0.2c0.1,0,0.1-0.1,0.2-0.1
			c0.2-0.1,0.4-0.2,0.6-0.3l5.3-3.1l0-3.8L153.2,87.7z"/>
	</g>
	<path class="st69" d="M158.4,84.7l-5.5,3.2c-5.3,3-13.8,3-19.1-0.1l-1.9-1.1c-5.3-3.1-5.4-8-0.2-11.1l5.3-3.1L158.4,84.7z"/>
	<path class="st12" d="M143.7,88.1c-3.3,0-6.4-0.7-8.7-2.1l-1.9-1.1c-2-1.1-3.1-2.6-3.1-4c0-1.4,1-2.8,2.9-3.9l4.3-2.5l17.6,10.1
		l-2.5,1.4C150,87.4,146.9,88.1,143.7,88.1z"/>
	<path class="st11" d="M132.9,78.8l4.3-2.5l16,9.2l1.5-0.9l-17.6-10.1l-4.3,2.5c-1.9,1.1-2.9,2.5-2.9,3.9c0,0.3,0.1,0.6,0.1,0.9
		C130.5,80.7,131.4,79.7,132.9,78.8z"/>
	<g>
		<g class="st18">
			<g>
				<polygon class="st70" points="146.5,74 145.7,73.5 145.7,78.4 146.5,78.9 				"/>
			</g>
			<g class="st18">
				<g>
					<path class="st70" d="M146.2,73.3l-0.8-0.5c0.2,0.1,0.3,0.3,0.3,0.5l0.8,0.5C146.4,73.6,146.3,73.4,146.2,73.3L146.2,73.3z"/>
					<path class="st70" d="M146.5,73.8l-0.8-0.5c0,0.1,0,0.1,0,0.2l0.8,0.5C146.5,73.9,146.5,73.9,146.5,73.8L146.5,73.8z"/>
				</g>
			</g>
			<g>
				<polygon class="st71" points="144.6,75.6 143.7,75.1 143.6,75.2 144.5,75.7 				"/>
			</g>
			<g>
				<polygon class="st70" points="143.7,76.1 142.9,75.6 142.9,76 143.7,76.5 				"/>
			</g>
			<g>
				<polygon class="st71" points="143.8,76 143,75.6 142.9,75.6 143.7,76.1 				"/>
			</g>
			<g>
				<defs>
					<path id="SVGID_9_" d="M146.6,72.5l-0.8-0.5c-0.3-0.1-0.6-0.2-1.1,0.1l0.8,0.5C146,72.4,146.3,72.4,146.6,72.5z"/>
				</defs>
				<use xlink:href="#SVGID_9_"  style="overflow:visible;fill:#9ED7E2;"/>
				<clipPath id="SVGID_10_">
					<use xlink:href="#SVGID_9_"  style="overflow:visible;"/>
				</clipPath>
				<g class="st72">
					<path class="st73" d="M146.6,72.5l-0.8-0.5c-0.1-0.1-0.3-0.1-0.4-0.1l0.8,0.5C146.3,72.4,146.5,72.4,146.6,72.5L146.6,72.5z"/>
					<path class="st73" d="M146.1,72.4l-0.8-0.5c-0.1,0-0.2,0-0.3,0.1l0.8,0.5C145.9,72.5,146,72.4,146.1,72.4L146.1,72.4z"/>
					<path class="st73" d="M145.8,72.5L145,72c-0.1,0-0.2,0.1-0.4,0.2l0.8,0.5C145.6,72.6,145.7,72.5,145.8,72.5L145.8,72.5z"/>
				</g>
			</g>
			<g class="st18">
				<defs>
					<path id="SVGID_11_" class="st18" d="M145.4,72.7l-0.8-0.5c-0.1,0-0.1,0.1-0.2,0.1c-0.4,0.3-0.7,0.7-1,1.1
						c-0.4,0.8-0.5,1.7-0.5,2.1l0.8,0.5c0-0.4,0-1.3,0.5-2.1c0.2-0.5,0.6-0.9,1-1.1C145.3,72.7,145.4,72.7,145.4,72.7z"/>
				</defs>
				<use xlink:href="#SVGID_11_"  style="overflow:visible;fill:#9ED7E2;"/>
				<clipPath id="SVGID_12_">
					<use xlink:href="#SVGID_11_"  style="overflow:visible;"/>
				</clipPath>
				<g class="st74">
					<path class="st75" d="M145.4,72.7l-0.8-0.5c0,0,0,0,0,0L145.4,72.7C145.4,72.7,145.4,72.7,145.4,72.7L145.4,72.7z"/>
					<path class="st73" d="M145.4,72.7l-0.8-0.5c0,0-0.1,0.1-0.1,0.1c-0.1,0.1-0.2,0.1-0.2,0.2l0.8,0.5c0.1-0.1,0.2-0.1,0.2-0.2
						C145.3,72.7,145.4,72.7,145.4,72.7L145.4,72.7z"/>
					<path class="st73" d="M145,72.9l-0.8-0.5c-0.3,0.3-0.5,0.6-0.7,1c-0.1,0.2-0.2,0.4-0.2,0.6l0.8,0.5c0.1-0.2,0.1-0.4,0.2-0.6
						C144.5,73.5,144.7,73.2,145,72.9L145,72.9z"/>
					<path class="st73" d="M144.1,74.5l-0.8-0.5c-0.1,0.2-0.1,0.5-0.2,0.7l0.8,0.5C143.9,75,144,74.7,144.1,74.5L144.1,74.5z"/>
					<path class="st73" d="M143.9,75.2l-0.8-0.5c-0.1,0.4-0.1,0.7-0.1,0.8l0.8,0.5C143.8,75.9,143.8,75.6,143.9,75.2L143.9,75.2z"/>
					<polygon class="st76" points="143.8,76 143,75.6 143,75.6 143.8,76 143.8,76 					"/>
				</g>
			</g>
			<g>
				<path class="st77" d="M145.4,72.7c-0.1,0-0.1,0.1-0.2,0.1c-0.4,0.3-0.7,0.7-1,1.1c-0.4,0.8-0.5,1.7-0.5,2.1l-0.1,0.1l0,0.4
					l0.8-0.5l0-0.4l-0.1,0.1c0-0.4,0-1,0.3-1.6c0.1-0.3,0.3-0.5,0.6-0.6c0,0,0.1,0,0.1-0.1c0.9-0.5,1,0.4,1,0.6l0,4.9l0.6-0.4l0-4.9
					l0,0C147.1,72.9,146.7,72,145.4,72.7z"/>
			</g>
		</g>
	</g>
	<path class="st78" d="M142.3,86.2c0.1-0.7-0.5-1.4-1.5-1.5c-0.9-0.2-1.8,0.2-2,0.9c-0.1,0.7,0.5,1.4,1.5,1.5
		C141.3,87.3,142.1,86.9,142.3,86.2z"/>
	<g>
		<g>
			<g class="st18">
				<g>
					<polygon class="st79" points="35.7,135.8 36.9,135.1 36.9,139.4 35.7,140.1 					"/>
				</g>
				<g>
					<polygon class="st80" points="34.4,135.1 35.6,134.4 36.9,135.1 35.7,135.8 					"/>
				</g>
				<g>
					<polygon class="st81" points="35.7,135.8 35.7,140.1 34.4,139.3 34.4,135.1 					"/>
				</g>
			</g>
		</g>
		<g>
			<g class="st18">
				<g>
					<polygon class="st82" points="74.9,113.2 76.1,112.5 76.1,116.8 74.9,117.5 					"/>
				</g>
				<g>
					<polygon class="st80" points="73.6,112.4 74.8,111.7 76.1,112.5 74.9,113.2 					"/>
				</g>
				<g>
					<polygon class="st81" points="74.9,113.2 74.9,117.5 73.6,116.7 73.6,112.4 					"/>
				</g>
			</g>
		</g>
		<g>
			<g class="st18">
				<g>
					<polygon class="st81" points="19.4,126.4 20.6,125.7 20.6,130 19.4,130.7 					"/>
				</g>
				<g>
					<polygon class="st80" points="18.1,125.6 19.3,124.9 20.6,125.7 19.4,126.4 					"/>
				</g>
				<g>
					<polygon class="st83" points="19.4,126.4 19.4,130.7 18.1,129.9 18.1,125.6 					"/>
				</g>
			</g>
		</g>
		<g>
			<g class="st18">
				<g>
					<polygon class="st84" points="58.8,87.2 60.2,86.3 60.2,88.1 58.8,88.9 					"/>
				</g>
				<g>
					<polygon class="st85" points="57.3,86.3 58.7,85.4 60.4,86.4 59,87.2 					"/>
				</g>
				<g>
					<polygon class="st85" points="73.1,95.6 60.2,88.1 58.8,88.9 73,97.2 73.1,97.2 					"/>
				</g>
				<g>
					<polygon class="st82" points="74.7,98.2 76.2,97.4 76.1,115.1 74.7,115.9 					"/>
				</g>
				<g>
					<polygon class="st82" points="74.7,84.6 76.2,83.8 76.2,97.4 74.7,98.2 					"/>
				</g>
				<g>
					<polygon class="st85" points="73,83.6 74.5,82.8 76.2,83.8 74.7,84.6 					"/>
				</g>
				<g>
					<polygon class="st79" points="74.7,84.6 74.7,98.2 74.7,115.9 57.1,105.6 57.1,87.9 57.1,86.2 58.8,87.2 58.8,88.9 73,97.2 
						73,83.6 					"/>
				</g>
			</g>
		</g>
		<g>
			<g class="st18">
				<g>
					<polygon class="st86" points="74.7,111.7 74.7,115.9 35.6,138.7 35.6,134.5 					"/>
				</g>
				<g>
					<polygon class="st87" points="74.7,111.7 35.6,134.5 18.1,124.2 57.1,101.4 					"/>
				</g>
			</g>
		</g>
		<g>
			<g class="st18">
				<g>
					<polygon class="st86" points="74.7,107.6 74.7,111.8 35.6,134.6 35.6,130.4 					"/>
				</g>
				<g>
					<polygon class="st88" points="74.7,107.6 35.6,130.4 18.1,120.2 57.1,97.3 					"/>
				</g>
			</g>
		</g>
		<g>
			<g class="st18">
				<g>
					<polygon class="st89" points="74.7,107.6 74.7,109.6 35.6,132.4 35.6,130.4 					"/>
				</g>
				<g>
					<polygon class="st90" points="58.3,117.2 35.6,130.4 35.6,132.4 58.3,119.1 					"/>
				</g>
				<g>
					<path class="st91" d="M18.3,120.3c0.1,0.1,0.1,0.1,0.1,0.2c0,0.1,0,0.1,0,0.2h0v1.6l17.2,10.1l0-1.9L18.3,120.3z"/>
				</g>
				<g>
					<polygon class="st92" points="74.7,107.6 35.6,130.4 18.1,120.2 57.1,97.3 					"/>
				</g>
				<g>
					<polygon class="st93" points="58.3,117.2 35.6,130.4 18.1,120.2 40.7,106.9 					"/>
				</g>
			</g>
		</g>
		<g>
			<g class="st18">
				<g>
					<polygon class="st90" points="71,103 71,106.8 62.1,112.2 62.1,110.4 					"/>
				</g>
				<g>
					<polygon class="st90" points="62.1,110.4 62.1,112.2 49.5,104.9 49.5,104.3 					"/>
				</g>
				<g>
					<polygon class="st94" points="71,103 62.1,111.6 49.5,104.3 58.4,95.7 					"/>
				</g>
			</g>
		</g>
		<g>
			<g class="st18">
				<g>
					<polygon class="st84" points="19.8,95.7 21.2,94.9 21.2,116.8 19.8,117.6 					"/>
				</g>
				<g>
					<polygon class="st85" points="18.1,94.8 19.5,93.9 21.2,94.9 19.8,95.7 					"/>
				</g>
				<g>
					<polygon class="st85" points="34.4,124.5 21.2,116.8 19.8,117.6 34,125.9 34.4,125.7 					"/>
				</g>
				<polygon class="st82" points="35.7,105.1 35.7,126.9 35.7,138.7 37.1,137.9 37.1,126.1 37.1,104.2 				"/>
				<g>
					<polygon class="st85" points="34,104.1 35.4,103.3 37.1,104.2 35.7,105.1 					"/>
				</g>
				<polygon class="st79" points="34,104.1 34,125.9 19.8,117.6 19.8,95.7 18.1,94.8 18.1,116.6 18.1,124.3 18.1,128.4 35.6,138.7 
					35.6,134.5 35.6,134.5 35.6,132.5 35.7,132.5 35.7,126.9 35.7,105.1 				"/>
			</g>
		</g>
	</g>
	<g>
		<g>
			<g class="st18">
				<g>
					<polygon class="st82" points="75,84.7 76.2,84 76.2,88.2 75,88.9 					"/>
				</g>
				<g>
					<polygon class="st80" points="73.6,83.9 74.8,83.2 76.2,84 75,84.7 					"/>
				</g>
				<g>
					<polygon class="st81" points="75,84.7 75,88.9 73.6,88.1 73.6,83.9 					"/>
				</g>
			</g>
		</g>
		<g>
			<g class="st18">
				<g>
					<polygon class="st84" points="58.9,58.6 60.3,57.8 60.3,59.5 58.9,60.3 					"/>
				</g>
				<g>
					<polygon class="st85" points="57.3,57.7 58.7,56.9 60.4,57.9 59,58.7 					"/>
				</g>
				<g>
					<polygon class="st85" points="58.9,60.3 60.3,59.5 74.5,67.8 73.1,68.7 					"/>
				</g>
				<g>
					<polygon class="st82" points="74.8,69.7 76.2,68.8 76.2,86.5 74.7,87.3 					"/>
				</g>
				<g>
					<polygon class="st79" points="74.8,67.9 76.2,67.1 76.2,68.8 74.8,69.7 					"/>
				</g>
				<g>
					<polygon class="st85" points="73.1,66.9 74.5,66.1 76.2,67.1 74.8,67.9 					"/>
				</g>
				<g>
					<polygon class="st79" points="74.8,67.9 74.8,69.7 74.7,87.3 57.1,77 57.2,59.4 57.2,57.6 58.9,58.6 58.9,60.3 73.1,68.7 
						73.1,66.9 					"/>
				</g>
			</g>
		</g>
		<g>
			<g class="st18">
				<g>
					<polygon class="st86" points="74.7,83.1 74.7,87.3 35.7,110.2 35.7,106 					"/>
				</g>
				<g>
					<polygon class="st87" points="74.7,83.1 35.7,106 18.1,95.7 57.2,72.9 					"/>
				</g>
			</g>
		</g>
		<g>
			<g class="st18">
				<g>
					<polygon class="st86" points="74.7,79.1 74.7,83.2 35.7,106.1 35.7,101.9 					"/>
				</g>
				<g>
					<polygon class="st88" points="74.7,79.1 35.7,101.9 18.1,91.6 57.2,68.8 					"/>
				</g>
			</g>
		</g>
		<g>
			<g class="st18">
				<g>
					<polygon class="st89" points="74.7,79.1 74.7,81 35.7,103.8 35.7,101.9 					"/>
				</g>
				<g>
					<polygon class="st90" points="58.4,88.6 35.7,101.9 35.7,103.8 58.4,90.6 					"/>
				</g>
				<g>
					<polygon class="st91" points="18.3,91.7 18.3,93.6 35.7,103.8 35.7,101.9 					"/>
				</g>
				<g>
					<polygon class="st92" points="74.7,79.1 35.7,101.9 18.1,91.6 57.2,68.8 					"/>
				</g>
				<g>
					<polygon class="st93" points="58.3,88.7 35.7,101.9 18.1,91.6 40.7,78.4 					"/>
				</g>
			</g>
		</g>
		<g>
			<g class="st18">
				<g>
					<polygon class="st90" points="71,74.5 71,78.3 62.1,83.7 62.1,81.9 					"/>
				</g>
				<g>
					<polygon class="st90" points="62.1,81.9 62.1,83.7 49.5,76.4 49.5,75.7 					"/>
				</g>
				<g>
					<polygon class="st94" points="71,74.5 62.1,83 49.5,75.7 58.4,67.2 					"/>
				</g>
			</g>
		</g>
		<g>
			<g class="st18">
				<g>
					<polygon class="st84" points="19.8,87.3 21.3,86.5 21.3,88.2 19.8,89 					"/>
				</g>
				<g>
					<polygon class="st85" points="18.1,86.3 19.6,85.5 21.3,86.5 19.8,87.3 					"/>
				</g>
				<g>
					<polygon class="st85" points="19.8,89 21.3,88.2 35.5,96.5 34.1,97.4 					"/>
				</g>
				<polygon class="st82" points="35.8,96.6 35.8,98.3 35.7,110.2 37.1,109.3 37.2,97.5 37.2,95.8 				"/>
				<g>
					<polygon class="st85" points="34.1,95.6 35.5,94.8 37.2,95.8 35.8,96.6 					"/>
				</g>
				<polygon class="st79" points="34.1,95.6 34.1,97.4 19.8,89 19.8,87.3 18.1,86.3 18.1,88 18.1,91.6 18.1,91.6 18.1,93.5 
					18.1,93.7 18.1,93.7 18.1,95.8 18.1,95.8 18.1,99.9 35.7,110.2 35.7,106 35.7,106 35.7,104 35.7,104 35.8,98.3 35.8,96.6 				
					"/>
			</g>
		</g>
	</g>
	<g>
		<g>
			<polygon class="st95" points="43.3,137.3 74.5,155.2 115.4,131.6 84.3,113.6 			"/>
		</g>
	</g>
	<polygon class="st96" points="47.5,139.7 43.3,137.3 84.3,113.6 88.4,116 	"/>
	<polygon class="st96" points="56.6,145 52.5,142.6 93.5,118.9 97.6,121.3 	"/>
	<polygon class="st96" points="64.8,149.6 60.6,147.2 101.6,123.6 105.7,126 	"/>
	<polygon class="st96" points="74.5,155.2 70.4,152.8 111.2,129.2 115.4,131.6 	"/>
	<g>
		<g>
			<g class="st18">
				<g>
					<polygon class="st79" points="100.4,173.2 101.6,172.5 101.6,176.8 100.4,177.5 					"/>
				</g>
				<g>
					<polygon class="st80" points="99,172.4 100.2,171.7 101.6,172.5 100.4,173.2 					"/>
				</g>
				<g>
					<polygon class="st81" points="100.4,173.2 100.4,177.5 99,176.7 99,172.4 					"/>
				</g>
			</g>
		</g>
		<g>
			<g class="st18">
				<g>
					<polygon class="st82" points="139.6,150.6 140.8,149.9 140.8,154.1 139.6,154.8 					"/>
				</g>
				<g>
					<polygon class="st80" points="138.2,149.8 139.4,149.1 140.8,149.9 139.6,150.6 					"/>
				</g>
				<g>
					<polygon class="st81" points="139.6,150.6 139.6,154.8 138.2,154.1 138.2,149.8 					"/>
				</g>
			</g>
		</g>
		<g>
			<g class="st18">
				<g>
					<polygon class="st81" points="84.1,163.8 85.3,163.1 85.3,167.3 84.1,168 					"/>
				</g>
				<g>
					<polygon class="st80" points="82.7,163 83.9,162.3 85.3,163.1 84.1,163.8 					"/>
				</g>
				<g>
					<polygon class="st83" points="84.1,163.8 84.1,168 82.7,167.3 82.7,163 					"/>
				</g>
			</g>
		</g>
		<g>
			<g class="st18">
				<g>
					<polygon class="st84" points="123.5,124.5 124.9,123.7 124.9,125.4 123.5,126.3 					"/>
				</g>
				<g>
					<polygon class="st85" points="121.9,123.6 123.3,122.8 125,123.8 123.6,124.6 					"/>
				</g>
				<g>
					<polygon class="st85" points="137.8,133 124.9,125.4 123.5,126.3 137.7,134.6 137.8,134.6 					"/>
				</g>
				<g>
					<polygon class="st82" points="139.4,135.6 140.8,134.8 140.8,152.4 139.4,153.3 					"/>
				</g>
				<g>
					<polygon class="st82" points="139.4,121.9 140.8,121.1 140.8,134.8 139.4,135.6 					"/>
				</g>
				<g>
					<polygon class="st85" points="137.7,121 139.1,120.1 140.8,121.1 139.4,121.9 					"/>
				</g>
				<g>
					<polygon class="st79" points="139.4,121.9 139.4,135.6 139.4,153.3 121.7,143 121.8,125.3 121.8,123.5 123.5,124.5 
						123.5,126.3 137.7,134.6 137.7,121 					"/>
				</g>
			</g>
		</g>
		<g>
			<g class="st18">
				<g>
					<polygon class="st86" points="139.4,149.1 139.4,153.3 100.3,176.1 100.3,171.9 					"/>
				</g>
				<g>
					<polygon class="st87" points="139.4,149.1 100.3,171.9 82.7,161.6 121.8,138.8 					"/>
				</g>
			</g>
		</g>
		<g>
			<g class="st18">
				<g>
					<polygon class="st86" points="139.4,145 139.4,149.2 100.3,172 100.3,167.8 					"/>
				</g>
				<g>
					<polygon class="st88" points="139.4,145 100.3,167.8 82.7,157.5 121.8,134.7 					"/>
				</g>
			</g>
		</g>
		<g>
			<g class="st18">
				<g>
					<polygon class="st89" points="139.4,145 139.4,146.9 100.3,169.7 100.3,167.8 					"/>
				</g>
				<g>
					<polygon class="st90" points="123,154.6 100.3,167.8 100.3,169.7 123,156.5 					"/>
				</g>
				<g>
					<polygon class="st91" points="100.3,167.8 100.3,169.7 82.7,159.5 82.7,157.5 					"/>
				</g>
				<g>
					<polygon class="st92" points="139.4,145 100.3,167.8 82.7,157.5 121.8,134.7 					"/>
				</g>
				<g>
					<polygon class="st93" points="122.9,154.6 100.3,167.8 82.7,157.5 105.4,144.3 					"/>
				</g>
			</g>
		</g>
		<g>
			<g class="st18">
				<g>
					<polygon class="st90" points="135.7,140.4 135.6,144.2 126.8,149.6 126.8,147.8 					"/>
				</g>
				<g>
					<polygon class="st90" points="126.8,147.8 126.8,149.6 114.2,142.3 114.2,141.7 					"/>
				</g>
				<g>
					<polygon class="st94" points="135.7,140.4 126.8,149 114.2,141.7 123.1,133.1 					"/>
				</g>
			</g>
		</g>
		<g>
			<g class="st18">
				<g>
					<polygon class="st84" points="84.5,133.1 85.9,132.3 85.9,154.1 84.5,155 					"/>
				</g>
				<g>
					<polygon class="st85" points="82.8,132.1 84.2,131.3 85.9,132.3 84.5,133.1 					"/>
				</g>
				<g>
					<polygon class="st85" points="99,161.9 85.9,154.1 84.5,155 98.7,163.3 99,163.1 					"/>
				</g>
				<polygon class="st82" points="100.4,142.4 100.4,164.3 100.3,176.1 101.8,175.3 101.8,163.5 101.8,141.6 				"/>
				<g>
					<polygon class="st85" points="98.7,141.4 100.1,140.6 101.8,141.6 100.4,142.4 					"/>
				</g>
				<polygon class="st79" points="98.7,141.4 98.7,163.3 84.5,155 84.5,133.1 82.8,132.1 82.8,154 82.7,157.5 82.7,157.5 
					82.7,159.5 82.7,159.6 82.7,159.6 82.7,161.7 82.7,161.7 82.7,165.8 100.3,176.1 100.3,171.9 100.3,171.9 100.3,169.9 
					100.3,169.9 100.4,164.3 100.4,142.4 				"/>
			</g>
		</g>
	</g>
	<g>
		<g>
			<g class="st18">
				<g>
					<polygon class="st82" points="139.6,122 140.8,121.3 140.8,125.6 139.6,126.3 					"/>
				</g>
				<g>
					<polygon class="st80" points="138.3,121.2 139.5,120.5 140.8,121.3 139.6,122 					"/>
				</g>
				<g>
					<polygon class="st81" points="139.6,122 139.6,126.3 138.3,125.5 138.3,121.2 					"/>
				</g>
			</g>
		</g>
		<g>
			<g class="st18">
				<g>
					<polygon class="st84" points="123.5,96 125,95.1 124.9,96.9 123.5,97.7 					"/>
				</g>
				<g>
					<polygon class="st85" points="122,95.1 123.4,94.2 125.1,95.2 123.7,96 					"/>
				</g>
				<g>
					<polygon class="st85" points="123.5,97.7 124.9,96.9 139.2,105.2 137.8,106 					"/>
				</g>
				<g>
					<polygon class="st82" points="139.4,107 140.9,106.2 140.8,123.9 139.4,124.7 					"/>
				</g>
				<g>
					<polygon class="st79" points="139.5,105.3 140.9,104.5 140.9,106.2 139.4,107 					"/>
				</g>
				<g>
					<polygon class="st85" points="137.8,104.3 139.2,103.5 140.9,104.5 139.5,105.3 					"/>
				</g>
				<g>
					<polygon class="st79" points="139.5,105.3 139.4,107 139.4,124.7 121.8,114.4 121.8,96.7 121.8,95 123.5,96 123.5,97.7 
						137.8,106 137.8,104.3 					"/>
				</g>
			</g>
		</g>
		<g>
			<g class="st18">
				<g>
					<polygon class="st86" points="139.4,120.5 139.4,124.7 100.3,147.5 100.4,143.3 					"/>
				</g>
				<g>
					<polygon class="st87" points="139.4,120.5 100.4,143.3 82.8,133 121.8,110.2 					"/>
				</g>
			</g>
		</g>
		<g>
			<g class="st18">
				<g>
					<polygon class="st86" points="139.4,116.4 139.4,120.6 100.3,143.4 100.4,139.2 					"/>
				</g>
				<g>
					<polygon class="st88" points="139.4,116.4 100.4,139.2 82.8,129 121.8,106.1 					"/>
				</g>
			</g>
		</g>
		<g>
			<g class="st18">
				<g>
					<polygon class="st89" points="139.4,116.4 139.4,118.4 100.3,141.2 100.3,139.2 					"/>
				</g>
				<g>
					<polygon class="st90" points="123,126 100.3,139.2 100.3,141.2 123,127.9 					"/>
				</g>
				<g>
					<polygon class="st91" points="100.3,139.2 100.3,141.2 82.8,130.9 82.8,129 					"/>
				</g>
				<g>
					<polygon class="st92" points="139.4,116.4 100.3,139.2 82.8,129 121.8,106.1 					"/>
				</g>
				<g>
					<polygon class="st93" points="123,126 100.3,139.2 82.8,129 105.4,115.7 					"/>
				</g>
			</g>
		</g>
		<g>
			<g class="st18">
				<g>
					<polygon class="st90" points="135.7,111.8 135.7,115.6 126.8,121 126.8,119.2 					"/>
				</g>
				<g>
					<polygon class="st90" points="126.8,119.2 126.8,121 114.2,113.7 114.2,113.1 					"/>
				</g>
				<g>
					<polygon class="st94" points="135.7,111.8 126.8,120.4 114.2,113.1 123.1,104.5 					"/>
				</g>
			</g>
		</g>
		<g>
			<g class="st18">
				<g>
					<polygon class="st84" points="84.5,124.7 85.9,123.8 85.9,125.6 84.5,126.4 					"/>
				</g>
				<g>
					<polygon class="st85" points="82.8,123.7 84.2,122.8 85.9,123.8 84.5,124.7 					"/>
				</g>
				<g>
					<polygon class="st85" points="84.5,126.4 85.9,125.6 100.1,133.9 98.7,134.7 					"/>
				</g>
				<polygon class="st82" points="100.4,134 100.4,135.7 100.4,147.5 101.8,146.7 101.8,134.9 101.8,133.1 				"/>
				<g>
					<polygon class="st85" points="98.7,133 100.1,132.2 101.8,133.1 100.4,134 					"/>
				</g>
				<polygon class="st79" points="98.7,133 98.7,134.7 84.5,126.4 84.5,124.7 82.8,123.7 82.8,125.4 82.8,129 82.8,129 82.8,130.9 
					82.8,131 82.8,131 82.8,133.1 82.8,133.1 82.8,137.2 100.3,147.5 100.4,143.3 100.3,143.3 100.4,141.3 100.4,141.3 100.4,135.7 
					100.4,134 				"/>
			</g>
		</g>
	</g>
</g>
</svg>
