<?xml version="1.0" encoding="utf-8"?>
<!-- Generator: Adobe Illustrator 22.0.1, SVG Export Plug-In . SVG Version: 6.00 Build 0)  -->
<svg version="1.1" id="Слой_1" xmlns="http://www.w3.org/2000/svg" xmlns:xlink="http://www.w3.org/1999/xlink" x="0px" y="0px"
	 viewBox="0 0 200 200" style="enable-background:new 0 0 200 200;" xml:space="preserve">
<style type="text/css">
	.st0{fill:#B75151;}
	.st1{fill:#FC633A;}
	.st2{fill:#D3644F;}
	.st3{fill:#CE4C42;}
	.st4{fill:#C46053;}
	.st5{fill:#773837;}
	.st6{fill:#E24B2D;}
	.st7{fill:#CC4C33;}
	.st8{enable-background:new    ;}
	.st9{fill:#B2B2B2;}
	.st10{fill:#378A87;}
	.st11{fill:#4ABBB8;}
	.st12{fill:#40A19E;}
	.st13{fill:#358683;}
	.st14{fill:#1E2022;}
	.st15{fill:#9E9E9E;}
	.st16{fill:#7B7B7B;}
	.st17{fill:#999999;}
	.st18{fill:#DFB100;}
	.st19{fill:#BF9800;}
	.st20{fill:#9F7E00;}
	.st21{fill:#F71616;}
	.st22{fill:#9F5713;}
	.st23{fill:#3E9C99;}
	.st24{fill:#303437;}
	.st25{fill:#B1D132;}
	.st26{fill:#D3D3D3;}
	.st27{fill:#FDB813;}
	.st28{fill:#A55B14;}
	.st29{fill:#838383;}
	.st30{fill:#FFF9F5;}
	.st31{fill:#2B2E31;}
	.st32{fill:#F1C40F;}
	.st33{fill:#07334E;}
	.st34{fill:#025074;}
	.st35{fill:#71CFF3;}
	.st36{fill:#E4EBF0;}
	.st37{fill:#F5F5F2;}
	.st38{fill:#C7CCD1;}
	.st39{fill:#BEC2C7;}
	.st40{fill:#DBE1E6;}
	.st41{fill:#BD9649;}
	.st42{fill:#655027;}
	.st43{fill:#927438;}
	.st44{fill:#B48F45;}
	.st45{fill:#704227;}
	.st46{fill:#4E2E1B;}
	.st47{fill:#4E2D1B;}
	.st48{fill:#915533;}
	.st49{fill:#B6B7B8;}
	.st50{fill:#F0F0F0;}
	.st51{fill:#D4D5D7;}
	.st52{fill:#C7C8C9;}
	.st53{fill:#E5E6E8;}
	.st54{fill:#DBDBDB;}
	.st55{fill:#BCF1FF;}
	.st56{fill:#68D6F9;}
	.st57{fill:#DBDCDE;}
	.st58{opacity:0.3;fill:#55D6D2;}
	.st59{fill:#414D54;}
	.st60{fill:#5F7078;}
	.st61{fill:#BFCBE3;}
	.st62{fill:#FAFBFD;}
	.st63{fill:#7AA6AE;}
	.st64{fill:#88B9C3;}
	.st65{clip-path:url(#SVGID_2_);enable-background:new    ;}
	.st66{fill:#9ED7E2;}
	.st67{clip-path:url(#SVGID_4_);enable-background:new    ;}
	.st68{fill:#7EACB5;}
	.st69{fill:#6F979E;}
	.st70{fill:#557379;}
	.st71{fill:#64616C;}
	.st72{fill:#B73D37;}
	.st73{fill:#FEC111;}
	.st74{fill:#FA624E;}
	.st75{fill:#B1C2E3;}
	.st76{fill:#A9BBDF;}
	.st77{fill:#D0D9EA;}
	.st78{fill:#B7C4DF;}
	.st79{fill:#D7D8DA;}
	.st80{fill:#E1E4EA;}
	.st81{fill:#868687;}
	.st82{clip-path:url(#SVGID_6_);enable-background:new    ;}
	.st83{clip-path:url(#SVGID_8_);enable-background:new    ;}
	.st84{fill:#71C6DB;}
	.st85{fill:#49B8B5;}
	.st86{fill:#374246;}
	.st87{fill:#56676E;}
	.st88{fill:#89D8E8;}
	.st89{fill:#60A8BA;}
	.st90{clip-path:url(#SVGID_10_);enable-background:new    ;}
	.st91{fill:#174969;}
	.st92{clip-path:url(#SVGID_12_);}
	.st93{fill:#72CFE3;}
	.st94{fill:#BBC3D3;}
	.st95{fill:#A4B0C8;}
	.st96{fill:#093F61;}
	.st97{fill:#0A4B73;}
	.st98{fill:#0B507A;}
	.st99{fill:#9C493F;}
	.st100{fill:#EDDACE;}
	.st101{fill:#FFFFFF;}
	.st102{fill:#EDCAB4;}
	.st103{fill:#1D2225;}
	.st104{fill:#171B1D;}
	.st105{fill:#2B3236;}
	.st106{fill:#1D2124;}
	.st107{fill:#8B9895;}
	.st108{fill:#191919;}
	.st109{fill:#141414;}
	.st110{fill:#252525;}
	.st111{fill:#707B78;}
	.st112{fill:#8C9A97;}
	.st113{fill:#0C5D8F;}
	.st114{fill:#FDCF60;}
	.st115{fill:#EDC7AF;}
	.st116{fill:#ECC6AF;}
	.st117{fill:#EDD9CC;}
	.st118{fill:#EDAF87;}
	.st119{fill:#FEF7E5;}
	.st120{fill:#F0E5DF;}
	.st121{fill:#55A1C2;}
	.st122{fill:#62C3ED;}
	.st123{fill:#2EABE3;}
	.st124{fill:#2792C2;}
	.st125{fill:#61B8DE;}
	.st126{fill:#70D4FF;}
</style>
<g>
	<polygon class="st0" points="100.5,7.8 100.5,81.8 122.7,94.4 194.1,61.9 	"/>
	<polygon class="st1" points="122.7,94.4 194.1,134.9 194.1,61.9 194.1,61.9 	"/>
	<polygon class="st2" points="6.8,134.9 78.2,94.4 6.8,61.9 	"/>
	<polygon class="st3" points="100.5,7.8 6.8,61.9 6.8,61.9 78.2,94.4 100.5,81.8 	"/>
	<polygon class="st4" points="100.4,188.9 194.1,134.9 194.1,129.2 100.4,183.2 	"/>
	<polygon class="st5" points="190.5,131.3 184.3,127.7 184.3,127.7 178.3,124.2 178.3,124.2 172.3,120.8 172.3,120.8 166.3,117.3 
		166.3,117.3 160.3,113.9 160.3,113.9 154.3,110.4 154.3,110.4 148.3,107 148.3,107 142.6,103.6 142.6,103.6 136.6,100.2 
		136.6,100.2 130.6,96.7 130.6,96.7 124.6,93.3 124.6,93.3 118.6,89.8 118.6,89.8 112.7,86.4 112.7,86.4 106.7,82.9 106.7,82.9 
		100.5,79.3 94.2,82.9 94.2,82.9 88.3,86.4 88.3,86.4 82.5,89.7 82.5,89.7 76.3,93.3 76.3,93.3 70.3,96.7 70.3,96.7 64.3,100.2 
		64.3,100.2 58.3,103.6 58.3,103.6 52.6,107 52.6,107 46.3,110.5 46.3,110.5 40.6,113.9 40.6,113.9 34.4,117.5 34.4,117.5 
		28.6,120.8 28.6,120.8 22.4,124.4 22.4,124.4 16.7,127.7 16.7,127.7 10.4,131.3 16.7,134.9 16.7,134.9 22.4,138.2 22.4,138.2 
		28.6,141.8 28.6,141.8 34.6,145.2 34.6,145.2 40.6,148.7 40.6,148.7 46.6,152.2 46.6,152.2 52.6,155.6 52.6,155.6 58.6,159.1 
		58.6,159.1 64.5,162.5 64.5,162.5 70.5,166 70.5,166 76.5,169.4 76.5,169.4 82.5,172.9 82.5,172.9 88.5,176.3 88.5,176.3 
		94.5,179.8 94.5,179.8 100.5,183.3 106.5,179.8 106.5,179.8 111.6,176.9 112.4,176.3 112.4,176.3 118.4,172.9 118.4,172.9 
		123.5,169.9 124.6,169.3 124.6,169.3 130.4,166 130.4,166 135.5,163 136.4,162.5 136.4,162.5 142.4,159.1 142.4,159.1 147.5,156.1 
		148.3,155.6 148.3,155.6 154.3,152.2 154.3,152.2 159.4,149.2 160.3,148.7 160.3,148.7 166.3,145.2 166.3,145.2 171.4,142.3 
		172.3,141.8 172.3,141.8 178.3,138.3 178.3,138.3 183.4,135.4 184.3,134.9 184.3,134.9 	"/>
	<polygon class="st6" points="190.5,131.3 100.5,79.3 100.5,11.6 190.5,63.5 	"/>
	<polygon class="st1" points="10.4,131.3 100.5,79.3 100.5,11.6 10.4,63.5 	"/>
	<polygon class="st7" points="100.4,188.9 6.8,134.9 6.8,129.2 100.4,183.2 	"/>
	<g>
		<g class="st8">
			<g>
				<polygon class="st9" points="35.2,80.6 34.4,80.1 39.4,70.8 40.2,71.3 				"/>
			</g>
			<g>
				<polygon class="st10" points="39.8,71.1 39,70.6 39.4,70.8 40.2,71.3 				"/>
			</g>
			<g class="st8">
				<g class="st8">
					<path class="st11" d="M36,75.2l-0.8-0.5c0.3-0.1,0.6-0.2,0.9-0.4c0.6-0.3,1.1-0.8,1.5-1.3l0.8,0.5c-0.4,0.5-1,1-1.5,1.3
						C36.6,75,36.3,75.1,36,75.2L36,75.2z"/>
					<path class="st12" d="M38.5,73.4L37.7,73c0.4-0.5,0.8-1.1,1-1.7l0.8,0.5C39.2,72.4,38.9,72.9,38.5,73.4L38.5,73.4z"/>
					<path class="st13" d="M39.5,71.8l-0.8-0.5c0.1-0.2,0.2-0.4,0.3-0.7l0.8,0.5C39.7,71.3,39.6,71.5,39.5,71.8L39.5,71.8z"/>
				</g>
			</g>
			<g>
				<polygon class="st14" points="41.8,78.4 41,77.9 40.9,62.8 41.7,63.3 				"/>
			</g>
			<g>
				<polygon class="st15" points="32.4,79.3 31.6,78.9 34.4,80.1 35.2,80.6 				"/>
			</g>
			<g>
				<polygon class="st16" points="33.7,81.2 32.9,80.8 31.6,78.9 32.4,79.3 				"/>
			</g>
			<g class="st8">
				<g class="st8">
					<path class="st13" d="M34.7,75L34,74.5c0,0,0,0,0.1,0L34.7,75C34.8,75,34.8,75,34.7,75L34.7,75z"/>
					<path class="st12" d="M34.8,75L34,74.6c0.3,0.2,0.8,0.2,1.2,0.1l0.8,0.5C35.6,75.2,35.1,75.2,34.8,75L34.8,75z"/>
					<path class="st11" d="M36,75.2l-0.8-0.5c0.3-0.1,0.6-0.2,0.9-0.4c0.6-0.3,1.1-0.8,1.5-1.3l0.8,0.5c-0.4,0.5-1,1-1.5,1.3
						C36.6,75,36.3,75.1,36,75.2L36,75.2z"/>
				</g>
			</g>
			<g class="st8">
				<g class="st8">
					<path class="st17" d="M39.8,71.1L39,70.6c0.2-0.6,0.3-1.1,0.3-1.7c0-1-0.3-1.7-0.9-2l0.8,0.5c0.6,0.3,0.9,1,0.9,2
						C40.1,69.9,40,70.5,39.8,71.1L39.8,71.1z"/>
				</g>
			</g>
			<g class="st8">
				<g class="st8">
					<path class="st18" d="M36.9,67.6l-0.8-0.5c0.3-0.2,0.6-0.3,0.9-0.4l0.8,0.5C37.6,67.3,37.3,67.4,36.9,67.6L36.9,67.6z"/>
					<path class="st19" d="M37.9,67.2l-0.8-0.5c0.5-0.1,0.9,0,1.2,0.1l0.8,0.5C38.8,67.2,38.3,67.1,37.9,67.2L37.9,67.2z"/>
					<path class="st20" d="M39.1,67.4l-0.8-0.5c0,0,0,0,0.1,0L39.1,67.4C39.1,67.4,39.1,67.4,39.1,67.4L39.1,67.4z"/>
				</g>
			</g>
			<g class="st8">
				<g class="st8">
					<path class="st20" d="M34.7,75L34,74.5c-0.6-0.3-0.9-1-0.9-2c0-0.8,0.2-1.6,0.5-2.4l0.8,0.5c-0.3,0.8-0.6,1.6-0.5,2.4
						C33.8,74,34.2,74.7,34.7,75L34.7,75z"/>
					<path class="st19" d="M34.4,70.6l-0.8-0.5c0.2-0.6,0.6-1.1,0.9-1.6c0,0,0.1-0.1,0.1-0.1l0.8,0.5c0,0-0.1,0.1-0.1,0.1
						C35,69.5,34.6,70.1,34.4,70.6L34.4,70.6z"/>
					<path class="st18" d="M35.4,68.9l-0.8-0.5c0.4-0.5,1-1,1.5-1.3l0.8,0.5C36.4,67.9,35.9,68.4,35.4,68.9L35.4,68.9z"/>
				</g>
			</g>
			<g>
				<path class="st21" d="M36.9,67.6c1.7-1,3.1-0.2,3.1,1.8c0,0.5-0.1,1.1-0.3,1.7c-0.5,1.5-1.6,3-2.8,3.7c-1.7,1-3.1,0.2-3.1-1.8
					c0-1.3,0.6-2.8,1.5-3.9C35.8,68.5,36.3,68,36.9,67.6z"/>
			</g>
			<g>
				<polygon class="st22" points="29.6,78 28.8,77.6 31.6,78.9 32.4,79.3 				"/>
			</g>
			<g>
				<polygon class="st23" points="29.6,78 28.8,77.6 29.6,76.1 30.4,76.5 				"/>
			</g>
			<g>
				<polygon class="st24" points="22.8,89.3 22,88.9 41,77.9 41.8,78.4 				"/>
			</g>
			<g>
				<polygon class="st10" points="34.6,68.7 33.8,68.3 34.5,68.6 35.3,69.1 				"/>
			</g>
			<g>
				<path class="st25" d="M34.6,68.7l0.8,0.3c-0.9,1.1-1.5,2.6-1.5,3.9c0,2,1.4,2.8,3.1,1.8c1.2-0.7,2.3-2.2,2.8-3.7l0.4,0.2l-5,9.3
					l-2.8-1.3L29.6,78l0.8-1.5L34.6,68.7z"/>
			</g>
			<g>
				<polygon class="st23" points="30.4,76.5 29.6,76.1 33.8,68.3 34.6,68.7 				"/>
			</g>
			<g>
				<polygon class="st26" points="24,86.9 23.2,86.4 32.9,80.8 33.7,81.2 				"/>
			</g>
			<g>
				<polygon class="st16" points="30.4,76.5 29.6,76.1 28,73.9 28.8,74.3 				"/>
			</g>
			<g>
				<polygon class="st27" points="28.8,74.3 30.4,76.5 29.6,78 32.4,79.3 33.7,81.2 24,86.9 				"/>
			</g>
			<g>
				<polygon class="st28" points="24,86.9 23.2,86.4 28,73.9 28.8,74.3 				"/>
			</g>
			<g>
				<polygon class="st29" points="22.8,89.3 22,88.9 22,73.7 22.8,74.2 				"/>
			</g>
			<g>
				<path class="st30" d="M22.8,74.2l18.9-10.9l0,15.1L22.8,89.3L22.8,74.2z M35.2,80.6l5-9.3l-0.4-0.2c0.2-0.6,0.3-1.1,0.3-1.7
					c0-2-1.4-2.8-3.1-1.8c-0.6,0.3-1.1,0.8-1.6,1.5l-0.8-0.3l-4.2,7.8l-1.6-2.2L24,86.9l9.8-5.6l-1.4-1.9L35.2,80.6L35.2,80.6z"/>
			</g>
			<g>
				<polygon class="st26" points="22.8,74.2 22,73.7 40.9,62.8 41.7,63.3 				"/>
			</g>
			<g>
				<polygon class="st24" points="20.6,73.2 19.8,72.8 43.1,59.4 43.9,59.8 				"/>
			</g>
			<g>
				<path class="st31" d="M20.6,73.2l23.3-13.4l0.1,19.5L20.7,92.8L20.6,73.2z M41.8,78.4l0-15.1L22.8,74.2l0,15.1L41.8,78.4
					L41.8,78.4z"/>
			</g>
			<g>
				<polygon class="st14" points="20.7,92.8 19.9,92.3 19.8,72.8 20.6,73.2 				"/>
			</g>
		</g>
	</g>
	<g>
		<g>
			<path class="st32" d="M21,72.2C21,72.2,21,72.3,21,72.2C20.9,72.2,21,72.2,21,72.2L32.1,58c0,0,0.1-0.1,0.1,0c0,0,0,0.1,0,0.1
				L21,72.2C21,72.2,21,72.2,21,72.2z"/>
			<path class="st32" d="M42.3,59.9C42.3,59.9,42.3,59.9,42.3,59.9l-10.3-1.8c0,0,0,0,0-0.1c0,0,0.1-0.1,0.1-0.1l10.2,1.9
				C42.4,59.8,42.4,59.8,42.3,59.9C42.4,59.9,42.3,59.9,42.3,59.9z"/>
		</g>
		<path class="st32" d="M32.6,57.8c0-0.2-0.2-0.3-0.4-0.2c-0.2,0.1-0.4,0.4-0.4,0.7c0,0.2,0.2,0.3,0.4,0.2
			C32.4,58.3,32.6,58,32.6,57.8z"/>
	</g>
	<g class="st8">
		<path class="st33" d="M144.1,71.9C144.1,71.9,144.1,71.9,144.1,71.9c0.1-0.2,0.2-0.2,0.2-0.3c0,0,0-0.1,0.1-0.1
			c0-0.1,0.1-0.1,0.1-0.2c0,0,0-0.1,0.1-0.1c0.1-0.1,0.1-0.2,0.2-0.3c0,0,0,0,0-0.1c0-0.1,0.1-0.2,0.1-0.3c0,0,0-0.1,0-0.1
			c0-0.1,0.1-0.2,0.1-0.3c0,0,0-0.1,0-0.1c0-0.1,0.1-0.2,0.1-0.3c0,0,0-0.1,0-0.1c0-0.1,0.1-0.3,0.1-0.4c0,0,0-0.1,0-0.1
			c0-0.1,0-0.2,0-0.3c0,0,0-0.1,0-0.1c0-0.1,0-0.1,0-0.2c0-0.1,0-0.2,0-0.3c0-0.1,0-0.1,0-0.2c0-0.1,0-0.2,0-0.3c0-0.1,0-0.1,0-0.2
			c0-0.2,0-0.3,0-0.5c0-0.2,0-0.4,0-0.5c0-0.1,0-0.1,0-0.2c0-0.1,0-0.2,0-0.4c0,0,0,0,0,0c0-0.2,0-0.4-0.1-0.7c0-0.1,0-0.1,0-0.2
			c0-0.2-0.1-0.3-0.1-0.5c0-0.1,0-0.1,0-0.2c0-0.2-0.1-0.4-0.1-0.6c0,0,0-0.1,0-0.1c-0.1-0.2-0.1-0.5-0.2-0.7c0,0,0,0,0-0.1
			c0,0,0-0.1,0-0.1c0-0.2-0.1-0.3-0.2-0.5c0-0.1,0-0.1-0.1-0.2c-0.1-0.2-0.1-0.4-0.2-0.6c0,0,0-0.1,0-0.1c-0.1-0.2-0.2-0.5-0.3-0.7
			c0-0.1-0.1-0.1-0.1-0.2c-0.1-0.2-0.1-0.3-0.2-0.5c0-0.1-0.1-0.1-0.1-0.2c-0.1-0.2-0.2-0.4-0.3-0.6c0,0,0-0.1,0-0.1
			c-0.1-0.2-0.2-0.4-0.3-0.7c0-0.1-0.1-0.1-0.1-0.2c-0.1-0.2-0.2-0.3-0.3-0.5c0-0.1-0.1-0.1-0.1-0.2c-0.1-0.2-0.2-0.4-0.3-0.5
			c0,0,0-0.1-0.1-0.1c-0.1-0.2-0.3-0.4-0.4-0.6c0-0.1-0.1-0.1-0.1-0.2c-0.1-0.2-0.2-0.3-0.3-0.5c0-0.1-0.1-0.1-0.1-0.2
			c-0.1-0.2-0.3-0.3-0.4-0.5c0,0,0-0.1-0.1-0.1c-0.2-0.2-0.3-0.4-0.5-0.6c0,0-0.1-0.1-0.1-0.1c-0.1-0.1-0.2-0.3-0.4-0.4
			c-0.1-0.1-0.1-0.1-0.2-0.2c-0.1-0.1-0.3-0.3-0.4-0.4c0,0-0.1-0.1-0.1-0.1c-0.2-0.2-0.3-0.3-0.5-0.5c0,0-0.1-0.1-0.1-0.1
			c-0.1-0.1-0.3-0.2-0.4-0.3c0,0-0.1-0.1-0.1-0.1c0,0-0.1-0.1-0.1-0.1c-0.1,0-0.1-0.1-0.2-0.1c-0.1-0.1-0.2-0.1-0.3-0.2
			c-0.1,0-0.1-0.1-0.2-0.1c-0.1-0.1-0.2-0.1-0.3-0.2c0,0-0.1-0.1-0.1-0.1c-0.1-0.1-0.3-0.2-0.4-0.3c-0.2-0.1-0.3-0.2-0.5-0.3
			c-0.1,0-0.1,0-0.1-0.1c-0.1,0-0.2-0.1-0.3-0.1c0,0,0,0,0,0c-0.2-0.1-0.4-0.2-0.6-0.2c0,0-0.1,0-0.1,0c-0.1-0.1-0.3-0.1-0.4-0.2
			c-0.1,0-0.1,0-0.2-0.1c-0.1,0-0.3-0.1-0.4-0.1c0,0-0.1,0-0.1,0c-0.2,0-0.3-0.1-0.5-0.1c0,0,0,0,0,0c0,0-0.1,0-0.1,0
			c-0.1,0-0.2,0-0.3,0c-0.1,0-0.1,0-0.2,0c-0.1,0-0.2,0-0.3,0c-0.1,0-0.1,0-0.2,0c-0.1,0-0.2,0-0.3,0c-0.1,0-0.1,0-0.2,0
			c-0.1,0-0.2,0-0.2,0c-0.1,0-0.1,0-0.2,0c-0.1,0-0.2,0-0.2,0c-0.1,0-0.1,0-0.2,0c-0.1,0-0.2,0-0.2,0.1c0,0-0.1,0-0.1,0
			c-0.1,0-0.2,0.1-0.2,0.1c0,0-0.1,0-0.1,0c-0.1,0.1-0.2,0.1-0.3,0.2l-0.8,0.4c0.1-0.1,0.2-0.1,0.3-0.2c0,0,0.1,0,0.1,0
			c0.1,0,0.2-0.1,0.2-0.1c0,0,0.1,0,0.1,0c0.1,0,0.2,0,0.2-0.1c0.1,0,0.1,0,0.2,0c0.1,0,0.2,0,0.2,0c0.1,0,0.1,0,0.2,0
			c0.1,0,0.2,0,0.2,0c0.1,0,0.1,0,0.2,0c0.1,0,0.2,0,0.3,0c0.1,0,0.1,0,0.2,0c0.1,0,0.2,0,0.3,0c0.1,0,0.1,0,0.2,0
			c0.1,0,0.2,0,0.3,0c0,0,0.1,0,0.1,0c0.2,0,0.3,0.1,0.5,0.1c0,0,0.1,0,0.1,0c0.1,0,0.3,0.1,0.4,0.1c0.1,0,0.1,0,0.2,0.1
			c0.1,0,0.3,0.1,0.4,0.2c0,0,0.1,0,0.1,0c0.2,0.1,0.4,0.2,0.6,0.2c0.1,0,0.2,0.1,0.3,0.1c0,0,0.1,0,0.1,0.1
			c0.2,0.1,0.3,0.2,0.5,0.3c0.1,0.1,0.3,0.2,0.4,0.3c0,0,0.1,0.1,0.1,0.1c0.1,0.1,0.2,0.1,0.3,0.2c0.1,0,0.1,0.1,0.2,0.1
			c0.1,0.1,0.2,0.1,0.3,0.2c0.1,0,0.1,0.1,0.2,0.1c0.1,0.1,0.1,0.1,0.2,0.2c0.1,0.1,0.3,0.2,0.4,0.3c0,0,0.1,0.1,0.1,0.1
			c0.2,0.2,0.4,0.3,0.5,0.5c0,0,0.1,0.1,0.1,0.1c0.1,0.1,0.3,0.3,0.4,0.4c0.1,0.1,0.1,0.1,0.2,0.2c0.1,0.1,0.2,0.3,0.4,0.4
			c0,0,0.1,0.1,0.1,0.1c0.2,0.2,0.3,0.4,0.5,0.6c0,0,0,0.1,0.1,0.1c0.1,0.2,0.3,0.3,0.4,0.5c0,0.1,0.1,0.1,0.1,0.2
			c0.1,0.1,0.2,0.3,0.3,0.4c0,0.1,0.1,0.1,0.1,0.2c0.1,0.2,0.3,0.4,0.4,0.6c0,0,0,0.1,0.1,0.1c0.1,0.2,0.2,0.4,0.3,0.5
			c0,0.1,0.1,0.1,0.1,0.2c0.1,0.2,0.2,0.3,0.3,0.5c0,0.1,0.1,0.1,0.1,0.2c0.1,0.2,0.2,0.4,0.3,0.7c0,0,0,0.1,0,0.1
			c0.1,0.2,0.2,0.4,0.3,0.6c0,0.1,0.1,0.1,0.1,0.2c0.1,0.2,0.1,0.3,0.2,0.5c0,0.1,0.1,0.1,0.1,0.2c0.1,0.2,0.2,0.5,0.3,0.7
			c0,0,0,0.1,0,0.1c0.1,0.2,0.1,0.4,0.2,0.6c0,0.1,0,0.1,0.1,0.2c0.1,0.2,0.1,0.3,0.2,0.5c0,0.1,0,0.1,0.1,0.2
			c0.1,0.2,0.1,0.5,0.2,0.7c0,0,0,0.1,0,0.1c0,0.2,0.1,0.4,0.1,0.6c0,0.1,0,0.1,0,0.2c0,0.2,0.1,0.3,0.1,0.5c0,0.1,0,0.1,0,0.2
			c0,0.2,0.1,0.5,0.1,0.7c0,0.1,0,0.2,0,0.4c0,0.1,0,0.1,0,0.2c0,0.2,0,0.4,0,0.5c0,0.2,0,0.3,0,0.5c0,0.1,0,0.1,0,0.2
			c0,0.1,0,0.2,0,0.3c0,0.1,0,0.1,0,0.2c0,0.1,0,0.2,0,0.3c0,0.1,0,0.1,0,0.2c0,0.1,0,0.2-0.1,0.3c0,0,0,0.1,0,0.1
			c0,0.1-0.1,0.3-0.1,0.4c0,0,0,0.1,0,0.1c0,0.1-0.1,0.2-0.1,0.3c0,0,0,0.1,0,0.1c0,0.1-0.1,0.2-0.1,0.3c0,0,0,0.1,0,0.1
			c0,0.1-0.1,0.2-0.1,0.3c0,0,0,0,0,0.1c-0.1,0.1-0.1,0.2-0.2,0.3c0,0,0,0.1-0.1,0.1c0,0.1-0.1,0.2-0.1,0.2c0,0,0,0.1-0.1,0.1
			c0,0.1-0.1,0.1-0.1,0.2c0,0,0,0.1-0.1,0.1c-0.1,0.1-0.1,0.2-0.2,0.2c0,0,0,0,0,0c-0.1,0.1-0.2,0.2-0.2,0.2c0,0,0,0-0.1,0.1
			c-0.1,0.1-0.1,0.1-0.2,0.2c0,0-0.1,0-0.1,0.1c-0.1,0-0.1,0.1-0.2,0.1c0,0-0.1,0-0.1,0.1c-0.1,0.1-0.2,0.1-0.3,0.2l0.8-0.4
			c0.1-0.1,0.2-0.1,0.3-0.2c0,0,0.1,0,0.1-0.1c0.1,0,0.1-0.1,0.2-0.1c0,0,0.1,0,0.1-0.1c0.1-0.1,0.1-0.1,0.2-0.2c0,0,0,0,0.1-0.1
			c0.1-0.1,0.2-0.2,0.2-0.2c0,0,0,0,0,0C144,72.1,144,72,144.1,71.9z"/>
		<g>
			<path class="st34" d="M135.5,51.6c5.1,2.9,9.2,10.1,9.2,16c0,5.9-4.2,8.2-9.3,5.3c-5.1-2.9-9.2-10.1-9.2-16
				C126.2,51.1,130.4,48.7,135.5,51.6z"/>
			<path class="st35" d="M139.6,73.1c-1.1,0-2.3-0.4-3.6-1.1c-4.8-2.8-8.7-9.5-8.7-15c0-3.4,1.5-5.5,4.1-5.5c1.1,0,2.3,0.4,3.6,1.1
				c4.8,2.8,8.7,9.5,8.7,15C143.6,71,142.1,73.1,139.6,73.1z"/>
		</g>
	</g>
	<g>
		<path class="st36" d="M167.2,105.5l0,0.2l3.1,1.8l0,0.7c0,1.5,1.1,3.4,2.4,4.2l2.1,1.2l0,5.4l0.2,0.1l-7.8-4.5L167.2,105.5z"/>
	</g>
	<g>
		<path class="st37" d="M170.5,107.4l0,0.7c0,1.5,1.1,3.4,2.4,4.2l2.1,1.2l0,5.6l-0.2-0.1l0-5.4l-2.1-1.2c-1.3-0.8-2.4-2.6-2.4-4.2
			l0-0.7l-3.1-1.8l0-0.2L170.5,107.4z"/>
	</g>
	<g>
		<path class="st38" d="M172.6,111.8l2.6,1.5l0,6.4l-8.5-4.9l0-9.8l4,2.3l0,1.2C170.7,109.7,171.5,111.2,172.6,111.8z M175,119
			l0-5.6l-2.1-1.2c-1.3-0.8-2.4-2.6-2.4-4.2l0-0.7l-3.3-1.9l0,9L175,119L175,119z"/>
	</g>
	<g>
		<path class="st37" d="M180.3,115.8c-0.4,0.3-1.1,0.3-1.8-0.1l-2-1.2l0-0.2l2.2,1.3c0,0,0,0,0,0c0,0,0,0,0,0c0,0,0,0,0,0
			c0,0,0,0,0,0c0,0,0,0,0,0c0,0,0,0,0,0c0,0,0,0,0,0c0,0,0,0,0,0c0,0,0,0,0,0c0,0,0,0,0,0c0,0,0,0,0,0c0,0,0,0,0,0c0,0,0,0,0,0
			c0,0,0,0,0,0c0,0,0,0,0,0c0,0,0,0,0,0c0,0,0,0,0,0c0,0,0,0,0,0c0,0,0,0,0,0c0,0,0,0,0,0c0,0,0,0,0,0
			C179.6,116,180,116,180.3,115.8z"/>
	</g>
	<g>
		<path class="st36" d="M181.1,113.8l3.1,1.8l0,8.8l-7.7-4.4l0-5.4l2,1.2c0.7,0.4,1.3,0.4,1.8,0.1c0.5-0.2,0.8-0.8,0.8-1.6
			L181.1,113.8z"/>
	</g>
	<g>
		<path class="st38" d="M180.7,113l4,2.3l0,9.8l-8.5-4.9l0-6.4l2.4,1.4c0.6,0.3,1.1,0.3,1.5,0c0.4-0.2,0.7-0.6,0.7-1.3L180.7,113z
			 M184.4,124.4l0-9l-3.3-1.9l0,0.7c0,0.8-0.3,1.4-0.8,1.6c-0.3,0.2-0.8,0.2-1.3,0c-0.3-0.2-0.3-0.2-0.3-0.2l-2.2-1.3l0,5.6
			L184.4,124.4L184.4,124.4z"/>
	</g>
	<g>
		<polygon class="st39" points="184.9,115.2 184.9,125.3 184.6,125.1 184.6,115.3 180.7,113 180.7,112.7 		"/>
	</g>
	<g>
		<path class="st40" d="M177.6,92.9c1.1,0.6,1.9,2.1,1.9,3.3l0,15.9c0,1.2-0.9,1.7-1.9,1.1l-3.5-2c-1.1-0.6-1.9-2.1-1.9-3.3l0-15.9
			c0-1.2,0.9-1.7,1.9-1.1L177.6,92.9z M178.9,111.2l0-14.6c0-1.2-0.9-2.7-1.9-3.3l-2.4-1.4c-1.1-0.6-1.9-0.1-1.9,1.1l0,14.6
			c0,1.2,0.9,2.7,1.9,3.3l2.4,1.4C178,112.9,178.9,112.4,178.9,111.2L178.9,111.2z"/>
	</g>
	<g>
		<polygon class="st39" points="175.6,83.8 175.6,90.4 175.3,90.3 175.3,83.9 166.8,79 166.8,78.7 		"/>
	</g>
	<g>
		<polygon class="st39" points="185,89.2 184.9,99.3 184.7,99.1 184.7,89.3 176.2,84.4 176.2,84.1 		"/>
	</g>
	<g>
		<path class="st40" d="M188.1,86.4l0.2,0.1l-0.1,25.3l-0.1,18.2l-24.9-14.3l0.1-17.8l0.1-25.7l0.2,0.1L188.1,86.4z M186,111.6
			l0.1-23.8l-0.2-0.1L165.8,76l-0.2-0.1l-0.1,24.2l0,16.7l20.5,11.8L186,111.6L186,111.6z"/>
	</g>
	<g>
		<path class="st36" d="M167.3,79.7l7.7,4.4l0,5.4l-2-1.2c-0.7-0.4-1.3-0.4-1.8-0.1c-0.5,0.2-0.8,0.8-0.8,1.6l0,0.5l-3.1-1.8
			L167.3,79.7z"/>
	</g>
	<g>
		<path class="st38" d="M170.7,91.1l0-0.9c0-0.7,0.3-1.1,0.7-1.3c0.4-0.3,0.9-0.3,1.5,0l2.4,1.4l0-6.4l-8.5-4.9l0,9.8L170.7,91.1z
			 M167.3,79.5l7.8,4.5l0,5.6l-2.2-1.3c-0.7-0.4-1.3-0.4-1.8-0.1c-0.2,0.2-0.4,0.4-0.6,1c0,0,0,0,0,0.5c0,0,0,0,0,0l0,0.7l-3.3-1.9
			L167.3,79.5L167.3,79.5z"/>
	</g>
	<g>
		<path class="st38" d="M165.8,76l-0.2-0.1l-0.1,24.2l0,16.7l20.5,11.8l0-17.2l0.1-23.8l-0.2-0.1L165.8,76z M185.5,127.5L166,116.3
			l0.1-39.6l19.5,11.3L185.5,127.5L185.5,127.5z"/>
	</g>
	<g>
		<path class="st39" d="M171,107.1l0,1.2c0,1.2,0.9,2.7,1.9,3.3l2.6,1.5l0,6.7l-0.3-0.2l0-6.4l-2.6-1.5c-1.1-0.6-1.9-2.1-1.9-3.3
			l0-1.2l-4-2.3l0-0.3L171,107.1z"/>
	</g>
	<g>
		<path class="st38" d="M179,115.2c0.3,0.1,0.6,0.2,0.8,0.1C179.6,115.4,179.3,115.3,179,115.2z"/>
	</g>
	<g>
		<polygon class="st37" points="184.4,115.4 184.4,124.4 184.2,124.3 184.2,115.5 181.1,113.8 181.1,113.6 		"/>
	</g>
	<g>
		<polygon class="st37" points="175.1,84 175.1,89.6 174.9,89.5 174.9,84.1 167.3,79.7 167.3,79.5 		"/>
	</g>
	<g>
		<path class="st36" d="M176.6,84.9l0,0.2l7.7,4.4l0,8.8l0.2,0.1l-3.3-1.9l0-0.7c0-1.5-1.1-3.4-2.4-4.1l-2.1-1.2L176.6,84.9z"/>
	</g>
	<g>
		<path class="st38" d="M176.2,84.4l8.5,4.9l0,9.8l-4-2.3l0-1.2c0-1.2-0.9-2.7-1.9-3.3l-2.6-1.5L176.2,84.4z M184.4,98.5l0-9
			l-7.8-4.5l0,5.6l2.1,1.2c1.3,0.8,2.4,2.6,2.4,4.1l0,0.7L184.4,98.5L184.4,98.5z"/>
	</g>
	<g>
		<polygon class="st37" points="184.5,89.5 184.4,98.5 184.3,98.4 184.3,89.6 176.6,85.1 176.6,84.9 		"/>
	</g>
	<g>
		<path class="st39" d="M179.9,115.3c-0.4,0.3-0.9,0.3-1.5,0l-2.4-1.4l0-0.3l2.7,1.5c0,0,0,0,0,0c0,0,0,0,0,0c0,0,0,0,0,0
			c0,0,0,0,0,0c0,0,0,0,0,0c0,0,0,0,0,0c0,0,0,0,0,0c0,0,0,0,0,0c0,0,0,0,0.1,0c0,0,0,0,0,0c0,0,0,0,0,0c0,0,0,0,0,0
			c0.3,0.1,0.6,0.2,0.8,0.1c0,0,0,0,0,0C179.8,115.3,179.9,115.3,179.9,115.3C179.9,115.3,179.9,115.3,179.9,115.3
			C179.9,115.3,179.9,115.3,179.9,115.3C179.9,115.3,179.9,115.3,179.9,115.3z"/>
	</g>
	<g>
		<path class="st36" d="M177,93.3c1.1,0.6,1.9,2.1,1.9,3.3l0,14.6c0,1.2-0.9,1.7-1.9,1.1l-2.4-1.4c-1.1-0.6-1.9-2.1-1.9-3.3l0-14.6
			c0-1.2,0.9-1.7,1.9-1.1L177,93.3z"/>
	</g>
	<g>
		<path class="st39" d="M171.4,88.9c-0.2,0.2-0.4,0.5-0.4,0.9c0,0,0,0,0,0c0,0,0,0.1,0,0.1c0,0,0,0,0,0c0,0,0,0,0,0c0,0,0,0,0,0
			c0,0,0,0,0,0c0,0,0,0,0,0c0,0,0,0,0,0c0,0,0,0,0,0c0,0,0,0,0,0c0,0,0,0,0,0c0,0,0,0,0,0c0,0,0,0,0,0l0,1.2l-0.3-0.2l0-0.9
			C170.7,89.5,171,89,171.4,88.9z"/>
	</g>
	<g>
		<path class="st37" d="M171.1,88.2c-0.2,0.2-0.4,0.4-0.5,0.8c0,0,0,0,0,0c0,0,0,0,0,0c0,0,0,0,0,0c0,0,0,0,0,0c0,0,0,0,0,0
			c0,0,0,0,0,0c0,0,0,0,0,0c0,0,0,0,0,0c0,0,0,0,0,0c0,0,0,0,0,0c0,0,0,0,0,0c0,0,0,0,0,0c0,0,0,0,0,0c0,0,0,0,0,0c0,0,0,0,0,0
			c0,0,0,0,0,0.1c0,0,0,0,0,0c0,0,0,0,0,0c0,0,0,0,0,0c0,0,0,0,0,0c0,0,0,0,0,0c0,0,0,0,0,0c0,0,0,0,0,0c0,0,0,0,0,0c0,0,0,0,0,0
			c0,0,0,0,0,0c0,0,0,0,0,0c0,0,0,0,0,0c0,0,0,0,0,0c0,0,0,0,0,0c0,0,0,0,0,0c0,0,0,0,0,0c0,0,0,0,0,0c0,0,0,0,0,0c0,0,0,0,0,0
			c0,0,0,0,0,0c0,0,0,0,0,0c0,0,0,0,0,0c0,0,0,0,0,0c0,0,0,0,0,0c0,0,0,0,0,0l0,0.7l-0.2-0.1l0-0.5C170.3,89,170.6,88.5,171.1,88.2z
			"/>
	</g>
	<g>
		<path class="st36" d="M166.1,76.6l19.5,11.3l-0.1,39.6L166,116.3L166.1,76.6z M177.6,92.9l-3.5-2c-1.1-0.6-1.9-0.1-1.9,1.1l0,15.9
			c0,1.2,0.9,2.7,1.9,3.3l3.5,2c1.1,0.6,1.9,0.1,1.9-1.1l0-15.9C179.5,95,178.7,93.6,177.6,92.9L177.6,92.9z M184.9,125.3l0-10.1
			l-4.2-2.4l0,1.2c0,0.7-0.3,1.1-0.7,1.3c0,0,0,0-0.1,0c-0.3,0.1-0.6,0-0.9-0.1c-0.1,0-0.1,0-0.1-0.1l-2.8-1.6l0,6.7L184.9,125.3
			L184.9,125.3z M175.5,119.9l0-6.7l-2.6-1.5c-1.1-0.6-1.9-2.1-1.9-3.3l0-1.2l-4.3-2.5l0,10.1L175.5,119.9L175.5,119.9z M184.9,99.3
			l0-10.1l-8.8-5.1l0,6.7l2.6,1.5c1.1,0.6,1.9,2.1,1.9,3.3l0,1.2L184.9,99.3L184.9,99.3z M166.8,78.7l0,10.1l4.2,2.4l0-1.2
			c0-0.2,0-0.2,0-0.2c0-0.4,0.2-0.7,0.4-0.9c0.4-0.3,0.9-0.3,1.5,0l2.7,1.5l0-6.7L166.8,78.7L166.8,78.7z"/>
	</g>
	<g>
		<g class="st8">
			<g class="st8">
				<g class="st8">
					<path class="st41" d="M181.8,105.8l0.9-0.5c0.2-0.1,0.5-0.1,0.8,0.1l-0.9,0.5C182.3,105.7,182,105.7,181.8,105.8L181.8,105.8z"
						/>
				</g>
			</g>
			<g class="st8">
				<g class="st8">
					<path class="st41" d="M182.6,105.9l0.9-0.5c0.6,0.4,1.1,1.2,1.1,1.9c0,0.4-0.1,0.6-0.3,0.7l-0.9,0.5c0.2-0.1,0.3-0.4,0.3-0.7
						C183.7,107.1,183.2,106.3,182.6,105.9L182.6,105.9z"/>
				</g>
			</g>
			<g>
				<path class="st42" d="M182.6,105.9c0.6,0.4,1.1,1.2,1.1,1.9c0,0.7-0.5,1-1.1,0.6c-0.6-0.4-1.1-1.2-1.1-1.9
					C181.5,105.8,182,105.6,182.6,105.9z"/>
			</g>
		</g>
	</g>
	<g>
		<g class="st8">
			<g>
				<polygon class="st43" points="182.8,110.1 183.1,109.9 183.1,110.3 182.8,110.4 				"/>
			</g>
			<g>
				<polygon class="st44" points="182.7,109.9 183,109.7 183.1,109.9 182.8,110.1 				"/>
			</g>
			<g>
				<polygon class="st45" points="183,110.2 183.2,110 183.2,110.4 183,110.5 				"/>
			</g>
			<path class="st46" d="M183.2,110.4l-0.2-0.1l-0.1,0.1l0-0.2l0.1-0.1c0-0.1-0.1-0.2-0.2-0.3c0,0,0,0,0,0l0.1-0.1c0,0,0-0.1,0-0.1
				l-0.3,0.2c0,0,0,0,0,0c0,0,0,0,0,0c0,0,0,0,0,0c0,0,0,0,0,0c0,0,0,0,0,0l0,0c0,0,0,0,0,0h0v0l0.1,0.2l0,0.4l0,0l0,0l0,0l0.2,0.1
				l0,0L183.2,110.4z"/>
			<g>
				<polygon class="st47" points="183.1,110 183.3,109.9 183.2,110 183,110.2 				"/>
			</g>
			<g class="st8">
				<g class="st8">
					<path class="st48" d="M182.8,109.8l0.3-0.2c0,0,0.1,0,0.1,0l-0.3,0.2C182.8,109.7,182.8,109.7,182.8,109.8L182.8,109.8z"/>
				</g>
			</g>
			<g class="st8">
				<g class="st8">
					<path class="st48" d="M182.9,109.8l0.3-0.2c0.1,0.1,0.2,0.2,0.2,0.3l-0.3,0.2C183.1,109.9,183,109.8,182.9,109.8L182.9,109.8z"
						/>
				</g>
			</g>
			<g class="st8">
				<g class="st8">
					<path class="st41" d="M182.6,109.3l0.3-0.2c0.1,0,0.2,0,0.3,0l-0.3,0.2C182.8,109.3,182.7,109.3,182.6,109.3L182.6,109.3z"/>
				</g>
			</g>
			<g class="st8">
				<g class="st8">
					<path class="st41" d="M182.9,109.4l0.3-0.2c0.3,0.2,0.5,0.6,0.5,1c0,0.2-0.1,0.4-0.2,0.5l-0.3,0.2c0.1-0.1,0.2-0.2,0.2-0.5
						C183.4,110,183.2,109.5,182.9,109.4L182.9,109.4z"/>
				</g>
			</g>
			<g>
				<path class="st42" d="M182.9,109.4c0.3,0.2,0.5,0.6,0.5,1c0,0.4-0.2,0.6-0.5,0.5c-0.3-0.2-0.5-0.6-0.5-1
					C182.4,109.4,182.6,109.2,182.9,109.4z M183,110.2l0.1-0.1c0-0.1-0.1-0.2-0.2-0.3c-0.1-0.1-0.2,0-0.2,0.1l0.1,0.2l0,0.4l0.2,0.1
					L183,110.2L183,110.2z"/>
			</g>
		</g>
	</g>
	<g>
		<polygon class="st49" points="99.7,27.3 99.7,73.1 80.8,91.6 80,91.1 80.1,38.7 		"/>
	</g>
	<polygon class="st50" points="80.1,38.7 80.8,39.2 100.4,27.9 100.4,26.9 	"/>
	<g>
		<polygon class="st51" points="120.9,38.8 120.9,91.2 120.2,91.6 101.1,80.2 101.1,28.2 120.2,39.2 		"/>
	</g>
	<g>
		<polygon class="st52" points="100.4,27.8 100.4,73.5 80.8,85 80.8,39.2 		"/>
	</g>
	<g>
		<polygon class="st53" points="120.2,39.2 120.2,85.5 100.4,74.1 100.4,27.8 		"/>
	</g>
	<g>
		<polygon class="st53" points="120.2,84.2 120.2,91.6 100.5,103 100.6,95.6 		"/>
	</g>
	<g>
		<polygon class="st52" points="100.6,95.6 100.5,103 80.8,91.6 80.8,84.2 		"/>
	</g>
	<g>
		<polygon class="st52" points="100.6,95.6 100.5,103 80.8,91.6 80.8,84.2 		"/>
	</g>
	<polygon class="st54" points="120.9,38.8 120.2,39.3 100.4,27.8 100.4,26.9 	"/>
	<polygon class="st50" points="120.2,84.2 100.6,95.6 80.8,84.2 100.4,72.8 	"/>
	<polygon class="st55" points="83.7,84.2 100.4,74.5 117.3,84.2 100.6,93.9 	"/>
	<polygon class="st55" points="83.7,84.2 100.4,74.5 117.3,84.2 100.6,93.9 	"/>
	<polygon class="st56" points="112,87.3 100.4,80.6 89,87.3 100.6,93.9 	"/>
	<g>
		<polygon class="st57" points="100.4,74.5 100.4,80.6 112,87.3 117.3,84.2 		"/>
		<polygon class="st52" points="83.7,84.2 89,87.3 100.4,80.6 100.4,74.5 		"/>
	</g>
	<polygon class="st58" points="120.2,39.2 120.2,84.2 100.6,95.6 100.6,50.7 	"/>
	<polygon class="st58" points="100.6,50.7 100.6,95.6 80.8,84.2 80.8,39.2 	"/>
	<g>
		<g class="st8">
			<g>
				<path class="st59" d="M92.8,47.7l0.8,0.5c-0.2-0.1-0.5-0.1-0.7,0.1l-0.8-0.5C92.4,47.6,92.6,47.6,92.8,47.7z"/>
			</g>
			<g>
				<path class="st59" d="M92.1,50.7l-0.8-0.5c-0.2-0.1-0.3-0.3-0.3-0.7c0-0.7,0.5-1.5,1-1.8l0.8,0.5c-0.6,0.3-1,1.1-1,1.8
					C91.8,50.3,91.9,50.5,92.1,50.7z"/>
			</g>
			<g>
				<path class="st60" d="M92.9,48.2c0.6-0.3,1-0.1,1,0.6c0,0.7-0.5,1.5-1,1.8c-0.6,0.3-1,0.1-1-0.6C91.8,49.3,92.3,48.5,92.9,48.2z
					"/>
			</g>
		</g>
	</g>
	<g>
		<g>
			<polygon class="st57" points="135.1,98.9 135.1,99.3 126.8,104.1 126.8,103.7 			"/>
		</g>
		<g>
			<polygon class="st52" points="126.8,103.7 126.8,104.1 118.4,99.3 118.4,98.9 			"/>
		</g>
		<polygon class="st50" points="135.1,98.9 126.8,103.7 118.4,98.9 126.7,94 		"/>
	</g>
	<g>
		<g>
			<polygon class="st57" points="129.8,81.4 129.8,99.2 126.7,100.9 126.7,83.2 			"/>
		</g>
		<g>
			<polygon class="st52" points="126.7,83.2 126.7,100.9 123.7,99.2 123.7,81.4 			"/>
		</g>
		<polygon class="st50" points="129.8,81.4 126.7,83.2 123.7,81.4 126.7,79.6 		"/>
	</g>
	<path class="st61" d="M116.6,80l0-2.8c0,1.5,1,3,3,4.1l0,2.8C117.6,83,116.6,81.5,116.6,80z"/>
	<g>
		<path class="st57" d="M135.1,82.2c-0.1,0.1-0.3,0.2-0.4,0.2c0,0-0.1,0-0.1,0.1c-0.1,0.1-0.2,0.1-0.3,0.2c0,0-0.1,0-0.1,0.1
			c-0.1,0.1-0.3,0.1-0.4,0.2c0,0,0,0-0.1,0c-0.2,0.1-0.3,0.1-0.5,0.2c-3.8,1.3-8.7,0.9-12-0.9l-1.4-0.8c-2-1.1-3-2.6-3-4.1l0,2.8
			c0,1.5,1,3,3,4.1L121,85c3.3,1.9,8.2,2.2,12,1v0c0,0,0,0,0,0c0.2-0.1,0.3-0.1,0.5-0.2c0,0,0,0,0.1,0c0.1-0.1,0.3-0.1,0.4-0.2
			c0,0,0.1,0,0.1-0.1c0.1-0.1,0.2-0.1,0.3-0.2c0,0,0.1,0,0.1-0.1c0.2-0.1,0.3-0.2,0.4-0.2l3.9-2.3l0-2.8L135.1,82.2z"/>
	</g>
	<path class="st62" d="M138.8,80l-3.9,2.3c-3.9,2.2-10.2,2.2-14.1-0.1l-1.4-0.8c-3.9-2.2-4-5.9-0.2-8.1l3.9-2.3L138.8,80z"/>
	<path class="st53" d="M128.1,82.5c-2.4,0-4.7-0.5-6.4-1.5l-1.4-0.8c-1.4-0.8-2.3-1.9-2.3-2.9c0-1,0.7-2,2.1-2.9l3.2-1.9l12.9,7.4
		l-1.8,1.1C132.7,82,130.5,82.5,128.1,82.5z"/>
	<path class="st52" d="M120.1,75.7l3.2-1.9l11.8,6.8l1.1-0.7l-12.9-7.4l-3.2,1.9c-1.4,0.8-2.1,1.8-2.1,2.9c0,0.2,0,0.4,0.1,0.6
		C118.4,77.1,119.1,76.3,120.1,75.7z"/>
	<g>
		<g class="st8">
			<g>
				<polygon class="st63" points="130.1,72.1 129.5,71.7 129.6,75.4 130.2,75.7 				"/>
			</g>
			<g class="st8">
				<g>
					<path class="st63" d="M129.9,71.6l-0.6-0.4c0.1,0.1,0.2,0.2,0.2,0.4l0.6,0.4C130.1,71.8,130,71.7,129.9,71.6L129.9,71.6z"/>
					<path class="st63" d="M130.1,72l-0.6-0.4c0,0.1,0,0.1,0,0.1l0.6,0.4C130.1,72.1,130.1,72,130.1,72L130.1,72z"/>
				</g>
			</g>
			<g>
				<polygon class="st64" points="128.7,73.3 128.1,73 128.1,73 128.7,73.4 				"/>
			</g>
			<g>
				<polygon class="st63" points="128.1,73.7 127.5,73.3 127.5,73.6 128.1,73.9 				"/>
			</g>
			<g>
				<polygon class="st64" points="128.2,73.6 127.6,73.3 127.5,73.3 128.1,73.7 				"/>
			</g>
			<g>
				<defs>
					<path id="SVGID_1_" d="M130.2,71l-0.6-0.4c-0.2-0.1-0.5-0.1-0.8,0.1l0.6,0.4C129.8,70.9,130,70.9,130.2,71z"/>
				</defs>
				<use xlink:href="#SVGID_1_"  style="overflow:visible;fill:#9ED7E2;"/>
				<clipPath id="SVGID_2_">
					<use xlink:href="#SVGID_1_"  style="overflow:visible;"/>
				</clipPath>
				<g class="st65">
					<path class="st66" d="M130.2,71l-0.6-0.4c-0.1-0.1-0.2-0.1-0.3-0.1l0.6,0.4C130,70.9,130.1,71,130.2,71L130.2,71z"/>
					<path class="st66" d="M129.9,71l-0.6-0.4c-0.1,0-0.2,0-0.2,0.1l0.6,0.4C129.7,71,129.8,71,129.9,71L129.9,71z"/>
					<path class="st66" d="M129.6,71l-0.6-0.4c-0.1,0-0.2,0.1-0.3,0.1l0.6,0.4C129.5,71.1,129.6,71,129.6,71L129.6,71z"/>
				</g>
			</g>
			<g class="st8">
				<defs>
					<path id="SVGID_3_" class="st8" d="M129.4,71.1l-0.6-0.4c0,0-0.1,0-0.1,0.1c-0.3,0.2-0.5,0.5-0.7,0.8c-0.3,0.6-0.3,1.3-0.3,1.6
						l0.6,0.4c0-0.3,0-1,0.3-1.6c0.2-0.4,0.4-0.6,0.7-0.8C129.3,71.2,129.3,71.2,129.4,71.1z"/>
				</defs>
				<use xlink:href="#SVGID_3_"  style="overflow:visible;fill:#9ED7E2;"/>
				<clipPath id="SVGID_4_">
					<use xlink:href="#SVGID_3_"  style="overflow:visible;"/>
				</clipPath>
				<g class="st67">
					<path class="st68" d="M129.4,71.1l-0.6-0.4c0,0,0,0,0,0L129.4,71.1C129.4,71.1,129.4,71.1,129.4,71.1L129.4,71.1z"/>
					<path class="st66" d="M129.4,71.1l-0.6-0.4c0,0-0.1,0-0.1,0.1c-0.1,0-0.1,0.1-0.2,0.1l0.6,0.4c0.1,0,0.1-0.1,0.2-0.1
						C129.3,71.2,129.3,71.2,129.4,71.1L129.4,71.1z"/>
					<path class="st66" d="M129.1,71.3l-0.6-0.4c-0.2,0.2-0.4,0.4-0.5,0.7c-0.1,0.1-0.1,0.3-0.2,0.4l0.6,0.4c0-0.1,0.1-0.3,0.2-0.4
						C128.7,71.8,128.9,71.5,129.1,71.3L129.1,71.3z"/>
					<path class="st66" d="M128.4,72.5l-0.6-0.4c-0.1,0.2-0.1,0.4-0.1,0.5l0.6,0.4C128.3,72.8,128.3,72.7,128.4,72.5L128.4,72.5z"/>
					<path class="st66" d="M128.2,73l-0.6-0.4c0,0.3,0,0.5,0,0.6l0.6,0.4C128.2,73.5,128.2,73.3,128.2,73L128.2,73z"/>
					<polygon class="st69" points="128.2,73.6 127.6,73.3 127.6,73.3 128.2,73.6 128.2,73.6 					"/>
				</g>
			</g>
			<g>
				<path class="st70" d="M129.4,71.1c0,0-0.1,0-0.1,0.1c-0.3,0.2-0.5,0.5-0.7,0.8c-0.3,0.6-0.3,1.3-0.3,1.6l-0.1,0l0,0.3l0.6-0.4
					l0-0.3l-0.1,0c0-0.3,0-0.8,0.2-1.2c0.1-0.2,0.2-0.4,0.4-0.5c0,0,0.1,0,0.1-0.1c0.7-0.4,0.8,0.3,0.8,0.4l0,3.6l0.5-0.3l0-3.6l0,0
					C130.6,71.3,130.3,70.6,129.4,71.1z"/>
			</g>
		</g>
	</g>
	<path class="st71" d="M127.1,81.1c0.1-0.5-0.4-1-1.1-1.1c-0.7-0.1-1.3,0.1-1.4,0.6c-0.1,0.5,0.4,1,1.1,1.1S127,81.6,127.1,81.1z"/>
	<g class="st8">
		<g>
			<polygon class="st72" points="107.5,118.9 108.8,118.2 108.9,101.6 107.6,102.3 			"/>
		</g>
		<g>
			<polygon class="st72" points="107.6,102.3 108.9,101.6 71.1,79.8 69.8,80.6 			"/>
		</g>
		<g>
			<polygon class="st72" points="69.8,80.6 69.7,97.1 107.5,118.9 107.6,102.3 			"/>
		</g>
	</g>
	<g class="st8">
		<g>
			<polygon class="st72" points="84.2,88.9 85.5,88.2 85.6,37 84.3,37.8 			"/>
		</g>
		<g>
			<polygon class="st72" points="84.3,37.8 85.6,37 71.1,28.7 69.8,29.4 			"/>
		</g>
		<g>
			<polygon class="st72" points="69.8,29.4 69.7,80.6 84.2,88.9 84.3,37.8 			"/>
		</g>
	</g>
	<g>
		<path class="st73" d="M91.2,160.9c-0.1,0-0.2,0-0.2-0.1l-16.3-9.5c-0.1-0.1-0.2-0.2-0.2-0.4c0-0.2,0.1-0.3,0.2-0.4l29-16.8
			c0.1,0,0.1-0.1,0.2-0.1c0.1,0,0.2,0,0.2,0.1l16.3,9.5c0.1,0.1,0.2,0.2,0.2,0.4c0,0.2-0.1,0.3-0.2,0.4l-29,16.8
			C91.3,160.9,91.2,160.9,91.2,160.9z"/>
		<polygon class="st27" points="74.8,151 91.2,160.5 120.2,143.7 103.8,134.2 		"/>
	</g>
	<polygon class="st74" points="78.1,149.1 74.8,151 91.2,160.5 94.4,158.6 	"/>
	<polygon class="st74" points="103.8,134.2 100.6,136.1 116.9,145.6 120.2,143.7 	"/>
	<g>
		<path class="st74" d="M102.6,143.9c3,1.8,3.1,4.6,0,6.3c-3,1.8-7.9,1.8-11,0c-3-1.8-3.1-4.6,0-6.3
			C94.7,142.2,99.6,142.2,102.6,143.9z"/>
	</g>
	<g>
		<g>
			<g>
				<g class="st8">
					<g>
						<polygon class="st75" points="156.8,110.7 147.4,105.2 147.7,105.1 157.1,110.5 						"/>
					</g>
					<g>
						<polygon class="st76" points="145.6,117.1 136.3,111.7 147.4,105.2 156.8,110.7 						"/>
					</g>
					<g>
						<polygon class="st76" points="145.2,117.3 135.9,111.9 136.3,111.7 145.6,117.1 						"/>
					</g>
					<g>
						<polygon class="st77" points="145.3,118.8 135.9,113.4 135.9,111.9 145.2,117.3 						"/>
					</g>
					<g>
						<polygon class="st78" points="157.1,110.5 157.1,112 145.3,118.8 145.2,117.3 145.6,117.1 156.8,110.7 						"/>
					</g>
					<g>
						<polygon class="st79" points="154,102.1 144.7,96.7 149,94.2 158.3,99.7 						"/>
					</g>
					<g>
						<polygon class="st78" points="146.4,116.7 137,111.2 137.3,106.2 146.7,111.6 						"/>
					</g>
					<g>
						<polygon class="st79" points="143.4,108.3 134.1,102.9 144.7,96.7 154,102.1 						"/>
					</g>
					<g>
						<path class="st77" d="M158.3,99.7l-2.7,6.7l0.3,4.7l-9.6,5.5l0.3-5.1c-1.8,1.1-3.3-0.2-3.3-2.7c0-0.2,0-1.8,0-2l10.6-4.7
							L158.3,99.7z"/>
					</g>
					<g>
						<g class="st8">
							<path class="st80" d="M140.4,109.3l-5.1-3c-0.7-0.4-1.2-1.4-1.2-2.9c0-0.2,0-0.4,0-0.6l9.4,4.2c0,0.2,0,1.7,0,1.9
								c0,1.4,0.5,2.4,1.2,2.9l0,0L140.4,109.3L140.4,109.3z"/>
						</g>
					</g>
				</g>
			</g>
			<g>
				<g class="st8">
					<g>
						<polygon class="st81" points="154.6,101.8 143.5,95.4 143.5,95.2 154.6,101.7 						"/>
					</g>
					<g>
						<polygon class="st81" points="154.6,101.7 143.5,95.2 143.5,95 154.6,101.4 						"/>
					</g>
					<g>
						<polygon class="st61" points="154.6,101.4 143.5,95 143.5,90 154.6,96.5 						"/>
					</g>
					<g>
						<defs>
							<path id="SVGID_5_" d="M147.6,80.4l11.1,6.5c-0.1-0.1-0.3-0.1-0.4,0l-11.1-6.5C147.3,80.4,147.5,80.4,147.6,80.4z"/>
						</defs>
						<use xlink:href="#SVGID_5_"  style="overflow:visible;fill:#E1E4EA;"/>
						<clipPath id="SVGID_6_">
							<use xlink:href="#SVGID_5_"  style="overflow:visible;"/>
						</clipPath>
						<g class="st82">
							<path class="st80" d="M158.3,86.9l-11.1-6.5c0.1-0.1,0.2-0.1,0.3-0.1l11.1,6.5C158.5,86.8,158.4,86.9,158.3,86.9L158.3,86.9z
								"/>
							<path class="st80" d="M158.6,86.8l-11.1-6.5c0.1,0,0.1,0,0.1,0l11.1,6.5C158.7,86.8,158.6,86.8,158.6,86.8L158.6,86.8z"/>
						</g>
					</g>
					<g>
						<polygon class="st61" points="154.6,96.5 143.5,90 143.5,83.4 154.6,89.9 						"/>
					</g>
					<g>
						<polygon class="st80" points="155.2,88.7 144.1,82.2 147.2,80.5 158.3,86.9 						"/>
					</g>
					<g>
						<defs>
							<path id="SVGID_7_" d="M154.6,89.9l-11.1-6.5c0-0.4,0.3-1,0.6-1.2l11.1,6.5C154.9,88.9,154.6,89.4,154.6,89.9z"/>
						</defs>
						<use xlink:href="#SVGID_7_"  style="overflow:visible;fill:#E1E4EA;"/>
						<clipPath id="SVGID_8_">
							<use xlink:href="#SVGID_7_"  style="overflow:visible;"/>
						</clipPath>
						<g class="st83">
							<path class="st61" d="M154.6,89.9l-11.1-6.5c0-0.2,0-0.3,0.1-0.5l11.1,6.5C154.6,89.5,154.6,89.7,154.6,89.9L154.6,89.9z"/>
							<path class="st61" d="M154.7,89.4l-11.1-6.5c0-0.1,0.1-0.2,0.1-0.3l11.1,6.5C154.8,89.2,154.7,89.3,154.7,89.4L154.7,89.4z"
								/>
							<path class="st80" d="M154.8,89.1l-11.1-6.5c0.1-0.2,0.2-0.3,0.4-0.4l11.1,6.5C155.1,88.8,154.9,88.9,154.8,89.1L154.8,89.1z
								"/>
						</g>
					</g>
					<g>
						<path class="st78" d="M158.3,86.9c0.4-0.2,0.6,0,0.6,0.4l0,6.6l0,5l0,0.3l-0.1,0.2l-4.3,2.5l0-0.1l0-0.3l0-5l0-6.6
							c0-0.4,0.3-1,0.6-1.2L158.3,86.9z"/>
					</g>
				</g>
			</g>
			<g>
				<g class="st8">
					<g class="st8">
						<g class="st8">
							<path class="st84" d="M147.5,105c-0.5,0.3-1.1,0.6-1.7,0.8c-1.5,0.5-3.3,0.7-5,0.5l0,1.1c1.7,0.1,3.4,0,5-0.5
								c0.6-0.2,1.2-0.5,1.7-0.8l7.2-4.2l0-1.1L147.5,105z"/>
							<path class="st84" d="M140.8,106.3l0,1.1c-1.6-0.1-3.2-0.6-4.5-1.3c-1.6-0.9-2.3-2.1-2.3-3.2l0-1.1c0,1.2,0.8,2.4,2.3,3.2
								C137.6,105.8,139.2,106.2,140.8,106.3L140.8,106.3z"/>
						</g>
					</g>
					<g>
						<path class="st85" d="M154.7,100.9l-7.2,4.2c-3.1,1.8-8.1,1.8-11.1,0c-3.1-1.8-3.1-4.7,0-6.5l7.2-4.2L154.7,100.9z"/>
					</g>
				</g>
			</g>
			<g>
				<g class="st8">
					<g>
						<path class="st86" d="M151.7,83.7c0.5,0.3,0.4,0.8,0,1c-0.5,0.3-1.2,0.3-1.7,0c-0.5-0.3-0.4-0.8,0-1
							C150.5,83.4,151.2,83.4,151.7,83.7z"/>
					</g>
					<g>
						<path class="st87" d="M151.7,83.7c0.5,0.3,0.4,0.7,0,1c-0.5,0.3-1.2,0.3-1.7,0c-0.5-0.3-0.4-0.7,0-1
							C150.5,83.4,151.2,83.4,151.7,83.7z"/>
					</g>
				</g>
			</g>
		</g>
		<path class="st88" d="M154.7,100.9l-7.2,4.2c-3.1,1.8-8.1,1.8-11.1,0c-3.1-1.8-3.1-4.7,0-6.5l7.2-4.2L154.7,100.9z"/>
		<g>
			<g class="st8">
				<g>
					<polygon class="st89" points="153.7,101.5 154.6,100.9 154.7,92.3 153.7,92.9 					"/>
				</g>
				<g class="st8">
					<defs>
						<path id="SVGID_9_" class="st8" d="M145.1,82.3l-1,0.6c1-0.6,2.4-0.5,4,0.4l1-0.6C147.6,81.8,146.2,81.7,145.1,82.3z"/>
					</defs>
					<clipPath id="SVGID_10_">
						<use xlink:href="#SVGID_9_"  style="overflow:visible;"/>
					</clipPath>
					<g class="st90">
						<path class="st89" d="M148.1,83.3l1-0.6c-0.6-0.3-1.2-0.6-1.7-0.7l-1,0.6C147,82.7,147.5,82.9,148.1,83.3L148.1,83.3z"/>
						<path class="st89" d="M146.4,82.6l1-0.6c-0.8-0.2-1.6-0.1-2.2,0.2l-1,0.6C144.9,82.5,145.6,82.4,146.4,82.6L146.4,82.6z"/>
						<path class="st91" d="M144.2,82.8l1-0.6c0,0-0.1,0-0.1,0.1L144.2,82.8C144.2,82.9,144.2,82.9,144.2,82.8L144.2,82.8z"/>
					</g>
				</g>
				<g class="st8">
					<defs>
						<path id="SVGID_11_" class="st8" d="M153.7,92.9l1-0.6c0-3.5-2.5-7.8-5.6-9.6l-1,0.6C151.2,85.1,153.7,89.4,153.7,92.9z"/>
					</defs>
					<clipPath id="SVGID_12_">
						<use xlink:href="#SVGID_11_"  style="overflow:visible;"/>
					</clipPath>
					<g class="st92">
						<path class="st89" d="M153.7,92.9l1-0.6c0-1.4-0.4-2.8-1-4.2l-1,0.6C153.3,90.1,153.7,91.6,153.7,92.9L153.7,92.9z"/>
						<path class="st89" d="M152.7,88.7l1-0.6c-0.5-1.1-1.1-2.1-1.9-3l-1,0.6C151.6,86.6,152.2,87.6,152.7,88.7L152.7,88.7z"/>
						<path class="st89" d="M150.8,85.7l1-0.6c-0.8-1-1.7-1.8-2.7-2.4l-1,0.6C149.1,83.8,150,84.7,150.8,85.7L150.8,85.7z"/>
					</g>
				</g>
				<g>
					<path class="st93" d="M148.1,83.3c-3.1-1.8-5.6-0.4-5.6,3.2l0,8.5l11.2,6.4l0-8.5C153.7,89.4,151.2,85.1,148.1,83.3z"/>
				</g>
			</g>
		</g>
	</g>
	<g>
		<path class="st77" d="M150.3,101.4l0.9-0.5l-4.5,2.6c-0.8,0.5-1.9,0.8-3.1,1v-7L150.3,101.4z"/>
		<path class="st77" d="M135.8,101.8c0,0.1,0,0.2,0,0.2C135.8,102,135.8,101.9,135.8,101.8z"/>
		<path class="st94" d="M135.9,102.3c0.2-0.4,0.7-0.8,1.3-1.2l6.3-3.7v7c-0.5,0.1-1,0.1-1.6,0.1c-1.8,0-3.5-0.4-4.7-1.1
			c-0.8-0.4-1.3-1-1.4-1.5C135.8,102.1,135.9,102.2,135.9,102.3z"/>
		<path class="st78" d="M135.8,102C135.8,102,135.8,102,135.8,102C135.8,102,135.8,102,135.8,102z"/>
		<path class="st95" d="M137.2,101.1c-0.6,0.4-1.1,0.8-1.3,1.2c0-0.1-0.1-0.2-0.1-0.2c0,0,0,0,0,0c0-0.1,0-0.2,0-0.2
			c0-0.5,0.5-1.2,1.4-1.7l6.3-3.7v1L137.2,101.1z"/>
		<polygon class="st78" points="143.5,97.5 143.5,96.4 151.2,100.9 150.3,101.4 		"/>
	</g>
	<g class="st8">
		<g>
			<polygon class="st72" points="130.2,131.5 128.9,130.8 128.8,114.2 130.1,115 			"/>
		</g>
		<g>
			<polygon class="st72" points="130.1,115 128.8,114.2 159.4,96.7 160.7,97.5 			"/>
		</g>
		<g>
			<polygon class="st72" points="160.7,97.5 160.7,114 130.2,131.5 130.1,115 			"/>
		</g>
	</g>
	<g>
		<path class="st87" d="M137.6,90.4c0.3-0.2,0.5,0,0.5,0.3c0,0.3-0.2,0.7-0.5,0.9c-0.3,0.2-0.5,0-0.5-0.3
			C137.1,90.9,137.3,90.5,137.6,90.4z"/>
	</g>
	<g>
		<g>
			<polygon class="st96" points="134.4,88.5 134.4,89 135.2,88.5 135.2,88 			"/>
		</g>
		<polygon class="st97" points="136.2,90.2 133.3,88.5 133.3,89 136.2,90.7 		"/>
		<polygon class="st98" points="136.2,89.6 134.4,88.5 135.2,88 134.7,87.7 133.3,88.5 136.2,90.2 		"/>
	</g>
	<g>
		<g class="st8">
			<path class="st99" d="M139.3,89.6l-3.1-1.8c0,0,0,0,0,0L139.3,89.6C139.3,89.6,139.3,89.6,139.3,89.6L139.3,89.6z"/>
			<path class="st61" d="M136.9,91.9c0-0.1,0-0.2,0-0.2c0,0,0,0,0,0c0-0.1,0-0.1,0.1-0.2c0,0,0,0,0-0.1c0-0.1,0.1-0.2,0.1-0.2
				c0,0,0,0,0-0.1c0,0,0-0.1,0.1-0.1c0,0,0,0,0-0.1c0,0,0-0.1,0.1-0.1c0,0,0,0,0-0.1c0,0,0.1-0.1,0.1-0.1c0,0,0,0,0-0.1
				c0,0,0.1-0.1,0.1-0.1c0,0,0,0,0,0c0-0.1,0.1-0.1,0.1-0.2c0,0,0,0,0,0c0,0,0.1-0.1,0.1-0.1c0,0,0,0,0.1,0c0,0,0.1-0.1,0.1-0.1
				c0,0,0,0,0.1,0c0.1,0,0.1-0.1,0.2-0.1c0,0,0.1,0,0.1-0.1c0,0,0,0,0,0c0,0,0.1,0,0.1,0c0,0,0,0,0,0c0,0,0.1,0,0.1,0c0,0,0,0,0,0
				c0,0,0,0,0,0c0,0,0.1,0,0.1,0c0,0,0,0,0,0c0,0,0.1,0,0.1,0c0,0,0,0,0,0c0,0,0.1,0,0.1,0c0,0,0,0,0,0c0,0,0,0,0.1,0c0,0,0,0,0.1,0
				l-3.1-1.8c0,0,0,0,0,0l0,0c0,0,0,0,0,0c0,0,0,0-0.1,0c0,0,0,0,0,0c0,0-0.1,0-0.1,0c0,0,0,0,0,0c0,0-0.1,0-0.1,0c0,0,0,0,0,0
				c0,0-0.1,0-0.1,0c0,0,0,0,0,0c0,0,0,0,0,0c0,0,0,0,0,0c0,0-0.1,0-0.1,0c0,0,0,0,0,0c0,0-0.1,0-0.1,0c0,0,0,0,0,0
				c0,0-0.1,0-0.1,0.1c-0.1,0-0.1,0.1-0.2,0.1c0,0,0,0-0.1,0c0,0-0.1,0.1-0.1,0.1c0,0,0,0-0.1,0c0,0-0.1,0.1-0.1,0.1c0,0,0,0,0,0
				c0,0.1-0.1,0.1-0.1,0.2c0,0,0,0,0,0c0,0,0,0,0,0c0,0-0.1,0.1-0.1,0.1c0,0,0,0,0,0.1c0,0-0.1,0.1-0.1,0.1c0,0,0,0,0,0.1
				c0,0,0,0.1-0.1,0.1c0,0,0,0,0,0.1c0,0,0,0.1-0.1,0.1c0,0,0,0,0,0c0,0,0,0,0,0c0,0.1-0.1,0.2-0.1,0.2c0,0,0,0,0,0.1
				c0,0.1,0,0.1-0.1,0.2c0,0,0,0,0,0c0,0.1,0,0.2,0,0.2c0,0,0,0,0,0.1c0,0.1,0,0.2,0,0.2c0,0.2,0,0.3,0.1,0.4
				c0.1,0.2,0.2,0.4,0.4,0.5l3.1,1.8c-0.3-0.1-0.4-0.5-0.4-0.9C136.9,92.1,136.9,92,136.9,91.9C136.9,91.9,136.9,91.9,136.9,91.9z"
				/>
			<g>
				<path class="st80" d="M138.3,89.7c0.8-0.5,1.4-0.1,1.4,0.8c0,0.9-0.6,2-1.4,2.5c-0.8,0.5-1.4,0.1-1.4-0.8
					C136.9,91.3,137.5,90.2,138.3,89.7z"/>
			</g>
			<g>
				<path class="st87" d="M138.3,90.8c0.3-0.2,0.5,0,0.5,0.3s-0.2,0.7-0.5,0.9c-0.3,0.2-0.5,0-0.5-0.3
					C137.8,91.3,138.1,90.9,138.3,90.8z"/>
			</g>
		</g>
	</g>
	<polygon class="st96" points="139.4,92 139.4,92.5 140.7,91.7 140.7,91.2 	"/>
	<g>
		<polygon class="st98" points="140.2,90.9 139.3,91.4 138.3,90.8 138.3,91.4 139.4,92 140.7,91.2 		"/>
		<g>
			<polygon class="st97" points="138.3,91.9 139.4,92.5 139.4,92 138.3,91.4 			"/>
			<path class="st97" d="M138.7,91.6l-0.7-0.4c-0.1,0.1-0.1,0.3-0.1,0.4l0.5,0.3C138.5,91.8,138.6,91.7,138.7,91.6z"/>
		</g>
		<path class="st98" d="M138.3,90.8c-0.1,0.1-0.2,0.2-0.3,0.4l0.7,0.4c0.1-0.1,0.1-0.3,0.2-0.5L138.3,90.8z"/>
	</g>
	<path class="st100" d="M105.4,161.8l0.1,5.9v0l0,0l8.6,5l0,2.7l23.1-13.3l-0.1-8.5l-2.2,1.3l-8.6-5l0,10l-1.6,0.9l-8.6-5l0,0.6
		l-0.5-0.3l0,10l-1.5,0.9L105.4,161.8z M125.7,161.3l0.1-5.3l0,0L125.7,161.3L125.7,161.3z"/>
	<g>
		<polygon class="st101" points="137.1,153.5 127.4,147.9 104.3,161.2 114,166.8 		"/>
	</g>
	<g>
		<polygon class="st102" points="114,166.8 104.3,161.2 104.4,169.7 114.1,175.3 		"/>
	</g>
	<g class="st8">
		<g>
			<polygon class="st103" points="126,155.5 124.6,154.7 126.1,153.8 127.5,154.6 			"/>
		</g>
		<g>
			<polygon class="st103" points="119.8,159 118.4,158.2 124.6,154.7 126,155.5 			"/>
		</g>
		<g>
			<polygon class="st103" points="118.3,159.9 116.9,159.1 118.4,158.2 119.8,159 			"/>
		</g>
		<g>
			<polygon class="st104" points="118.3,160.5 116.9,159.7 116.9,159.1 118.3,159.9 			"/>
		</g>
		<g>
			<polygon class="st105" points="127.5,154.6 127.5,155.2 118.3,160.5 118.3,159.9 119.8,159 126,155.5 			"/>
		</g>
	</g>
	<g class="st8">
		<g class="st8">
			<g class="st8">
				<path class="st106" d="M133.3,148.1l-1.4-0.8c0.3-0.2,0.5-0.6,0.5-0.9l1.4,0.8C133.8,147.5,133.6,147.9,133.3,148.1L133.3,148.1
					z"/>
			</g>
		</g>
		<g>
			<polygon class="st104" points="133.8,147.2 132.4,146.3 132.4,134.6 133.8,135.4 			"/>
		</g>
		<g class="st8">
			<g class="st8">
				<path class="st106" d="M133.8,135.4l-1.4-0.8c0-0.2-0.1-0.3-0.2-0.3l1.4,0.8C133.7,135.1,133.8,135.2,133.8,135.4L133.8,135.4z"
					/>
			</g>
		</g>
		<g class="st8">
			<g class="st8">
				<path class="st107" d="M133.3,135.1l-1.4-0.8c0.2-0.1,0.3-0.1,0.4,0l1.4,0.8C133.5,135,133.4,135,133.3,135.1L133.3,135.1z"/>
			</g>
		</g>
		<g class="st8">
			<g class="st8">
				<path class="st106" d="M133.6,134.2l-1.4-0.8c0.2-0.1,0.5-0.2,0.6-0.1l1.4,0.8C134.1,134,133.9,134,133.6,134.2L133.6,134.2z"/>
			</g>
		</g>
		<g>
			<polygon class="st108" points="119.8,157.4 118.4,156.6 124.6,153.1 126,153.9 			"/>
		</g>
		<g>
			<polygon class="st109" points="119.8,159 118.4,158.2 118.4,156.6 119.8,157.4 			"/>
		</g>
		<g>
			<polygon class="st110" points="126,153.9 126,155.5 119.8,159 119.8,157.4 			"/>
		</g>
		<g>
			<polygon class="st103" points="112.5,160.1 111.1,159.3 131.9,147.3 133.3,148.1 			"/>
		</g>
		<g class="st8">
			<g class="st8">
				<path class="st106" d="M112.1,160.1l-1.4-0.8c0.1,0.1,0.2,0,0.4,0l1.4,0.8C112.4,160.2,112.2,160.2,112.1,160.1L112.1,160.1z"/>
			</g>
		</g>
		<g class="st8">
			<g class="st8">
				<path class="st106" d="M111.5,161.9l-1.4-0.8c-0.2-0.1-0.3-0.3-0.3-0.6l1.4,0.8C111.2,161.6,111.3,161.8,111.5,161.9
					L111.5,161.9z"/>
			</g>
		</g>
		<g class="st8">
			<g class="st8">
				<path class="st107" d="M112.1,160.1l-1.4-0.8c-0.1-0.1-0.2-0.2-0.2-0.3l1.4,0.8C112,159.9,112,160.1,112.1,160.1L112.1,160.1z"
					/>
			</g>
		</g>
		<g>
			<polygon class="st104" points="111.2,161.4 109.9,160.6 109.9,159.4 111.2,160.2 			"/>
		</g>
		<g>
			<polygon class="st111" points="112,159.8 110.6,159 110.5,147.2 111.9,148 			"/>
		</g>
		<g>
			<polygon class="st104" points="111.2,160.2 109.9,159.4 109.8,148.5 111.2,149.3 			"/>
		</g>
		<g>
			<polygon class="st112" points="112.5,147.1 111.1,146.3 131.9,134.3 133.3,135.1 			"/>
		</g>
		<g class="st8">
			<g class="st8">
				<path class="st107" d="M111.9,148l-1.4-0.8c0-0.3,0.2-0.8,0.5-0.9l1.4,0.8C112.2,147.3,111.9,147.7,111.9,148L111.9,148z"/>
			</g>
		</g>
		<g>
			<polygon class="st104" points="111.2,149.3 109.8,148.5 109.8,147.4 111.2,148.2 			"/>
		</g>
		<g>
			<polygon class="st103" points="112.1,146.6 110.7,145.8 132.2,133.4 133.6,134.2 			"/>
		</g>
		<g class="st8">
			<g class="st8">
				<path class="st106" d="M111.2,148.2l-1.4-0.8c0-0.6,0.4-1.3,0.9-1.5l1.4,0.8C111.6,146.9,111.2,147.6,111.2,148.2L111.2,148.2z"
					/>
			</g>
		</g>
		<path class="st105" d="M134.5,146.8l0-10.9l0-1.1c0-0.6-0.4-0.8-0.9-0.5l-21.5,12.4c-0.5,0.3-0.9,1-0.9,1.5l0,1.1l0,10.9l0,1.1
			c0,0.6,0.4,0.8,0.9,0.5l7.7-4.4l6.2-3.6l7.7-4.4c0.5-0.3,0.9-1,0.9-1.5L134.5,146.8z M133.6,135c0,0-0.1,0-0.1,0
			C133.5,135,133.5,135,133.6,135z M133.5,147.9c0.1-0.1,0.2-0.3,0.3-0.5C133.7,147.6,133.6,147.8,133.5,147.9z"/>
	</g>
	<g>
		<path class="st33" d="M67.6,99.6c0.6-0.1,1.1-0.1,1.3-0.1c0.2,0,0.4,0,0.8,0c0.3,0,0.6,0,0.8,0.1c0.2,0,0.8,0.1,1.4,0.3
			c0.6,0.2,0.9,0.3,1.1,0.4c-0.5-0.3-1.7-0.4-3.1-0.3c-0.2-0.1-0.7-0.2-1.1-0.1c-0.4,0.1-0.6,0.2-0.4,0.3c0.2,0.1,0.7,0.2,1.1,0.1
			c0.4-0.1,0.6-0.2,0.4-0.3c1.4-0.1,2.5,0,3.1,0.3c0.1,0,0.2,0.1,0.3,0.2c0.1,0.1,0.2,0.2,0.3,0.2c0.1,0.1,0.1,0.1,0.2,0.2
			c0,0.1,0.1,0.2,0.1,0.2c0.1,0.5-0.8,1-2.6,1.2c-2.3,0.3-5.1,0-6.2-0.6c-0.4-0.2-0.5-0.4-0.5-0.7c0-0.1,0.1-0.2,0.1-0.2
			c0.1-0.1,0.1-0.2,0.2-0.2c0.1-0.1,0.2-0.2,0.3-0.2c0.2-0.1,0.2-0.1,0.5-0.3c0.2-0.1,0.5-0.2,0.9-0.3
			C66.8,99.7,67.2,99.6,67.6,99.6z"/>
	</g>
	<g>
		<path class="st113" d="M68.3,100l0-27.7c0,0,0,0.1,0.1,0.1c0.2,0.1,0.7,0.2,1.1,0.1c0.3,0,0.5-0.1,0.5-0.2l0,27.7
			c0,0.1-0.2,0.2-0.5,0.2c-0.4,0.1-0.9,0-1.1-0.1C68.3,100.1,68.3,100.1,68.3,100z"/>
	</g>
	<g>
		<path class="st27" d="M62.4,76.6c0.7-3.4,1.4-6.9,2.1-10.3c0,0.2,0.1,0.4,0.5,0.6c1.1,0.6,3.9,0.9,6.3,0.6
			c1.7-0.2,2.7-0.7,2.6-1.2c0.7,3.4,1.3,6.9,2,10.3c0.1,0.7-1.3,1.4-3.8,1.8c-3.3,0.4-7.4,0.1-9-0.9C62.6,77.2,62.4,76.9,62.4,76.6z
			"/>
	</g>
	<g>
		<path class="st114" d="M73.4,65.7c1.1,0.6,0.2,1.4-2.1,1.7c-2.3,0.3-5.1,0-6.3-0.6c-1.1-0.6-0.2-1.4,2.1-1.7
			C69.4,64.8,72.2,65.1,73.4,65.7z"/>
	</g>
	<g>
		<g class="st8">
			<g>
				<polygon class="st115" points="63.1,148.1 61.7,147.3 61.7,152.1 63.1,152.9 				"/>
			</g>
			<g>
				<polygon class="st116" points="64.7,147.2 63.3,146.4 61.7,147.3 63.1,148.1 				"/>
			</g>
			<g>
				<polygon class="st117" points="63.1,148.1 63.1,152.9 64.7,152 64.7,147.2 				"/>
			</g>
		</g>
	</g>
	<g>
		<g class="st8">
			<g>
				<polygon class="st115" points="19.5,122.8 18.1,122.1 18.1,126.9 19.5,127.7 				"/>
			</g>
			<g>
				<polygon class="st116" points="21,121.9 19.7,121.2 18.1,122.1 19.5,122.8 				"/>
			</g>
			<g>
				<polygon class="st118" points="19.5,122.8 19.5,127.7 21,126.8 21,121.9 				"/>
			</g>
		</g>
	</g>
	<g>
		<g class="st8">
			<g>
				<polygon class="st117" points="98.2,128 96.8,127.2 96.8,132.1 98.2,132.9 				"/>
			</g>
			<g>
				<polygon class="st116" points="99.7,127.1 98.4,126.3 96.8,127.2 98.2,128 				"/>
			</g>
			<g>
				<polygon class="st117" points="98.2,128 98.2,132.9 99.7,132 99.7,127.1 				"/>
			</g>
		</g>
	</g>
	<g>
		<g class="st8">
			<g>
				<polygon class="st102" points="19.4,118.1 19.4,125.7 63.2,151.2 63.2,143.5 				"/>
			</g>
			<g>
				<polygon class="st117" points="63.2,143.5 63.2,151.2 100.4,129.7 100.4,122 				"/>
			</g>
			<g>
				<polygon class="st119" points="19.4,118.1 63.2,143.5 100.4,122 56.7,96.6 				"/>
			</g>
		</g>
	</g>
	<g>
		<g class="st8">
			<path class="st115" d="M52.5,81.4l-1.3-0.7c-3.4,0.7-8.6,2.9-14.5,6.3l1.3,0.7C43.8,84.4,49.1,82.2,52.5,81.4L52.5,81.4z"/>
			<path class="st115" d="M18.1,103C18.1,103,18.1,103,18.1,103c0-0.1,0-0.2,0-0.2c0,0,0,0,0-0.1c0,0,0-0.1,0-0.1
				c0-0.1,0-0.1,0.1-0.2c0,0,0-0.1,0.1-0.1c0,0,0-0.1,0-0.1c0,0,0-0.1,0-0.1c0-0.1,0.1-0.2,0.1-0.3c0-0.1,0.1-0.1,0.1-0.2
				c0.1-0.1,0.1-0.2,0.2-0.3c0,0,0-0.1,0.1-0.1c0,0,0,0,0,0c0,0,0.1-0.1,0.1-0.1c0.1-0.1,0.1-0.2,0.2-0.3c0,0,0.1-0.1,0.1-0.1
				c0.1-0.1,0.1-0.2,0.2-0.3c0,0,0.1-0.1,0.1-0.1c0.1-0.1,0.2-0.2,0.3-0.3c0,0,0.1-0.1,0.1-0.1c0.1-0.1,0.2-0.3,0.4-0.4
				c0,0,0.1-0.1,0.1-0.1c0.1-0.1,0.2-0.2,0.3-0.4c0-0.1,0.1-0.1,0.1-0.2c0.1-0.1,0.2-0.2,0.3-0.3c0.1-0.1,0.1-0.1,0.2-0.2
				c0.1-0.1,0.2-0.2,0.3-0.3c0.1-0.1,0.1-0.1,0.2-0.2c0.2-0.2,0.3-0.3,0.5-0.5c0,0,0,0,0,0c0.2-0.2,0.4-0.3,0.5-0.5
				c0.1-0.1,0.1-0.1,0.2-0.2c0.1-0.1,0.3-0.2,0.4-0.4c0.1-0.1,0.1-0.1,0.2-0.2c0.1-0.1,0.3-0.2,0.4-0.3c0.1-0.1,0.1-0.1,0.2-0.2
				c0.2-0.1,0.3-0.3,0.5-0.4c0.1,0,0.1-0.1,0.2-0.1c0.2-0.2,0.4-0.3,0.6-0.5c0,0,0.1-0.1,0.2-0.1c0.2-0.1,0.3-0.3,0.5-0.4
				c0.1-0.1,0.2-0.1,0.2-0.2c0.2-0.1,0.3-0.2,0.5-0.4c0.1-0.1,0.2-0.1,0.3-0.2c0.2-0.1,0.3-0.2,0.5-0.4c0.1-0.1,0.2-0.1,0.2-0.2
				c0.2-0.2,0.5-0.4,0.7-0.5c0,0,0,0,0,0c0.3-0.2,0.5-0.4,0.8-0.5c0.1-0.1,0.2-0.1,0.2-0.2c0.2-0.1,0.4-0.3,0.5-0.4
				c0.1-0.1,0.2-0.1,0.3-0.2c0.2-0.1,0.4-0.2,0.5-0.4c0.1-0.1,0.2-0.1,0.3-0.2c0.2-0.1,0.4-0.3,0.6-0.4c0.1,0,0.1-0.1,0.2-0.1
				c0.3-0.2,0.6-0.4,0.8-0.5c0.1,0,0.1-0.1,0.2-0.1c0.2-0.1,0.4-0.3,0.6-0.4c0.1-0.1,0.2-0.1,0.3-0.2c0.2-0.1,0.4-0.2,0.6-0.4
				c0.1-0.1,0.2-0.1,0.3-0.2c0.2-0.1,0.4-0.2,0.6-0.4c0.1-0.1,0.2-0.1,0.3-0.2c0.3-0.2,0.6-0.3,0.9-0.5l0,0
				c5.9-3.4,11.1-5.6,14.5-6.3l0,0c0,0,0.1,0,0.1,0c0.1,0,0.1,0,0.2,0c0.1,0,0.2,0,0.2,0c0.1,0,0.1,0,0.2,0c0.1,0,0.2,0,0.2,0
				c0.1,0,0.1,0,0.2,0c0.1,0,0.2,0,0.2,0c0.1,0,0.1,0,0.2,0c0.1,0,0.2,0,0.2,0c0,0,0.1,0,0.1,0c0.1,0,0.2,0,0.2,0c0,0,0.1,0,0.1,0
				c0.1,0,0.2,0,0.3,0c0,0,0,0,0.1,0c0.1,0,0.1,0,0.2,0c0,0,0,0,0,0c0.1,0,0.2,0.1,0.4,0.1c0,0,0.1,0,0.1,0c0.1,0,0.2,0.1,0.3,0.1
				l1.3,0.7c-0.1-0.1-0.2-0.1-0.3-0.1c0,0-0.1,0-0.1,0c-0.1,0-0.2-0.1-0.4-0.1c-0.1,0-0.1,0-0.2,0c0,0,0,0-0.1,0c-0.1,0-0.2,0-0.3,0
				c0,0-0.1,0-0.1,0c-0.1,0-0.2,0-0.2,0c0,0-0.1,0-0.1,0c-0.1,0-0.1,0-0.2,0c-0.1,0-0.1,0-0.2,0c-0.1,0-0.2,0-0.2,0
				c-0.1,0-0.1,0-0.2,0c-0.1,0-0.2,0-0.2,0c-0.1,0-0.1,0-0.2,0c-0.1,0-0.2,0-0.2,0c-0.1,0-0.1,0-0.2,0c-3.4,0.7-8.7,2.9-14.6,6.3
				l0,0c-0.3,0.2-0.6,0.3-0.9,0.5c-0.1,0.1-0.2,0.1-0.3,0.2c-0.2,0.1-0.4,0.2-0.6,0.4c-0.1,0.1-0.2,0.1-0.3,0.2
				c-0.2,0.1-0.4,0.2-0.6,0.4c-0.1,0.1-0.2,0.1-0.3,0.2c-0.2,0.1-0.4,0.3-0.7,0.4c-0.1,0-0.1,0.1-0.2,0.1c-0.3,0.2-0.6,0.4-0.8,0.5
				c-0.1,0-0.1,0.1-0.2,0.1c-0.2,0.1-0.4,0.3-0.6,0.4c-0.1,0.1-0.2,0.1-0.3,0.2c-0.2,0.1-0.4,0.2-0.5,0.4c-0.1,0.1-0.2,0.1-0.3,0.2
				c-0.2,0.1-0.4,0.3-0.5,0.4c-0.1,0.1-0.2,0.1-0.2,0.2c-0.3,0.2-0.5,0.4-0.8,0.5c0,0,0,0,0,0c-0.2,0.2-0.5,0.4-0.7,0.5
				c-0.1,0.1-0.2,0.1-0.2,0.2c-0.2,0.1-0.3,0.2-0.5,0.4c-0.1,0.1-0.2,0.1-0.3,0.2c-0.2,0.1-0.3,0.2-0.5,0.4
				c-0.1,0.1-0.2,0.1-0.2,0.2c-0.2,0.1-0.3,0.3-0.5,0.4c-0.1,0-0.1,0.1-0.2,0.1c-0.2,0.2-0.4,0.4-0.6,0.5c-0.1,0-0.1,0.1-0.2,0.1
				c-0.2,0.1-0.3,0.3-0.5,0.4c-0.1,0.1-0.1,0.1-0.2,0.2c-0.1,0.1-0.3,0.2-0.4,0.3c-0.1,0.1-0.1,0.1-0.2,0.2
				c-0.1,0.1-0.3,0.2-0.4,0.4c-0.1,0.1-0.1,0.1-0.2,0.2c-0.2,0.2-0.4,0.3-0.5,0.5c0,0,0,0,0,0c-0.2,0.2-0.3,0.3-0.5,0.5
				c-0.1,0.1-0.1,0.1-0.2,0.2c-0.1,0.1-0.2,0.2-0.3,0.3c-0.1,0.1-0.1,0.1-0.2,0.2c-0.1,0.1-0.2,0.2-0.3,0.3c0,0.1-0.1,0.1-0.1,0.2
				c-0.1,0.1-0.2,0.2-0.3,0.4c0,0-0.1,0.1-0.1,0.1c-0.1,0.1-0.3,0.3-0.4,0.4c0,0-0.1,0.1-0.1,0.1c-0.1,0.1-0.2,0.2-0.3,0.3
				c0,0-0.1,0.1-0.1,0.1c-0.1,0.1-0.1,0.2-0.2,0.3c0,0-0.1,0.1-0.1,0.1c-0.1,0.1-0.1,0.2-0.2,0.3c0,0-0.1,0.1-0.1,0.1
				c0,0-0.1,0.1-0.1,0.1c-0.1,0.1-0.1,0.2-0.2,0.3c0,0.1-0.1,0.1-0.1,0.2c0,0.1-0.1,0.2-0.1,0.3c0,0.1-0.1,0.1-0.1,0.2
				c0,0,0,0.1-0.1,0.1c0,0.1,0,0.1-0.1,0.2c0,0,0,0.1,0,0.1c0,0.1,0,0.1,0,0.2c0,0,0,0.1,0,0.1c0,0.1,0,0.2,0,0.3l0,23.6l-1.3-0.8
				l0-23.6C18.1,103.2,18.1,103.1,18.1,103z"/>
			<g>
				<path class="st117" d="M38,87.8C27.7,93.7,19.4,101,19.4,104l0,11.1l37.2-21.5l0-11.1C56.6,79.5,48.3,81.8,38,87.8z"/>
			</g>
		</g>
	</g>
	<g>
		<g class="st8">
			<g>
				<polygon class="st120" points="19.4,115.1 19.4,118.1 63.2,143.5 63.2,140.5 				"/>
			</g>
			<g>
				<polygon class="st121" points="63.2,140.5 63.2,143.5 100.4,122 100.4,119 				"/>
			</g>
			<g>
				<polygon class="st101" points="19.4,115.1 63.2,140.5 100.4,119 56.7,93.6 				"/>
			</g>
		</g>
	</g>
	<g>
		<g class="st8">
			<path class="st122" d="M44.6,101c-1,0.6-1.1,1.6,0,2.2l5.8,3.4c1,0.6,2.7,0.6,3.8,0l9.2-5.3c1-0.6,1.1-1.6,0-2.2l-5.8-3.4
				c-1-0.6-2.8-0.6-3.8,0L44.6,101z"/>
			<path class="st123" d="M44.6,103.2l5.8,3.4c1,0.6,2.7,0.6,3.8,0l9.2-5.3c0.5-0.3,0.8-0.7,0.8-1.1l0,2.7c0,0.4-0.3,0.8-0.8,1.1
				l-9.2,5.3c-1,0.6-2.8,0.6-3.8,0l-5.8-3.4c-0.5-0.3-0.8-0.7-0.8-1.1l0-2.7C43.9,102.5,44.1,102.9,44.6,103.2z"/>
		</g>
	</g>
	<g>
		<g class="st8">
			<path class="st122" d="M28.8,111c-1,0.6-1.1,1.6,0,2.2l5.8,3.4c1,0.6,2.7,0.6,3.8,0l9.2-5.3c1-0.6,1.1-1.6,0-2.2l-5.8-3.4
				c-1-0.6-2.8-0.6-3.8,0L28.8,111z"/>
			<path class="st123" d="M28.8,113.2l5.8,3.4c1,0.6,2.7,0.6,3.8,0l9.2-5.3c0.5-0.3,0.8-0.7,0.8-1.1l0,2.7c0,0.4-0.3,0.8-0.8,1.1
				l-9.2,5.3c-1,0.6-2.8,0.6-3.8,0l-5.8-3.4c-0.5-0.3-0.8-0.7-0.8-1.1l0-2.7C28,112.5,28.3,112.9,28.8,113.2z"/>
		</g>
	</g>
	<g>
		<g>
			<g>
				<polygon class="st124" points="34.7,124.2 34.8,127.1 63.2,143.5 63.2,140.5 				"/>
			</g>
			<g>
				<polygon class="st125" points="59.4,138.4 63.2,140.5 63.2,143.5 59.4,141.3 				"/>
				<polygon class="st125" points="50.5,133.2 54.4,135.5 54.4,138.4 50.5,136.2 				"/>
				<polygon class="st125" points="46.9,131.2 46.9,134.1 43.1,131.9 43.1,129 				"/>
				<polygon class="st125" points="38.6,126.4 38.6,129.3 34.8,127.1 34.7,124.2 				"/>
			</g>
			<g>
				<polygon class="st123" points="34.7,124.2 63.2,140.5 100.4,119 72.1,102.6 				"/>
			</g>
		</g>
		<polygon class="st126" points="38.5,126.3 34.7,124.2 72.1,102.6 75.9,104.8 		"/>
		<polygon class="st126" points="46.9,131.2 43.1,129 80.5,107.4 84.2,109.6 		"/>
		<polygon class="st126" points="54.4,135.5 50.5,133.2 87.9,111.7 91.6,113.9 		"/>
		<polygon class="st126" points="63.2,140.5 59.4,138.4 96.7,116.8 100.4,119 		"/>
	</g>
</g>
</svg>
