<?xml version="1.0" encoding="utf-8"?>
<!-- Generator: Adobe Illustrator 22.0.1, SVG Export Plug-In . SVG Version: 6.00 Build 0)  -->
<svg version="1.1" id="Слой_2" xmlns="http://www.w3.org/2000/svg" xmlns:xlink="http://www.w3.org/1999/xlink" x="0px" y="0px"
	 viewBox="0 0 200 200" style="enable-background:new 0 0 200 200;" xml:space="preserve">
<style type="text/css">
	.st0{fill:#B78441;}
	.st1{fill:#B28749;}
	.st2{fill:#CE9B49;}
	.st3{fill:#CC9E5A;}
	.st4{fill:#E5A345;}
	.st5{fill:#636871;}
	.st6{fill:#B7853E;}
	.st7{fill:#BA9058;}
	.st8{enable-background:new    ;}
	.st9{fill:#EDF4F9;}
	.st10{fill:url(#SVGID_1_);}
	.st11{fill:url(#SVGID_2_);}
	.st12{fill:url(#SVGID_3_);}
	.st13{fill:url(#SVGID_4_);}
	.st14{fill:url(#SVGID_5_);}
	.st15{fill:url(#SVGID_6_);}
	.st16{fill:url(#SVGID_7_);}
	.st17{fill:url(#SVGID_8_);}
	.st18{fill:url(#SVGID_9_);}
	.st19{fill:url(#SVGID_10_);}
	.st20{fill:url(#SVGID_11_);}
	.st21{fill:#FEC111;}
	.st22{fill:#FDB813;}
	.st23{fill:#FA624E;}
	.st24{fill:#56676E;}
	.st25{fill:#093F61;}
	.st26{fill:#0A4B73;}
	.st27{fill:#0B507A;}
	.st28{fill:#9C493F;}
	.st29{fill:#BFCBE3;}
	.st30{fill:#E1E4EA;}
	.st31{fill:#D38C24;}
	.st32{fill:#DE4B38;}
	.st33{fill:#FA8778;}
	.st34{fill:#07334E;}
	.st35{fill:#025074;}
	.st36{fill:#71CFF3;}
	.st37{fill:#B1C2E3;}
	.st38{fill:#A9BBDF;}
	.st39{fill:#D0D9EA;}
	.st40{fill:#B7C4DF;}
	.st41{fill:#D7D8DA;}
	.st42{fill:#868687;}
	.st43{clip-path:url(#SVGID_13_);enable-background:new    ;}
	.st44{clip-path:url(#SVGID_15_);enable-background:new    ;}
	.st45{fill:#71C6DB;}
	.st46{fill:#49B8B5;}
	.st47{fill:#374246;}
	.st48{fill:#89D8E8;}
	.st49{fill:#60A8BA;}
	.st50{clip-path:url(#SVGID_17_);enable-background:new    ;}
	.st51{fill:#174969;}
	.st52{clip-path:url(#SVGID_19_);}
	.st53{fill:#72CFE3;}
	.st54{fill:#BBC3D3;}
	.st55{fill:#A4B0C8;}
	.st56{fill:#BDBDBD;}
	.st57{fill:#ECC6AF;}
	.st58{fill:#969696;}
	.st59{fill:#D7D7D7;}
	.st60{fill:#7A7A7A;}
	.st61{fill:#8E8A80;}
	.st62{fill:#E2E8F2;}
	.st63{fill:#DAE1EB;}
	.st64{fill:#ECECEC;}
	.st65{fill:#E6EDF7;}
	.st66{fill:#C1D8F7;}
	.st67{fill:#A1B400;}
	.st68{fill:#844810;}
	.st69{fill:#D9E6F7;}
	.st70{fill:#B3D246;}
	.st71{fill:#798700;}
	.st72{fill:#230E01;}
	.st73{fill:#5B3520;}
	.st74{fill:#9F9B90;}
	.st75{fill:#2B1101;}
	.st76{fill:#5A3520;}
	.st77{fill:#692901;}
	.st78{fill:#3D1701;}
	.st79{fill:#4A2C1A;}
	.st80{fill:#4C1C01;}
	.st81{fill:#572201;}
	.st82{fill:#DBDCDE;}
	.st83{fill:#C7C8C9;}
	.st84{fill:#F0F0F0;}
	.st85{fill:#FAFBFD;}
	.st86{fill:#E5E6E8;}
	.st87{fill:#7AA6AE;}
	.st88{fill:#88B9C3;}
	.st89{clip-path:url(#SVGID_21_);enable-background:new    ;}
	.st90{fill:#9ED7E2;}
	.st91{clip-path:url(#SVGID_23_);enable-background:new    ;}
	.st92{fill:#7EACB5;}
	.st93{fill:#6F979E;}
	.st94{fill:#557379;}
	.st95{fill:#64616C;}
	.st96{fill:#B6B7B8;}
	.st97{opacity:0.3;}
	.st98{fill:#55D6D2;}
	.st99{fill:#BCF1FF;}
	.st100{fill:#68D6F9;}
	.st101{opacity:0.3;fill:#55D6D2;}
	.st102{fill:#414D54;}
	.st103{fill:#5F7078;}
</style>
<polygon class="st0" points="99.1,8 99.1,82 121.2,94.6 192.7,62.1 "/>
<polygon class="st1" points="121.2,94.6 192.7,135.1 192.7,62.1 192.7,62.1 "/>
<polygon class="st2" points="5.4,135.1 76.8,94.6 5.4,62.1 "/>
<polygon class="st3" points="99.1,8 5.4,62.1 5.4,62.1 76.8,94.6 99.1,82 "/>
<polygon class="st4" points="99,189.2 192.7,135.1 192.7,129.4 99,183.5 "/>
<polygon class="st5" points="189.1,131.5 182.8,128 182.8,128 176.9,124.5 176.9,124.5 170.9,121 170.9,121 164.9,117.6 
	164.9,117.6 158.9,114.1 158.9,114.1 152.9,110.7 152.9,110.7 146.9,107.2 146.9,107.2 141.2,103.9 141.2,103.9 135.2,100.4 
	135.2,100.4 129.2,97 129.2,97 123.2,93.5 123.2,93.5 117.2,90.1 117.2,90.1 111.2,86.6 111.2,86.6 105.3,83.2 105.3,83.2 99,79.6 
	92.8,83.2 92.8,83.2 86.8,86.6 86.8,86.6 81.1,89.9 81.1,89.9 74.9,93.5 74.9,93.5 68.9,97 68.9,97 62.9,100.4 62.9,100.4 
	56.9,103.9 56.9,103.9 51.1,107.2 51.1,107.2 44.9,110.8 44.9,110.8 39.2,114.1 39.2,114.1 33,117.7 33,117.7 27.2,121 27.2,121 
	21,124.6 21,124.6 15.2,127.9 15.2,127.9 9,131.5 15.2,135.1 15.2,135.1 21,138.4 21,138.4 27.2,142 27.2,142 33.2,145.5 
	33.2,145.5 39.2,148.9 39.2,148.9 45.2,152.4 45.2,152.4 51.2,155.9 51.2,155.9 57.1,159.3 57.1,159.3 63.1,162.8 63.1,162.8 
	69.1,166.2 69.1,166.2 75.1,169.7 75.1,169.7 81.1,173.1 81.1,173.1 87.1,176.6 87.1,176.6 93.1,180.1 93.1,180.1 99.1,183.5 
	105,180.1 105,180.1 110.2,177.1 111,176.6 111,176.6 117,173.1 117,173.1 122.1,170.2 123.2,169.5 123.2,169.5 129,166.2 
	129,166.2 134.1,163.3 135,162.8 135,162.8 140.9,159.3 140.9,159.3 146.1,156.4 146.9,155.9 146.9,155.9 152.9,152.4 152.9,152.4 
	158,149.4 158.9,148.9 158.9,148.9 164.9,145.5 164.9,145.5 170,142.5 170.9,142 170.9,142 176.9,138.6 176.9,138.6 182,135.6 
	182.8,135.1 182.8,135.1 "/>
<polygon class="st2" points="189.1,131.5 99.1,79.6 99.1,11.8 189.1,63.8 "/>
<polygon class="st6" points="9,131.5 99.1,79.6 99.1,11.8 9,63.8 "/>
<polygon class="st7" points="99,189.2 5.4,135.1 5.4,129.4 99,183.5 "/>
<g class="st8">
	<g>
		<path class="st9" d="M142.7,54.1l38.7,22.3l-0.1,35.4l-38.7-22.3L142.7,54.1z M168.2,80.9l0-0.5l-12.2-7.1l0,12l0.7,0.4l11.5,6.6
			L168.2,80.9L168.2,80.9z M154.6,73.1l0-0.5l-9.4-5.4l0,12l0.7,0.4l8.7,5L154.6,73.1L154.6,73.1z M178.8,98.7l0-12l-9.4-5.4l0,12
			l0.7,0.4L178.8,98.7L178.8,98.7z M168.2,71.7l0-0.4l-12.2-7.1l0,8.7l0.7,0.4l11.5,6.6L168.2,71.7L168.2,71.7z M168.1,93.4l0-0.5
			l-12.2-7.1l0,8.7l0.7,0.4l11.5,6.6L168.1,93.4L168.1,93.4z M154.6,63.8l0-0.4l-9.4-5.4l0,8.7l0.7,0.4l8.7,5L154.6,63.8L154.6,63.8
			z M154.5,85.6l0-0.5l-9.4-5.4l0,8.7l0.7,0.4l8.7,5L154.5,85.6L154.5,85.6z M178.9,86.2l0-8.7l-9.4-5.4l0,8.7l0.7,0.4L178.9,86.2
			L178.9,86.2z M178.8,107.9l0-8.7l-9.4-5.4l0,8.7l0.7,0.4L178.8,107.9L178.8,107.9z"/>
	</g>
	<g>
		
			<linearGradient id="SVGID_1_" gradientUnits="userSpaceOnUse" x1="270.6599" y1="112.7318" x2="247.0834" y2="62.1823" gradientTransform="matrix(1 0 0 1 -98.5239 0)">
			<stop  offset="0" style="stop-color:#9ED7E2"/>
			<stop  offset="1" style="stop-color:#2EABE3"/>
		</linearGradient>
		<polygon class="st10" points="145.2,66.7 145.9,67.1 154.6,72.1 154.6,63.8 154.6,63.4 145.2,58 		"/>
		
			<linearGradient id="SVGID_2_" gradientUnits="userSpaceOnUse" x1="277.951" y1="109.3303" x2="254.3749" y2="58.7816" gradientTransform="matrix(1 0 0 1 -98.5239 0)">
			<stop  offset="0" style="stop-color:#9ED7E2"/>
			<stop  offset="1" style="stop-color:#2EABE3"/>
		</linearGradient>
		<polygon class="st11" points="155.9,72.9 156.6,73.3 168.2,80 168.2,71.7 168.2,71.2 155.9,64.2 		"/>
		
			<linearGradient id="SVGID_3_" gradientUnits="userSpaceOnUse" x1="285.2425" y1="105.9297" x2="261.6663" y2="55.3808" gradientTransform="matrix(1 0 0 1 -98.5239 0)">
			<stop  offset="0" style="stop-color:#9ED7E2"/>
			<stop  offset="1" style="stop-color:#2EABE3"/>
		</linearGradient>
		<polygon class="st12" points="169.5,72 169.5,80.7 170.2,81.2 178.9,86.2 178.9,77.9 178.9,77.4 		"/>
		
			<linearGradient id="SVGID_4_" gradientUnits="userSpaceOnUse" x1="273.7644" y1="111.2832" x2="250.1882" y2="60.7341" gradientTransform="matrix(1 0 0 1 -98.5239 0)">
			<stop  offset="0" style="stop-color:#9ED7E2"/>
			<stop  offset="1" style="stop-color:#2EABE3"/>
		</linearGradient>
		<polygon class="st13" points="155.9,85.4 156.6,85.8 168.1,92.5 168.2,80.9 168.2,80.5 155.9,73.4 		"/>
		
			<linearGradient id="SVGID_5_" gradientUnits="userSpaceOnUse" x1="262.2863" y1="116.6369" x2="238.7099" y2="66.0876" gradientTransform="matrix(1 0 0 1 -98.5239 0)">
			<stop  offset="0" style="stop-color:#9ED7E2"/>
			<stop  offset="1" style="stop-color:#2EABE3"/>
		</linearGradient>
		<polygon class="st14" points="145.1,88.4 145.9,88.9 154.5,93.9 154.5,85.6 154.5,85.1 145.2,79.7 		"/>
		
			<linearGradient id="SVGID_6_" gradientUnits="userSpaceOnUse" x1="266.4729" y1="114.684" x2="242.8967" y2="64.135" gradientTransform="matrix(1 0 0 1 -98.5239 0)">
			<stop  offset="0" style="stop-color:#9ED7E2"/>
			<stop  offset="1" style="stop-color:#2EABE3"/>
		</linearGradient>
		<polygon class="st15" points="145.2,79.2 145.9,79.6 154.5,84.6 154.6,73.1 154.6,72.6 145.2,67.2 		"/>
		
			<linearGradient id="SVGID_7_" gradientUnits="userSpaceOnUse" x1="269.5777" y1="113.2361" x2="246.0013" y2="62.6867" gradientTransform="matrix(1 0 0 1 -98.5239 0)">
			<stop  offset="0" style="stop-color:#9ED7E2"/>
			<stop  offset="1" style="stop-color:#2EABE3"/>
		</linearGradient>
		<polygon class="st16" points="155.9,94.6 156.6,95.1 168.1,101.7 168.1,93.4 168.1,93 155.9,85.9 		"/>
		
			<linearGradient id="SVGID_8_" gradientUnits="userSpaceOnUse" x1="276.8692" y1="109.835" x2="253.2932" y2="59.2865" gradientTransform="matrix(1 0 0 1 -98.5239 0)">
			<stop  offset="0" style="stop-color:#9ED7E2"/>
			<stop  offset="1" style="stop-color:#2EABE3"/>
		</linearGradient>
		<polygon class="st17" points="169.4,102.5 170.2,102.9 178.8,107.9 178.8,99.6 178.8,99.2 169.5,93.7 		"/>
		
			<linearGradient id="SVGID_9_" gradientUnits="userSpaceOnUse" x1="281.0557" y1="107.8823" x2="257.4795" y2="57.3334" gradientTransform="matrix(1 0 0 1 -98.5239 0)">
			<stop  offset="0" style="stop-color:#9ED7E2"/>
			<stop  offset="1" style="stop-color:#2EABE3"/>
		</linearGradient>
		<polygon class="st18" points="169.5,93.2 170.2,93.7 178.8,98.7 178.9,87.1 178.9,86.7 169.5,81.2 		"/>
	</g>
</g>
<g>
	
		<linearGradient id="SVGID_10_" gradientUnits="userSpaceOnUse" x1="751.7983" y1="50.8293" x2="747.8967" y2="36.003" gradientTransform="matrix(-1 0 0 1 829.2504 0)">
		<stop  offset="0" style="stop-color:#9ED7E2"/>
		<stop  offset="1" style="stop-color:#2EABE3"/>
	</linearGradient>
	<polygon class="st19" points="82.3,39.5 74.8,43.8 74.9,53.6 82.4,49.2 	"/>
</g>
<g>
	
		<linearGradient id="SVGID_11_" gradientUnits="userSpaceOnUse" x1="744.2896" y1="49.2345" x2="740.3879" y2="34.4083" gradientTransform="matrix(-1 0 0 1 829.2504 0)">
		<stop  offset="0" style="stop-color:#9ED7E2"/>
		<stop  offset="1" style="stop-color:#2EABE3"/>
	</linearGradient>
	<polygon class="st20" points="90.7,44.4 90.7,34.7 83.1,39 83.2,48.8 	"/>
</g>
<g class="st8">
	<g>
		<path class="st9" d="M92,45.1L73.6,55.7l-0.1-12.5l18.3-10.6L92,45.1z M74.9,53.6l7.5-4.3l-0.1-9.7l-7.5,4.3L74.9,53.6L74.9,53.6z
			 M83.2,48.8l7.5-4.3l-0.1-9.7L83.1,39L83.2,48.8L83.2,48.8z"/>
	</g>
</g>
<g>
	<path class="st21" d="M107,152.2c0.1,0,0.1,0,0.1,0l11.1-6.5c0.1-0.1,0.1-0.2,0.1-0.3c0-0.1-0.1-0.2-0.1-0.3l-19.7-11.4
		c0,0-0.1,0-0.1,0c-0.1,0-0.1,0-0.1,0l-11.1,6.5c-0.1,0.1-0.1,0.2-0.1,0.3c0,0.1,0.1,0.2,0.1,0.3l19.7,11.4
		C106.9,152.2,106.9,152.2,107,152.2z"/>
	<polygon class="st22" points="118.1,145.5 107,151.9 87.3,140.5 98.4,134.1 	"/>
</g>
<polygon class="st23" points="115.9,144.2 118.1,145.5 107,151.9 104.8,150.7 "/>
<polygon class="st23" points="98.4,134.1 100.6,135.4 89.5,141.8 87.3,140.5 "/>
<g>
	<path class="st23" d="M99.2,140.7c-2.1,1.2-2.1,3.1,0,4.3c2,1.2,5.4,1.2,7.4,0c2.1-1.2,2.1-3.1,0-4.3
		C104.6,139.5,101.3,139.5,99.2,140.7z"/>
</g>
<g>
	<path class="st21" d="M127.8,141.6c0.1,0,0.1,0,0.1,0l11.1-6.5c0.1-0.1,0.1-0.2,0.1-0.3c0-0.1-0.1-0.2-0.1-0.3l-19.7-11.4
		c0,0-0.1,0-0.1,0c-0.1,0-0.1,0-0.1,0l-11.1,6.5c-0.1,0.1-0.1,0.2-0.1,0.3c0,0.1,0.1,0.2,0.1,0.3l19.7,11.4
		C127.7,141.6,127.8,141.6,127.8,141.6z"/>
	<polygon class="st22" points="138.9,134.9 127.8,141.3 108.1,130 119.2,123.5 	"/>
</g>
<polygon class="st23" points="136.7,133.6 138.9,134.9 127.8,141.3 125.6,140.1 "/>
<polygon class="st23" points="119.2,123.5 121.4,124.8 110.3,131.2 108.1,129.9 "/>
<g>
	<path class="st23" d="M120.1,130.1c-2.1,1.2-2.1,3.1,0,4.3c2,1.2,5.4,1.2,7.4,0c2.1-1.2,2.1-3.1,0-4.3
		C125.5,128.9,122.1,128.9,120.1,130.1z"/>
</g>
<g>
	<path class="st24" d="M87.2,60.6c-0.4-0.2-0.7,0-0.7,0.4c0,0.4,0.3,1,0.7,1.2c0.4,0.2,0.7,0,0.7-0.4C87.9,61.4,87.6,60.8,87.2,60.6
		z"/>
</g>
<g>
	<g>
		<polygon class="st25" points="91.8,58 91.8,58.7 90.6,58 90.6,57.3 		"/>
	</g>
	<polygon class="st26" points="89.1,60.3 93.3,57.9 93.3,58.7 89.1,61.1 	"/>
	<polygon class="st27" points="89.1,59.5 91.8,58 90.6,57.3 91.3,56.8 93.3,57.9 89.1,60.3 	"/>
</g>
<g>
	<g class="st8">
		<path class="st28" d="M84.8,59.5l4.4-2.5c0,0,0,0,0,0L84.8,59.5C84.7,59.5,84.8,59.5,84.8,59.5L84.8,59.5z"/>
		<path class="st29" d="M88.2,62.7c0-0.1,0-0.2-0.1-0.3c0,0,0,0,0,0c0-0.1-0.1-0.2-0.1-0.3c0,0,0-0.1,0-0.1c0-0.1-0.1-0.2-0.1-0.3
			c0,0,0,0,0-0.1c0-0.1-0.1-0.1-0.1-0.2c0,0,0-0.1-0.1-0.1c0-0.1-0.1-0.1-0.1-0.2c0,0,0-0.1-0.1-0.1c0-0.1-0.1-0.1-0.1-0.2
			c0,0,0-0.1-0.1-0.1c0-0.1-0.1-0.1-0.1-0.2c0,0,0,0,0-0.1c-0.1-0.1-0.1-0.2-0.2-0.2c0,0,0,0-0.1-0.1c-0.1-0.1-0.1-0.1-0.2-0.2
			c0,0-0.1,0-0.1-0.1c-0.1,0-0.1-0.1-0.2-0.1c0,0,0,0-0.1-0.1c-0.1-0.1-0.2-0.1-0.2-0.2c-0.1,0-0.1-0.1-0.2-0.1c0,0,0,0-0.1,0
			c0,0-0.1,0-0.1-0.1c0,0,0,0-0.1,0c-0.1,0-0.1,0-0.2,0c0,0,0,0,0,0c0,0,0,0,0,0c-0.1,0-0.1,0-0.2,0c0,0,0,0-0.1,0c0,0-0.1,0-0.1,0
			c0,0,0,0-0.1,0c0,0-0.1,0-0.1,0c0,0,0,0-0.1,0c0,0-0.1,0-0.1,0c0,0-0.1,0-0.1,0l4.4-2.5c0,0,0,0,0,0l0,0c0,0,0,0,0,0
			c0,0,0.1,0,0.1,0c0,0,0,0,0.1,0c0,0,0.1,0,0.1,0c0,0,0,0,0.1,0c0,0,0.1,0,0.1,0c0,0,0,0,0.1,0c0.1,0,0.1,0,0.2,0c0,0,0,0,0,0
			c0,0,0,0,0,0c0,0,0,0,0,0c0,0,0.1,0,0.2,0c0,0,0,0,0.1,0c0,0,0.1,0,0.1,0.1c0,0,0,0,0.1,0c0.1,0,0.1,0.1,0.2,0.1
			c0.1,0,0.2,0.1,0.2,0.2c0,0,0,0,0.1,0.1c0.1,0,0.1,0.1,0.2,0.1c0,0,0.1,0,0.1,0.1c0.1,0.1,0.1,0.1,0.2,0.2c0,0,0,0,0.1,0.1
			c0.1,0.1,0.1,0.2,0.2,0.2c0,0,0,0,0,0c0,0,0,0,0,0.1c0,0.1,0.1,0.1,0.1,0.2c0,0,0,0.1,0.1,0.1c0,0.1,0.1,0.1,0.1,0.2
			c0,0,0,0.1,0.1,0.1c0,0.1,0.1,0.1,0.1,0.2c0,0,0,0.1,0.1,0.1c0,0.1,0.1,0.1,0.1,0.2c0,0,0,0,0,0.1c0,0,0,0,0,0
			c0,0.1,0.1,0.2,0.1,0.3c0,0,0,0.1,0,0.1c0,0.1,0.1,0.2,0.1,0.3c0,0,0,0,0,0c0,0.1,0,0.2,0.1,0.3c0,0,0,0.1,0,0.1
			c0,0.1,0,0.2,0,0.3c0,0.2,0,0.5-0.1,0.6c-0.1,0.3-0.3,0.5-0.5,0.7l-4.4,2.5c0.4-0.2,0.6-0.7,0.6-1.3C88.2,63,88.2,62.9,88.2,62.7
			C88.2,62.8,88.2,62.8,88.2,62.7z"/>
		<g>
			<path class="st30" d="M86.2,59.7c-1.1-0.6-2-0.1-2,1.2c0,1.3,0.9,2.9,2,3.5c1.1,0.6,2,0.1,2-1.2C88.2,61.9,87.3,60.3,86.2,59.7z"
				/>
		</g>
		<g>
			<path class="st24" d="M86.2,61.2c-0.4-0.2-0.7,0-0.7,0.4c0,0.4,0.3,1,0.7,1.2c0.4,0.2,0.7,0,0.7-0.4
				C86.9,61.9,86.6,61.4,86.2,61.2z"/>
		</g>
	</g>
</g>
<polygon class="st25" points="84.7,62.9 84.7,63.6 82.8,62.5 82.8,61.8 "/>
<g>
	<polygon class="st27" points="83.5,61.4 84.8,62.1 86.2,61.2 86.2,62 84.7,62.9 82.8,61.8 	"/>
	<g>
		<polygon class="st26" points="86.2,62.8 84.7,63.6 84.7,62.9 86.2,62 		"/>
		<path class="st26" d="M85.7,62.3l1-0.6c0.1,0.2,0.2,0.4,0.2,0.6l-0.7,0.4C86,62.7,85.8,62.5,85.7,62.3z"/>
	</g>
	<path class="st27" d="M86.2,61.2c0.2,0.1,0.4,0.3,0.5,0.5l-1,0.6c-0.1-0.2-0.2-0.4-0.2-0.7L86.2,61.2z"/>
</g>
<g class="st8">
	<g>
		<polygon class="st31" points="86.1,119.1 84.8,118.4 84.8,106.8 86.1,107.6 		"/>
	</g>
	<g>
		<polygon class="st31" points="86.1,107.6 84.8,106.8 125.7,83.4 127,84.1 		"/>
	</g>
	<g>
		<polygon class="st31" points="127,84.1 127,95.6 86.1,119.1 86.1,107.6 		"/>
	</g>
</g>
<g>
	<g>
		<g class="st8">
			<g>
				<polygon class="st25" points="46.7,83.4 46.7,84.2 45.3,83.4 45.3,82.7 				"/>
			</g>
			<g>
				<polygon class="st25" points="38.9,88.8 38.9,89.6 36.8,88.4 36.8,87.6 				"/>
			</g>
			<g>
				<polygon class="st26" points="48.2,83.4 48.2,84.2 38.9,89.6 38.9,88.8 				"/>
			</g>
			<g>
				<polygon class="st27" points="48.2,83.4 38.9,88.8 36.8,87.6 37.6,87.2 38.9,87.9 46.7,83.4 45.3,82.7 46.1,82.2 				"/>
			</g>
		</g>
	</g>
</g>
<g>
	<g>
		<polygon class="st32" points="47.3,83.9 47.3,94.4 39.7,98.8 39.7,88.3 		"/>
	</g>
	<g>
		<polygon class="st33" points="47.3,83.9 39.7,88.3 39,87.9 46.5,83.5 		"/>
	</g>
</g>
<g class="st8">
	<path class="st34" d="M49.2,66.3C49.2,66.3,49.2,66.2,49.2,66.3c-0.1-0.1-0.2-0.2-0.2-0.3c0,0,0-0.1-0.1-0.1c0-0.1-0.1-0.1-0.1-0.2
		c0,0,0-0.1,0-0.1c-0.1-0.1-0.1-0.2-0.2-0.3c0,0,0,0,0-0.1c0-0.1-0.1-0.2-0.1-0.3c0,0,0-0.1,0-0.1c0-0.1-0.1-0.2-0.1-0.2
		c0,0,0-0.1,0-0.1c0-0.1-0.1-0.2-0.1-0.3c0,0,0-0.1,0-0.1c0-0.1-0.1-0.3-0.1-0.4c0,0,0-0.1,0-0.1c0-0.1,0-0.2,0-0.3c0,0,0,0,0-0.1
		c0,0,0-0.1,0-0.2c0-0.1,0-0.2,0-0.3c0-0.1,0-0.1,0-0.2c0-0.1,0-0.2,0-0.3c0,0,0-0.1,0-0.1c0-0.2,0-0.3,0-0.5c0-0.2,0-0.3,0-0.5
		c0-0.1,0-0.1,0-0.2c0-0.1,0-0.2,0-0.3c0,0,0,0,0,0c0-0.2,0-0.4,0.1-0.6c0-0.1,0-0.1,0-0.2c0-0.2,0-0.3,0.1-0.5c0-0.1,0-0.1,0-0.2
		c0-0.2,0.1-0.4,0.1-0.6c0,0,0-0.1,0-0.1c0.1-0.2,0.1-0.4,0.2-0.7c0,0,0,0,0-0.1c0,0,0-0.1,0-0.1c0-0.2,0.1-0.3,0.1-0.5
		c0-0.1,0-0.1,0.1-0.2c0.1-0.2,0.1-0.4,0.2-0.6c0,0,0-0.1,0-0.1c0.1-0.2,0.2-0.4,0.3-0.7c0-0.1,0.1-0.1,0.1-0.2
		c0.1-0.2,0.1-0.3,0.2-0.5c0-0.1,0.1-0.1,0.1-0.2c0.1-0.2,0.2-0.4,0.3-0.6c0,0,0-0.1,0-0.1c0.1-0.2,0.2-0.4,0.3-0.6
		c0-0.1,0.1-0.1,0.1-0.2c0.1-0.2,0.2-0.3,0.3-0.5c0-0.1,0.1-0.1,0.1-0.2c0.1-0.2,0.2-0.4,0.3-0.5c0,0,0-0.1,0.1-0.1
		c0.1-0.2,0.3-0.4,0.4-0.6c0-0.1,0.1-0.1,0.1-0.2c0.1-0.1,0.2-0.3,0.3-0.4c0-0.1,0.1-0.1,0.1-0.2c0.1-0.2,0.2-0.3,0.4-0.5
		c0,0,0-0.1,0.1-0.1c0.2-0.2,0.3-0.4,0.5-0.5c0,0,0.1-0.1,0.1-0.1c0.1-0.1,0.2-0.3,0.4-0.4c0-0.1,0.1-0.1,0.1-0.2
		c0.1-0.1,0.3-0.3,0.4-0.4c0,0,0.1-0.1,0.1-0.1c0.2-0.2,0.3-0.3,0.5-0.5c0,0,0.1-0.1,0.1-0.1c0.1-0.1,0.3-0.2,0.4-0.3
		c0,0,0.1,0,0.1-0.1c0,0,0.1-0.1,0.1-0.1c0.1,0,0.1-0.1,0.2-0.1c0.1-0.1,0.2-0.1,0.3-0.2c0.1,0,0.1-0.1,0.2-0.1
		c0.1-0.1,0.2-0.1,0.3-0.2c0,0,0.1-0.1,0.1-0.1c0.1-0.1,0.3-0.2,0.4-0.3c0.1-0.1,0.3-0.2,0.4-0.2c0,0,0.1,0,0.1-0.1
		c0.1,0,0.2-0.1,0.2-0.1c0,0,0,0,0,0c0.2-0.1,0.4-0.2,0.5-0.2c0,0,0.1,0,0.1,0c0.1-0.1,0.3-0.1,0.4-0.1c0.1,0,0.1,0,0.2-0.1
		c0.1,0,0.3-0.1,0.4-0.1c0,0,0.1,0,0.1,0c0.2,0,0.3-0.1,0.5-0.1c0,0,0,0,0,0c0,0,0.1,0,0.1,0c0.1,0,0.2,0,0.3,0c0.1,0,0.1,0,0.2,0
		c0.1,0,0.2,0,0.3,0c0.1,0,0.1,0,0.2,0c0.1,0,0.2,0,0.2,0c0.1,0,0.1,0,0.2,0c0.1,0,0.2,0,0.2,0c0.1,0,0.1,0,0.2,0c0.1,0,0.1,0,0.2,0
		c0.1,0,0.1,0,0.2,0c0.1,0,0.1,0,0.2,0.1c0,0,0.1,0,0.1,0c0.1,0,0.2,0.1,0.2,0.1c0,0,0.1,0,0.1,0c0.1,0.1,0.2,0.1,0.3,0.2l0.7,0.4
		c-0.1-0.1-0.2-0.1-0.3-0.2c0,0-0.1,0-0.1,0c-0.1,0-0.2-0.1-0.2-0.1c0,0-0.1,0-0.1,0c-0.1,0-0.1,0-0.2-0.1c-0.1,0-0.1,0-0.2,0
		c-0.1,0-0.1,0-0.2,0c-0.1,0-0.1,0-0.2,0c-0.1,0-0.2,0-0.2,0c-0.1,0-0.1,0-0.2,0c-0.1,0-0.2,0-0.2,0c-0.1,0-0.1,0-0.2,0
		c-0.1,0-0.2,0-0.3,0c-0.1,0-0.1,0-0.2,0c-0.1,0-0.2,0-0.3,0c0,0-0.1,0-0.1,0c-0.2,0-0.3,0.1-0.5,0.1c0,0-0.1,0-0.1,0
		c-0.1,0-0.2,0.1-0.4,0.1c-0.1,0-0.1,0-0.2,0.1c-0.1,0-0.3,0.1-0.4,0.1c0,0-0.1,0-0.1,0c-0.2,0.1-0.4,0.1-0.5,0.2
		c-0.1,0-0.2,0.1-0.3,0.1c0,0-0.1,0-0.1,0.1c-0.1,0.1-0.3,0.2-0.4,0.2c-0.1,0.1-0.3,0.2-0.4,0.3c0,0-0.1,0.1-0.1,0.1
		c-0.1,0.1-0.2,0.1-0.3,0.2c-0.1,0-0.1,0.1-0.2,0.1c-0.1,0.1-0.2,0.1-0.3,0.2c-0.1,0-0.1,0.1-0.2,0.1C56,47.9,56,47.9,55.9,48
		c-0.1,0.1-0.3,0.2-0.4,0.3c0,0-0.1,0.1-0.1,0.1c-0.2,0.1-0.3,0.3-0.5,0.5c0,0-0.1,0.1-0.1,0.1c-0.1,0.1-0.3,0.3-0.4,0.4
		c-0.1,0.1-0.1,0.1-0.1,0.2c-0.1,0.1-0.2,0.3-0.4,0.4c0,0-0.1,0.1-0.1,0.1c-0.2,0.2-0.3,0.4-0.5,0.5c0,0,0,0.1-0.1,0.1
		c-0.1,0.2-0.3,0.3-0.4,0.5c0,0.1-0.1,0.1-0.1,0.2c-0.1,0.1-0.2,0.3-0.3,0.4c0,0.1-0.1,0.1-0.1,0.2c-0.1,0.2-0.3,0.4-0.4,0.6
		c0,0,0,0.1-0.1,0.1c-0.1,0.2-0.2,0.3-0.3,0.5c0,0.1-0.1,0.1-0.1,0.2c-0.1,0.2-0.2,0.3-0.3,0.5c0,0.1-0.1,0.1-0.1,0.2
		c-0.1,0.2-0.2,0.4-0.3,0.6c0,0,0,0.1,0,0.1c-0.1,0.2-0.2,0.4-0.3,0.6c0,0.1-0.1,0.1-0.1,0.2c-0.1,0.2-0.1,0.3-0.2,0.5
		C50,55.9,50,56,50,56c-0.1,0.2-0.2,0.4-0.3,0.7c0,0,0,0.1,0,0.1c-0.1,0.2-0.1,0.4-0.2,0.6c0,0.1,0,0.1-0.1,0.2
		c-0.1,0.2-0.1,0.3-0.1,0.5c0,0.1,0,0.1-0.1,0.2c-0.1,0.2-0.1,0.4-0.2,0.7c0,0,0,0.1,0,0.1c0,0.2-0.1,0.4-0.1,0.6c0,0.1,0,0.1,0,0.2
		c0,0.2-0.1,0.3-0.1,0.5c0,0.1,0,0.1,0,0.2c0,0.2-0.1,0.4-0.1,0.6c0,0.1,0,0.2,0,0.4c0,0.1,0,0.1,0,0.2c0,0.2,0,0.4,0,0.5
		c0,0.2,0,0.3,0,0.5c0,0,0,0.1,0,0.1c0,0.1,0,0.2,0,0.3c0,0.1,0,0.1,0,0.2c0,0.1,0,0.2,0,0.3c0,0.1,0,0.1,0,0.2c0,0.1,0,0.2,0.1,0.3
		c0,0,0,0.1,0,0.1c0,0.1,0.1,0.3,0.1,0.4c0,0,0,0.1,0,0.1c0,0.1,0.1,0.2,0.1,0.3c0,0,0,0.1,0,0.1c0,0.1,0.1,0.2,0.1,0.2
		c0,0,0,0.1,0,0.1c0,0.1,0.1,0.2,0.1,0.3c0,0,0,0,0,0.1c0.1,0.1,0.1,0.2,0.2,0.3c0,0,0,0.1,0,0.1c0,0.1,0.1,0.1,0.1,0.2
		c0,0,0,0.1,0.1,0.1c0,0.1,0.1,0.1,0.1,0.2c0,0,0,0.1,0.1,0.1c0.1,0.1,0.1,0.2,0.2,0.2c0,0,0,0,0,0c0.1,0.1,0.1,0.2,0.2,0.2
		c0,0,0,0,0.1,0.1c0.1,0.1,0.1,0.1,0.2,0.2c0,0,0.1,0,0.1,0.1c0.1,0,0.1,0.1,0.2,0.1c0,0,0.1,0,0.1,0.1c0.1,0.1,0.2,0.1,0.3,0.2
		l-0.7-0.4c-0.1-0.1-0.2-0.1-0.3-0.2c0,0-0.1,0-0.1-0.1c-0.1,0-0.1-0.1-0.2-0.1c0,0-0.1,0-0.1-0.1c-0.1,0-0.1-0.1-0.2-0.2
		c0,0,0,0-0.1-0.1c-0.1-0.1-0.2-0.2-0.2-0.2c0,0,0,0,0,0C49.4,66.4,49.3,66.4,49.2,66.3z"/>
	<g>
		<path class="st35" d="M57.5,46.8c-4.9,2.8-8.9,9.7-8.8,15.3c0,5.6,4,7.9,8.9,5.1c4.9-2.8,8.9-9.7,8.8-15.3
			C66.4,46.3,62.4,44,57.5,46.8z"/>
		<path class="st36" d="M53.6,67.4c1,0,2.2-0.4,3.5-1.1c4.6-2.7,8.3-9.1,8.3-14.4c0-3.3-1.5-5.3-3.9-5.3c-1,0-2.2,0.4-3.5,1.1
			c-4.6,2.7-8.3,9.1-8.3,14.4C49.7,65.5,51.2,67.4,53.6,67.4z"/>
	</g>
</g>
<g>
	<g>
		<g>
			<g class="st8">
				<g>
					<polygon class="st37" points="115.1,87.4 103.6,80.7 104,80.5 115.4,87.2 					"/>
				</g>
				<g>
					<polygon class="st38" points="101.4,95.3 89.9,88.6 103.6,80.7 115.1,87.4 					"/>
				</g>
				<g>
					<polygon class="st38" points="100.9,95.5 89.5,88.9 89.9,88.6 101.4,95.3 					"/>
				</g>
				<g>
					<polygon class="st39" points="100.9,97.3 89.5,90.7 89.5,88.9 100.9,95.5 					"/>
				</g>
				<g>
					<polygon class="st40" points="115.4,87.2 115.4,89 100.9,97.3 100.9,95.5 101.4,95.3 115.1,87.4 					"/>
				</g>
				<g>
					<polygon class="st41" points="111.7,76.9 100.3,70.3 105.5,67.2 117,73.9 					"/>
				</g>
				<g>
					<polygon class="st40" points="102.3,94.7 90.9,88.1 91.2,81.9 102.7,88.5 					"/>
				</g>
				<g>
					<polygon class="st41" points="98.7,84.4 87.2,77.8 100.3,70.3 111.7,76.9 					"/>
				</g>
				<g>
					<path class="st39" d="M117,73.9l-3.3,8.2l0.4,5.8l-11.8,6.8l0.4-6.2c-2.2,1.3-4-0.2-4-3.3c0-0.3,0-2.2,0-2.5l13-5.8L117,73.9z"
						/>
				</g>
				<g>
					<g class="st8">
						<path class="st30" d="M94.9,85.7l-6.3-3.7c-0.9-0.5-1.5-1.8-1.5-3.5c0-0.3,0-0.5,0-0.8l11.5,5.1c0,0.3,0,2.1,0,2.3
							c0,1.7,0.6,3,1.5,3.5l0,0L94.9,85.7L94.9,85.7z"/>
					</g>
				</g>
			</g>
		</g>
		<g>
			<g class="st8">
				<g>
					<polygon class="st42" points="112.4,76.5 98.8,68.6 98.8,68.5 112.4,76.4 					"/>
				</g>
				<g>
					<polygon class="st42" points="112.4,76.4 98.8,68.5 98.8,68.1 112.4,76 					"/>
				</g>
				<g>
					<polygon class="st29" points="112.4,76 98.8,68.1 98.8,62 112.4,70 					"/>
				</g>
				<g>
					<defs>
						<path id="SVGID_12_" d="M103.8,50.3l13.6,7.9c-0.1-0.1-0.3-0.1-0.5,0l-13.6-7.9C103.5,50.2,103.7,50.2,103.8,50.3z"/>
					</defs>
					<use xlink:href="#SVGID_12_"  style="overflow:visible;fill:#E1E4EA;"/>
					<clipPath id="SVGID_13_">
						<use xlink:href="#SVGID_12_"  style="overflow:visible;"/>
					</clipPath>
					<g class="st43">
						<path class="st30" d="M116.9,58.3l-13.6-7.9c0.1-0.1,0.3-0.1,0.4-0.1l13.6,7.9C117.2,58.2,117,58.2,116.9,58.3L116.9,58.3z"/>
						<path class="st30" d="M117.3,58.2l-13.6-7.9c0.1,0,0.1,0,0.2,0.1l13.6,7.9C117.4,58.2,117.3,58.2,117.3,58.2L117.3,58.2z"/>
					</g>
				</g>
				<g>
					<polygon class="st29" points="112.4,70 98.8,62 98.8,54 112.4,61.9 					"/>
				</g>
				<g>
					<polygon class="st30" points="113.2,60.4 99.6,52.5 103.3,50.4 116.9,58.3 					"/>
				</g>
				<g>
					<defs>
						<path id="SVGID_14_" d="M112.4,61.9L98.8,54c0-0.5,0.4-1.2,0.8-1.4l13.6,7.9C112.7,60.7,112.4,61.3,112.4,61.9z"/>
					</defs>
					<use xlink:href="#SVGID_14_"  style="overflow:visible;fill:#E1E4EA;"/>
					<clipPath id="SVGID_15_">
						<use xlink:href="#SVGID_14_"  style="overflow:visible;"/>
					</clipPath>
					<g class="st44">
						<path class="st29" d="M112.4,61.9L98.8,54c0-0.2,0-0.4,0.1-0.6l13.6,7.9C112.4,61.5,112.4,61.7,112.4,61.9L112.4,61.9z"/>
						<path class="st29" d="M112.5,61.3l-13.6-7.9c0-0.1,0.1-0.2,0.2-0.4l13.6,7.9C112.6,61,112.5,61.2,112.5,61.3L112.5,61.3z"/>
						<path class="st30" d="M112.7,60.9L99.1,53c0.1-0.2,0.3-0.4,0.5-0.5l13.6,7.9C113,60.5,112.8,60.7,112.7,60.9L112.7,60.9z"/>
					</g>
				</g>
				<g>
					<path class="st40" d="M116.9,58.3c0.4-0.3,0.8,0,0.8,0.5l0,8.1l0,6.1l0,0.3l-0.1,0.2l-5.2,3l0-0.2l0-0.3l0-6.1l0-8.1
						c0-0.5,0.4-1.2,0.8-1.4L116.9,58.3z"/>
				</g>
			</g>
		</g>
		<g>
			<g class="st8">
				<g class="st8">
					<g class="st8">
						<path class="st45" d="M103.7,80.4c-0.6,0.4-1.4,0.7-2.1,0.9c-1.9,0.6-4,0.8-6.1,0.7l0,1.3c2.1,0.2,4.2,0,6.1-0.7
							c0.8-0.2,1.5-0.6,2.1-0.9l8.8-5.1l0-1.3L103.7,80.4z"/>
						<path class="st45" d="M95.5,82l0,1.3c-2-0.2-3.9-0.7-5.5-1.6c-1.9-1.1-2.9-2.5-2.8-4l0-1.3c0,1.4,0.9,2.9,2.8,4
							C91.6,81.3,93.5,81.9,95.5,82L95.5,82z"/>
					</g>
				</g>
				<g>
					<path class="st46" d="M112.5,75.4l-8.8,5.1c-3.8,2.2-9.9,2.2-13.6,0c-3.8-2.2-3.8-5.7,0-7.9l8.8-5.1L112.5,75.4z"/>
				</g>
			</g>
		</g>
		<g>
			<g class="st8">
				<g>
					<path class="st47" d="M108.8,54.4c0.6,0.4,0.5,0.9,0,1.3c-0.6,0.3-1.5,0.3-2.1,0c-0.6-0.4-0.5-0.9,0-1.3
						C107.3,54,108.3,54,108.8,54.4z"/>
				</g>
				<g>
					<path class="st24" d="M108.8,54.3c0.6,0.3,0.5,0.9,0,1.2c-0.6,0.3-1.5,0.3-2.1,0c-0.6-0.3-0.5-0.9,0-1.2
						C107.3,54,108.3,54,108.8,54.3z"/>
				</g>
			</g>
		</g>
	</g>
	<path class="st48" d="M112.5,75.4l-8.8,5.1c-3.8,2.2-9.9,2.2-13.6,0c-3.8-2.2-3.8-5.7,0-7.9l8.8-5.1L112.5,75.4z"/>
	<g>
		<g class="st8">
			<g>
				<polygon class="st49" points="111.2,76.1 112.4,75.4 112.5,64.9 111.3,65.6 				"/>
			</g>
			<g class="st8">
				<defs>
					<path id="SVGID_16_" class="st8" d="M100.8,52.6l-1.2,0.7c1.2-0.7,3-0.6,4.9,0.5l1.2-0.7C103.8,52,102.1,51.9,100.8,52.6z"/>
				</defs>
				<clipPath id="SVGID_17_">
					<use xlink:href="#SVGID_16_"  style="overflow:visible;"/>
				</clipPath>
				<g class="st50">
					<path class="st49" d="M104.4,53.8l1.2-0.7c-0.7-0.4-1.4-0.7-2.1-0.8l-1.2,0.7C103,53.1,103.7,53.4,104.4,53.8L104.4,53.8z"/>
					<path class="st49" d="M102.4,53l1.2-0.7c-1-0.2-1.9-0.1-2.7,0.3l-1.2,0.7C100.5,52.9,101.4,52.8,102.4,53L102.4,53z"/>
					<path class="st51" d="M99.7,53.3l1.2-0.7c0,0-0.1,0-0.1,0.1l-1.2,0.7C99.6,53.3,99.7,53.3,99.7,53.3L99.7,53.3z"/>
				</g>
			</g>
			<g class="st8">
				<defs>
					<path id="SVGID_18_" class="st8" d="M111.3,65.6l1.2-0.7c0-4.3-3-9.6-6.8-11.8l-1.2,0.7C108.2,56,111.3,61.3,111.3,65.6z"/>
				</defs>
				<clipPath id="SVGID_19_">
					<use xlink:href="#SVGID_18_"  style="overflow:visible;"/>
				</clipPath>
				<g class="st52">
					<path class="st49" d="M111.3,65.6l1.2-0.7c0-1.7-0.4-3.5-1.2-5.2l-1.2,0.7C110.8,62.1,111.3,63.9,111.3,65.6L111.3,65.6z"/>
					<path class="st49" d="M110.1,60.4l1.2-0.7c-0.6-1.3-1.4-2.6-2.3-3.7l-1.2,0.7C108.7,57.8,109.5,59.1,110.1,60.4L110.1,60.4z"/>
					<path class="st49" d="M107.8,56.7L109,56c-1-1.2-2.1-2.2-3.3-2.9l-1.2,0.7C105.7,54.5,106.8,55.5,107.8,56.7L107.8,56.7z"/>
				</g>
			</g>
			<g>
				<path class="st53" d="M104.4,53.8c-3.8-2.2-6.8-0.4-6.8,3.9l0,10.5l13.7,7.9l0-10.5C111.3,61.3,108.2,56,104.4,53.8z"/>
			</g>
		</g>
	</g>
</g>
<g>
	<path class="st39" d="M107.1,76l1.1-0.6l-5.6,3.2c-1,0.6-2.4,1-3.8,1.2v-8.6L107.1,76z"/>
	<path class="st39" d="M89.3,76.5c0,0.1,0,0.2,0,0.3C89.4,76.7,89.3,76.6,89.3,76.5z"/>
	<path class="st54" d="M89.5,77.1c0.3-0.5,0.8-1,1.6-1.5l7.7-4.5v8.6c-0.6,0.1-1.3,0.1-1.9,0.1c-2.2,0-4.3-0.5-5.8-1.3
		c-0.9-0.5-1.6-1.2-1.7-1.8C89.4,76.9,89.5,77,89.5,77.1z"/>
	<path class="st40" d="M89.4,76.8C89.4,76.8,89.4,76.8,89.4,76.8C89.4,76.8,89.4,76.8,89.4,76.8z"/>
	<path class="st55" d="M91.1,75.7c-0.8,0.4-1.3,1-1.6,1.5c-0.1-0.1-0.1-0.2-0.1-0.3c0,0,0,0,0,0c0-0.1,0-0.2,0-0.3
		c0-0.7,0.6-1.4,1.7-2.1l7.7-4.5v1.2L91.1,75.7z"/>
	<polygon class="st40" points="98.8,71.2 98.8,69.9 108.2,75.4 107.1,76 	"/>
</g>
<g>
	<g class="st8">
		<g>
			<polygon class="st56" points="159.4,139.9 158.2,139.2 158.2,143.3 159.4,144 			"/>
		</g>
		<g>
			<polygon class="st57" points="160.7,139.2 159.5,138.5 158.2,139.2 159.4,139.9 			"/>
		</g>
		<g>
			<polygon class="st58" points="159.4,139.9 159.4,144 160.7,143.2 160.7,139.2 			"/>
		</g>
	</g>
</g>
<g>
	<g class="st8">
		<g>
			<polygon class="st59" points="121.7,118.2 120.6,117.5 120.6,121.6 121.7,122.3 			"/>
		</g>
		<g>
			<polygon class="st57" points="123,117.4 121.9,116.8 120.6,117.5 121.7,118.2 			"/>
		</g>
		<g>
			<polygon class="st58" points="121.7,118.2 121.7,122.3 123,121.5 123,117.4 			"/>
		</g>
	</g>
</g>
<g>
	<g class="st8">
		<g>
			<polygon class="st58" points="176.4,130.1 175.3,129.5 175.3,133.5 176.4,134.2 			"/>
		</g>
		<g>
			<polygon class="st57" points="177.7,129.4 176.6,128.7 175.3,129.5 176.4,130.1 			"/>
		</g>
		<g>
			<polygon class="st60" points="176.4,130.1 176.4,134.2 177.7,133.5 177.7,129.4 			"/>
		</g>
	</g>
</g>
<g>
	<g class="st8">
		<g>
			<polygon class="st61" points="138.6,98.5 137.2,97.7 137.2,99.4 138.6,100.2 			"/>
		</g>
		<g>
			<polygon class="st62" points="140.1,97.7 138.7,96.9 137.1,97.8 138.5,98.6 			"/>
		</g>
		<g>
			<polygon class="st62" points="138.6,100.2 137.2,99.4 122.2,108.2 123.5,109 			"/>
		</g>
		<g>
			<polygon class="st59" points="121.9,109.9 120.5,109.1 120.6,120 121.9,120.8 			"/>
		</g>
		<g>
			<polygon class="st59" points="121.9,108.2 120.5,107.4 120.5,109.1 121.9,109.9 			"/>
		</g>
		<g>
			<polygon class="st62" points="123.5,107.3 122.2,106.5 120.5,107.4 121.9,108.2 			"/>
		</g>
		<g>
			<polygon class="st56" points="121.9,108.2 121.9,109.9 121.9,120.8 140.3,110.1 140.2,99.3 140.2,97.6 138.6,98.5 138.6,100.2 
				123.5,109 123.5,107.3 			"/>
		</g>
	</g>
</g>
<g>
	<g class="st8">
		<g>
			<polygon class="st63" points="121.9,116.7 122,120.8 159.4,142.7 159.4,138.7 			"/>
		</g>
		<g>
			<polygon class="st64" points="121.9,116.7 159.4,138.7 177.7,128 140.2,106.1 			"/>
		</g>
	</g>
</g>
<g>
	<g class="st8">
		<g>
			<polygon class="st63" points="121.9,112.8 122,116.8 159.4,138.8 159.4,134.7 			"/>
		</g>
		<g>
			<polygon class="st65" points="121.9,112.8 159.4,134.7 177.7,124.1 140.2,102.2 			"/>
		</g>
	</g>
</g>
<g>
	<g class="st8">
		<g>
			<polygon class="st66" points="121.9,112.8 122,114.7 159.4,136.6 159.4,134.7 			"/>
		</g>
		<g>
			<polygon class="st67" points="123,113.5 144.8,126.2 144.8,128 123,115.3 			"/>
		</g>
		<g>
			<polygon class="st68" points="159.4,134.7 159.4,136.6 177.7,126 177.7,124.1 			"/>
		</g>
		<g>
			<polygon class="st69" points="121.9,112.8 159.4,134.7 177.7,124.1 140.2,102.2 			"/>
		</g>
		<g>
			<polygon class="st70" points="123.1,113.5 144.8,126.2 163.1,115.6 141.3,102.9 			"/>
		</g>
	</g>
</g>
<g>
	<g class="st8">
		<g>
			<polygon class="st71" points="150.2,124.1 150.2,125.9 158.7,131.1 158.7,126.4 			"/>
		</g>
		<g>
			<polygon class="st67" points="158.7,126.4 158.7,131.1 170.8,124.1 170.8,120.5 			"/>
		</g>
		<g>
			<polygon class="st70" points="150.2,124.1 158.7,127.5 170.8,120.5 162.3,117.1 			"/>
		</g>
	</g>
</g>
<g>
	<g class="st8">
		<g>
			<polygon class="st61" points="176.1,116.1 174.7,115.3 174.7,119.2 176.1,120 			"/>
		</g>
		<g>
			<polygon class="st62" points="177.7,115.2 176.3,114.4 174.7,115.3 176.1,116.1 			"/>
		</g>
		<g>
			<polygon class="st62" points="174.7,119.2 161,127.1 160.8,128 160.8,128.6 161,128.7 176.1,120 			"/>
		</g>
		<polygon class="st59" points="159.4,125.8 159.4,129.7 159.4,142.7 158.1,141.9 158,128.9 158,125 		"/>
		<g>
			<polygon class="st62" points="161,124.9 159.6,124.1 158,125 159.4,125.8 			"/>
		</g>
		<polygon class="st56" points="161,124.9 161,128.7 176.1,120 176.1,116.1 177.7,115.2 177.7,119 177.7,122.4 177.7,122.4 
			177.7,124.3 177.7,124.4 177.7,124.4 177.7,128.1 177.7,128.1 177.7,132.1 159.4,142.7 159.4,138.7 159.4,138.6 159.4,136.7 
			159.4,136.7 159.4,129.7 159.4,125.8 		"/>
	</g>
</g>
<g class="st8">
	<g>
		<polygon class="st72" points="155.5,144.3 146.2,138.9 146.2,130.6 155.5,136 		"/>
	</g>
	<g class="st8">
		<g class="st8">
			<path class="st73" d="M153.9,142l-9.3-5.4c0.1,0.1,0.2,0,0.3,0l9.3,5.4C154.1,142,154,142,153.9,142L153.9,142z"/>
		</g>
	</g>
	<g class="st8">
		<g class="st8">
			<path class="st73" d="M154.2,141.9l-9.3-5.4c0.3-0.2,0.5-0.5,0.5-0.8c0-0.1-0.1-0.3-0.1-0.3l9.3,5.4c0.1,0.1,0.1,0.2,0.1,0.3
				C154.7,141.4,154.5,141.8,154.2,141.9L154.2,141.9z"/>
		</g>
	</g>
	<g class="st8">
		<g class="st8">
			<path class="st74" d="M154.2,140.8l-9.3-5.4c0.1-0.1,0.3-0.1,0.3,0l9.3,5.4C154.5,140.8,154.4,140.8,154.2,140.8L154.2,140.8z"/>
		</g>
	</g>
	<g class="st8">
		<g class="st8">
			<path class="st74" d="M153.9,142l-9.3-5.4c-0.1,0-0.1-0.2-0.1-0.3c0-0.3,0.2-0.7,0.5-0.8l9.3,5.4c-0.3,0.2-0.5,0.5-0.5,0.8
				C153.8,141.8,153.8,141.9,153.9,142L153.9,142z"/>
		</g>
	</g>
	<g>
		<polygon class="st72" points="155.5,135 146.2,129.6 146.2,125.7 155.5,131.1 		"/>
	</g>
	<g>
		<polygon class="st75" points="143.4,151.3 134.1,145.9 146.2,138.9 155.5,144.3 		"/>
	</g>
	<g>
		<polygon class="st76" points="143.4,143 134.1,137.6 146.2,130.6 155.5,136 		"/>
	</g>
	<g>
		<polygon class="st75" points="143.4,141.9 134.1,136.5 146.2,129.6 155.5,135 		"/>
	</g>
	<g class="st8">
		<g class="st8">
			<path class="st73" d="M154.2,134.3l-9.3-5.4c0.3-0.2,0.5-0.5,0.5-0.8c0-0.2-0.1-0.3-0.1-0.3l9.3,5.4c0.1,0,0.1,0.2,0.1,0.3
				C154.7,133.8,154.5,134.2,154.2,134.3L154.2,134.3z"/>
		</g>
	</g>
	<g class="st8">
		<g class="st8">
			<path class="st73" d="M153.9,134.3l-9.3-5.4c0.1,0.1,0.2,0,0.3,0l9.3,5.4C154.1,134.4,154,134.4,153.9,134.3L153.9,134.3z"/>
		</g>
	</g>
	<g class="st8">
		<g class="st8">
			<path class="st75" d="M142.7,153.2l-9.3-5.4c0,0,0,0,0,0L142.7,153.2C142.7,153.1,142.7,153.1,142.7,153.2L142.7,153.2z"/>
		</g>
	</g>
	<g class="st8">
		<g class="st8">
			<path class="st74" d="M154.2,133.2l-9.3-5.4c0.1-0.1,0.3-0.1,0.3,0l9.3,5.4C154.5,133.1,154.3,133.1,154.2,133.2L154.2,133.2z"/>
		</g>
	</g>
	<g class="st8">
		<g class="st8">
			<path class="st74" d="M153.9,134.3l-9.3-5.4c-0.1,0-0.1-0.2-0.1-0.3c0-0.3,0.2-0.7,0.5-0.8l9.3,5.4c-0.3,0.2-0.5,0.5-0.5,0.8
				C153.7,134.2,153.8,134.3,153.9,134.3L153.9,134.3z"/>
		</g>
	</g>
	<g>
		<polygon class="st77" points="155.5,129.7 146.2,124.3 146.9,123.9 156.2,129.3 		"/>
	</g>
	<g>
		<polygon class="st78" points="155.5,130 146.2,124.6 146.2,124.3 155.5,129.7 		"/>
	</g>
	<g>
		<polygon class="st79" points="143.4,151.3 134.1,145.9 134.1,137.6 143.4,143 		"/>
	</g>
	<g>
		<polygon class="st76" points="143.4,138.1 134.1,132.6 146.2,125.7 155.5,131.1 		"/>
	</g>
	<g>
		<polygon class="st79" points="143.4,141.9 134.1,136.5 134.1,132.6 143.4,138.1 		"/>
	</g>
	<g>
		<polygon class="st80" points="143.4,137 134.1,131.5 146.2,124.6 155.5,130 		"/>
	</g>
	<g>
		<polygon class="st78" points="142.7,153.1 133.4,147.7 133.3,132.4 142.7,137.8 		"/>
	</g>
	<g>
		<polygon class="st78" points="142.7,137.8 133.3,132.4 133.3,132 142.7,137.4 		"/>
	</g>
	<g>
		<polygon class="st78" points="142.7,137.4 133.3,132 133.3,131.7 142.6,137.1 		"/>
	</g>
	<path class="st81" d="M156.2,130l0-0.5l0-0.3l-0.7,0.4l0,0.3l-12.1,7l0-0.3l-0.7,0.4l0,0.3l0,0.5l0,15.3c0,0.3,3-1.3,6.8-3.4
		c3.7-2.2,6.8-4.1,6.8-4.4L156.2,130z"/>
	<g>
		<polygon class="st77" points="142.6,137.1 133.3,131.7 134.1,131.3 143.4,136.7 		"/>
	</g>
</g>
<g>
	<g>
		<polygon class="st82" points="54.7,104.5 54.7,105 66,111.6 66,111.1 		"/>
	</g>
	<g>
		<polygon class="st83" points="66,111.1 66,111.6 77.4,105 77.4,104.5 		"/>
	</g>
	<polygon class="st84" points="54.7,104.5 66,111.1 77.4,104.5 66.1,97.9 	"/>
</g>
<g>
	<g>
		<polygon class="st82" points="61.9,80.7 61.9,104.9 66,107.3 66,83.1 		"/>
	</g>
	<g>
		<polygon class="st83" points="66,83.1 66,107.3 70.2,104.9 70.2,80.7 		"/>
	</g>
	<polygon class="st84" points="61.9,80.7 66,83.1 70.2,80.7 66.1,78.3 	"/>
</g>
<path class="st29" d="M79.8,78.8l0-3.8c0,2-1.3,4.1-4,5.6l0,3.8C78.4,82.9,79.8,80.8,79.8,78.8z"/>
<g>
	<path class="st82" d="M54.7,81.8c0.2,0.1,0.4,0.2,0.6,0.3c0.1,0,0.1,0.1,0.2,0.1c0.2,0.1,0.3,0.1,0.5,0.2c0.1,0,0.1,0.1,0.2,0.1
		c0.2,0.1,0.4,0.2,0.6,0.2c0,0,0.1,0,0.1,0c0.2,0.1,0.4,0.2,0.7,0.2c5.2,1.7,11.9,1.3,16.3-1.3l1.9-1.1c2.7-1.6,4-3.6,4-5.6l0,3.8
		c0,2-1.3,4.1-4,5.6l-1.9,1.1c-4.4,2.6-11.1,3-16.3,1.3v0c0,0,0,0-0.1,0c-0.2-0.1-0.5-0.2-0.7-0.2c0,0-0.1,0-0.1,0
		c-0.2-0.1-0.4-0.1-0.6-0.2c-0.1,0-0.1-0.1-0.2-0.1c-0.2-0.1-0.3-0.1-0.5-0.2c-0.1,0-0.1-0.1-0.2-0.1c-0.2-0.1-0.4-0.2-0.6-0.3
		l-5.3-3.1l0-3.8L54.7,81.8z"/>
</g>
<path class="st85" d="M49.5,78.8l5.5,3.2c5.3,3,13.8,3,19.1-0.1l1.9-1.1c5.3-3.1,5.4-8,0.2-11.1l-5.3-3.1L49.5,78.8z"/>
<path class="st86" d="M64.1,82.2c3.3,0,6.4-0.7,8.7-2.1l1.9-1.1c2-1.1,3.1-2.6,3.1-4c0-1.4-1-2.8-2.9-3.9l-4.3-2.5L53.1,78.8
	l2.5,1.4C57.9,81.5,60.9,82.2,64.1,82.2z"/>
<path class="st83" d="M75,72.9l-4.3-2.5l-16,9.2l-1.5-0.9l17.6-10.1l4.3,2.5c1.9,1.1,2.9,2.5,2.9,3.9c0,0.3-0.1,0.6-0.1,0.9
	C77.4,74.8,76.5,73.8,75,72.9z"/>
<g>
	<g class="st8">
		<g>
			<polygon class="st87" points="61.4,68.1 62.2,67.6 62.2,72.5 61.4,73 			"/>
		</g>
		<g class="st8">
			<g>
				<path class="st87" d="M61.7,67.4l0.8-0.5c-0.2,0.1-0.3,0.3-0.3,0.5l-0.8,0.5C61.4,67.7,61.5,67.5,61.7,67.4L61.7,67.4z"/>
				<path class="st87" d="M61.4,67.9l0.8-0.5c0,0.1,0,0.1,0,0.2l-0.8,0.5C61.4,68.1,61.4,68,61.4,67.9L61.4,67.9z"/>
			</g>
		</g>
		<g>
			<polygon class="st88" points="63.3,69.7 64.1,69.3 64.2,69.3 63.4,69.8 			"/>
		</g>
		<g>
			<polygon class="st87" points="64.1,70.2 64.9,69.7 64.9,70.1 64.1,70.6 			"/>
		</g>
		<g>
			<polygon class="st88" points="64,70.2 64.8,69.7 64.9,69.7 64.1,70.2 			"/>
		</g>
		<g>
			<defs>
				<path id="SVGID_20_" d="M61.3,66.6l0.8-0.5c0.3-0.1,0.6-0.2,1.1,0.1l-0.8,0.5C61.9,66.5,61.5,66.5,61.3,66.6z"/>
			</defs>
			<use xlink:href="#SVGID_20_"  style="overflow:visible;fill:#9ED7E2;"/>
			<clipPath id="SVGID_21_">
				<use xlink:href="#SVGID_20_"  style="overflow:visible;"/>
			</clipPath>
			<g class="st89">
				<path class="st90" d="M61.3,66.6l0.8-0.5c0.1-0.1,0.3-0.1,0.4-0.1l-0.8,0.5C61.5,66.5,61.4,66.6,61.3,66.6L61.3,66.6z"/>
				<path class="st90" d="M61.7,66.5l0.8-0.5c0.1,0,0.2,0,0.3,0.1L62,66.6C61.9,66.6,61.8,66.5,61.7,66.5L61.7,66.5z"/>
				<path class="st90" d="M62,66.6l0.8-0.5c0.1,0,0.2,0.1,0.4,0.2l-0.8,0.5C62.3,66.7,62.2,66.6,62,66.6L62,66.6z"/>
			</g>
		</g>
		<g class="st8">
			<defs>
				<path id="SVGID_22_" class="st8" d="M62.4,66.8l0.8-0.5c0.1,0,0.1,0.1,0.2,0.1c0.4,0.3,0.7,0.7,1,1.1c0.4,0.8,0.5,1.7,0.5,2.1
					L64,70.2c0-0.4,0-1.3-0.5-2.1c-0.2-0.5-0.6-0.9-1-1.1C62.5,66.8,62.5,66.8,62.4,66.8z"/>
			</defs>
			<use xlink:href="#SVGID_22_"  style="overflow:visible;fill:#9ED7E2;"/>
			<clipPath id="SVGID_23_">
				<use xlink:href="#SVGID_22_"  style="overflow:visible;"/>
			</clipPath>
			<g class="st91">
				<path class="st92" d="M62.4,66.8l0.8-0.5c0,0,0,0,0,0L62.4,66.8C62.4,66.8,62.4,66.8,62.4,66.8L62.4,66.8z"/>
				<path class="st90" d="M62.4,66.8l0.8-0.5c0,0,0.1,0.1,0.1,0.1c0.1,0.1,0.2,0.1,0.2,0.2l-0.8,0.5c-0.1-0.1-0.2-0.1-0.2-0.2
					C62.5,66.8,62.5,66.8,62.4,66.8L62.4,66.8z"/>
				<path class="st90" d="M62.8,67.1l0.8-0.5c0.3,0.3,0.5,0.6,0.7,1c0.1,0.2,0.2,0.4,0.2,0.6l-0.8,0.5c-0.1-0.2-0.1-0.4-0.2-0.6
					C63.4,67.6,63.1,67.3,62.8,67.1L62.8,67.1z"/>
				<path class="st90" d="M63.8,68.6l0.8-0.5c0.1,0.2,0.1,0.5,0.2,0.7L64,69.3C63.9,69.1,63.9,68.8,63.8,68.6L63.8,68.6z"/>
				<path class="st90" d="M64,69.3l0.8-0.5c0.1,0.4,0.1,0.7,0.1,0.8L64,70.1C64,70,64,69.7,64,69.3L64,69.3z"/>
				<polygon class="st93" points="64,70.1 64.8,69.7 64.8,69.7 64,70.2 64,70.1 				"/>
			</g>
		</g>
		<g>
			<path class="st94" d="M62.4,66.8c0.1,0,0.1,0.1,0.2,0.1c0.4,0.3,0.7,0.7,1,1.1c0.4,0.8,0.5,1.7,0.5,2.1l0.1,0.1l0,0.4l-0.8-0.5
				l0-0.4l0.1,0.1c0-0.4,0-1-0.3-1.6c-0.1-0.3-0.3-0.5-0.6-0.6c0,0-0.1,0-0.1-0.1c-0.9-0.5-1,0.4-1,0.6l0,4.9l-0.6-0.4l0-4.9l0,0
				C60.8,67,61.2,66.1,62.4,66.8z"/>
		</g>
	</g>
</g>
<path class="st95" d="M65.6,80.3c-0.1-0.7,0.5-1.4,1.5-1.5c0.9-0.2,1.8,0.2,2,0.9c0.1,0.7-0.5,1.4-1.5,1.5
	C66.6,81.4,65.7,81,65.6,80.3z"/>
<g>
	<polygon class="st96" points="33,65.3 33,111 14,129.5 13.3,129.1 13.3,76.7 	"/>
</g>
<polygon class="st84" points="13.3,76.7 14,77.2 33.7,65.8 33.7,64.8 "/>
<g>
	<polygon class="st83" points="33.7,65.7 33.7,111.5 14,122.9 14.1,77.2 	"/>
</g>
<g class="st97">
	<polygon class="st98" points="53.5,77.2 53.5,123.4 33.7,112 33.7,65.7 	"/>
</g>
<g>
	<polygon class="st86" points="53.5,122.1 53.5,129.5 33.8,140.9 33.8,133.6 	"/>
</g>
<g>
	<polygon class="st83" points="33.8,133.6 33.8,140.9 14,129.5 14,122.1 	"/>
</g>
<g>
	<polygon class="st83" points="33.8,133.6 33.8,140.9 14,129.5 14,122.1 	"/>
</g>
<polygon class="st84" points="53.5,122.1 33.8,133.6 14,122.1 33.7,110.7 "/>
<polygon class="st99" points="16.9,122.1 33.7,112.4 50.6,122.1 33.8,131.9 "/>
<polygon class="st99" points="16.9,122.1 33.7,112.4 50.6,122.1 33.8,131.9 "/>
<polygon class="st100" points="45.2,125.3 33.7,118.6 22.3,125.2 33.8,131.9 "/>
<g>
	<polygon class="st82" points="33.7,112.4 33.7,118.6 45.2,125.3 50.6,122.1 	"/>
	<polygon class="st83" points="16.9,122.1 22.3,125.2 33.7,118.6 33.7,112.4 	"/>
</g>
<polygon class="st101" points="53.5,77.2 53.5,122.1 33.8,133.6 33.8,88.6 "/>
<polygon class="st101" points="33.8,88.6 33.8,133.6 14,122.1 14.1,77.2 "/>
<g>
	<g class="st8">
		<g>
			<path class="st102" d="M26.1,85.6l0.8,0.5c-0.2-0.1-0.5-0.1-0.7,0.1l-0.8-0.5C25.6,85.5,25.9,85.5,26.1,85.6z"/>
		</g>
		<g>
			<path class="st102" d="M25.4,88.6l-0.8-0.5c-0.2-0.1-0.3-0.3-0.3-0.7c0-0.7,0.5-1.5,1-1.8l0.8,0.5c-0.6,0.3-1,1.1-1,1.8
				C25.1,88.3,25.2,88.5,25.4,88.6z"/>
		</g>
		<g>
			<path class="st103" d="M26.1,86.1c0.6-0.3,1-0.1,1,0.6c0,0.7-0.5,1.5-1,1.8c-0.6,0.3-1,0.1-1-0.6C25.1,87.3,25.6,86.5,26.1,86.1z
				"/>
		</g>
	</g>
</g>
<g class="st8">
	<g>
		<polygon class="st31" points="36.7,147.5 35.4,146.7 35.4,135.2 36.7,136 		"/>
	</g>
	<g>
		<polygon class="st31" points="36.7,136 35.4,135.2 65.9,117.7 67.2,118.5 		"/>
	</g>
	<g>
		<polygon class="st31" points="67.2,118.5 67.2,130 36.7,147.5 36.7,136 		"/>
	</g>
</g>
<g class="st8">
	<g>
		<polygon class="st72" points="132.4,157.8 123.1,152.4 123.1,144 132.4,149.4 		"/>
	</g>
	<g class="st8">
		<g class="st8">
			<path class="st73" d="M130.8,155.4l-9.3-5.4c0.1,0.1,0.2,0,0.3,0l9.3,5.4C131,155.5,130.9,155.5,130.8,155.4L130.8,155.4z"/>
		</g>
	</g>
	<g class="st8">
		<g class="st8">
			<path class="st73" d="M131.1,155.4l-9.3-5.4c0.3-0.2,0.5-0.5,0.5-0.8c0-0.1-0.1-0.3-0.1-0.3l9.3,5.4c0.1,0.1,0.1,0.2,0.1,0.3
				C131.6,154.9,131.4,155.2,131.1,155.4L131.1,155.4z"/>
		</g>
	</g>
	<g class="st8">
		<g class="st8">
			<path class="st74" d="M131.1,154.3l-9.3-5.4c0.1-0.1,0.3-0.1,0.3,0l9.3,5.4C131.4,154.2,131.3,154.2,131.1,154.3L131.1,154.3z"/>
		</g>
	</g>
	<g class="st8">
		<g class="st8">
			<path class="st74" d="M130.8,155.4l-9.3-5.4c-0.1,0-0.1-0.2-0.1-0.3c0-0.3,0.2-0.7,0.5-0.8l9.3,5.4c-0.3,0.2-0.5,0.5-0.5,0.8
				C130.7,155.3,130.7,155.4,130.8,155.4L130.8,155.4z"/>
		</g>
	</g>
	<g>
		<polygon class="st72" points="132.4,148.4 123.1,143 123.1,139.1 132.4,144.5 		"/>
	</g>
	<g>
		<polygon class="st75" points="120.3,164.8 111,159.4 123.1,152.4 132.4,157.8 		"/>
	</g>
	<g>
		<polygon class="st76" points="120.3,156.4 111,151 123.1,144 132.4,149.4 		"/>
	</g>
	<g>
		<polygon class="st75" points="120.3,155.4 111,150 123.1,143 132.4,148.4 		"/>
	</g>
	<g class="st8">
		<g class="st8">
			<path class="st73" d="M131.1,147.8l-9.3-5.4c0.3-0.2,0.5-0.5,0.5-0.8c0-0.2-0.1-0.3-0.1-0.3l9.3,5.4c0.1,0,0.1,0.2,0.1,0.3
				C131.6,147.2,131.4,147.6,131.1,147.8L131.1,147.8z"/>
		</g>
	</g>
	<g class="st8">
		<g class="st8">
			<path class="st73" d="M130.8,147.8l-9.3-5.4c0.1,0.1,0.2,0,0.3,0l9.3,5.4C131,147.8,130.9,147.8,130.8,147.8L130.8,147.8z"/>
		</g>
	</g>
	<g class="st8">
		<g class="st8">
			<path class="st75" d="M119.6,166.6l-9.3-5.4c0,0,0,0,0,0L119.6,166.6C119.6,166.6,119.6,166.6,119.6,166.6L119.6,166.6z"/>
		</g>
	</g>
	<g class="st8">
		<g class="st8">
			<path class="st74" d="M131.1,146.7l-9.3-5.4c0.1-0.1,0.3-0.1,0.3,0l9.3,5.4C131.4,146.6,131.3,146.6,131.1,146.7L131.1,146.7z"/>
		</g>
	</g>
	<g class="st8">
		<g class="st8">
			<path class="st74" d="M130.8,147.8l-9.3-5.4c-0.1,0-0.1-0.2-0.1-0.3c0-0.3,0.2-0.7,0.5-0.8l9.3,5.4c-0.3,0.2-0.5,0.5-0.5,0.8
				C130.6,147.6,130.7,147.7,130.8,147.8L130.8,147.8z"/>
		</g>
	</g>
	<g>
		<polygon class="st77" points="132.4,143.1 123.1,137.7 123.8,137.3 133.1,142.7 		"/>
	</g>
	<g>
		<polygon class="st78" points="132.4,143.4 123.1,138 123.1,137.7 132.4,143.1 		"/>
	</g>
	<g>
		<polygon class="st79" points="120.3,164.8 111,159.4 111,151 120.3,156.4 		"/>
	</g>
	<g>
		<polygon class="st76" points="120.3,151.5 111,146.1 123.1,139.1 132.4,144.5 		"/>
	</g>
	<g>
		<polygon class="st79" points="120.3,155.4 111,150 111,146.1 120.3,151.5 		"/>
	</g>
	<g>
		<polygon class="st80" points="120.3,150.4 111,145 123.1,138 132.4,143.4 		"/>
	</g>
	<g>
		<polygon class="st78" points="119.6,166.6 110.3,161.2 110.3,145.9 119.6,151.3 		"/>
	</g>
	<g>
		<polygon class="st78" points="119.6,151.3 110.3,145.9 110.3,145.4 119.6,150.8 		"/>
	</g>
	<g>
		<polygon class="st78" points="119.6,150.8 110.3,145.4 110.3,145.1 119.6,150.6 		"/>
	</g>
	<path class="st81" d="M133.1,143.5l0-0.5l0-0.3l-0.7,0.4l0,0.3l-12.1,7l0-0.3l-0.7,0.4l0,0.3l0,0.5l0,15.3c0,0.3,3-1.3,6.8-3.4
		c3.7-2.2,6.8-4.1,6.8-4.4L133.1,143.5z"/>
	<g>
		<polygon class="st77" points="119.6,150.6 110.3,145.1 111,144.7 120.3,150.1 		"/>
	</g>
</g>
<g>
	<g class="st8">
		<g>
			<polygon class="st56" points="100.4,174.2 99.2,173.6 99.2,177.7 100.4,178.3 			"/>
		</g>
		<g>
			<polygon class="st57" points="101.7,173.5 100.5,172.8 99.2,173.6 100.4,174.2 			"/>
		</g>
		<g>
			<polygon class="st58" points="100.4,174.2 100.4,178.3 101.7,177.6 101.7,173.5 			"/>
		</g>
	</g>
</g>
<g>
	<g class="st8">
		<g>
			<polygon class="st59" points="62.7,152.5 61.6,151.9 61.6,155.9 62.7,156.6 			"/>
		</g>
		<g>
			<polygon class="st57" points="64,151.8 62.9,151.1 61.6,151.9 62.7,152.5 			"/>
		</g>
		<g>
			<polygon class="st58" points="62.7,152.5 62.7,156.6 64,155.9 64,151.8 			"/>
		</g>
	</g>
</g>
<g>
	<g class="st8">
		<g>
			<polygon class="st58" points="117.4,164.5 116.3,163.8 116.3,167.9 117.4,168.5 			"/>
		</g>
		<g>
			<polygon class="st57" points="118.7,163.7 117.6,163 116.3,163.8 117.4,164.5 			"/>
		</g>
		<g>
			<polygon class="st60" points="117.4,164.5 117.4,168.5 118.7,167.8 118.7,163.7 			"/>
		</g>
	</g>
</g>
<g>
	<g class="st8">
		<g>
			<polygon class="st61" points="79.6,132.9 78.2,132.1 78.2,133.7 79.6,134.5 			"/>
		</g>
		<g>
			<polygon class="st62" points="81.1,132 79.7,131.2 78.1,132.1 79.5,132.9 			"/>
		</g>
		<g>
			<polygon class="st62" points="79.6,134.5 78.2,133.7 63.2,142.5 64.5,143.3 			"/>
		</g>
		<g>
			<polygon class="st59" points="62.9,144.2 61.5,143.4 61.6,154.3 62.9,155.1 			"/>
		</g>
		<g>
			<polygon class="st59" points="62.9,142.6 61.5,141.8 61.5,143.4 62.9,144.2 			"/>
		</g>
		<g>
			<polygon class="st62" points="64.5,141.6 63.2,140.8 61.5,141.8 62.9,142.6 			"/>
		</g>
		<g>
			<polygon class="st56" points="62.9,142.6 62.9,144.2 62.9,155.1 81.3,144.5 81.2,133.6 81.2,131.9 79.6,132.9 79.6,134.5 
				64.5,143.3 64.5,141.6 			"/>
		</g>
	</g>
</g>
<g>
	<g class="st8">
		<g>
			<polygon class="st63" points="62.9,151.1 63,155.1 100.4,177 100.4,173 			"/>
		</g>
		<g>
			<polygon class="st64" points="62.9,151.1 100.4,173 118.7,162.4 81.2,140.4 			"/>
		</g>
	</g>
</g>
<g>
	<g class="st8">
		<g>
			<polygon class="st63" points="62.9,147.1 63,151.2 100.4,173.1 100.4,169.1 			"/>
		</g>
		<g>
			<polygon class="st65" points="62.9,147.1 100.4,169.1 118.7,158.4 81.2,136.5 			"/>
		</g>
	</g>
</g>
<g>
	<g class="st8">
		<g>
			<polygon class="st66" points="62.9,147.1 63,149 100.4,170.9 100.4,169.1 			"/>
		</g>
		<g>
			<polygon class="st67" points="64,147.8 85.8,160.5 85.8,162.4 64,149.6 			"/>
		</g>
		<g>
			<polygon class="st68" points="100.4,169.1 100.4,170.9 118.7,160.3 118.7,158.4 			"/>
		</g>
		<g>
			<polygon class="st69" points="62.9,147.1 100.4,169.1 118.7,158.4 81.2,136.5 			"/>
		</g>
		<g>
			<polygon class="st70" points="64.1,147.8 85.8,160.5 104.1,149.9 82.3,137.2 			"/>
		</g>
	</g>
</g>
<g>
	<g class="st8">
		<g>
			<polygon class="st71" points="91.2,158.4 91.2,160.3 99.7,165.4 99.7,160.7 			"/>
		</g>
		<g>
			<polygon class="st67" points="99.7,160.7 99.7,165.4 111.8,158.4 111.8,154.8 			"/>
		</g>
		<g>
			<polygon class="st70" points="91.2,158.4 99.7,161.8 111.8,154.8 103.3,151.4 			"/>
		</g>
	</g>
</g>
<g>
	<g class="st8">
		<g>
			<polygon class="st61" points="117.1,150.4 115.7,149.6 115.7,153.5 117.1,154.3 			"/>
		</g>
		<g>
			<polygon class="st62" points="118.7,149.5 117.3,148.7 115.7,149.6 117.1,150.4 			"/>
		</g>
		<g>
			<polygon class="st62" points="115.7,153.5 102,161.5 101.8,162.4 101.8,162.9 102,163 117.1,154.3 			"/>
		</g>
		<polygon class="st59" points="100.4,160.1 100.4,164 100.4,177 99.1,176.2 99,163.2 99,159.3 		"/>
		<g>
			<polygon class="st62" points="102,159.2 100.6,158.4 99,159.3 100.4,160.1 			"/>
		</g>
		<polygon class="st56" points="102,159.2 102,163 117.1,154.3 117.1,150.4 118.7,149.5 118.7,153.3 118.7,156.8 118.7,156.8 
			118.7,158.6 118.7,158.7 118.7,158.7 118.7,162.5 118.7,162.5 118.7,166.4 100.4,177 100.4,173 100.4,173 100.4,171.1 
			100.4,171.1 100.4,164 100.4,160.1 		"/>
	</g>
</g>
</svg>
