<?xml version="1.0" encoding="utf-8"?>
<!-- Generator: Adobe Illustrator 22.0.1, SVG Export Plug-In . SVG Version: 6.00 Build 0)  -->
<svg version="1.1" id="Слой_2" xmlns="http://www.w3.org/2000/svg" xmlns:xlink="http://www.w3.org/1999/xlink" x="0px" y="0px"
	 viewBox="0 0 200 200" style="enable-background:new 0 0 200 200;" xml:space="preserve">
<style type="text/css">
	.st0{fill:#B78441;}
	.st1{fill:#B28749;}
	.st2{fill:#CE9B49;}
	.st3{fill:#CC9E5A;}
	.st4{fill:#E5A345;}
	.st5{fill:#636871;}
	.st6{fill:#B7853E;}
	.st7{fill:#BA9058;}
	.st8{fill:#B6B7B8;}
	.st9{fill:#F0F0F0;}
	.st10{fill:#D4D5D7;}
	.st11{fill:#C7C8C9;}
	.st12{fill:#E5E6E8;}
	.st13{fill:#DBDBDB;}
	.st14{fill:#BCF1FF;}
	.st15{fill:#68D6F9;}
	.st16{fill:#DBDCDE;}
	.st17{opacity:0.3;fill:#55D6D2;}
	.st18{enable-background:new    ;}
	.st19{fill:#414D54;}
	.st20{fill:#5F7078;}
	.st21{fill:#B0ACA8;}
	.st22{fill:#FFF9F5;}
	.st23{fill:#D4CFCB;}
	.st24{fill:#8B9B00;}
	.st25{fill:#566000;}
	.st26{fill:#93A300;}
	.st27{fill:#FDA713;}
	.st28{fill:#FD8813;}
	.st29{fill:#FDB813;}
	.st30{fill:#840C0C;}
	.st31{fill:#F71616;}
	.st32{fill:#8B0C0C;}
	.st33{fill:#96180C;}
	.st34{fill:#F12613;}
	.st35{fill:#D12110;}
	.st36{fill:#D14436;}
	.st37{fill:#B1C2E3;}
	.st38{fill:#A9BBDF;}
	.st39{fill:#D0D9EA;}
	.st40{fill:#B7C4DF;}
	.st41{fill:#D7D8DA;}
	.st42{fill:#E1E4EA;}
	.st43{fill:#868687;}
	.st44{fill:#BFCBE3;}
	.st45{clip-path:url(#SVGID_2_);enable-background:new    ;}
	.st46{clip-path:url(#SVGID_4_);enable-background:new    ;}
	.st47{fill:#71C6DB;}
	.st48{fill:#49B8B5;}
	.st49{fill:#374246;}
	.st50{fill:#56676E;}
	.st51{fill:#89D8E8;}
	.st52{fill:#60A8BA;}
	.st53{clip-path:url(#SVGID_6_);enable-background:new    ;}
	.st54{fill:#174969;}
	.st55{clip-path:url(#SVGID_8_);}
	.st56{fill:#72CFE3;}
	.st57{fill:#BBC3D3;}
	.st58{fill:#A4B0C8;}
	.st59{fill:#D38C24;}
	.st60{fill:#093F61;}
	.st61{fill:#0A4B73;}
	.st62{fill:#0B507A;}
	.st63{fill:#9C493F;}
	.st64{fill:#DE4B38;}
	.st65{fill:#FA8778;}
	.st66{fill:#07334E;}
	.st67{fill:#025074;}
	.st68{fill:#71CFF3;}
	.st69{fill:#FAFBFD;}
	.st70{fill:#7AA6AE;}
	.st71{fill:#88B9C3;}
	.st72{clip-path:url(#SVGID_10_);enable-background:new    ;}
	.st73{fill:#9ED7E2;}
	.st74{clip-path:url(#SVGID_12_);enable-background:new    ;}
	.st75{fill:#7EACB5;}
	.st76{fill:#6F979E;}
	.st77{fill:#557379;}
	.st78{fill:#64616C;}
	.st79{fill:#BDBDBD;}
	.st80{fill:#ECC6AF;}
	.st81{fill:#969696;}
	.st82{fill:#D7D7D7;}
	.st83{fill:#7A7A7A;}
	.st84{fill:#8E8A80;}
	.st85{fill:#E2E8F2;}
	.st86{fill:#DAE1EB;}
	.st87{fill:#ECECEC;}
	.st88{fill:#E6EDF7;}
	.st89{fill:#C1D8F7;}
	.st90{fill:#2574A8;}
	.st91{fill:#844810;}
	.st92{fill:#D9E6F7;}
	.st93{fill:#22A6EF;}
	.st94{fill:#6BB8EF;}
	.st95{fill:#F26E30;}
	.st96{fill:#FFCA00;}
</style>
<polygon class="st0" points="100,9.4 100,83.4 122.2,96 193.6,63.5 "/>
<polygon class="st1" points="122.2,96 193.7,136.5 193.7,63.5 193.6,63.5 "/>
<polygon class="st2" points="6.3,136.5 77.7,96.1 6.3,63.5 "/>
<polygon class="st3" points="100,9.4 6.3,63.5 6.3,63.5 77.7,96.1 100,83.4 "/>
<polygon class="st4" points="100,190.6 193.7,136.5 193.7,130.8 100,184.9 "/>
<polygon class="st5" points="190,132.9 183.8,129.4 183.8,129.4 177.8,125.9 177.8,125.9 171.8,122.4 171.8,122.4 165.8,119 
	165.8,119 159.8,115.5 159.8,115.5 153.9,112.1 153.9,112.1 147.9,108.6 147.9,108.6 142.1,105.3 142.1,105.3 136.1,101.8 
	136.1,101.8 130.1,98.4 130.1,98.4 124.2,94.9 124.2,94.9 118.2,91.5 118.2,91.5 112.2,88 112.2,88 106.2,84.6 106.2,84.6 100,81 
	93.8,84.6 93.8,84.6 87.8,88 87.8,88 82,91.3 82,91.3 75.8,94.9 75.8,94.9 69.8,98.4 69.8,98.4 63.8,101.8 63.8,101.8 57.9,105.3 
	57.9,105.3 52.1,108.6 52.1,108.6 45.9,112.2 45.9,112.2 40.1,115.5 40.1,115.5 33.9,119.1 33.9,119.1 28.2,122.4 28.2,122.4 
	21.9,126 22,126 16.2,129.4 16.2,129.4 10,132.9 16.2,136.5 16.2,136.5 21.9,139.9 21.9,139.9 28.2,143.4 28.2,143.4 34.1,146.9 
	34.1,146.9 40.1,150.4 40.1,150.4 46.1,153.8 46.1,153.8 52.1,157.3 52.1,157.3 58.1,160.7 58.1,160.7 64.1,164.2 64.1,164.2 
	70.1,167.6 70.1,167.6 76.1,171.1 76.1,171.1 82,174.5 82,174.5 88,178 88,178 94,181.5 94,181.5 100,184.9 106,181.5 106,181.5 
	111.1,178.5 112,178 112,178 118,174.5 118,174.5 123.1,171.6 124.2,171 124.2,171 129.9,167.6 129.9,167.6 135,164.7 135.9,164.2 
	135.9,164.2 141.9,160.7 141.9,160.7 147,157.8 147.9,157.3 147.9,157.3 153.9,153.8 153.9,153.8 159,150.9 159.8,150.4 
	159.8,150.4 165.8,146.9 165.8,146.9 170.9,143.9 171.8,143.4 171.8,143.5 177.8,140 177.8,140 182.9,137 183.8,136.5 183.8,136.5 
	"/>
<polygon class="st2" points="190,133.5 100,81.5 100,13.8 190,65.8 "/>
<polygon class="st6" points="10,133 100,81 100,13.2 10,65.2 "/>
<polygon class="st7" points="100,190.6 6.3,136.5 6.3,130.8 100,184.9 "/>
<g>
	<polygon class="st8" points="99.2,28.9 99.2,74.6 80.3,93.1 79.6,92.7 79.6,40.3 	"/>
</g>
<polygon class="st9" points="79.6,40.3 80.3,40.8 100,29.4 100,28.4 "/>
<g>
	<polygon class="st10" points="120.4,40.3 120.4,92.7 119.7,93.1 100.6,81.7 100.6,29.7 119.7,40.8 	"/>
</g>
<g>
	<polygon class="st11" points="100,29.3 100,75.1 80.3,86.5 80.3,40.8 	"/>
</g>
<g>
	<polygon class="st12" points="119.7,40.8 119.7,87 99.9,75.6 100,29.3 	"/>
</g>
<g>
	<polygon class="st12" points="119.7,85.7 119.7,93.1 100.1,104.5 100.1,97.2 	"/>
</g>
<g>
	<polygon class="st11" points="100.1,97.2 100.1,104.5 80.3,93.1 80.3,85.7 	"/>
</g>
<g>
	<polygon class="st11" points="100.1,97.2 100.1,104.5 80.3,93.1 80.3,85.7 	"/>
</g>
<polygon class="st13" points="120.4,40.3 119.7,40.8 100,29.3 100,28.4 "/>
<polygon class="st9" points="119.7,85.7 100.1,97.2 80.3,85.7 100,74.3 "/>
<polygon class="st14" points="83.2,85.7 100,76 116.8,85.7 100.1,95.5 "/>
<polygon class="st14" points="83.2,85.7 100,76 116.8,85.7 100.1,95.5 "/>
<polygon class="st15" points="111.5,88.8 100,82.2 88.5,88.8 100.1,95.5 "/>
<g>
	<polygon class="st16" points="100,76 100,82.2 111.5,88.8 116.8,85.7 	"/>
	<polygon class="st11" points="83.2,85.7 88.5,88.8 100,82.2 100,76 	"/>
</g>
<polygon class="st17" points="119.8,40.8 119.7,85.7 100.1,97.2 100.1,52.2 "/>
<polygon class="st17" points="100.1,52.2 100.1,97.2 80.3,85.7 80.3,40.8 "/>
<g>
	<g class="st18">
		<g>
			<path class="st19" d="M92.4,49.2l0.8,0.5c-0.2-0.1-0.5-0.1-0.7,0.1l-0.8-0.5C91.9,49.1,92.2,49.1,92.4,49.2z"/>
		</g>
		<g>
			<path class="st19" d="M91.7,52.2l-0.8-0.5c-0.2-0.1-0.3-0.3-0.3-0.7c0-0.7,0.5-1.5,1-1.8l0.8,0.5c-0.6,0.3-1,1.1-1,1.8
				C91.4,51.9,91.5,52.1,91.7,52.2z"/>
		</g>
		<g>
			<path class="st20" d="M92.4,49.7c0.6-0.3,1-0.1,1,0.6c0,0.7-0.5,1.5-1,1.8c-0.6,0.3-1,0.1-1-0.6C91.4,50.9,91.8,50.1,92.4,49.7z"
				/>
		</g>
	</g>
</g>
<g>
	<g class="st18">
		<g>
			<polygon class="st21" points="171.9,88.2 178.3,84.5 178.3,83.9 171.9,87.6 			"/>
		</g>
		<g>
			<polygon class="st22" points="171.9,87.6 178.3,83.9 160,73.4 153.6,77.1 			"/>
		</g>
		<g>
			<polygon class="st23" points="153.6,77.1 153.6,77.7 171.9,88.2 171.9,87.6 			"/>
		</g>
	</g>
</g>
<g>
	<g class="st18">
		<g>
			<polygon class="st24" points="168.4,77.1 169.6,76.4 168.7,75.8 167.5,76.5 			"/>
		</g>
		<g>
			<polygon class="st25" points="169.6,77.7 170.7,77 170.8,76.6 169.6,77.3 			"/>
		</g>
		<g>
			<polygon class="st24" points="170.5,78.3 171.7,77.6 170.7,77 169.6,77.7 			"/>
		</g>
		<g>
			<polygon class="st25" points="170.5,83.1 171.7,82.4 171.7,77.6 170.5,78.3 			"/>
		</g>
		<g>
			<polygon class="st25" points="169.8,77.5 171,76.8 171,75.9 169.8,76.6 			"/>
		</g>
		<g>
			<polygon class="st24" points="169.8,76.6 171,75.9 169.4,74.9 168.2,75.6 			"/>
		</g>
		<g>
			<polygon class="st26" points="168.2,75.6 168.2,76.5 168.4,76.7 168.4,77.1 167.5,76.5 167.5,81.4 170.5,83.1 170.5,78.3 
				169.6,77.7 169.6,77.3 169.8,77.5 169.8,76.6 			"/>
		</g>
	</g>
</g>
<g>
	<g>
		<path class="st27" d="M160.9,77.7c0,0,0.1-0.1,0.1-0.2c0.1-0.1,0.1-0.1,0.1-0.2c0,0,0.1-0.1,0.2-0.3c0.1-0.2,0.1-0.3,0.1-0.3
			c0-0.1,0.1-0.1,0.1-0.2c0-0.1,0.1-0.2,0.1-0.2c0-0.2,0.1-0.3,0.1-0.5c0-0.1,0-0.3,0-0.4c0-0.5-0.1-0.8-0.2-0.9
			c-0.1-0.2-0.1-0.4-0.1-0.4c0-0.1-0.1-0.2-0.1-0.3c0-0.1-0.1-0.1-0.1-0.2c0,0-0.1-0.1-0.2-0.3c-0.1-0.1-0.2-0.2-0.3-0.2
			c-0.1-0.1-0.2-0.1-0.3-0.2c-0.1,0-0.1-0.1-0.2-0.1c0,0-0.1,0-0.1,0c-0.1,0-0.1,0-0.2-0.1c-0.1,0-0.1,0-0.2,0c0,0-0.2,0-0.3,0
			c-0.5,0-0.8,0.2-0.9,0.3c0.1-0.1,0.2-0.1,0.3-0.1c0.4-0.2,0.9-0.2,1.3,0c0.4,0.2,0.4,0.5,0,0.8c-0.4,0.2-0.9,0.2-1.3,0
			c-0.4-0.2-0.4-0.5,0-0.8c-0.1,0-0.2,0-0.3,0.1c0,0-0.1,0.1-0.3,0.2c-0.1,0.1-0.2,0.2-0.3,0.3c-0.2,0.3-0.3,0.5-0.4,0.8
			c-0.1,0.3-0.2,0.6-0.2,0.7c0,0.1,0,0.2,0,0.4c0,0.1,0,0.3,0,0.5c0,0.1,0,0.1,0,0.3c0,0.1,0,0.2,0,0.2c0,0.1,0,0.2,0.1,0.2
			c0,0.1,0,0.2,0.1,0.2c0,0,0,0.1,0,0.1c0.1,0.2,0.2,0.4,0.3,0.5c0,0,0.1,0.1,0.1,0.2c0.1,0.1,0.1,0.1,0.2,0.2
			c0.1,0.1,0.2,0.2,0.3,0.2c0.6,0.4,1.7,0.3,2.3,0C160.8,77.8,160.9,77.8,160.9,77.7z"/>
	</g>
	<g>
		<path class="st28" d="M160.5,73.2l0-0.4c0,0.1-0.1,0.3-0.3,0.4c-0.4,0.2-0.9,0.2-1.3,0c-0.2-0.1-0.3-0.2-0.3-0.4l0,0.4
			c0,0.1,0.1,0.3,0.3,0.4c0.4,0.2,1,0.2,1.3,0C160.4,73.5,160.5,73.3,160.5,73.2z"/>
	</g>
	<g>
		<path class="st29" d="M159,71.4c-0.3,0.2-0.3,0.5,0,0.6c0.3,0.2,0.8,0.2,1.1,0c0.3-0.2,0.3-0.5,0-0.6
			C159.8,71.2,159.3,71.2,159,71.4z"/>
	</g>
	<g>
		<path class="st29" d="M160.4,73.1c0.1,0,0.3-0.2,0.4-0.5c0.1-0.1,0.1-0.2,0.1-0.3c0-0.1,0-0.1,0-0.1c0-0.1,0-0.1,0-0.2
			c0,0,0-0.1-0.1-0.3c-0.1-0.1-0.1-0.2-0.2-0.2c0,0-0.1-0.1-0.3-0.2c-0.1-0.1-0.3-0.1-0.3-0.1c-0.2,0-0.5-0.1-0.7,0
			c-0.2,0-0.3,0.1-0.3,0.1c-0.1,0-0.1,0.1-0.3,0.1c0.1-0.1,0.2,0,0.3,0c0.3-0.2,0.8-0.2,1.1,0c0.3,0.2,0.3,0.4,0,0.6
			c-0.3,0.2-0.8,0.2-1.1,0c-0.3-0.2-0.3-0.4,0-0.6c-0.1-0.1-0.2-0.1-0.3,0c0,0-0.1,0.1-0.1,0.1c-0.1,0.1-0.1,0.1-0.1,0.1
			c0,0-0.1,0.1-0.2,0.2c0,0,0,0.1,0,0.1c0,0.1,0,0.1,0,0.2c0,0.1,0,0.2,0,0.3c0,0.1,0.1,0.3,0.3,0.5c0.2,0.1,0.4,0.2,0.6,0.3
			c0.2,0,0.5,0.1,0.7,0c0.2,0,0.3-0.1,0.3-0.1C160.3,73.2,160.4,73.1,160.4,73.1z"/>
	</g>
</g>
<g>
	<g class="st18">
		<g>
			<polygon class="st30" points="172.1,86.5 175.1,84.8 175.1,83.8 172.1,85.5 			"/>
		</g>
		<g>
			<polygon class="st31" points="172.1,85.5 175.1,83.8 173.1,82.6 170,84.3 			"/>
		</g>
		<g>
			<polygon class="st32" points="170,84.3 170,85.3 172.1,86.5 172.1,85.5 			"/>
		</g>
	</g>
</g>
<g>
	<path class="st33" d="M162.7,80.8C162.7,80.8,162.7,80.8,162.7,80.8C162.7,80.8,162.7,80.8,162.7,80.8
		C162.7,80.7,162.7,80.7,162.7,80.8C162.7,80.7,162.7,80.7,162.7,80.8C162.7,80.7,162.6,80.7,162.7,80.8
		C162.6,80.7,162.6,80.7,162.7,80.8c0-0.1,0-0.1,0-0.1c0,0,0,0,0,0c0,0,0,0,0,0c0,0,0,0,0,0c0,0,0,0,0,0c0,0,0,0,0,0c0,0,0,0,0,0
		c0,0,0,0,0,0c0,0,0,0,0,0c0,0,0,0,0,0c0,0,0,0,0,0c0,0,0,0,0,0c0,0,0,0,0,0c0,0,0,0,0,0c0,0,0-0.1,0-0.1c0,0,0,0,0,0c0,0,0,0,0,0
		c0,0,0,0,0,0c0,0,0,0,0,0c0,0,0,0,0,0c0,0,0-0.1,0.1-0.1c0,0,0,0,0,0c0,0,0,0,0,0c0,0,0,0,0,0c0,0,0,0,0,0c0,0,0,0,0,0c0,0,0,0,0,0
		c0,0,0,0,0,0c0,0,0,0,0,0c0,0,0.1-0.1,0.2-0.1c0,0,0.1,0,0.1,0c0,0,0,0,0.1,0c0.1,0,0.1,0,0.1-0.1c0,0,0,0,0,0c0,0,0,0,0.1,0
		c0,0,0,0,0,0c0,0,0.1,0,0.1,0c0,0,0,0,0,0c0,0,0,0,0,0c0,0,0,0,0,0c0,0,0,0,0.1,0c0,0,0,0,0,0c0,0,0,0,0,0c0,0,0,0,0,0c0,0,0,0,0,0
		c0,0,0,0,0,0l0,0c0,0,0.1,0,0.1,0c0,0,0.1,0,0.2,0c0,0,0,0,0,0c0,0,0,0,0.1,0c0,0,0,0,0,0c0,0,0,0,0,0c0,0,0,0,0,0c0,0,0,0,0,0
		c0,0,0.1,0,0.1,0c0,0,0.1,0,0.1,0c0,0,0,0,0,0c0.1,0,0.1,0,0.2,0c0,0,0,0,0,0c0,0,0,0,0,0c0,0,0.1,0,0.1,0c0,0,0.1,0,0.2,0.1
		c0,0,0,0,0,0c0,0,0,0,0,0c0.1,0,0.1,0.1,0.2,0.1c0,0,0,0,0,0c0,0,0,0,0,0c0,0,0,0,0,0c0,0,0,0,0,0c0,0,0,0,0,0c0,0,0,0,0,0
		c0,0,0,0,0,0c0,0,0,0,0,0c0,0,0,0,0.1,0.1c0,0,0,0,0.1,0.1c0,0,0,0,0,0c0,0,0,0.1,0,0.1c0,0,0,0,0,0c0,0,0,0,0,0c0,0,0,0,0,0
		c0,0,0,0,0,0c0,0,0,0,0,0l0,0c0,0,0,0,0,0c0,0,0,0,0,0c0,0,0,0,0,0c0,0,0,0,0,0c0,0,0,0,0,0c0,0,0,0,0,0c0,0,0,0,0,0c0,0,0,0,0,0
		c0,0,0,0,0,0c0,0,0,0,0,0c0,0,0,0,0,0c0,0,0,0,0,0c0,0,0,0,0,0c0,0,0,0,0,0c0,0,0,0,0,0c0,0,0,0,0,0c0,0,0,0,0,0l0,0c0,0,0,0,0,0
		c0,0,0,0,0,0.1c0,0,0,0,0,0c0,0,0,0,0,0c0,0,0,0,0,0c0,0,0,0,0,0c0,0,0,0,0,0c0,0,0,0-0.1,0.1c0,0,0,0-0.1,0.1c0,0,0,0-0.1,0
		c0,0,0,0,0,0c0,0,0,0,0,0c0,0,0,0,0,0c0,0-0.1,0-0.1,0c0,0,0,0,0,0c0,0,0,0,0,0c0,0,0,0,0,0c0,0-0.1,0-0.1,0.1c0,0,0,0,0,0
		c0,0,0,0-0.1,0c0,0-0.1,0-0.1,0c0,0,0,0,0,0l0,0c0,0,0,0,0,0c0,0,0,0,0,0c0,0,0,0,0,0c0,0,0,0,0,0c0,0,0,0,0,0c-0.1,0-0.1,0-0.1,0
		c0,0,0,0,0,0c-0.1,0-0.1,0-0.1,0c0,0,0,0,0,0c-0.1,0-0.1,0-0.2,0c0,0,0,0,0,0c0,0-0.1,0-0.1,0c0,0,0,0,0,0c0,0,0,0,0,0
		c0,0,0,0-0.1,0c0,0,0,0-0.1,0c0,0,0,0,0,0c0,0-0.1,0-0.1,0c0,0,0,0,0,0c0,0-0.1,0-0.1,0c0,0,0,0,0,0c0,0,0,0,0,0c0,0,0,0,0,0
		c0,0-0.1,0-0.1,0c0,0,0,0,0,0c-0.1,0-0.2-0.1-0.2-0.1c0,0,0,0,0,0c-0.1,0-0.2-0.1-0.2-0.1c0,0,0,0,0,0c0,0,0,0,0,0c0,0,0,0,0,0
		c0,0,0,0,0,0c0,0,0,0,0,0c0,0,0,0,0,0c0,0,0,0,0,0c0,0,0,0,0,0c0,0-0.1-0.1-0.1-0.1c0,0,0,0,0,0c0,0,0,0,0,0c0,0,0,0,0,0
		c0,0,0,0,0,0c0,0,0,0,0-0.1c0,0,0,0,0,0c0,0,0,0,0,0c0,0,0,0,0,0c0,0,0,0,0,0C162.7,80.9,162.7,80.9,162.7,80.8
		C162.7,80.8,162.7,80.8,162.7,80.8C162.7,80.8,162.7,80.8,162.7,80.8C162.7,80.8,162.7,80.8,162.7,80.8
		C162.7,80.8,162.7,80.8,162.7,80.8C162.7,80.8,162.7,80.8,162.7,80.8z"/>
	<g>
		<path class="st34" d="M165.3,80.7C165.3,80.7,165.3,80.8,165.3,80.7C165.3,80.8,165.3,80.7,165.3,80.7z"/>
		<path class="st34" d="M165.3,80.7C165.3,80.7,165.3,80.7,165.3,80.7C165.3,80.7,165.3,80.7,165.3,80.7z"/>
		<path class="st34" d="M165.3,80.7C165.3,80.7,165.3,80.7,165.3,80.7C165.3,80.7,165.3,80.7,165.3,80.7z"/>
		<path class="st34" d="M165.1,80.9c0.1,0,0.1-0.1,0.1-0.1C165.3,80.8,165.3,80.8,165.1,80.9C165.2,80.8,165.2,80.8,165.1,80.9z"/>
		<path class="st34" d="M161.8,78.7c0-1.3,1-2.4,2.3-2.4c1.3,0,2.3,1.1,2.3,2.4c0,0.8-0.4,1.5-1,2c0,0,0,0,0,0c0,0,0,0,0,0
			c-0.1,0-0.1,0.1-0.2,0.1c0,0-0.1,0.1-0.1,0.1c0,0,0,0-0.1,0c-0.6,0.3-1.4,0.3-2,0c0,0-0.1,0-0.1-0.1c0,0,0,0,0,0c0,0,0,0-0.1,0
			c0,0,0,0,0,0c0,0,0,0,0,0c0,0,0,0,0,0c0,0,0,0-0.1,0c0,0,0,0,0,0C162.1,80.2,161.8,79.5,161.8,78.7z"/>
	</g>
	<g>
		<path class="st35" d="M163.4,76.8c0-0.1,0.1-0.2,0.2-0.2c0-0.9,0.1-1.7,0.2-2.1c0,0-0.1,0.1-0.1,0.1c-0.1,0.3-0.2,0.7-0.2,0.9
			C163.5,76.1,163.4,76.6,163.4,76.8z"/>
	</g>
	<g>
		<path class="st35" d="M164.4,74.6C164.4,74.5,164.3,74.5,164.4,74.6c-0.2-0.2-0.4-0.2-0.5-0.1c-0.1,0.4-0.2,1.2-0.2,2.1
			c0.2-0.1,0.7-0.2,0.9,0c0.1,0.1,0.2,0.2,0.2,0.3C164.7,76.3,164.6,75.2,164.4,74.6z"/>
	</g>
	<g>
		<path class="st35" d="M164.7,76.8c0-0.2,0-0.7-0.1-1.3c0-0.3-0.1-0.6-0.2-0.9c0,0.1,0,0.1-0.1,0.2c-0.1,0.1-0.3,0.1-0.5,0
			c-0.1,0-0.1-0.1-0.1-0.2c0,0.1-0.1,0.4-0.2,0.9c-0.1,0.4-0.1,0.8-0.1,1.3c0,0.1,0.1,0.2,0.2,0.3c0.3,0.1,0.7,0.1,0.9,0
			C164.6,77,164.7,76.9,164.7,76.8z"/>
	</g>
	<g>
		<path class="st35" d="M164.5,74.4c0.2,0.1,0.2,0.4,0,0.5c-0.2,0.1-0.6,0.1-0.9,0c-0.2-0.1-0.2-0.4,0-0.5
			C163.9,74.2,164.2,74.2,164.5,74.4z M163.8,74.5c-0.1,0.1-0.1,0.2,0,0.3c0.1,0.1,0.3,0.1,0.5,0c0.1-0.1,0.1-0.2,0-0.3
			C164.2,74.4,164,74.4,163.8,74.5L163.8,74.5z"/>
	</g>
	<g>
		<path class="st35" d="M164.8,74.5c0-0.1,0-0.2-0.1-0.3c-0.1-0.1-0.3-0.2-0.3-0.2c-0.1,0-0.2-0.1-0.4,0c-0.2,0-0.3,0.1-0.4,0.1
			c0,0,0,0,0,0.1c0,0.1,0.1,0.2,0.1,0.2c0.2-0.1,0.6-0.1,0.9,0c0.2,0.1,0.2,0.4,0,0.5c-0.2,0.1-0.6,0.1-0.9,0
			c-0.2-0.1-0.2-0.4,0-0.5c-0.1,0-0.1-0.1-0.1-0.2c0,0,0-0.1,0-0.1c-0.2,0.1-0.2,0.2-0.2,0.2c0,0-0.1,0.1,0,0.3
			c0,0.1,0.1,0.2,0.2,0.2c0.1,0.1,0.2,0.1,0.3,0.2c0.3,0.1,0.6,0,0.7-0.1c0.1,0,0.2-0.1,0.2-0.2C164.8,74.6,164.8,74.6,164.8,74.5z"
			/>
	</g>
	<g>
		<path class="st36" d="M163.6,74.1c-0.2,0.1-0.2,0.4,0,0.5c0.2,0.1,0.6,0.1,0.9,0c0.2-0.1,0.2-0.4,0-0.5
			C164.2,73.9,163.9,73.9,163.6,74.1z"/>
	</g>
	<g>
		<path class="st36" d="M164.6,74.9c0.1,0,0.2-0.1,0.2-0.2c0.1-0.1,0-0.2,0-0.3c-0.1-0.2-0.2-0.3-0.5-0.4c-0.2,0-0.4,0-0.4,0
			c-0.1,0-0.2,0-0.4,0.1c0,0,0.1,0,0.1,0c0.2-0.1,0.6-0.1,0.9,0c0.2,0.1,0.2,0.4,0,0.5c-0.2,0.1-0.6,0.1-0.9,0
			c-0.2-0.1-0.2-0.4,0-0.5c0,0-0.1,0-0.1,0c-0.1,0-0.1,0.1-0.1,0.1c0,0-0.1,0.1-0.1,0.1c0,0.1-0.1,0.2,0,0.3
			c0.1,0.2,0.2,0.3,0.5,0.4c0.2,0,0.4,0,0.4,0C164.3,75,164.5,74.9,164.6,74.9z"/>
	</g>
</g>
<g>
	<g>
		<g>
			<g class="st18">
				<g>
					<polygon class="st37" points="186.3,130.9 176.9,125.5 177.3,125.3 186.6,130.7 					"/>
				</g>
				<g>
					<polygon class="st38" points="175.1,137.4 165.8,131.9 176.9,125.5 186.3,130.9 					"/>
				</g>
				<g>
					<polygon class="st38" points="174.8,137.6 165.4,132.1 165.8,131.9 175.1,137.4 					"/>
				</g>
				<g>
					<polygon class="st39" points="174.8,139 165.4,133.6 165.4,132.1 174.8,137.6 					"/>
				</g>
				<g>
					<polygon class="st40" points="186.6,130.7 186.6,132.2 174.8,139 174.8,137.6 175.1,137.4 186.3,130.9 					"/>
				</g>
				<g>
					<polygon class="st41" points="183.6,122.4 174.2,116.9 178.5,114.5 187.9,119.9 					"/>
				</g>
				<g>
					<polygon class="st40" points="175.9,136.9 166.6,131.5 166.9,126.4 176.2,131.9 					"/>
				</g>
				<g>
					<polygon class="st41" points="172.9,128.5 163.6,123.1 174.2,116.9 183.6,122.4 					"/>
				</g>
				<g>
					<path class="st39" d="M187.9,119.9l-2.7,6.7l0.3,4.7l-9.6,5.5l0.3-5.1c-1.8,1.1-3.3-0.2-3.3-2.7c0-0.2,0-1.8,0-2l10.6-4.7
						L187.9,119.9z"/>
				</g>
				<g>
					<g class="st18">
						<path class="st42" d="M169.9,129.6l-5.1-3c-0.7-0.4-1.2-1.4-1.2-2.9c0-0.2,0-0.4,0-0.6l9.4,4.2c0,0.2,0,1.7,0,1.9
							c0,1.4,0.5,2.4,1.2,2.9l0,0L169.9,129.6L169.9,129.6z"/>
					</g>
				</g>
			</g>
		</g>
		<g>
			<g class="st18">
				<g>
					<polygon class="st43" points="184.1,122 173,115.6 173,115.5 184.1,121.9 					"/>
				</g>
				<g>
					<polygon class="st43" points="184.1,121.9 173,115.5 173,115.2 184.1,121.6 					"/>
				</g>
				<g>
					<polygon class="st44" points="184.1,121.6 173,115.2 173,110.2 184.1,116.7 					"/>
				</g>
				<g>
					<defs>
						<path id="SVGID_1_" d="M177.1,100.7l11.1,6.5c-0.1-0.1-0.3-0.1-0.4,0l-11.1-6.5C176.9,100.6,177,100.6,177.1,100.7z"/>
					</defs>
					<use xlink:href="#SVGID_1_"  style="overflow:visible;fill:#E1E4EA;"/>
					<clipPath id="SVGID_2_">
						<use xlink:href="#SVGID_1_"  style="overflow:visible;"/>
					</clipPath>
					<g class="st45">
						<path class="st42" d="M187.8,107.1l-11.1-6.5c0.1-0.1,0.2-0.1,0.3-0.1l11.1,6.5C188,107.1,187.9,107.1,187.8,107.1
							L187.8,107.1z"/>
						<path class="st42" d="M188.1,107.1l-11.1-6.5c0.1,0,0.1,0,0.1,0l11.1,6.5C188.2,107.1,188.2,107.1,188.1,107.1L188.1,107.1z"
							/>
					</g>
				</g>
				<g>
					<polygon class="st44" points="184.1,116.7 173,110.2 173,103.6 184.1,110.1 					"/>
				</g>
				<g>
					<polygon class="st42" points="184.8,108.9 173.6,102.5 176.7,100.7 187.8,107.1 					"/>
				</g>
				<g>
					<defs>
						<path id="SVGID_3_" d="M184.1,110.1l-11.1-6.5c0-0.4,0.3-1,0.6-1.2l11.1,6.5C184.4,109.1,184.1,109.6,184.1,110.1z"/>
					</defs>
					<use xlink:href="#SVGID_3_"  style="overflow:visible;fill:#E1E4EA;"/>
					<clipPath id="SVGID_4_">
						<use xlink:href="#SVGID_3_"  style="overflow:visible;"/>
					</clipPath>
					<g class="st46">
						<path class="st44" d="M184.1,110.1l-11.1-6.5c0-0.2,0-0.3,0.1-0.5l11.1,6.5C184.1,109.8,184.1,109.9,184.1,110.1L184.1,110.1z
							"/>
						<path class="st44" d="M184.2,109.6l-11.1-6.5c0-0.1,0.1-0.2,0.1-0.3l11.1,6.5C184.3,109.4,184.2,109.5,184.2,109.6
							L184.2,109.6z"/>
						<path class="st42" d="M184.4,109.3l-11.1-6.5c0.1-0.2,0.2-0.3,0.4-0.4l11.1,6.5C184.6,109,184.5,109.1,184.4,109.3
							L184.4,109.3z"/>
					</g>
				</g>
				<g>
					<path class="st40" d="M187.8,107.1c0.4-0.2,0.6,0,0.6,0.4l0,6.6l0,5l0,0.3l-0.1,0.2l-4.3,2.5l0-0.1l0-0.3l0-5l0-6.6
						c0-0.4,0.3-1,0.6-1.2L187.8,107.1z"/>
				</g>
			</g>
		</g>
		<g>
			<g class="st18">
				<g class="st18">
					<g class="st18">
						<path class="st47" d="M177,125.3c-0.5,0.3-1.1,0.6-1.7,0.8c-1.5,0.5-3.3,0.7-5,0.5l0,1.1c1.7,0.1,3.4,0,5-0.5
							c0.6-0.2,1.2-0.5,1.7-0.8l7.2-4.2l0-1.1L177,125.3z"/>
						<path class="st47" d="M170.3,126.6l0,1.1c-1.6-0.1-3.2-0.6-4.5-1.3c-1.6-0.9-2.3-2.1-2.3-3.2l0-1.1c0,1.2,0.8,2.4,2.3,3.2
							C167.1,126,168.7,126.4,170.3,126.6L170.3,126.6z"/>
					</g>
				</g>
				<g>
					<path class="st48" d="M184.2,121.1l-7.2,4.2c-3.1,1.8-8.1,1.8-11.1,0c-3.1-1.8-3.1-4.7,0-6.5l7.2-4.2L184.2,121.1z"/>
				</g>
			</g>
		</g>
		<g>
			<g class="st18">
				<g>
					<path class="st49" d="M181.2,104c0.5,0.3,0.4,0.8,0,1c-0.5,0.3-1.2,0.3-1.7,0c-0.5-0.3-0.4-0.8,0-1
						C180,103.7,180.8,103.7,181.2,104z"/>
				</g>
				<g>
					<path class="st50" d="M181.2,103.9c0.5,0.3,0.4,0.7,0,1c-0.5,0.3-1.2,0.3-1.7,0c-0.5-0.3-0.4-0.7,0-1
						C180,103.7,180.8,103.7,181.2,103.9z"/>
				</g>
			</g>
		</g>
	</g>
	<path class="st51" d="M184.2,121.1l-7.2,4.2c-3.1,1.8-8.1,1.8-11.1,0c-3.1-1.8-3.1-4.7,0-6.5l7.2-4.2L184.2,121.1z"/>
	<g>
		<g class="st18">
			<g>
				<polygon class="st52" points="183.2,121.7 184.2,121.1 184.2,112.6 183.2,113.1 				"/>
			</g>
			<g class="st18">
				<defs>
					<path id="SVGID_5_" class="st18" d="M174.7,102.5l-1,0.6c1-0.6,2.4-0.5,4,0.4l1-0.6C177.1,102,175.7,102,174.7,102.5z"/>
				</defs>
				<clipPath id="SVGID_6_">
					<use xlink:href="#SVGID_5_"  style="overflow:visible;"/>
				</clipPath>
				<g class="st53">
					<path class="st52" d="M177.6,103.5l1-0.6c-0.6-0.3-1.2-0.6-1.7-0.7l-1,0.6C176.5,102.9,177,103.2,177.6,103.5L177.6,103.5z"/>
					<path class="st52" d="M175.9,102.8l1-0.6c-0.8-0.2-1.6-0.1-2.2,0.2l-1,0.6C174.4,102.7,175.1,102.7,175.9,102.8L175.9,102.8z"
						/>
					<path class="st54" d="M173.8,103.1l1-0.6c0,0-0.1,0-0.1,0.1L173.8,103.1C173.7,103.1,173.7,103.1,173.8,103.1L173.8,103.1z"/>
				</g>
			</g>
			<g class="st18">
				<defs>
					<path id="SVGID_7_" class="st18" d="M183.2,113.1l1-0.6c0-3.5-2.5-7.8-5.6-9.6l-1,0.6C180.7,105.3,183.2,109.6,183.2,113.1z"/>
				</defs>
				<clipPath id="SVGID_8_">
					<use xlink:href="#SVGID_7_"  style="overflow:visible;"/>
				</clipPath>
				<g class="st55">
					<path class="st52" d="M183.2,113.1l1-0.6c0-1.4-0.4-2.8-1-4.2l-1,0.6C182.8,110.3,183.2,111.8,183.2,113.1L183.2,113.1z"/>
					<path class="st52" d="M182.2,108.9l1-0.6c-0.5-1.1-1.1-2.1-1.9-3l-1,0.6C181.1,106.8,181.7,107.8,182.2,108.9L182.2,108.9z"/>
					<path class="st52" d="M180.3,105.9l1-0.6c-0.8-1-1.7-1.8-2.7-2.4l-1,0.6C178.6,104.1,179.5,104.9,180.3,105.9L180.3,105.9z"/>
				</g>
			</g>
			<g>
				<path class="st56" d="M177.6,103.5c-3.1-1.8-5.6-0.4-5.6,3.2l0,8.5l11.2,6.4l0-8.5C183.2,109.6,180.7,105.3,177.6,103.5z"/>
			</g>
		</g>
	</g>
</g>
<g>
	<path class="st39" d="M179.8,121.6l0.9-0.5l-4.5,2.6c-0.8,0.5-1.9,0.8-3.1,1v-7L179.8,121.6z"/>
	<path class="st39" d="M165.3,122c0,0.1,0,0.2,0,0.2C165.3,122.2,165.3,122.1,165.3,122z"/>
	<path class="st57" d="M165.4,122.5c0.2-0.4,0.7-0.8,1.3-1.2l6.3-3.7v7c-0.5,0.1-1,0.1-1.6,0.1c-1.8,0-3.5-0.4-4.7-1.1
		c-0.8-0.4-1.3-1-1.4-1.5C165.4,122.4,165.4,122.4,165.4,122.5z"/>
	<path class="st40" d="M165.3,122.3C165.3,122.3,165.3,122.3,165.3,122.3C165.3,122.3,165.3,122.3,165.3,122.3z"/>
	<path class="st58" d="M166.7,121.3c-0.6,0.4-1.1,0.8-1.3,1.2c0-0.1-0.1-0.2-0.1-0.2c0,0,0,0,0,0c0-0.1,0-0.2,0-0.2
		c0-0.5,0.5-1.2,1.4-1.7l6.3-3.7v1L166.7,121.3z"/>
	<polygon class="st40" points="173,117.7 173,116.7 180.7,121.1 179.8,121.6 	"/>
</g>
<g class="st18">
	<g>
		<polygon class="st59" points="94.6,112.4 95.9,111.7 95.9,95.1 94.6,95.9 		"/>
	</g>
	<g>
		<polygon class="st59" points="94.6,95.9 95.9,95.1 72,81.4 70.7,82.1 		"/>
	</g>
	<g>
		<polygon class="st59" points="70.7,82.1 70.7,98.7 94.6,112.4 94.6,95.9 		"/>
	</g>
</g>
<g class="st18">
	<g>
		<polygon class="st59" points="160,150.2 161.3,149.5 161.3,132.9 160,133.7 		"/>
	</g>
	<g>
		<polygon class="st59" points="160,133.7 161.3,132.9 114.3,106 113,106.8 		"/>
	</g>
	<g>
		<polygon class="st59" points="113,106.8 113,123.3 160,150.2 160,133.7 		"/>
	</g>
</g>
<g class="st18">
	<g>
		<polygon class="st59" points="85.2,90.5 86.5,89.7 86.5,38.6 85.2,39.3 		"/>
	</g>
	<g>
		<polygon class="st59" points="85.2,39.3 86.5,38.6 72,30.2 70.7,31 		"/>
	</g>
	<g>
		<polygon class="st59" points="70.7,31 70.7,82.1 85.2,90.5 85.2,39.3 		"/>
	</g>
</g>
<g>
	<path class="st50" d="M164.9,100.9c0.3-0.2,0.6,0,0.6,0.4c0,0.4-0.3,0.9-0.6,1.1c-0.3,0.2-0.6,0-0.6-0.4
		C164.3,101.5,164.5,101.1,164.9,100.9z"/>
</g>
<g>
	<g>
		<polygon class="st60" points="160.8,98.5 160.8,99.2 161.9,98.6 161.9,97.9 		"/>
	</g>
	<polygon class="st61" points="163.2,100.6 159.6,98.5 159.6,99.2 163.2,101.2 	"/>
	<polygon class="st62" points="163.2,99.9 160.8,98.5 161.9,97.9 161.2,97.5 159.6,98.5 163.2,100.6 	"/>
</g>
<g>
	<g class="st18">
		<path class="st63" d="M167,99.9l-3.8-2.2c0,0,0,0,0,0L167,99.9C167,99.9,167,99.9,167,99.9L167,99.9z"/>
		<path class="st44" d="M164,102.7c0-0.1,0-0.2,0.1-0.3c0,0,0,0,0,0c0-0.1,0.1-0.2,0.1-0.3c0,0,0,0,0-0.1c0-0.1,0.1-0.2,0.1-0.3
			c0,0,0,0,0-0.1c0-0.1,0.1-0.1,0.1-0.2c0,0,0-0.1,0-0.1c0-0.1,0.1-0.1,0.1-0.1c0,0,0-0.1,0.1-0.1c0,0,0.1-0.1,0.1-0.1
			c0,0,0-0.1,0.1-0.1c0-0.1,0.1-0.1,0.1-0.2c0,0,0,0,0-0.1c0.1-0.1,0.1-0.1,0.2-0.2c0,0,0,0,0,0c0,0,0.1-0.1,0.1-0.1
			c0,0,0,0,0.1-0.1c0,0,0.1-0.1,0.1-0.1c0,0,0,0,0.1,0c0.1,0,0.1-0.1,0.2-0.1c0.1,0,0.1-0.1,0.2-0.1c0,0,0,0,0,0c0,0,0.1,0,0.1,0
			c0,0,0,0,0,0c0,0,0.1,0,0.1,0c0,0,0,0,0,0c0,0,0,0,0,0c0,0,0.1,0,0.1,0c0,0,0,0,0.1,0c0,0,0.1,0,0.1,0c0,0,0,0,0.1,0
			c0,0,0.1,0,0.1,0c0,0,0,0,0.1,0c0,0,0.1,0,0.1,0c0,0,0,0,0.1,0l-3.8-2.2c0,0,0,0,0,0l0,0c0,0,0,0,0,0c0,0-0.1,0-0.1,0
			c0,0,0,0-0.1,0c0,0-0.1,0-0.1,0c0,0,0,0-0.1,0c0,0-0.1,0-0.1,0c0,0,0,0-0.1,0c0,0-0.1,0-0.1,0c0,0,0,0,0,0c0,0,0,0,0,0
			c0,0,0,0,0,0c0,0-0.1,0-0.1,0c0,0,0,0,0,0c0,0-0.1,0-0.1,0c0,0,0,0,0,0c-0.1,0-0.1,0.1-0.2,0.1c-0.1,0-0.1,0.1-0.2,0.1
			c0,0,0,0-0.1,0c0,0-0.1,0.1-0.1,0.1c0,0,0,0-0.1,0.1c0,0-0.1,0.1-0.1,0.1c0,0,0,0,0,0c-0.1,0.1-0.1,0.1-0.2,0.2c0,0,0,0,0,0
			c0,0,0,0,0,0c0,0.1-0.1,0.1-0.1,0.2c0,0,0,0.1-0.1,0.1c0,0-0.1,0.1-0.1,0.1c0,0,0,0.1-0.1,0.1c0,0-0.1,0.1-0.1,0.1
			c0,0,0,0.1,0,0.1c0,0.1-0.1,0.1-0.1,0.2c0,0,0,0,0,0.1c0,0,0,0,0,0c0,0.1-0.1,0.2-0.1,0.3c0,0,0,0,0,0.1c0,0.1-0.1,0.2-0.1,0.3
			c0,0,0,0,0,0c0,0.1,0,0.2-0.1,0.3c0,0,0,0,0,0.1c0,0.1,0,0.2,0,0.3c0,0.2,0,0.4,0.1,0.6c0.1,0.3,0.2,0.5,0.4,0.6l3.8,2.2
			c-0.3-0.2-0.5-0.6-0.5-1.1C164,103,164,102.9,164,102.7C164,102.8,164,102.7,164,102.7z"/>
		<g>
			<path class="st42" d="M165.8,100c1-0.6,1.8-0.1,1.8,1c0,1.1-0.8,2.5-1.8,3.1c-1,0.6-1.8,0.1-1.8-1C164,102,164.8,100.6,165.8,100
				z"/>
		</g>
		<g>
			<path class="st50" d="M165.8,101.4c0.3-0.2,0.6,0,0.6,0.4s-0.3,0.9-0.6,1.1c-0.3,0.2-0.6,0-0.6-0.4
				C165.2,102,165.4,101.5,165.8,101.4z"/>
		</g>
	</g>
</g>
<polygon class="st60" points="167.1,102.9 167.1,103.5 168.8,102.5 168.8,101.9 "/>
<g>
	<polygon class="st62" points="168.1,101.5 167,102.1 165.8,101.4 165.8,102.1 167.1,102.9 168.8,101.9 	"/>
	<g>
		<polygon class="st61" points="165.8,102.7 167.1,103.5 167.1,102.9 165.8,102.1 		"/>
		<path class="st61" d="M166.2,102.3l-0.9-0.5c-0.1,0.2-0.2,0.4-0.2,0.6l0.6,0.4C165.9,102.7,166.1,102.5,166.2,102.3z"/>
	</g>
	<path class="st62" d="M165.7,101.4c-0.2,0.1-0.3,0.3-0.4,0.5l0.9,0.5c0.1-0.2,0.2-0.4,0.2-0.6L165.7,101.4z"/>
</g>
<g>
	<g>
		<g class="st18">
			<g>
				<polygon class="st60" points="122.4,72.9 122.4,73.6 123.7,72.9 123.7,72.1 				"/>
			</g>
			<g>
				<polygon class="st60" points="130.1,78.2 130.1,79 132.2,77.8 132.2,77 				"/>
			</g>
			<g>
				<polygon class="st61" points="120.8,72.8 120.8,73.6 130.1,79 130.1,78.2 				"/>
			</g>
			<g>
				<polygon class="st62" points="120.8,72.8 130.1,78.2 132.2,77 131.4,76.6 130.1,77.3 122.4,72.9 123.7,72.1 122.9,71.6 				"/>
			</g>
		</g>
	</g>
</g>
<g>
	<g>
		<polygon class="st64" points="121.7,73.4 121.7,83.8 129.3,88.2 129.3,77.8 		"/>
	</g>
	<g>
		<polygon class="st65" points="121.7,73.4 129.3,77.8 130,77.3 122.5,72.9 		"/>
	</g>
</g>
<g class="st18">
	<path class="st66" d="M154.9,72C154.9,71.9,154.9,71.9,154.9,72c0.1-0.1,0.1-0.2,0.2-0.2c0,0,0-0.1,0.1-0.1c0-0.1,0.1-0.1,0.1-0.2
		c0,0,0,0,0-0.1c0-0.1,0.1-0.2,0.1-0.3c0,0,0,0,0,0c0-0.1,0.1-0.2,0.1-0.2c0,0,0-0.1,0-0.1c0-0.1,0.1-0.1,0.1-0.2c0,0,0-0.1,0-0.1
		c0-0.1,0-0.2,0.1-0.2c0,0,0-0.1,0-0.1c0-0.1,0.1-0.2,0.1-0.3c0,0,0,0,0-0.1c0-0.1,0-0.1,0-0.2c0,0,0,0,0-0.1c0,0,0-0.1,0-0.1
		c0-0.1,0-0.2,0-0.2c0,0,0-0.1,0-0.1c0-0.1,0-0.2,0-0.3c0,0,0-0.1,0-0.1c0-0.1,0-0.3,0-0.4c0-0.1,0-0.3,0-0.4c0,0,0-0.1,0-0.1
		c0-0.1,0-0.2,0-0.3c0,0,0,0,0,0c0-0.2,0-0.4-0.1-0.5c0-0.1,0-0.1,0-0.2c0-0.1,0-0.3-0.1-0.4c0-0.1,0-0.1,0-0.2
		c0-0.2-0.1-0.3-0.1-0.5c0,0,0,0,0-0.1c0-0.2-0.1-0.4-0.1-0.6c0,0,0,0,0-0.1c0,0,0-0.1,0-0.1c0-0.1-0.1-0.3-0.1-0.4
		c0-0.1,0-0.1-0.1-0.2c-0.1-0.2-0.1-0.3-0.2-0.5c0,0,0,0,0-0.1c-0.1-0.2-0.1-0.4-0.2-0.6c0-0.1,0-0.1-0.1-0.2
		c-0.1-0.1-0.1-0.3-0.2-0.4c0-0.1-0.1-0.1-0.1-0.2c-0.1-0.2-0.1-0.3-0.2-0.5c0,0,0-0.1,0-0.1c-0.1-0.2-0.2-0.4-0.3-0.5
		c0,0-0.1-0.1-0.1-0.1c-0.1-0.1-0.1-0.3-0.2-0.4c0-0.1-0.1-0.1-0.1-0.2c-0.1-0.1-0.2-0.3-0.3-0.4c0,0,0-0.1,0-0.1
		c-0.1-0.2-0.2-0.3-0.3-0.5c0,0-0.1-0.1-0.1-0.1c-0.1-0.1-0.2-0.2-0.3-0.4c0,0-0.1-0.1-0.1-0.1c-0.1-0.1-0.2-0.3-0.3-0.4
		c0,0,0,0-0.1-0.1c-0.1-0.2-0.3-0.3-0.4-0.4c0,0-0.1-0.1-0.1-0.1c-0.1-0.1-0.2-0.2-0.3-0.3c0,0-0.1-0.1-0.1-0.1
		c-0.1-0.1-0.2-0.2-0.4-0.3c0,0,0,0-0.1-0.1c-0.1-0.1-0.3-0.3-0.4-0.4c0,0-0.1-0.1-0.1-0.1c-0.1-0.1-0.2-0.2-0.3-0.3
		c0,0-0.1,0-0.1-0.1c0,0-0.1,0-0.1-0.1c0,0-0.1-0.1-0.1-0.1c-0.1-0.1-0.1-0.1-0.2-0.2c0,0-0.1-0.1-0.1-0.1c-0.1-0.1-0.2-0.1-0.2-0.2
		c0,0-0.1-0.1-0.1-0.1c-0.1-0.1-0.2-0.1-0.4-0.2c-0.1-0.1-0.2-0.1-0.4-0.2c0,0-0.1,0-0.1-0.1c-0.1,0-0.1-0.1-0.2-0.1c0,0,0,0,0,0
		c-0.1-0.1-0.3-0.1-0.4-0.2c0,0-0.1,0-0.1,0c-0.1,0-0.2-0.1-0.4-0.1c0,0-0.1,0-0.1,0c-0.1,0-0.2-0.1-0.3-0.1c0,0-0.1,0-0.1,0
		c-0.1,0-0.3-0.1-0.4-0.1c0,0,0,0,0,0c0,0-0.1,0-0.1,0c-0.1,0-0.2,0-0.3,0c0,0-0.1,0-0.1,0c-0.1,0-0.1,0-0.2,0c0,0-0.1,0-0.1,0
		c-0.1,0-0.1,0-0.2,0c0,0-0.1,0-0.1,0c-0.1,0-0.1,0-0.2,0c0,0-0.1,0-0.1,0c-0.1,0-0.1,0-0.2,0c0,0-0.1,0-0.1,0c-0.1,0-0.1,0-0.2,0.1
		c0,0-0.1,0-0.1,0c-0.1,0-0.1,0.1-0.2,0.1c0,0-0.1,0-0.1,0c-0.1,0-0.2,0.1-0.3,0.1l-0.6,0.4c0.1-0.1,0.2-0.1,0.3-0.1
		c0,0,0.1,0,0.1,0c0.1,0,0.1-0.1,0.2-0.1c0,0,0.1,0,0.1,0c0.1,0,0.1,0,0.2-0.1c0,0,0.1,0,0.1,0c0.1,0,0.1,0,0.2,0c0,0,0.1,0,0.1,0
		c0.1,0,0.1,0,0.2,0c0,0,0.1,0,0.1,0c0.1,0,0.1,0,0.2,0c0,0,0.1,0,0.1,0c0.1,0,0.1,0,0.2,0c0,0,0.1,0,0.1,0c0.1,0,0.2,0,0.3,0
		c0,0,0.1,0,0.1,0c0.1,0,0.3,0,0.4,0.1c0,0,0.1,0,0.1,0c0.1,0,0.2,0.1,0.3,0.1c0,0,0.1,0,0.1,0c0.1,0,0.2,0.1,0.4,0.1
		c0,0,0.1,0,0.1,0c0.1,0.1,0.3,0.1,0.4,0.2c0.1,0,0.2,0.1,0.2,0.1c0,0,0.1,0,0.1,0.1c0.1,0.1,0.2,0.1,0.4,0.2
		c0.1,0.1,0.2,0.1,0.4,0.2c0,0,0.1,0.1,0.1,0.1c0.1,0.1,0.2,0.1,0.2,0.2c0,0,0.1,0.1,0.1,0.1c0.1,0.1,0.1,0.1,0.2,0.2
		c0,0,0.1,0.1,0.1,0.1c0.1,0,0.1,0.1,0.2,0.1c0.1,0.1,0.2,0.2,0.3,0.3c0,0,0.1,0.1,0.1,0.1c0.1,0.1,0.3,0.3,0.4,0.4c0,0,0,0,0.1,0.1
		c0.1,0.1,0.2,0.2,0.4,0.3c0,0,0.1,0.1,0.1,0.1c0.1,0.1,0.2,0.2,0.3,0.3c0,0,0.1,0.1,0.1,0.1c0.1,0.1,0.3,0.3,0.4,0.4
		c0,0,0,0,0.1,0.1c0.1,0.1,0.2,0.3,0.3,0.4c0,0,0.1,0.1,0.1,0.1c0.1,0.1,0.2,0.2,0.3,0.4c0,0,0.1,0.1,0.1,0.1
		c0.1,0.2,0.2,0.3,0.3,0.5c0,0,0,0.1,0,0.1c0.1,0.1,0.2,0.3,0.3,0.4c0,0.1,0.1,0.1,0.1,0.2c0.1,0.1,0.2,0.3,0.2,0.4
		c0,0,0.1,0.1,0.1,0.1c0.1,0.2,0.2,0.4,0.3,0.5c0,0,0,0.1,0,0.1c0.1,0.2,0.2,0.3,0.2,0.5c0,0.1,0.1,0.1,0.1,0.2
		c0.1,0.1,0.1,0.3,0.2,0.4c0,0.1,0,0.1,0.1,0.2c0.1,0.2,0.1,0.4,0.2,0.6c0,0,0,0.1,0,0.1c0.1,0.2,0.1,0.3,0.2,0.5
		c0,0.1,0,0.1,0.1,0.2c0,0.1,0.1,0.3,0.1,0.4c0,0.1,0,0.1,0,0.2c0.1,0.2,0.1,0.4,0.1,0.6c0,0,0,0,0,0.1c0,0.2,0.1,0.3,0.1,0.5
		c0,0.1,0,0.1,0,0.2c0,0.1,0,0.3,0.1,0.4c0,0.1,0,0.1,0,0.2c0,0.2,0,0.4,0.1,0.5c0,0.1,0,0.2,0,0.3c0,0,0,0.1,0,0.1
		c0,0.1,0,0.3,0,0.4c0,0.1,0,0.3,0,0.4c0,0,0,0.1,0,0.1c0,0.1,0,0.2,0,0.3c0,0,0,0.1,0,0.1c0,0.1,0,0.2,0,0.2c0,0,0,0.1,0,0.1
		c0,0.1,0,0.2,0,0.3c0,0,0,0,0,0.1c0,0.1,0,0.2-0.1,0.3c0,0,0,0.1,0,0.1c0,0.1,0,0.2-0.1,0.2c0,0,0,0.1,0,0.1c0,0.1,0,0.1-0.1,0.2
		c0,0,0,0.1,0,0.1c0,0.1-0.1,0.2-0.1,0.2c0,0,0,0,0,0c0,0.1-0.1,0.2-0.1,0.3c0,0,0,0,0,0.1c0,0.1-0.1,0.1-0.1,0.2c0,0,0,0.1-0.1,0.1
		c0,0.1-0.1,0.1-0.1,0.2c0,0,0,0-0.1,0.1c-0.1,0.1-0.1,0.1-0.2,0.2c0,0,0,0,0,0c-0.1,0.1-0.1,0.1-0.2,0.2c0,0,0,0-0.1,0.1
		c0,0-0.1,0.1-0.1,0.1c0,0,0,0-0.1,0.1c0,0-0.1,0.1-0.1,0.1c0,0,0,0-0.1,0c-0.1,0.1-0.1,0.1-0.2,0.1l0.6-0.4c0.1,0,0.2-0.1,0.2-0.1
		c0,0,0,0,0.1,0c0.1,0,0.1-0.1,0.1-0.1c0,0,0,0,0.1-0.1c0,0,0.1-0.1,0.1-0.1c0,0,0,0,0.1-0.1c0.1-0.1,0.1-0.1,0.2-0.2c0,0,0,0,0,0
		C154.8,72.1,154.8,72,154.9,72z"/>
	<g>
		<path class="st67" d="M147.9,55.6c4.1,2.4,7.5,8.2,7.5,12.9c0,4.7-3.4,6.7-7.5,4.3s-7.5-8.2-7.5-12.9
			C140.4,55.1,143.8,53.2,147.9,55.6z"/>
		<path class="st68" d="M151.2,72.9c-0.9,0-1.9-0.3-2.9-0.9c-3.9-2.2-7-7.7-7-12.2c0-2.8,1.2-4.4,3.3-4.4c0.9,0,1.9,0.3,2.9,0.9
			c3.9,2.2,7,7.7,7,12.2C154.5,71.3,153.2,72.9,151.2,72.9z"/>
	</g>
</g>
<g>
	<g>
		<polygon class="st16" points="152.9,111.2 152.9,111.7 141.5,118.3 141.6,117.8 		"/>
	</g>
	<g>
		<polygon class="st11" points="141.6,117.8 141.5,118.3 130.1,111.7 130.1,111.2 		"/>
	</g>
	<polygon class="st9" points="152.9,111.2 141.6,117.8 130.1,111.2 141.5,104.6 	"/>
</g>
<g>
	<g>
		<polygon class="st16" points="145.6,87.5 145.6,111.6 141.5,114 141.5,89.8 		"/>
	</g>
	<g>
		<polygon class="st11" points="141.5,89.8 141.5,114 137.4,111.6 137.4,87.5 		"/>
	</g>
	<polygon class="st9" points="145.6,87.5 141.5,89.8 137.4,87.5 141.5,85.1 	"/>
</g>
<path class="st44" d="M127.8,85.5l0-3.8c0,2,1.3,4.1,4,5.6l0,3.8C129.1,89.6,127.8,87.6,127.8,85.5z"/>
<g>
	<path class="st16" d="M152.9,88.6c-0.2,0.1-0.4,0.2-0.6,0.3c-0.1,0-0.1,0.1-0.2,0.1c-0.2,0.1-0.3,0.1-0.5,0.2
		c-0.1,0-0.1,0.1-0.2,0.1c-0.2,0.1-0.4,0.2-0.6,0.2c0,0-0.1,0-0.1,0c-0.2,0.1-0.4,0.2-0.7,0.2c-5.2,1.7-11.9,1.3-16.3-1.3l-1.9-1.1
		c-2.7-1.6-4-3.6-4-5.6l0,3.8c0,2,1.3,4.1,4,5.6l1.9,1.1c4.4,2.6,11.1,3,16.3,1.3v0c0,0,0,0,0.1,0c0.2-0.1,0.5-0.2,0.7-0.2
		c0,0,0.1,0,0.1,0c0.2-0.1,0.4-0.1,0.6-0.2c0.1,0,0.1-0.1,0.2-0.1c0.2-0.1,0.3-0.1,0.5-0.2c0.1,0,0.1-0.1,0.2-0.1
		c0.2-0.1,0.4-0.2,0.6-0.3l5.3-3.1l0-3.8L152.9,88.6z"/>
</g>
<path class="st69" d="M158.1,85.5l-5.5,3.2c-5.3,3-13.8,3-19.1-0.1l-1.9-1.1c-5.3-3.1-5.4-8-0.2-11.1l5.3-3.1L158.1,85.5z"/>
<path class="st12" d="M143.4,88.9c-3.3,0-6.4-0.7-8.7-2.1l-1.9-1.1c-2-1.1-3.1-2.6-3.1-4c0-1.4,1-2.8,2.9-3.9l4.3-2.5l17.6,10.1
	l-2.5,1.4C149.7,88.2,146.6,88.9,143.4,88.9z"/>
<path class="st11" d="M132.5,79.7l4.3-2.5l16,9.2l1.5-0.9l-17.6-10.1l-4.3,2.5c-1.9,1.1-2.9,2.5-2.9,3.9c0,0.3,0.1,0.6,0.1,0.9
	C130.1,81.6,131.1,80.5,132.5,79.7z"/>
<g>
	<g class="st18">
		<g>
			<polygon class="st70" points="146.2,74.8 145.4,74.3 145.4,79.2 146.2,79.7 			"/>
		</g>
		<g class="st18">
			<g>
				<path class="st70" d="M145.8,74.1l-0.8-0.5c0.2,0.1,0.3,0.3,0.3,0.5l0.8,0.5C146.1,74.5,146,74.2,145.8,74.1L145.8,74.1z"/>
				<path class="st70" d="M146.1,74.6l-0.8-0.5c0,0.1,0,0.1,0,0.2l0.8,0.5C146.2,74.8,146.2,74.7,146.1,74.6L146.1,74.6z"/>
			</g>
		</g>
		<g>
			<polygon class="st71" points="144.2,76.5 143.4,76 143.3,76 144.1,76.5 			"/>
		</g>
		<g>
			<polygon class="st70" points="143.4,76.9 142.6,76.5 142.6,76.8 143.4,77.3 			"/>
		</g>
		<g>
			<polygon class="st71" points="143.5,76.9 142.7,76.4 142.6,76.5 143.4,76.9 			"/>
		</g>
		<g>
			<defs>
				<path id="SVGID_9_" d="M146.3,73.3l-0.8-0.5c-0.3-0.1-0.6-0.2-1.1,0.1l0.8,0.5C145.6,73.2,146,73.2,146.3,73.3z"/>
			</defs>
			<use xlink:href="#SVGID_9_"  style="overflow:visible;fill:#9ED7E2;"/>
			<clipPath id="SVGID_10_">
				<use xlink:href="#SVGID_9_"  style="overflow:visible;"/>
			</clipPath>
			<g class="st72">
				<path class="st73" d="M146.3,73.3l-0.8-0.5c-0.1-0.1-0.3-0.1-0.4-0.1l0.8,0.5C146,73.2,146.2,73.3,146.3,73.3L146.3,73.3z"/>
				<path class="st73" d="M145.8,73.2l-0.8-0.5c-0.1,0-0.2,0-0.3,0.1l0.8,0.5C145.6,73.3,145.7,73.3,145.8,73.2L145.8,73.2z"/>
				<path class="st73" d="M145.5,73.3l-0.8-0.5c-0.1,0-0.2,0.1-0.4,0.2l0.8,0.5C145.3,73.4,145.4,73.4,145.5,73.3L145.5,73.3z"/>
			</g>
		</g>
		<g class="st18">
			<defs>
				<path id="SVGID_11_" class="st18" d="M145.1,73.5l-0.8-0.5c-0.1,0-0.1,0.1-0.2,0.1c-0.4,0.3-0.7,0.7-1,1.1
					c-0.4,0.8-0.5,1.7-0.5,2.1l0.8,0.5c0-0.4,0-1.3,0.5-2.1c0.2-0.5,0.6-0.9,1-1.1C145,73.6,145.1,73.5,145.1,73.5z"/>
			</defs>
			<use xlink:href="#SVGID_11_"  style="overflow:visible;fill:#9ED7E2;"/>
			<clipPath id="SVGID_12_">
				<use xlink:href="#SVGID_11_"  style="overflow:visible;"/>
			</clipPath>
			<g class="st74">
				<path class="st75" d="M145.1,73.5l-0.8-0.5c0,0,0,0,0,0L145.1,73.5C145.1,73.5,145.1,73.5,145.1,73.5L145.1,73.5z"/>
				<path class="st73" d="M145.1,73.5l-0.8-0.5c0,0-0.1,0.1-0.1,0.1c-0.1,0.1-0.2,0.1-0.2,0.2l0.8,0.5c0.1-0.1,0.2-0.1,0.2-0.2
					C145,73.6,145.1,73.5,145.1,73.5L145.1,73.5z"/>
				<path class="st73" d="M144.7,73.8l-0.8-0.5c-0.3,0.3-0.5,0.6-0.7,1c-0.1,0.2-0.2,0.4-0.2,0.6l0.8,0.5c0.1-0.2,0.1-0.4,0.2-0.6
					C144.2,74.3,144.4,74,144.7,73.8L144.7,73.8z"/>
				<path class="st73" d="M143.8,75.3l-0.8-0.5c-0.1,0.2-0.1,0.5-0.2,0.7l0.8,0.5C143.6,75.8,143.7,75.6,143.8,75.3L143.8,75.3z"/>
				<path class="st73" d="M143.6,76l-0.8-0.5c-0.1,0.4-0.1,0.7-0.1,0.8l0.8,0.5C143.5,76.7,143.5,76.4,143.6,76L143.6,76z"/>
				<polygon class="st76" points="143.5,76.9 142.7,76.4 142.7,76.4 143.5,76.9 143.5,76.9 				"/>
			</g>
		</g>
		<g>
			<path class="st77" d="M145.1,73.5c-0.1,0-0.1,0.1-0.2,0.1c-0.4,0.3-0.7,0.7-1,1.1c-0.4,0.8-0.5,1.7-0.5,2.1l-0.1,0.1l0,0.4
				l0.8-0.5l0-0.4l-0.1,0.1c0-0.4,0-1,0.3-1.6c0.1-0.3,0.3-0.5,0.6-0.6c0,0,0.1,0,0.1-0.1c0.9-0.5,1,0.4,1,0.6l0,4.9l0.6-0.4l0-4.9
				l0,0C146.8,73.8,146.4,72.8,145.1,73.5z"/>
		</g>
	</g>
</g>
<path class="st78" d="M142,87.1c0.1-0.7-0.5-1.4-1.5-1.5c-0.9-0.2-1.8,0.2-2,0.9c-0.1,0.7,0.5,1.4,1.5,1.5
	C140.9,88.1,141.8,87.7,142,87.1z"/>
<g>
	<g>
		<g class="st18">
			<g>
				<polygon class="st79" points="35.4,136.7 36.6,136 36.6,140.2 35.4,140.9 				"/>
			</g>
			<g>
				<polygon class="st80" points="34.1,135.9 35.2,135.2 36.6,136 35.4,136.7 				"/>
			</g>
			<g>
				<polygon class="st81" points="35.4,136.7 35.4,140.9 34,140.1 34.1,135.9 				"/>
			</g>
		</g>
	</g>
	<g>
		<g class="st18">
			<g>
				<polygon class="st82" points="74.6,114.1 75.8,113.4 75.8,117.6 74.6,118.3 				"/>
			</g>
			<g>
				<polygon class="st80" points="73.3,113.3 74.5,112.6 75.8,113.4 74.6,114.1 				"/>
			</g>
			<g>
				<polygon class="st81" points="74.6,114.1 74.6,118.3 73.3,117.5 73.3,113.3 				"/>
			</g>
		</g>
	</g>
	<g>
		<g class="st18">
			<g>
				<polygon class="st81" points="19.1,127.3 20.3,126.6 20.3,130.8 19.1,131.5 				"/>
			</g>
			<g>
				<polygon class="st80" points="17.8,126.5 18.9,125.8 20.3,126.6 19.1,127.3 				"/>
			</g>
			<g>
				<polygon class="st83" points="19.1,127.3 19.1,131.5 17.7,130.7 17.8,126.5 				"/>
			</g>
		</g>
	</g>
	<g>
		<g class="st18">
			<g>
				<polygon class="st84" points="58.5,88 59.9,87.2 59.9,88.9 58.5,89.7 				"/>
			</g>
			<g>
				<polygon class="st85" points="57,87.1 58.4,86.3 60.1,87.2 58.6,88.1 				"/>
			</g>
			<g>
				<polygon class="st85" points="72.8,96.4 59.9,88.9 58.5,89.7 72.7,98.1 72.8,98 				"/>
			</g>
			<g>
				<polygon class="st82" points="74.4,99.1 75.8,98.2 75.8,115.9 74.4,116.7 				"/>
			</g>
			<g>
				<polygon class="st82" points="74.4,85.4 75.8,84.6 75.8,98.2 74.4,99.1 				"/>
			</g>
			<g>
				<polygon class="st85" points="72.7,84.4 74.2,83.6 75.8,84.6 74.4,85.4 				"/>
			</g>
			<g>
				<polygon class="st79" points="74.4,85.4 74.4,99.1 74.4,116.7 56.8,106.4 56.8,88.7 56.8,87 58.5,88 58.5,89.7 72.7,98.1 
					72.7,84.4 				"/>
			</g>
		</g>
	</g>
	<g>
		<g class="st18">
			<g>
				<polygon class="st86" points="74.4,112.5 74.4,116.7 35.3,139.5 35.3,135.4 				"/>
			</g>
			<g>
				<polygon class="st87" points="74.4,112.5 35.3,135.4 17.8,125.1 56.8,102.2 				"/>
			</g>
		</g>
	</g>
	<g>
		<g class="st18">
			<g>
				<polygon class="st86" points="74.4,108.5 74.4,112.6 35.3,135.5 35.3,131.3 				"/>
			</g>
			<g>
				<polygon class="st88" points="74.4,108.5 35.3,131.3 17.8,121 56.8,98.2 				"/>
			</g>
		</g>
	</g>
	<g>
		<g class="st18">
			<g>
				<polygon class="st89" points="74.4,108.5 74.4,110.4 35.3,133.2 35.3,131.3 				"/>
			</g>
			<g>
				<polygon class="st90" points="58,118 35.3,131.3 35.3,133.2 58,120 				"/>
			</g>
			<g>
				<path class="st91" d="M18,121.1c0.1,0.1,0.1,0.1,0.1,0.2c0,0.1,0,0.1,0,0.2h0v1.6l17.2,10.1l0-1.9L18,121.1z"/>
			</g>
			<g>
				<polygon class="st92" points="74.4,108.5 35.3,131.3 17.7,121 56.8,98.2 				"/>
			</g>
			<g>
				<polygon class="st93" points="58,118 35.3,131.3 17.7,121 40.4,107.8 				"/>
			</g>
		</g>
	</g>
	<g>
		<g class="st18">
			<g>
				<polygon class="st90" points="70.7,103.9 70.7,107.7 61.8,113.1 61.8,111.3 				"/>
			</g>
			<g>
				<polygon class="st90" points="61.8,111.3 61.8,113.1 49.2,105.8 49.2,105.1 				"/>
			</g>
			<g>
				<polygon class="st94" points="70.7,103.9 61.8,112.4 49.2,105.1 58.1,96.6 				"/>
			</g>
		</g>
	</g>
	<g>
		<g class="st18">
			<g>
				<polygon class="st84" points="19.5,96.6 20.9,95.7 20.9,117.6 19.5,118.4 				"/>
			</g>
			<g>
				<polygon class="st85" points="17.8,95.6 19.2,94.8 20.9,95.7 19.5,96.6 				"/>
			</g>
			<g>
				<polygon class="st85" points="34.1,125.3 20.9,117.6 19.5,118.4 33.7,126.8 34.1,126.5 				"/>
			</g>
			<polygon class="st82" points="35.4,105.9 35.4,127.7 35.4,139.5 36.8,138.7 36.8,126.9 36.8,105.1 			"/>
			<g>
				<polygon class="st85" points="33.7,104.9 35.1,104.1 36.8,105.1 35.4,105.9 				"/>
			</g>
			<polygon class="st79" points="33.7,104.9 33.7,126.8 19.5,118.4 19.5,96.6 17.8,95.6 17.8,117.4 17.7,125.2 17.7,129.3 
				35.3,139.5 35.3,135.4 35.3,135.3 35.3,133.4 35.4,133.4 35.4,127.7 35.4,105.9 			"/>
		</g>
	</g>
</g>
<g>
	<g>
		<g class="st18">
			<g>
				<polygon class="st82" points="74.7,85.5 75.9,84.8 75.9,89 74.7,89.7 				"/>
			</g>
			<g>
				<polygon class="st80" points="73.3,84.7 74.5,84 75.9,84.8 74.7,85.5 				"/>
			</g>
			<g>
				<polygon class="st81" points="74.7,85.5 74.7,89.7 73.3,89 73.3,84.7 				"/>
			</g>
		</g>
	</g>
	<g>
		<g class="st18">
			<g>
				<polygon class="st84" points="58.6,59.4 60,58.6 60,60.3 58.6,61.2 				"/>
			</g>
			<g>
				<polygon class="st85" points="57,58.5 58.4,57.7 60.1,58.7 58.7,59.5 				"/>
			</g>
			<g>
				<polygon class="st85" points="58.6,61.2 60,60.3 74.2,68.7 72.8,69.5 				"/>
			</g>
			<g>
				<polygon class="st82" points="74.5,70.5 75.9,69.7 75.9,87.3 74.4,88.2 				"/>
			</g>
			<g>
				<polygon class="st79" points="74.5,68.7 75.9,67.9 75.9,69.7 74.5,70.5 				"/>
			</g>
			<g>
				<polygon class="st85" points="72.8,67.8 74.2,66.9 75.9,67.9 74.5,68.7 				"/>
			</g>
			<g>
				<polygon class="st79" points="74.5,68.7 74.5,70.5 74.4,88.2 56.8,77.9 56.9,60.2 56.9,58.4 58.6,59.4 58.6,61.2 72.8,69.5 
					72.8,67.8 				"/>
			</g>
		</g>
	</g>
	<g>
		<g class="st18">
			<g>
				<polygon class="st86" points="74.4,84 74.4,88.2 35.4,111 35.4,106.8 				"/>
			</g>
			<g>
				<polygon class="st87" points="74.4,84 35.4,106.8 17.8,96.5 56.9,73.7 				"/>
			</g>
		</g>
	</g>
	<g>
		<g class="st18">
			<g>
				<polygon class="st86" points="74.4,79.9 74.4,84.1 35.4,106.9 35.4,102.7 				"/>
			</g>
			<g>
				<polygon class="st88" points="74.4,79.9 35.4,102.7 17.8,92.4 56.9,69.6 				"/>
			</g>
		</g>
	</g>
	<g>
		<g class="st18">
			<g>
				<polygon class="st89" points="74.4,79.9 74.4,81.8 35.4,104.6 35.4,102.7 				"/>
			</g>
			<g>
				<polygon class="st90" points="58.1,89.5 35.4,102.7 35.4,104.6 58.1,91.4 				"/>
			</g>
			<g>
				<polygon class="st91" points="18,92.5 18,94.4 35.4,104.6 35.4,102.7 				"/>
			</g>
			<g>
				<polygon class="st92" points="74.4,79.9 35.4,102.7 17.8,92.4 56.8,69.6 				"/>
			</g>
			<g>
				<polygon class="st93" points="58,89.5 35.4,102.7 17.8,92.4 40.4,79.2 				"/>
			</g>
		</g>
	</g>
	<g>
		<g class="st18">
			<g>
				<polygon class="st90" points="70.7,75.3 70.7,79.1 61.8,84.5 61.8,82.7 				"/>
			</g>
			<g>
				<polygon class="st90" points="61.8,82.7 61.8,84.5 49.2,77.2 49.2,76.6 				"/>
			</g>
			<g>
				<polygon class="st94" points="70.7,75.3 61.8,83.9 49.2,76.6 58.1,68 				"/>
			</g>
		</g>
	</g>
	<g>
		<g class="st18">
			<g>
				<polygon class="st84" points="19.5,88.1 20.9,87.3 20.9,89 19.5,89.9 				"/>
			</g>
			<g>
				<polygon class="st85" points="17.8,87.1 19.3,86.3 20.9,87.3 19.5,88.1 				"/>
			</g>
			<g>
				<polygon class="st85" points="19.5,89.9 20.9,89 35.2,97.4 33.7,98.2 				"/>
			</g>
			<polygon class="st82" points="35.4,97.4 35.4,99.2 35.4,111 36.8,110.1 36.9,98.3 36.9,96.6 			"/>
			<g>
				<polygon class="st85" points="33.8,96.5 35.2,95.6 36.9,96.6 35.4,97.4 				"/>
			</g>
			<polygon class="st79" points="33.8,96.5 33.7,98.2 19.5,89.9 19.5,88.1 17.8,87.1 17.8,88.9 17.8,92.4 17.8,92.4 17.8,94.4 
				17.8,94.5 17.8,94.5 17.8,96.6 17.8,96.6 17.8,100.7 35.4,111 35.4,106.8 35.4,106.8 35.4,104.8 35.4,104.8 35.4,99.2 35.4,97.4 
							"/>
		</g>
	</g>
</g>
<g>
	<g>
		<polygon class="st95" points="43,138.1 74.2,156 115.1,132.5 84,114.4 		"/>
	</g>
</g>
<polygon class="st96" points="47.2,140.5 43,138.1 84,114.4 88.1,116.8 "/>
<polygon class="st96" points="56.3,145.8 52.2,143.4 93.2,119.7 97.3,122.1 "/>
<polygon class="st96" points="64.5,150.5 60.3,148 101.3,124.4 105.4,126.8 "/>
<polygon class="st96" points="74.2,156 70.1,153.6 110.9,130 115.1,132.5 "/>
<g>
	<g>
		<g class="st18">
			<g>
				<polygon class="st79" points="100.1,174 101.3,173.3 101.3,177.6 100.1,178.3 				"/>
			</g>
			<g>
				<polygon class="st80" points="98.7,173.2 99.9,172.5 101.3,173.3 100.1,174 				"/>
			</g>
			<g>
				<polygon class="st81" points="100.1,174 100.1,178.3 98.7,177.5 98.7,173.2 				"/>
			</g>
		</g>
	</g>
	<g>
		<g class="st18">
			<g>
				<polygon class="st82" points="139.3,151.4 140.5,150.7 140.5,155 139.3,155.7 				"/>
			</g>
			<g>
				<polygon class="st80" points="137.9,150.6 139.1,149.9 140.5,150.7 139.3,151.4 				"/>
			</g>
			<g>
				<polygon class="st81" points="139.3,151.4 139.3,155.7 137.9,154.9 137.9,150.6 				"/>
			</g>
		</g>
	</g>
	<g>
		<g class="st18">
			<g>
				<polygon class="st81" points="83.8,164.6 85,163.9 85,168.2 83.8,168.9 				"/>
			</g>
			<g>
				<polygon class="st80" points="82.4,163.8 83.6,163.1 85,163.9 83.8,164.6 				"/>
			</g>
			<g>
				<polygon class="st83" points="83.8,164.6 83.8,168.9 82.4,168.1 82.4,163.8 				"/>
			</g>
		</g>
	</g>
	<g>
		<g class="st18">
			<g>
				<polygon class="st84" points="123.2,125.4 124.6,124.5 124.6,126.3 123.2,127.1 				"/>
			</g>
			<g>
				<polygon class="st85" points="121.6,124.4 123,123.6 124.7,124.6 123.3,125.4 				"/>
			</g>
			<g>
				<polygon class="st85" points="137.4,133.8 124.6,126.3 123.2,127.1 137.4,135.4 137.4,135.4 				"/>
			</g>
			<g>
				<polygon class="st82" points="139.1,136.4 140.5,135.6 140.5,153.3 139.1,154.1 				"/>
			</g>
			<g>
				<polygon class="st82" points="139.1,122.8 140.5,121.9 140.5,135.6 139.1,136.4 				"/>
			</g>
			<g>
				<polygon class="st85" points="137.4,121.8 138.8,121 140.5,121.9 139.1,122.8 				"/>
			</g>
			<g>
				<polygon class="st79" points="139.1,122.8 139.1,136.4 139.1,154.1 121.4,143.8 121.5,126.1 121.5,124.4 123.2,125.4 
					123.2,127.1 137.4,135.4 137.4,121.8 				"/>
			</g>
		</g>
	</g>
	<g>
		<g class="st18">
			<g>
				<polygon class="st86" points="139.1,149.9 139,154.1 100,176.9 100,172.7 				"/>
			</g>
			<g>
				<polygon class="st87" points="139.1,149.9 100,172.7 82.4,162.4 121.5,139.6 				"/>
			</g>
		</g>
	</g>
	<g>
		<g class="st18">
			<g>
				<polygon class="st86" points="139.1,145.8 139,150 100,172.8 100,168.6 				"/>
			</g>
			<g>
				<polygon class="st88" points="139.1,145.8 100,168.6 82.4,158.3 121.5,135.5 				"/>
			</g>
		</g>
	</g>
	<g>
		<g class="st18">
			<g>
				<polygon class="st89" points="139,145.8 139,147.7 100,170.6 100,168.6 				"/>
			</g>
			<g>
				<polygon class="st90" points="122.7,155.4 100,168.6 100,170.6 122.7,157.3 				"/>
			</g>
			<g>
				<polygon class="st91" points="100,168.6 100,170.6 82.4,160.3 82.4,158.3 				"/>
			</g>
			<g>
				<polygon class="st92" points="139,145.8 100,168.6 82.4,158.3 121.5,135.5 				"/>
			</g>
			<g>
				<polygon class="st93" points="122.6,155.4 100,168.6 82.4,158.3 105,145.1 				"/>
			</g>
		</g>
	</g>
	<g>
		<g class="st18">
			<g>
				<polygon class="st90" points="135.3,141.2 135.3,145 126.4,150.4 126.5,148.6 				"/>
			</g>
			<g>
				<polygon class="st90" points="126.5,148.6 126.4,150.4 113.8,143.1 113.9,142.5 				"/>
			</g>
			<g>
				<polygon class="st94" points="135.3,141.2 126.5,149.8 113.9,142.5 122.7,133.9 				"/>
			</g>
		</g>
	</g>
	<g>
		<g class="st18">
			<g>
				<polygon class="st84" points="84.1,133.9 85.6,133.1 85.6,155 84.1,155.8 				"/>
			</g>
			<g>
				<polygon class="st85" points="82.5,132.9 83.9,132.1 85.6,133.1 84.1,133.9 				"/>
			</g>
			<g>
				<polygon class="st85" points="98.7,162.7 85.6,155 84.1,155.8 98.4,164.1 98.7,163.9 				"/>
			</g>
			<polygon class="st82" points="100.1,143.3 100.1,165.1 100,176.9 101.4,176.1 101.5,164.3 101.5,142.4 			"/>
			<g>
				<polygon class="st85" points="98.4,142.3 99.8,141.4 101.5,142.4 100.1,143.3 				"/>
			</g>
			<polygon class="st79" points="98.4,142.3 98.4,164.1 84.1,155.8 84.1,133.9 82.5,132.9 82.4,154.8 82.4,158.3 82.4,158.3 
				82.4,160.3 82.4,160.4 82.4,160.4 82.4,162.5 82.4,162.5 82.4,166.6 100,176.9 100,172.7 100,172.7 100,170.7 100,170.7 
				100.1,165.1 100.1,143.3 			"/>
		</g>
	</g>
</g>
<g>
	<g>
		<g class="st18">
			<g>
				<polygon class="st82" points="139.3,122.8 140.5,122.2 140.5,126.4 139.3,127.1 				"/>
			</g>
			<g>
				<polygon class="st80" points="138,122.1 139.2,121.4 140.5,122.2 139.3,122.8 				"/>
			</g>
			<g>
				<polygon class="st81" points="139.3,122.8 139.3,127.1 138,126.3 138,122.1 				"/>
			</g>
		</g>
	</g>
	<g>
		<g class="st18">
			<g>
				<polygon class="st84" points="123.2,96.8 124.6,96 124.6,97.7 123.2,98.5 				"/>
			</g>
			<g>
				<polygon class="st85" points="121.7,95.9 123.1,95.1 124.8,96 123.4,96.9 				"/>
			</g>
			<g>
				<polygon class="st85" points="123.2,98.5 124.6,97.7 138.9,106 137.4,106.9 				"/>
			</g>
			<g>
				<polygon class="st82" points="139.1,107.8 140.6,107 140.5,124.7 139.1,125.5 				"/>
			</g>
			<g>
				<polygon class="st79" points="139.1,106.1 140.6,105.3 140.6,107 139.1,107.8 				"/>
			</g>
			<g>
				<polygon class="st85" points="137.4,105.1 138.9,104.3 140.6,105.3 139.1,106.1 				"/>
			</g>
			<g>
				<polygon class="st79" points="139.1,106.1 139.1,107.8 139.1,125.5 121.5,115.2 121.5,97.5 121.5,95.8 123.2,96.8 123.2,98.5 
					137.4,106.9 137.4,105.1 				"/>
			</g>
		</g>
	</g>
	<g>
		<g class="st18">
			<g>
				<polygon class="st86" points="139.1,121.3 139.1,125.5 100,148.3 100,144.1 				"/>
			</g>
			<g>
				<polygon class="st87" points="139.1,121.3 100,144.1 82.5,133.9 121.5,111 				"/>
			</g>
		</g>
	</g>
	<g>
		<g class="st18">
			<g>
				<polygon class="st86" points="139.1,117.2 139.1,121.4 100,144.3 100,140.1 				"/>
			</g>
			<g>
				<polygon class="st88" points="139.1,117.2 100,140.1 82.5,129.8 121.5,107 				"/>
			</g>
		</g>
	</g>
	<g>
		<g class="st18">
			<g>
				<polygon class="st89" points="139.1,117.2 139.1,119.2 100,142 100,140.1 				"/>
			</g>
			<g>
				<polygon class="st90" points="122.7,126.8 100,140.1 100,142 122.7,128.7 				"/>
			</g>
			<g>
				<polygon class="st91" points="100,140.1 100,142 82.5,131.7 82.5,129.8 				"/>
			</g>
			<g>
				<polygon class="st92" points="139.1,117.2 100,140.1 82.5,129.8 121.5,107 				"/>
			</g>
			<g>
				<polygon class="st93" points="122.7,126.8 100,140.1 82.5,129.8 105.1,116.5 				"/>
			</g>
		</g>
	</g>
	<g>
		<g class="st18">
			<g>
				<polygon class="st90" points="135.4,112.7 135.4,116.5 126.5,121.9 126.5,120.1 				"/>
			</g>
			<g>
				<polygon class="st90" points="126.5,120.1 126.5,121.9 113.9,114.5 113.9,113.9 				"/>
			</g>
			<g>
				<polygon class="st94" points="135.4,112.7 126.5,121.2 113.9,113.9 122.8,105.4 				"/>
			</g>
		</g>
	</g>
	<g>
		<g class="st18">
			<g>
				<polygon class="st84" points="84.2,125.5 85.6,124.6 85.6,126.4 84.2,127.2 				"/>
			</g>
			<g>
				<polygon class="st85" points="82.5,124.5 83.9,123.7 85.6,124.6 84.2,125.5 				"/>
			</g>
			<g>
				<polygon class="st85" points="84.2,127.2 85.6,126.4 99.8,134.7 98.4,135.6 				"/>
			</g>
			<polygon class="st82" points="100.1,134.8 100.1,136.5 100.1,148.3 101.5,147.5 101.5,135.7 101.5,134 			"/>
			<g>
				<polygon class="st85" points="98.4,133.8 99.8,133 101.5,134 100.1,134.8 				"/>
			</g>
			<polygon class="st79" points="98.4,133.8 98.4,135.6 84.2,127.2 84.2,125.5 82.5,124.5 82.5,126.2 82.5,129.8 82.5,129.8 
				82.5,131.7 82.5,131.9 82.5,131.9 82.5,134 82.5,134 82.5,138 100,148.3 100,144.1 100,144.1 100,142.1 100.1,142.2 100.1,136.5 
				100.1,134.8 			"/>
		</g>
	</g>
</g>
</svg>
