<?xml version="1.0" encoding="utf-8"?>
<!-- Generator: Adobe Illustrator 22.0.1, SVG Export Plug-In . SVG Version: 6.00 Build 0)  -->
<svg version="1.1" id="Слой_2" xmlns="http://www.w3.org/2000/svg" xmlns:xlink="http://www.w3.org/1999/xlink" x="0px" y="0px"
	 viewBox="0 0 200 200" style="enable-background:new 0 0 200 200;" xml:space="preserve">
<style type="text/css">
	.st0{fill:#B78441;}
	.st1{fill:#B28749;}
	.st2{fill:#CE9B49;}
	.st3{fill:#CC9E5A;}
	.st4{fill:#E5A345;}
	.st5{fill:#636871;}
	.st6{fill:#B7853E;}
	.st7{fill:#BA9058;}
	.st8{enable-background:new    ;}
	.st9{fill:#B2B2B2;}
	.st10{fill:#378A87;}
	.st11{fill:#4ABBB8;}
	.st12{fill:#40A19E;}
	.st13{fill:#358683;}
	.st14{fill:#1E2022;}
	.st15{fill:#9E9E9E;}
	.st16{fill:#7B7B7B;}
	.st17{fill:#999999;}
	.st18{fill:#DFB100;}
	.st19{fill:#BF9800;}
	.st20{fill:#9F7E00;}
	.st21{fill:#F71616;}
	.st22{fill:#9F5713;}
	.st23{fill:#3E9C99;}
	.st24{fill:#303437;}
	.st25{fill:#B1D132;}
	.st26{fill:#D3D3D3;}
	.st27{fill:#FDB813;}
	.st28{fill:#A55B14;}
	.st29{fill:#838383;}
	.st30{fill:#FFF9F5;}
	.st31{fill:#2B2E31;}
	.st32{fill:#F1C40F;}
	.st33{fill:#07334E;}
	.st34{fill:#025074;}
	.st35{fill:#71CFF3;}
	.st36{fill:#E4EBF0;}
	.st37{fill:#F5F5F2;}
	.st38{fill:#C7CCD1;}
	.st39{fill:#BEC2C7;}
	.st40{fill:#DBE1E6;}
	.st41{fill:#BD9649;}
	.st42{fill:#655027;}
	.st43{fill:#927438;}
	.st44{fill:#B48F45;}
	.st45{fill:#704227;}
	.st46{fill:#4E2E1B;}
	.st47{fill:#4E2D1B;}
	.st48{fill:#915533;}
	.st49{fill:#B6B7B8;}
	.st50{fill:#F0F0F0;}
	.st51{fill:#D4D5D7;}
	.st52{fill:#C7C8C9;}
	.st53{fill:#E5E6E8;}
	.st54{fill:#DBDBDB;}
	.st55{fill:#BCF1FF;}
	.st56{fill:#68D6F9;}
	.st57{fill:#DBDCDE;}
	.st58{opacity:0.3;fill:#55D6D2;}
	.st59{fill:#414D54;}
	.st60{fill:#5F7078;}
	.st61{fill:#BFCBE3;}
	.st62{fill:#FAFBFD;}
	.st63{fill:#7AA6AE;}
	.st64{fill:#88B9C3;}
	.st65{clip-path:url(#SVGID_2_);enable-background:new    ;}
	.st66{fill:#9ED7E2;}
	.st67{clip-path:url(#SVGID_4_);enable-background:new    ;}
	.st68{fill:#7EACB5;}
	.st69{fill:#6F979E;}
	.st70{fill:#557379;}
	.st71{fill:#64616C;}
	.st72{fill:#D38C24;}
	.st73{fill:#FEC111;}
	.st74{fill:#FA624E;}
	.st75{fill:#B1C2E3;}
	.st76{fill:#A9BBDF;}
	.st77{fill:#D0D9EA;}
	.st78{fill:#B7C4DF;}
	.st79{fill:#D7D8DA;}
	.st80{fill:#E1E4EA;}
	.st81{fill:#868687;}
	.st82{clip-path:url(#SVGID_6_);enable-background:new    ;}
	.st83{clip-path:url(#SVGID_8_);enable-background:new    ;}
	.st84{fill:#71C6DB;}
	.st85{fill:#49B8B5;}
	.st86{fill:#374246;}
	.st87{fill:#56676E;}
	.st88{fill:#89D8E8;}
	.st89{fill:#60A8BA;}
	.st90{clip-path:url(#SVGID_10_);enable-background:new    ;}
	.st91{fill:#174969;}
	.st92{clip-path:url(#SVGID_12_);}
	.st93{fill:#72CFE3;}
	.st94{fill:#BBC3D3;}
	.st95{fill:#A4B0C8;}
	.st96{fill:#CE8F34;}
	.st97{fill:#093F61;}
	.st98{fill:#0A4B73;}
	.st99{fill:#0B507A;}
	.st100{fill:#9C493F;}
	.st101{fill:#EDDACE;}
	.st102{fill:#FFFFFF;}
	.st103{fill:#EDCAB4;}
	.st104{fill:#1D2225;}
	.st105{fill:#171B1D;}
	.st106{fill:#2B3236;}
	.st107{fill:#1D2124;}
	.st108{fill:#8B9895;}
	.st109{fill:#191919;}
	.st110{fill:#141414;}
	.st111{fill:#252525;}
	.st112{fill:#707B78;}
	.st113{fill:#8C9A97;}
	.st114{fill:#0C5D8F;}
	.st115{fill:#FDCF60;}
	.st116{fill:#EDC7AF;}
	.st117{fill:#ECC6AF;}
	.st118{fill:#EDD9CC;}
	.st119{fill:#EDAF87;}
	.st120{fill:#FEF7E5;}
	.st121{fill:#F0E5DF;}
	.st122{fill:#55A1C2;}
	.st123{fill:#62C3ED;}
	.st124{fill:#2EABE3;}
	.st125{fill:#2792C2;}
	.st126{fill:#61B8DE;}
	.st127{fill:#70D4FF;}
</style>
<polygon class="st0" points="100.5,9.8 100.5,83.8 122.7,96.4 194.1,63.9 "/>
<polygon class="st1" points="122.7,96.4 194.1,136.9 194.1,63.9 194.1,63.9 "/>
<polygon class="st2" points="6.8,136.9 78.2,96.4 6.8,63.9 "/>
<polygon class="st3" points="100.5,9.8 6.8,63.9 6.8,63.9 78.2,96.4 100.5,83.8 "/>
<polygon class="st4" points="100.4,190.9 194.1,136.9 194.1,131.2 100.4,185.2 "/>
<polygon class="st5" points="190.5,133.3 184.3,129.7 184.3,129.7 178.3,126.2 178.3,126.2 172.3,122.8 172.3,122.8 166.3,119.3 
	166.3,119.3 160.3,115.9 160.3,115.9 154.3,112.4 154.3,112.4 148.3,109 148.3,109 142.6,105.6 142.6,105.6 136.6,102.2 
	136.6,102.2 130.6,98.7 130.6,98.7 124.6,95.3 124.6,95.3 118.6,91.8 118.6,91.8 112.7,88.4 112.7,88.4 106.7,84.9 106.7,84.9 
	100.5,81.3 94.2,84.9 94.2,84.9 88.3,88.4 88.3,88.4 82.5,91.7 82.5,91.7 76.3,95.3 76.3,95.3 70.3,98.7 70.3,98.7 64.3,102.2 
	64.3,102.2 58.3,105.6 58.3,105.6 52.6,109 52.6,109 46.3,112.5 46.3,112.5 40.6,115.9 40.6,115.9 34.4,119.5 34.4,119.5 
	28.6,122.8 28.6,122.8 22.4,126.4 22.4,126.4 16.7,129.7 16.7,129.7 10.4,133.3 16.7,136.9 16.7,136.9 22.4,140.2 22.4,140.2 
	28.6,143.8 28.6,143.8 34.6,147.2 34.6,147.2 40.6,150.7 40.6,150.7 46.6,154.2 46.6,154.2 52.6,157.6 52.6,157.6 58.6,161.1 
	58.6,161.1 64.5,164.5 64.5,164.5 70.5,168 70.5,168 76.5,171.4 76.5,171.4 82.5,174.9 82.5,174.9 88.5,178.3 88.5,178.3 
	94.5,181.8 94.5,181.8 100.5,185.3 106.5,181.8 106.5,181.8 111.6,178.9 112.4,178.3 112.4,178.3 118.4,174.9 118.4,174.9 
	123.5,171.9 124.6,171.3 124.6,171.3 130.4,168 130.4,168 135.5,165 136.4,164.5 136.4,164.5 142.4,161.1 142.4,161.1 147.5,158.1 
	148.3,157.6 148.3,157.6 154.3,154.2 154.3,154.2 159.4,151.2 160.3,150.7 160.3,150.7 166.3,147.2 166.3,147.2 171.4,144.3 
	172.3,143.8 172.3,143.8 178.3,140.3 178.3,140.3 183.4,137.4 184.3,136.9 184.3,136.9 "/>
<polygon class="st2" points="190.5,133.3 100.5,81.3 100.5,13.6 190.5,65.5 "/>
<polygon class="st6" points="10.4,133.3 100.5,81.3 100.5,13.6 10.4,65.5 "/>
<polygon class="st7" points="100.4,190.9 6.8,136.9 6.8,131.2 100.4,185.2 "/>
<g>
	<g class="st8">
		<g>
			<polygon class="st9" points="35.2,82.6 34.4,82.1 39.4,72.8 40.2,73.3 			"/>
		</g>
		<g>
			<polygon class="st10" points="39.8,73.1 39,72.6 39.4,72.8 40.2,73.3 			"/>
		</g>
		<g class="st8">
			<g class="st8">
				<path class="st11" d="M36,77.2l-0.8-0.5c0.3-0.1,0.6-0.2,0.9-0.4c0.6-0.3,1.1-0.8,1.5-1.3l0.8,0.5c-0.4,0.5-1,1-1.5,1.3
					C36.6,77,36.3,77.1,36,77.2L36,77.2z"/>
				<path class="st12" d="M38.5,75.4L37.7,75c0.4-0.5,0.8-1.1,1-1.7l0.8,0.5C39.2,74.4,38.9,74.9,38.5,75.4L38.5,75.4z"/>
				<path class="st13" d="M39.5,73.8l-0.8-0.5c0.1-0.2,0.2-0.4,0.3-0.7l0.8,0.5C39.7,73.3,39.6,73.5,39.5,73.8L39.5,73.8z"/>
			</g>
		</g>
		<g>
			<polygon class="st14" points="41.8,80.4 41,79.9 40.9,64.8 41.7,65.3 			"/>
		</g>
		<g>
			<polygon class="st15" points="32.4,81.3 31.6,80.9 34.4,82.1 35.2,82.6 			"/>
		</g>
		<g>
			<polygon class="st16" points="33.7,83.2 32.9,82.8 31.6,80.9 32.4,81.3 			"/>
		</g>
		<g class="st8">
			<g class="st8">
				<path class="st13" d="M34.7,77L34,76.5c0,0,0,0,0.1,0L34.7,77C34.8,77,34.8,77,34.7,77L34.7,77z"/>
				<path class="st12" d="M34.8,77L34,76.6c0.3,0.2,0.8,0.2,1.2,0.1l0.8,0.5C35.6,77.2,35.1,77.2,34.8,77L34.8,77z"/>
				<path class="st11" d="M36,77.2l-0.8-0.5c0.3-0.1,0.6-0.2,0.9-0.4c0.6-0.3,1.1-0.8,1.5-1.3l0.8,0.5c-0.4,0.5-1,1-1.5,1.3
					C36.6,77,36.3,77.1,36,77.2L36,77.2z"/>
			</g>
		</g>
		<g class="st8">
			<g class="st8">
				<path class="st17" d="M39.8,73.1L39,72.6c0.2-0.6,0.3-1.1,0.3-1.7c0-1-0.3-1.7-0.9-2l0.8,0.5c0.6,0.3,0.9,1,0.9,2
					C40.1,71.9,40,72.5,39.8,73.1L39.8,73.1z"/>
			</g>
		</g>
		<g class="st8">
			<g class="st8">
				<path class="st18" d="M36.9,69.6l-0.8-0.5c0.3-0.2,0.6-0.3,0.9-0.4l0.8,0.5C37.6,69.3,37.3,69.4,36.9,69.6L36.9,69.6z"/>
				<path class="st19" d="M37.9,69.2l-0.8-0.5c0.5-0.1,0.9,0,1.2,0.1l0.8,0.5C38.8,69.2,38.3,69.1,37.9,69.2L37.9,69.2z"/>
				<path class="st20" d="M39.1,69.4l-0.8-0.5c0,0,0,0,0.1,0L39.1,69.4C39.1,69.4,39.1,69.4,39.1,69.4L39.1,69.4z"/>
			</g>
		</g>
		<g class="st8">
			<g class="st8">
				<path class="st20" d="M34.7,77L34,76.5c-0.6-0.3-0.9-1-0.9-2c0-0.8,0.2-1.6,0.5-2.4l0.8,0.5c-0.3,0.8-0.6,1.6-0.5,2.4
					C33.8,76,34.2,76.7,34.7,77L34.7,77z"/>
				<path class="st19" d="M34.4,72.6l-0.8-0.5c0.2-0.6,0.6-1.1,0.9-1.6c0,0,0.1-0.1,0.1-0.1l0.8,0.5c0,0-0.1,0.1-0.1,0.1
					C35,71.5,34.6,72.1,34.4,72.6L34.4,72.6z"/>
				<path class="st18" d="M35.4,70.9l-0.8-0.5c0.4-0.5,1-1,1.5-1.3l0.8,0.5C36.4,69.9,35.9,70.4,35.4,70.9L35.4,70.9z"/>
			</g>
		</g>
		<g>
			<path class="st21" d="M36.9,69.6c1.7-1,3.1-0.2,3.1,1.8c0,0.5-0.1,1.1-0.3,1.7c-0.5,1.5-1.6,3-2.8,3.7c-1.7,1-3.1,0.2-3.1-1.8
				c0-1.3,0.6-2.8,1.5-3.9C35.8,70.5,36.3,70,36.9,69.6z"/>
		</g>
		<g>
			<polygon class="st22" points="29.6,80 28.8,79.6 31.6,80.9 32.4,81.3 			"/>
		</g>
		<g>
			<polygon class="st23" points="29.6,80 28.8,79.6 29.6,78.1 30.4,78.5 			"/>
		</g>
		<g>
			<polygon class="st24" points="22.8,91.3 22,90.9 41,79.9 41.8,80.4 			"/>
		</g>
		<g>
			<polygon class="st10" points="34.6,70.7 33.8,70.3 34.5,70.6 35.3,71.1 			"/>
		</g>
		<g>
			<path class="st25" d="M34.6,70.7l0.8,0.3c-0.9,1.1-1.5,2.6-1.5,3.9c0,2,1.4,2.8,3.1,1.8c1.2-0.7,2.3-2.2,2.8-3.7l0.4,0.2l-5,9.3
				l-2.8-1.3L29.6,80l0.8-1.5L34.6,70.7z"/>
		</g>
		<g>
			<polygon class="st23" points="30.4,78.5 29.6,78.1 33.8,70.3 34.6,70.7 			"/>
		</g>
		<g>
			<polygon class="st26" points="24,88.9 23.2,88.4 32.9,82.8 33.7,83.2 			"/>
		</g>
		<g>
			<polygon class="st16" points="30.4,78.5 29.6,78.1 28,75.9 28.8,76.3 			"/>
		</g>
		<g>
			<polygon class="st27" points="28.8,76.3 30.4,78.5 29.6,80 32.4,81.3 33.7,83.2 24,88.9 			"/>
		</g>
		<g>
			<polygon class="st28" points="24,88.9 23.2,88.4 28,75.9 28.8,76.3 			"/>
		</g>
		<g>
			<polygon class="st29" points="22.8,91.3 22,90.9 22,75.7 22.8,76.2 			"/>
		</g>
		<g>
			<path class="st30" d="M22.8,76.2l18.9-10.9l0,15.1L22.8,91.3L22.8,76.2z M35.2,82.6l5-9.3l-0.4-0.2c0.2-0.6,0.3-1.1,0.3-1.7
				c0-2-1.4-2.8-3.1-1.8c-0.6,0.3-1.1,0.8-1.6,1.5l-0.8-0.3l-4.2,7.8l-1.6-2.2L24,88.9l9.8-5.6l-1.4-1.9L35.2,82.6L35.2,82.6z"/>
		</g>
		<g>
			<polygon class="st26" points="22.8,76.2 22,75.7 40.9,64.8 41.7,65.3 			"/>
		</g>
		<g>
			<polygon class="st24" points="20.6,75.2 19.8,74.8 43.1,61.4 43.9,61.8 			"/>
		</g>
		<g>
			<path class="st31" d="M20.6,75.2l23.3-13.4l0.1,19.5L20.7,94.8L20.6,75.2z M41.8,80.4l0-15.1L22.8,76.2l0,15.1L41.8,80.4
				L41.8,80.4z"/>
		</g>
		<g>
			<polygon class="st14" points="20.7,94.8 19.9,94.3 19.8,74.8 20.6,75.2 			"/>
		</g>
	</g>
</g>
<g>
	<g>
		<path class="st32" d="M21,74.2C21,74.2,21,74.3,21,74.2C20.9,74.2,21,74.2,21,74.2L32.1,60c0,0,0.1-0.1,0.1,0c0,0,0,0.1,0,0.1
			L21,74.2C21,74.2,21,74.2,21,74.2z"/>
		<path class="st32" d="M42.3,61.9C42.3,61.9,42.3,61.9,42.3,61.9l-10.3-1.8c0,0,0,0,0-0.1c0,0,0.1-0.1,0.1-0.1l10.2,1.9
			C42.4,61.8,42.4,61.8,42.3,61.9C42.4,61.9,42.3,61.9,42.3,61.9z"/>
	</g>
	<path class="st32" d="M32.6,59.8c0-0.2-0.2-0.3-0.4-0.2c-0.2,0.1-0.4,0.4-0.4,0.7c0,0.2,0.2,0.3,0.4,0.2
		C32.4,60.3,32.6,60,32.6,59.8z"/>
</g>
<g class="st8">
	<path class="st33" d="M144.1,73.9C144.1,73.9,144.1,73.9,144.1,73.9c0.1-0.2,0.2-0.2,0.2-0.3c0,0,0-0.1,0.1-0.1
		c0-0.1,0.1-0.1,0.1-0.2c0,0,0-0.1,0.1-0.1c0.1-0.1,0.1-0.2,0.2-0.3c0,0,0,0,0-0.1c0-0.1,0.1-0.2,0.1-0.3c0,0,0-0.1,0-0.1
		c0-0.1,0.1-0.2,0.1-0.3c0,0,0-0.1,0-0.1c0-0.1,0.1-0.2,0.1-0.3c0,0,0-0.1,0-0.1c0-0.1,0.1-0.3,0.1-0.4c0,0,0-0.1,0-0.1
		c0-0.1,0-0.2,0-0.3c0,0,0-0.1,0-0.1c0-0.1,0-0.1,0-0.2c0-0.1,0-0.2,0-0.3c0-0.1,0-0.1,0-0.2c0-0.1,0-0.2,0-0.3c0-0.1,0-0.1,0-0.2
		c0-0.2,0-0.3,0-0.5c0-0.2,0-0.4,0-0.5c0-0.1,0-0.1,0-0.2c0-0.1,0-0.2,0-0.4c0,0,0,0,0,0c0-0.2,0-0.4-0.1-0.7c0-0.1,0-0.1,0-0.2
		c0-0.2-0.1-0.3-0.1-0.5c0-0.1,0-0.1,0-0.2c0-0.2-0.1-0.4-0.1-0.6c0,0,0-0.1,0-0.1c-0.1-0.2-0.1-0.5-0.2-0.7c0,0,0,0,0-0.1
		c0,0,0-0.1,0-0.1c0-0.2-0.1-0.3-0.2-0.5c0-0.1,0-0.1-0.1-0.2c-0.1-0.2-0.1-0.4-0.2-0.6c0,0,0-0.1,0-0.1c-0.1-0.2-0.2-0.5-0.3-0.7
		c0-0.1-0.1-0.1-0.1-0.2c-0.1-0.2-0.1-0.3-0.2-0.5c0-0.1-0.1-0.1-0.1-0.2c-0.1-0.2-0.2-0.4-0.3-0.6c0,0,0-0.1,0-0.1
		c-0.1-0.2-0.2-0.4-0.3-0.7c0-0.1-0.1-0.1-0.1-0.2c-0.1-0.2-0.2-0.3-0.3-0.5c0-0.1-0.1-0.1-0.1-0.2c-0.1-0.2-0.2-0.4-0.3-0.5
		c0,0,0-0.1-0.1-0.1c-0.1-0.2-0.3-0.4-0.4-0.6c0-0.1-0.1-0.1-0.1-0.2c-0.1-0.2-0.2-0.3-0.3-0.5c0-0.1-0.1-0.1-0.1-0.2
		c-0.1-0.2-0.3-0.3-0.4-0.5c0,0,0-0.1-0.1-0.1c-0.2-0.2-0.3-0.4-0.5-0.6c0,0-0.1-0.1-0.1-0.1c-0.1-0.1-0.2-0.3-0.4-0.4
		c-0.1-0.1-0.1-0.1-0.2-0.2c-0.1-0.1-0.3-0.3-0.4-0.4c0,0-0.1-0.1-0.1-0.1c-0.2-0.2-0.3-0.3-0.5-0.5c0,0-0.1-0.1-0.1-0.1
		c-0.1-0.1-0.3-0.2-0.4-0.3c0,0-0.1-0.1-0.1-0.1c0,0-0.1-0.1-0.1-0.1c-0.1,0-0.1-0.1-0.2-0.1c-0.1-0.1-0.2-0.1-0.3-0.2
		c-0.1,0-0.1-0.1-0.2-0.1c-0.1-0.1-0.2-0.1-0.3-0.2c0,0-0.1-0.1-0.1-0.1c-0.1-0.1-0.3-0.2-0.4-0.3c-0.2-0.1-0.3-0.2-0.5-0.3
		c-0.1,0-0.1,0-0.1-0.1c-0.1,0-0.2-0.1-0.3-0.1c0,0,0,0,0,0c-0.2-0.1-0.4-0.2-0.6-0.2c0,0-0.1,0-0.1,0c-0.1-0.1-0.3-0.1-0.4-0.2
		c-0.1,0-0.1,0-0.2-0.1c-0.1,0-0.3-0.1-0.4-0.1c0,0-0.1,0-0.1,0c-0.2,0-0.3-0.1-0.5-0.1c0,0,0,0,0,0c0,0-0.1,0-0.1,0
		c-0.1,0-0.2,0-0.3,0c-0.1,0-0.1,0-0.2,0c-0.1,0-0.2,0-0.3,0c-0.1,0-0.1,0-0.2,0c-0.1,0-0.2,0-0.3,0c-0.1,0-0.1,0-0.2,0
		c-0.1,0-0.2,0-0.2,0c-0.1,0-0.1,0-0.2,0c-0.1,0-0.2,0-0.2,0c-0.1,0-0.1,0-0.2,0c-0.1,0-0.2,0-0.2,0.1c0,0-0.1,0-0.1,0
		c-0.1,0-0.2,0.1-0.2,0.1c0,0-0.1,0-0.1,0c-0.1,0.1-0.2,0.1-0.3,0.2l-0.8,0.4c0.1-0.1,0.2-0.1,0.3-0.2c0,0,0.1,0,0.1,0
		c0.1,0,0.2-0.1,0.2-0.1c0,0,0.1,0,0.1,0c0.1,0,0.2,0,0.2-0.1c0.1,0,0.1,0,0.2,0c0.1,0,0.2,0,0.2,0c0.1,0,0.1,0,0.2,0
		c0.1,0,0.2,0,0.2,0c0.1,0,0.1,0,0.2,0c0.1,0,0.2,0,0.3,0c0.1,0,0.1,0,0.2,0c0.1,0,0.2,0,0.3,0c0.1,0,0.1,0,0.2,0c0.1,0,0.2,0,0.3,0
		c0,0,0.1,0,0.1,0c0.2,0,0.3,0.1,0.5,0.1c0,0,0.1,0,0.1,0c0.1,0,0.3,0.1,0.4,0.1c0.1,0,0.1,0,0.2,0.1c0.1,0,0.3,0.1,0.4,0.2
		c0,0,0.1,0,0.1,0c0.2,0.1,0.4,0.2,0.6,0.2c0.1,0,0.2,0.1,0.3,0.1c0,0,0.1,0,0.1,0.1c0.2,0.1,0.3,0.2,0.5,0.3
		c0.1,0.1,0.3,0.2,0.4,0.3c0,0,0.1,0.1,0.1,0.1c0.1,0.1,0.2,0.1,0.3,0.2c0.1,0,0.1,0.1,0.2,0.1c0.1,0.1,0.2,0.1,0.3,0.2
		c0.1,0,0.1,0.1,0.2,0.1c0.1,0.1,0.1,0.1,0.2,0.2c0.1,0.1,0.3,0.2,0.4,0.3c0,0,0.1,0.1,0.1,0.1c0.2,0.2,0.4,0.3,0.5,0.5
		c0,0,0.1,0.1,0.1,0.1c0.1,0.1,0.3,0.3,0.4,0.4c0.1,0.1,0.1,0.1,0.2,0.2c0.1,0.1,0.2,0.3,0.4,0.4c0,0,0.1,0.1,0.1,0.1
		c0.2,0.2,0.3,0.4,0.5,0.6c0,0,0,0.1,0.1,0.1c0.1,0.2,0.3,0.3,0.4,0.5c0,0.1,0.1,0.1,0.1,0.2c0.1,0.1,0.2,0.3,0.3,0.4
		c0,0.1,0.1,0.1,0.1,0.2c0.1,0.2,0.3,0.4,0.4,0.6c0,0,0,0.1,0.1,0.1c0.1,0.2,0.2,0.4,0.3,0.5c0,0.1,0.1,0.1,0.1,0.2
		c0.1,0.2,0.2,0.3,0.3,0.5c0,0.1,0.1,0.1,0.1,0.2c0.1,0.2,0.2,0.4,0.3,0.7c0,0,0,0.1,0,0.1c0.1,0.2,0.2,0.4,0.3,0.6
		c0,0.1,0.1,0.1,0.1,0.2c0.1,0.2,0.1,0.3,0.2,0.5c0,0.1,0.1,0.1,0.1,0.2c0.1,0.2,0.2,0.5,0.3,0.7c0,0,0,0.1,0,0.1
		c0.1,0.2,0.1,0.4,0.2,0.6c0,0.1,0,0.1,0.1,0.2c0.1,0.2,0.1,0.3,0.2,0.5c0,0.1,0,0.1,0.1,0.2c0.1,0.2,0.1,0.5,0.2,0.7
		c0,0,0,0.1,0,0.1c0,0.2,0.1,0.4,0.1,0.6c0,0.1,0,0.1,0,0.2c0,0.2,0.1,0.3,0.1,0.5c0,0.1,0,0.1,0,0.2c0,0.2,0.1,0.5,0.1,0.7
		c0,0.1,0,0.2,0,0.4c0,0.1,0,0.1,0,0.2c0,0.2,0,0.4,0,0.5c0,0.2,0,0.3,0,0.5c0,0.1,0,0.1,0,0.2c0,0.1,0,0.2,0,0.3c0,0.1,0,0.1,0,0.2
		c0,0.1,0,0.2,0,0.3c0,0.1,0,0.1,0,0.2c0,0.1,0,0.2-0.1,0.3c0,0,0,0.1,0,0.1c0,0.1-0.1,0.3-0.1,0.4c0,0,0,0.1,0,0.1
		c0,0.1-0.1,0.2-0.1,0.3c0,0,0,0.1,0,0.1c0,0.1-0.1,0.2-0.1,0.3c0,0,0,0.1,0,0.1c0,0.1-0.1,0.2-0.1,0.3c0,0,0,0,0,0.1
		c-0.1,0.1-0.1,0.2-0.2,0.3c0,0,0,0.1-0.1,0.1c0,0.1-0.1,0.2-0.1,0.2c0,0,0,0.1-0.1,0.1c0,0.1-0.1,0.1-0.1,0.2c0,0,0,0.1-0.1,0.1
		c-0.1,0.1-0.1,0.2-0.2,0.2c0,0,0,0,0,0c-0.1,0.1-0.2,0.2-0.2,0.2c0,0,0,0-0.1,0.1c-0.1,0.1-0.1,0.1-0.2,0.2c0,0-0.1,0-0.1,0.1
		c-0.1,0-0.1,0.1-0.2,0.1c0,0-0.1,0-0.1,0.1c-0.1,0.1-0.2,0.1-0.3,0.2l0.8-0.4c0.1-0.1,0.2-0.1,0.3-0.2c0,0,0.1,0,0.1-0.1
		c0.1,0,0.1-0.1,0.2-0.1c0,0,0.1,0,0.1-0.1c0.1-0.1,0.1-0.1,0.2-0.2c0,0,0,0,0.1-0.1c0.1-0.1,0.2-0.2,0.2-0.2c0,0,0,0,0,0
		C144,74.1,144,74,144.1,73.9z"/>
	<g>
		<path class="st34" d="M135.5,53.6c5.1,2.9,9.2,10.1,9.2,16c0,5.9-4.2,8.2-9.3,5.3c-5.1-2.9-9.2-10.1-9.2-16
			C126.2,53.1,130.4,50.7,135.5,53.6z"/>
		<path class="st35" d="M139.6,75.1c-1.1,0-2.3-0.4-3.6-1.1c-4.8-2.8-8.7-9.5-8.7-15c0-3.4,1.5-5.5,4.1-5.5c1.1,0,2.3,0.4,3.6,1.1
			c4.8,2.8,8.7,9.5,8.7,15C143.6,73,142.1,75.1,139.6,75.1z"/>
	</g>
</g>
<g>
	<path class="st36" d="M167.2,107.5l0,0.2l3.1,1.8l0,0.7c0,1.5,1.1,3.4,2.4,4.2l2.1,1.2l0,5.4l0.2,0.1l-7.8-4.5L167.2,107.5z"/>
</g>
<g>
	<path class="st37" d="M170.5,109.4l0,0.7c0,1.5,1.1,3.4,2.4,4.2l2.1,1.2l0,5.6l-0.2-0.1l0-5.4l-2.1-1.2c-1.3-0.8-2.4-2.6-2.4-4.2
		l0-0.7l-3.1-1.8l0-0.2L170.5,109.4z"/>
</g>
<g>
	<path class="st38" d="M172.6,113.8l2.6,1.5l0,6.4l-8.5-4.9l0-9.8l4,2.3l0,1.2C170.7,111.7,171.5,113.2,172.6,113.8z M175,121l0-5.6
		l-2.1-1.2c-1.3-0.8-2.4-2.6-2.4-4.2l0-0.7l-3.3-1.9l0,9L175,121L175,121z"/>
</g>
<g>
	<path class="st37" d="M180.3,117.8c-0.4,0.3-1.1,0.3-1.8-0.1l-2-1.2l0-0.2l2.2,1.3c0,0,0,0,0,0c0,0,0,0,0,0c0,0,0,0,0,0
		c0,0,0,0,0,0c0,0,0,0,0,0c0,0,0,0,0,0c0,0,0,0,0,0c0,0,0,0,0,0c0,0,0,0,0,0c0,0,0,0,0,0c0,0,0,0,0,0c0,0,0,0,0,0c0,0,0,0,0,0
		c0,0,0,0,0,0c0,0,0,0,0,0c0,0,0,0,0,0c0,0,0,0,0,0c0,0,0,0,0,0c0,0,0,0,0,0c0,0,0,0,0,0c0,0,0,0,0,0C179.6,118,180,118,180.3,117.8
		z"/>
</g>
<g>
	<path class="st36" d="M181.1,115.8l3.1,1.8l0,8.8l-7.7-4.4l0-5.4l2,1.2c0.7,0.4,1.3,0.4,1.8,0.1c0.5-0.2,0.8-0.8,0.8-1.6
		L181.1,115.8z"/>
</g>
<g>
	<path class="st38" d="M180.7,115l4,2.3l0,9.8l-8.5-4.9l0-6.4l2.4,1.4c0.6,0.3,1.1,0.3,1.5,0c0.4-0.2,0.7-0.6,0.7-1.3L180.7,115z
		 M184.4,126.4l0-9l-3.3-1.9l0,0.7c0,0.8-0.3,1.4-0.8,1.6c-0.3,0.2-0.8,0.2-1.3,0c-0.3-0.2-0.3-0.2-0.3-0.2l-2.2-1.3l0,5.6
		L184.4,126.4L184.4,126.4z"/>
</g>
<g>
	<polygon class="st39" points="184.9,117.2 184.9,127.3 184.6,127.1 184.6,117.3 180.7,115 180.7,114.7 	"/>
</g>
<g>
	<path class="st40" d="M177.6,94.9c1.1,0.6,1.9,2.1,1.9,3.3l0,15.9c0,1.2-0.9,1.7-1.9,1.1l-3.5-2c-1.1-0.6-1.9-2.1-1.9-3.3l0-15.9
		c0-1.2,0.9-1.7,1.9-1.1L177.6,94.9z M178.9,113.2l0-14.6c0-1.2-0.9-2.7-1.9-3.3l-2.4-1.4c-1.1-0.6-1.9-0.1-1.9,1.1l0,14.6
		c0,1.2,0.9,2.7,1.9,3.3l2.4,1.4C178,114.9,178.9,114.4,178.9,113.2L178.9,113.2z"/>
</g>
<g>
	<polygon class="st39" points="175.6,85.8 175.6,92.4 175.3,92.3 175.3,85.9 166.8,81 166.8,80.7 	"/>
</g>
<g>
	<polygon class="st39" points="185,91.2 184.9,101.3 184.7,101.1 184.7,91.3 176.2,86.4 176.2,86.1 	"/>
</g>
<g>
	<path class="st40" d="M188.1,88.4l0.2,0.1l-0.1,25.3l-0.1,18.2l-24.9-14.3l0.1-17.8l0.1-25.7l0.2,0.1L188.1,88.4z M186,113.6
		l0.1-23.8l-0.2-0.1L165.8,78l-0.2-0.1l-0.1,24.2l0,16.7l20.5,11.8L186,113.6L186,113.6z"/>
</g>
<g>
	<path class="st36" d="M167.3,81.7l7.7,4.4l0,5.4l-2-1.2c-0.7-0.4-1.3-0.4-1.8-0.1c-0.5,0.2-0.8,0.8-0.8,1.6l0,0.5l-3.1-1.8
		L167.3,81.7z"/>
</g>
<g>
	<path class="st38" d="M170.7,93.1l0-0.9c0-0.7,0.3-1.1,0.7-1.3c0.4-0.3,0.9-0.3,1.5,0l2.4,1.4l0-6.4l-8.5-4.9l0,9.8L170.7,93.1z
		 M167.3,81.5l7.8,4.5l0,5.6l-2.2-1.3c-0.7-0.4-1.3-0.4-1.8-0.1c-0.2,0.2-0.4,0.4-0.6,1c0,0,0,0,0,0.5c0,0,0,0,0,0l0,0.7l-3.3-1.9
		L167.3,81.5L167.3,81.5z"/>
</g>
<g>
	<path class="st38" d="M165.8,78l-0.2-0.1l-0.1,24.2l0,16.7l20.5,11.8l0-17.2l0.1-23.8l-0.2-0.1L165.8,78z M185.5,129.5L166,118.3
		l0.1-39.6l19.5,11.3L185.5,129.5L185.5,129.5z"/>
</g>
<g>
	<path class="st39" d="M171,109.1l0,1.2c0,1.2,0.9,2.7,1.9,3.3l2.6,1.5l0,6.7l-0.3-0.2l0-6.4l-2.6-1.5c-1.1-0.6-1.9-2.1-1.9-3.3
		l0-1.2l-4-2.3l0-0.3L171,109.1z"/>
</g>
<g>
	<path class="st38" d="M179,117.2c0.3,0.1,0.6,0.2,0.8,0.1C179.6,117.4,179.3,117.3,179,117.2z"/>
</g>
<g>
	<polygon class="st37" points="184.4,117.4 184.4,126.4 184.2,126.3 184.2,117.5 181.1,115.8 181.1,115.6 	"/>
</g>
<g>
	<polygon class="st37" points="175.1,86 175.1,91.6 174.9,91.5 174.9,86.1 167.3,81.7 167.3,81.5 	"/>
</g>
<g>
	<path class="st36" d="M176.6,86.9l0,0.2l7.7,4.4l0,8.8l0.2,0.1l-3.3-1.9l0-0.7c0-1.5-1.1-3.4-2.4-4.1l-2.1-1.2L176.6,86.9z"/>
</g>
<g>
	<path class="st38" d="M176.2,86.4l8.5,4.9l0,9.8l-4-2.3l0-1.2c0-1.2-0.9-2.7-1.9-3.3l-2.6-1.5L176.2,86.4z M184.4,100.5l0-9
		l-7.8-4.5l0,5.6l2.1,1.2c1.3,0.8,2.4,2.6,2.4,4.1l0,0.7L184.4,100.5L184.4,100.5z"/>
</g>
<g>
	<polygon class="st37" points="184.5,91.5 184.4,100.5 184.3,100.4 184.3,91.6 176.6,87.1 176.6,86.9 	"/>
</g>
<g>
	<path class="st39" d="M179.9,117.3c-0.4,0.3-0.9,0.3-1.5,0l-2.4-1.4l0-0.3l2.7,1.5c0,0,0,0,0,0c0,0,0,0,0,0c0,0,0,0,0,0
		c0,0,0,0,0,0c0,0,0,0,0,0c0,0,0,0,0,0c0,0,0,0,0,0c0,0,0,0,0,0c0,0,0,0,0.1,0c0,0,0,0,0,0c0,0,0,0,0,0c0,0,0,0,0,0
		c0.3,0.1,0.6,0.2,0.8,0.1c0,0,0,0,0,0C179.8,117.3,179.9,117.3,179.9,117.3C179.9,117.3,179.9,117.3,179.9,117.3
		C179.9,117.3,179.9,117.3,179.9,117.3C179.9,117.3,179.9,117.3,179.9,117.3z"/>
</g>
<g>
	<path class="st36" d="M177,95.3c1.1,0.6,1.9,2.1,1.9,3.3l0,14.6c0,1.2-0.9,1.7-1.9,1.1l-2.4-1.4c-1.1-0.6-1.9-2.1-1.9-3.3l0-14.6
		c0-1.2,0.9-1.7,1.9-1.1L177,95.3z"/>
</g>
<g>
	<path class="st39" d="M171.4,90.9c-0.2,0.2-0.4,0.5-0.4,0.9c0,0,0,0,0,0c0,0,0,0.1,0,0.1c0,0,0,0,0,0c0,0,0,0,0,0c0,0,0,0,0,0
		c0,0,0,0,0,0c0,0,0,0,0,0c0,0,0,0,0,0c0,0,0,0,0,0c0,0,0,0,0,0c0,0,0,0,0,0c0,0,0,0,0,0c0,0,0,0,0,0l0,1.2l-0.3-0.2l0-0.9
		C170.7,91.5,171,91,171.4,90.9z"/>
</g>
<g>
	<path class="st37" d="M171.1,90.2c-0.2,0.2-0.4,0.4-0.5,0.8c0,0,0,0,0,0c0,0,0,0,0,0c0,0,0,0,0,0c0,0,0,0,0,0c0,0,0,0,0,0
		c0,0,0,0,0,0c0,0,0,0,0,0c0,0,0,0,0,0c0,0,0,0,0,0c0,0,0,0,0,0c0,0,0,0,0,0c0,0,0,0,0,0c0,0,0,0,0,0c0,0,0,0,0,0c0,0,0,0,0,0
		c0,0,0,0,0,0.1c0,0,0,0,0,0c0,0,0,0,0,0c0,0,0,0,0,0c0,0,0,0,0,0c0,0,0,0,0,0c0,0,0,0,0,0c0,0,0,0,0,0c0,0,0,0,0,0c0,0,0,0,0,0
		c0,0,0,0,0,0c0,0,0,0,0,0c0,0,0,0,0,0c0,0,0,0,0,0c0,0,0,0,0,0c0,0,0,0,0,0c0,0,0,0,0,0c0,0,0,0,0,0c0,0,0,0,0,0c0,0,0,0,0,0
		c0,0,0,0,0,0c0,0,0,0,0,0c0,0,0,0,0,0c0,0,0,0,0,0c0,0,0,0,0,0c0,0,0,0,0,0l0,0.7l-0.2-0.1l0-0.5C170.3,91,170.6,90.5,171.1,90.2z"
		/>
</g>
<g>
	<path class="st36" d="M166.1,78.6l19.5,11.3l-0.1,39.6L166,118.3L166.1,78.6z M177.6,94.9l-3.5-2c-1.1-0.6-1.9-0.1-1.9,1.1l0,15.9
		c0,1.2,0.9,2.7,1.9,3.3l3.5,2c1.1,0.6,1.9,0.1,1.9-1.1l0-15.9C179.5,97,178.7,95.6,177.6,94.9L177.6,94.9z M184.9,127.3l0-10.1
		l-4.2-2.4l0,1.2c0,0.7-0.3,1.1-0.7,1.3c0,0,0,0-0.1,0c-0.3,0.1-0.6,0-0.9-0.1c-0.1,0-0.1,0-0.1-0.1l-2.8-1.6l0,6.7L184.9,127.3
		L184.9,127.3z M175.5,121.9l0-6.7l-2.6-1.5c-1.1-0.6-1.9-2.1-1.9-3.3l0-1.2l-4.3-2.5l0,10.1L175.5,121.9L175.5,121.9z M184.9,101.3
		l0-10.1l-8.8-5.1l0,6.7l2.6,1.5c1.1,0.6,1.9,2.1,1.9,3.3l0,1.2L184.9,101.3L184.9,101.3z M166.8,80.7l0,10.1l4.2,2.4l0-1.2
		c0-0.2,0-0.2,0-0.2c0-0.4,0.2-0.7,0.4-0.9c0.4-0.3,0.9-0.3,1.5,0l2.7,1.5l0-6.7L166.8,80.7L166.8,80.7z"/>
</g>
<g>
	<g class="st8">
		<g class="st8">
			<g class="st8">
				<path class="st41" d="M181.8,107.8l0.9-0.5c0.2-0.1,0.5-0.1,0.8,0.1l-0.9,0.5C182.3,107.7,182,107.7,181.8,107.8L181.8,107.8z"
					/>
			</g>
		</g>
		<g class="st8">
			<g class="st8">
				<path class="st41" d="M182.6,107.9l0.9-0.5c0.6,0.4,1.1,1.2,1.1,1.9c0,0.4-0.1,0.6-0.3,0.7l-0.9,0.5c0.2-0.1,0.3-0.4,0.3-0.7
					C183.7,109.1,183.2,108.3,182.6,107.9L182.6,107.9z"/>
			</g>
		</g>
		<g>
			<path class="st42" d="M182.6,107.9c0.6,0.4,1.1,1.2,1.1,1.9c0,0.7-0.5,1-1.1,0.6c-0.6-0.4-1.1-1.2-1.1-1.9
				C181.5,107.8,182,107.6,182.6,107.9z"/>
		</g>
	</g>
</g>
<g>
	<g class="st8">
		<g>
			<polygon class="st43" points="182.8,112.1 183.1,111.9 183.1,112.3 182.8,112.4 			"/>
		</g>
		<g>
			<polygon class="st44" points="182.7,111.9 183,111.7 183.1,111.9 182.8,112.1 			"/>
		</g>
		<g>
			<polygon class="st45" points="183,112.2 183.2,112 183.2,112.4 183,112.5 			"/>
		</g>
		<path class="st46" d="M183.2,112.4l-0.2-0.1l-0.1,0.1l0-0.2l0.1-0.1c0-0.1-0.1-0.2-0.2-0.3c0,0,0,0,0,0l0.1-0.1c0,0,0-0.1,0-0.1
			l-0.3,0.2c0,0,0,0,0,0c0,0,0,0,0,0c0,0,0,0,0,0c0,0,0,0,0,0c0,0,0,0,0,0l0,0c0,0,0,0,0,0h0v0l0.1,0.2l0,0.4l0,0l0,0l0,0l0.2,0.1
			l0,0L183.2,112.4z"/>
		<g>
			<polygon class="st47" points="183.1,112 183.3,111.9 183.2,112 183,112.2 			"/>
		</g>
		<g class="st8">
			<g class="st8">
				<path class="st48" d="M182.8,111.8l0.3-0.2c0,0,0.1,0,0.1,0l-0.3,0.2C182.8,111.7,182.8,111.7,182.8,111.8L182.8,111.8z"/>
			</g>
		</g>
		<g class="st8">
			<g class="st8">
				<path class="st48" d="M182.9,111.8l0.3-0.2c0.1,0.1,0.2,0.2,0.2,0.3l-0.3,0.2C183.1,111.9,183,111.8,182.9,111.8L182.9,111.8z"
					/>
			</g>
		</g>
		<g class="st8">
			<g class="st8">
				<path class="st41" d="M182.6,111.3l0.3-0.2c0.1,0,0.2,0,0.3,0l-0.3,0.2C182.8,111.3,182.7,111.3,182.6,111.3L182.6,111.3z"/>
			</g>
		</g>
		<g class="st8">
			<g class="st8">
				<path class="st41" d="M182.9,111.4l0.3-0.2c0.3,0.2,0.5,0.6,0.5,1c0,0.2-0.1,0.4-0.2,0.5l-0.3,0.2c0.1-0.1,0.2-0.2,0.2-0.5
					C183.4,112,183.2,111.5,182.9,111.4L182.9,111.4z"/>
			</g>
		</g>
		<g>
			<path class="st42" d="M182.9,111.4c0.3,0.2,0.5,0.6,0.5,1c0,0.4-0.2,0.6-0.5,0.5c-0.3-0.2-0.5-0.6-0.5-1
				C182.4,111.4,182.6,111.2,182.9,111.4z M183,112.2l0.1-0.1c0-0.1-0.1-0.2-0.2-0.3c-0.1-0.1-0.2,0-0.2,0.1l0.1,0.2l0,0.4l0.2,0.1
				L183,112.2L183,112.2z"/>
		</g>
	</g>
</g>
<g>
	<polygon class="st49" points="99.7,29.3 99.7,75.1 80.8,93.6 80,93.1 80.1,40.7 	"/>
</g>
<polygon class="st50" points="80.1,40.7 80.8,41.2 100.4,29.9 100.4,28.9 "/>
<g>
	<polygon class="st51" points="120.9,40.8 120.9,93.2 120.2,93.6 101.1,82.2 101.1,30.2 120.2,41.2 	"/>
</g>
<g>
	<polygon class="st52" points="100.4,29.8 100.4,75.5 80.8,87 80.8,41.2 	"/>
</g>
<g>
	<polygon class="st53" points="120.2,41.2 120.2,87.5 100.4,76.1 100.4,29.8 	"/>
</g>
<g>
	<polygon class="st53" points="120.2,86.2 120.2,93.6 100.5,105 100.6,97.6 	"/>
</g>
<g>
	<polygon class="st52" points="100.6,97.6 100.5,105 80.8,93.6 80.8,86.2 	"/>
</g>
<g>
	<polygon class="st52" points="100.6,97.6 100.5,105 80.8,93.6 80.8,86.2 	"/>
</g>
<polygon class="st54" points="120.9,40.8 120.2,41.3 100.4,29.8 100.4,28.9 "/>
<polygon class="st50" points="120.2,86.2 100.6,97.6 80.8,86.2 100.4,74.8 "/>
<polygon class="st55" points="83.7,86.2 100.4,76.5 117.3,86.2 100.6,95.9 "/>
<polygon class="st55" points="83.7,86.2 100.4,76.5 117.3,86.2 100.6,95.9 "/>
<polygon class="st56" points="112,89.3 100.4,82.6 89,89.3 100.6,95.9 "/>
<g>
	<polygon class="st57" points="100.4,76.5 100.4,82.6 112,89.3 117.3,86.2 	"/>
	<polygon class="st52" points="83.7,86.2 89,89.3 100.4,82.6 100.4,76.5 	"/>
</g>
<polygon class="st58" points="120.2,41.2 120.2,86.2 100.6,97.6 100.6,52.7 "/>
<polygon class="st58" points="100.6,52.7 100.6,97.6 80.8,86.2 80.8,41.2 "/>
<g>
	<g class="st8">
		<g>
			<path class="st59" d="M92.8,49.7l0.8,0.5c-0.2-0.1-0.5-0.1-0.7,0.1l-0.8-0.5C92.4,49.6,92.6,49.6,92.8,49.7z"/>
		</g>
		<g>
			<path class="st59" d="M92.1,52.7l-0.8-0.5c-0.2-0.1-0.3-0.3-0.3-0.7c0-0.7,0.5-1.5,1-1.8l0.8,0.5c-0.6,0.3-1,1.1-1,1.8
				C91.8,52.3,91.9,52.5,92.1,52.7z"/>
		</g>
		<g>
			<path class="st60" d="M92.9,50.2c0.6-0.3,1-0.1,1,0.6c0,0.7-0.5,1.5-1,1.8c-0.6,0.3-1,0.1-1-0.6C91.8,51.3,92.3,50.5,92.9,50.2z"
				/>
		</g>
	</g>
</g>
<g>
	<g>
		<polygon class="st57" points="135.1,100.9 135.1,101.3 126.8,106.1 126.8,105.7 		"/>
	</g>
	<g>
		<polygon class="st52" points="126.8,105.7 126.8,106.1 118.4,101.3 118.4,100.9 		"/>
	</g>
	<polygon class="st50" points="135.1,100.9 126.8,105.7 118.4,100.9 126.7,96 	"/>
</g>
<g>
	<g>
		<polygon class="st57" points="129.8,83.4 129.8,101.2 126.7,102.9 126.7,85.2 		"/>
	</g>
	<g>
		<polygon class="st52" points="126.7,85.2 126.7,102.9 123.7,101.2 123.7,83.4 		"/>
	</g>
	<polygon class="st50" points="129.8,83.4 126.7,85.2 123.7,83.4 126.7,81.6 	"/>
</g>
<path class="st61" d="M116.6,82l0-2.8c0,1.5,1,3,3,4.1l0,2.8C117.6,85,116.6,83.5,116.6,82z"/>
<g>
	<path class="st57" d="M135.1,84.2c-0.1,0.1-0.3,0.2-0.4,0.2c0,0-0.1,0-0.1,0.1c-0.1,0.1-0.2,0.1-0.3,0.2c0,0-0.1,0-0.1,0.1
		c-0.1,0.1-0.3,0.1-0.4,0.2c0,0,0,0-0.1,0c-0.2,0.1-0.3,0.1-0.5,0.2c-3.8,1.3-8.7,0.9-12-0.9l-1.4-0.8c-2-1.1-3-2.6-3-4.1l0,2.8
		c0,1.5,1,3,3,4.1L121,87c3.3,1.9,8.2,2.2,12,1v0c0,0,0,0,0,0c0.2-0.1,0.3-0.1,0.5-0.2c0,0,0,0,0.1,0c0.1-0.1,0.3-0.1,0.4-0.2
		c0,0,0.1,0,0.1-0.1c0.1-0.1,0.2-0.1,0.3-0.2c0,0,0.1,0,0.1-0.1c0.2-0.1,0.3-0.2,0.4-0.2l3.9-2.3l0-2.8L135.1,84.2z"/>
</g>
<path class="st62" d="M138.8,82l-3.9,2.3c-3.9,2.2-10.2,2.2-14.1-0.1l-1.4-0.8c-3.9-2.2-4-5.9-0.2-8.1l3.9-2.3L138.8,82z"/>
<path class="st53" d="M128.1,84.5c-2.4,0-4.7-0.5-6.4-1.5l-1.4-0.8c-1.4-0.8-2.3-1.9-2.3-2.9c0-1,0.7-2,2.1-2.9l3.2-1.9l12.9,7.4
	l-1.8,1.1C132.7,84,130.5,84.5,128.1,84.5z"/>
<path class="st52" d="M120.1,77.7l3.2-1.9l11.8,6.8l1.1-0.7l-12.9-7.4l-3.2,1.9c-1.4,0.8-2.1,1.8-2.1,2.9c0,0.2,0,0.4,0.1,0.6
	C118.4,79.1,119.1,78.3,120.1,77.7z"/>
<g>
	<g class="st8">
		<g>
			<polygon class="st63" points="130.1,74.1 129.5,73.7 129.6,77.4 130.2,77.7 			"/>
		</g>
		<g class="st8">
			<g>
				<path class="st63" d="M129.9,73.6l-0.6-0.4c0.1,0.1,0.2,0.2,0.2,0.4l0.6,0.4C130.1,73.8,130,73.7,129.9,73.6L129.9,73.6z"/>
				<path class="st63" d="M130.1,74l-0.6-0.4c0,0.1,0,0.1,0,0.1l0.6,0.4C130.1,74.1,130.1,74,130.1,74L130.1,74z"/>
			</g>
		</g>
		<g>
			<polygon class="st64" points="128.7,75.3 128.1,75 128.1,75 128.7,75.4 			"/>
		</g>
		<g>
			<polygon class="st63" points="128.1,75.7 127.5,75.3 127.5,75.6 128.1,75.9 			"/>
		</g>
		<g>
			<polygon class="st64" points="128.2,75.6 127.6,75.3 127.5,75.3 128.1,75.7 			"/>
		</g>
		<g>
			<defs>
				<path id="SVGID_1_" d="M130.2,73l-0.6-0.4c-0.2-0.1-0.5-0.1-0.8,0.1l0.6,0.4C129.8,72.9,130,72.9,130.2,73z"/>
			</defs>
			<use xlink:href="#SVGID_1_"  style="overflow:visible;fill:#9ED7E2;"/>
			<clipPath id="SVGID_2_">
				<use xlink:href="#SVGID_1_"  style="overflow:visible;"/>
			</clipPath>
			<g class="st65">
				<path class="st66" d="M130.2,73l-0.6-0.4c-0.1-0.1-0.2-0.1-0.3-0.1l0.6,0.4C130,72.9,130.1,73,130.2,73L130.2,73z"/>
				<path class="st66" d="M129.9,73l-0.6-0.4c-0.1,0-0.2,0-0.2,0.1l0.6,0.4C129.7,73,129.8,73,129.9,73L129.9,73z"/>
				<path class="st66" d="M129.6,73l-0.6-0.4c-0.1,0-0.2,0.1-0.3,0.1l0.6,0.4C129.5,73.1,129.6,73,129.6,73L129.6,73z"/>
			</g>
		</g>
		<g class="st8">
			<defs>
				<path id="SVGID_3_" class="st8" d="M129.4,73.1l-0.6-0.4c0,0-0.1,0-0.1,0.1c-0.3,0.2-0.5,0.5-0.7,0.8c-0.3,0.6-0.3,1.3-0.3,1.6
					l0.6,0.4c0-0.3,0-1,0.3-1.6c0.2-0.4,0.4-0.6,0.7-0.8C129.3,73.2,129.3,73.2,129.4,73.1z"/>
			</defs>
			<use xlink:href="#SVGID_3_"  style="overflow:visible;fill:#9ED7E2;"/>
			<clipPath id="SVGID_4_">
				<use xlink:href="#SVGID_3_"  style="overflow:visible;"/>
			</clipPath>
			<g class="st67">
				<path class="st68" d="M129.4,73.1l-0.6-0.4c0,0,0,0,0,0L129.4,73.1C129.4,73.1,129.4,73.1,129.4,73.1L129.4,73.1z"/>
				<path class="st66" d="M129.4,73.1l-0.6-0.4c0,0-0.1,0-0.1,0.1c-0.1,0-0.1,0.1-0.2,0.1l0.6,0.4c0.1,0,0.1-0.1,0.2-0.1
					C129.3,73.2,129.3,73.2,129.4,73.1L129.4,73.1z"/>
				<path class="st66" d="M129.1,73.3l-0.6-0.4c-0.2,0.2-0.4,0.4-0.5,0.7c-0.1,0.1-0.1,0.3-0.2,0.4l0.6,0.4c0-0.1,0.1-0.3,0.2-0.4
					C128.7,73.8,128.9,73.5,129.1,73.3L129.1,73.3z"/>
				<path class="st66" d="M128.4,74.5l-0.6-0.4c-0.1,0.2-0.1,0.4-0.1,0.5l0.6,0.4C128.3,74.8,128.3,74.7,128.4,74.5L128.4,74.5z"/>
				<path class="st66" d="M128.2,75l-0.6-0.4c0,0.3,0,0.5,0,0.6l0.6,0.4C128.2,75.5,128.2,75.3,128.2,75L128.2,75z"/>
				<polygon class="st69" points="128.2,75.6 127.6,75.3 127.6,75.3 128.2,75.6 128.2,75.6 				"/>
			</g>
		</g>
		<g>
			<path class="st70" d="M129.4,73.1c0,0-0.1,0-0.1,0.1c-0.3,0.2-0.5,0.5-0.7,0.8c-0.3,0.6-0.3,1.3-0.3,1.6l-0.1,0l0,0.3l0.6-0.4
				l0-0.3l-0.1,0c0-0.3,0-0.8,0.2-1.2c0.1-0.2,0.2-0.4,0.4-0.5c0,0,0.1,0,0.1-0.1c0.7-0.4,0.8,0.3,0.8,0.4l0,3.6l0.5-0.3l0-3.6l0,0
				C130.6,73.3,130.3,72.6,129.4,73.1z"/>
		</g>
	</g>
</g>
<path class="st71" d="M127.1,83.1c0.1-0.5-0.4-1-1.1-1.1c-0.7-0.1-1.3,0.1-1.4,0.6c-0.1,0.5,0.4,1,1.1,1.1S127,83.6,127.1,83.1z"/>
<g class="st8">
	<g>
		<polygon class="st72" points="107.5,120.9 108.8,120.2 108.9,103.6 107.6,104.3 		"/>
	</g>
	<g>
		<polygon class="st72" points="107.6,104.3 108.9,103.6 71.1,81.8 69.8,82.6 		"/>
	</g>
	<g>
		<polygon class="st72" points="69.8,82.6 69.7,99.1 107.5,120.9 107.6,104.3 		"/>
	</g>
</g>
<g class="st8">
	<g>
		<polygon class="st72" points="84.2,90.9 85.5,90.2 85.6,39 84.3,39.8 		"/>
	</g>
	<g>
		<polygon class="st72" points="84.3,39.8 85.6,39 71.1,30.7 69.8,31.4 		"/>
	</g>
	<g>
		<polygon class="st72" points="69.8,31.4 69.7,82.6 84.2,90.9 84.3,39.8 		"/>
	</g>
</g>
<g>
	<path class="st73" d="M91.2,162.9c-0.1,0-0.2,0-0.2-0.1l-16.3-9.5c-0.1-0.1-0.2-0.2-0.2-0.4c0-0.2,0.1-0.3,0.2-0.4l29-16.8
		c0.1,0,0.1-0.1,0.2-0.1c0.1,0,0.2,0,0.2,0.1l16.3,9.5c0.1,0.1,0.2,0.2,0.2,0.4c0,0.2-0.1,0.3-0.2,0.4l-29,16.8
		C91.3,162.9,91.2,162.9,91.2,162.9z"/>
	<polygon class="st27" points="74.8,153 91.2,162.5 120.2,145.7 103.8,136.2 	"/>
</g>
<polygon class="st74" points="78.1,151.1 74.8,153 91.2,162.5 94.4,160.6 "/>
<polygon class="st74" points="103.8,136.2 100.6,138.1 116.9,147.6 120.2,145.7 "/>
<g>
	<path class="st74" d="M102.6,145.9c3,1.8,3.1,4.6,0,6.3c-3,1.8-7.9,1.8-11,0c-3-1.8-3.1-4.6,0-6.3
		C94.7,144.2,99.6,144.2,102.6,145.9z"/>
</g>
<g>
	<g>
		<g>
			<g class="st8">
				<g>
					<polygon class="st75" points="156.8,112.7 147.4,107.2 147.7,107.1 157.1,112.5 					"/>
				</g>
				<g>
					<polygon class="st76" points="145.6,119.1 136.3,113.7 147.4,107.2 156.8,112.7 					"/>
				</g>
				<g>
					<polygon class="st76" points="145.2,119.3 135.9,113.9 136.3,113.7 145.6,119.1 					"/>
				</g>
				<g>
					<polygon class="st77" points="145.3,120.8 135.9,115.4 135.9,113.9 145.2,119.3 					"/>
				</g>
				<g>
					<polygon class="st78" points="157.1,112.5 157.1,114 145.3,120.8 145.2,119.3 145.6,119.1 156.8,112.7 					"/>
				</g>
				<g>
					<polygon class="st79" points="154,104.1 144.7,98.7 149,96.2 158.3,101.7 					"/>
				</g>
				<g>
					<polygon class="st78" points="146.4,118.7 137,113.2 137.3,108.2 146.7,113.6 					"/>
				</g>
				<g>
					<polygon class="st79" points="143.4,110.3 134.1,104.9 144.7,98.7 154,104.1 					"/>
				</g>
				<g>
					<path class="st77" d="M158.3,101.7l-2.7,6.7l0.3,4.7l-9.6,5.5l0.3-5.1c-1.8,1.1-3.3-0.2-3.3-2.7c0-0.2,0-1.8,0-2l10.6-4.7
						L158.3,101.7z"/>
				</g>
				<g>
					<g class="st8">
						<path class="st80" d="M140.4,111.3l-5.1-3c-0.7-0.4-1.2-1.4-1.2-2.9c0-0.2,0-0.4,0-0.6l9.4,4.2c0,0.2,0,1.7,0,1.9
							c0,1.4,0.5,2.4,1.2,2.9l0,0L140.4,111.3L140.4,111.3z"/>
					</g>
				</g>
			</g>
		</g>
		<g>
			<g class="st8">
				<g>
					<polygon class="st81" points="154.6,103.8 143.5,97.4 143.5,97.2 154.6,103.7 					"/>
				</g>
				<g>
					<polygon class="st81" points="154.6,103.7 143.5,97.2 143.5,97 154.6,103.4 					"/>
				</g>
				<g>
					<polygon class="st61" points="154.6,103.4 143.5,97 143.5,92 154.6,98.5 					"/>
				</g>
				<g>
					<defs>
						<path id="SVGID_5_" d="M147.6,82.4l11.1,6.5c-0.1-0.1-0.3-0.1-0.4,0l-11.1-6.5C147.3,82.4,147.5,82.4,147.6,82.4z"/>
					</defs>
					<use xlink:href="#SVGID_5_"  style="overflow:visible;fill:#E1E4EA;"/>
					<clipPath id="SVGID_6_">
						<use xlink:href="#SVGID_5_"  style="overflow:visible;"/>
					</clipPath>
					<g class="st82">
						<path class="st80" d="M158.3,88.9l-11.1-6.5c0.1-0.1,0.2-0.1,0.3-0.1l11.1,6.5C158.5,88.8,158.4,88.9,158.3,88.9L158.3,88.9z"
							/>
						<path class="st80" d="M158.6,88.8l-11.1-6.5c0.1,0,0.1,0,0.1,0l11.1,6.5C158.7,88.8,158.6,88.8,158.6,88.8L158.6,88.8z"/>
					</g>
				</g>
				<g>
					<polygon class="st61" points="154.6,98.5 143.5,92 143.5,85.4 154.6,91.9 					"/>
				</g>
				<g>
					<polygon class="st80" points="155.2,90.7 144.1,84.2 147.2,82.5 158.3,88.9 					"/>
				</g>
				<g>
					<defs>
						<path id="SVGID_7_" d="M154.6,91.9l-11.1-6.5c0-0.4,0.3-1,0.6-1.2l11.1,6.5C154.9,90.9,154.6,91.4,154.6,91.9z"/>
					</defs>
					<use xlink:href="#SVGID_7_"  style="overflow:visible;fill:#E1E4EA;"/>
					<clipPath id="SVGID_8_">
						<use xlink:href="#SVGID_7_"  style="overflow:visible;"/>
					</clipPath>
					<g class="st83">
						<path class="st61" d="M154.6,91.9l-11.1-6.5c0-0.2,0-0.3,0.1-0.5l11.1,6.5C154.6,91.5,154.6,91.7,154.6,91.9L154.6,91.9z"/>
						<path class="st61" d="M154.7,91.4l-11.1-6.5c0-0.1,0.1-0.2,0.1-0.3l11.1,6.5C154.8,91.2,154.7,91.3,154.7,91.4L154.7,91.4z"/>
						<path class="st80" d="M154.8,91.1l-11.1-6.5c0.1-0.2,0.2-0.3,0.4-0.4l11.1,6.5C155.1,90.8,154.9,90.9,154.8,91.1L154.8,91.1z"
							/>
					</g>
				</g>
				<g>
					<path class="st78" d="M158.3,88.9c0.4-0.2,0.6,0,0.6,0.4l0,6.6l0,5l0,0.3l-0.1,0.2l-4.3,2.5l0-0.1l0-0.3l0-5l0-6.6
						c0-0.4,0.3-1,0.6-1.2L158.3,88.9z"/>
				</g>
			</g>
		</g>
		<g>
			<g class="st8">
				<g class="st8">
					<g class="st8">
						<path class="st84" d="M147.5,107c-0.5,0.3-1.1,0.6-1.7,0.8c-1.5,0.5-3.3,0.7-5,0.5l0,1.1c1.7,0.1,3.4,0,5-0.5
							c0.6-0.2,1.2-0.5,1.7-0.8l7.2-4.2l0-1.1L147.5,107z"/>
						<path class="st84" d="M140.8,108.3l0,1.1c-1.6-0.1-3.2-0.6-4.5-1.3c-1.6-0.9-2.3-2.1-2.3-3.2l0-1.1c0,1.2,0.8,2.4,2.3,3.2
							C137.6,107.8,139.2,108.2,140.8,108.3L140.8,108.3z"/>
					</g>
				</g>
				<g>
					<path class="st85" d="M154.7,102.9l-7.2,4.2c-3.1,1.8-8.1,1.8-11.1,0c-3.1-1.8-3.1-4.7,0-6.5l7.2-4.2L154.7,102.9z"/>
				</g>
			</g>
		</g>
		<g>
			<g class="st8">
				<g>
					<path class="st86" d="M151.7,85.7c0.5,0.3,0.4,0.8,0,1c-0.5,0.3-1.2,0.3-1.7,0c-0.5-0.3-0.4-0.8,0-1
						C150.5,85.4,151.2,85.4,151.7,85.7z"/>
				</g>
				<g>
					<path class="st87" d="M151.7,85.7c0.5,0.3,0.4,0.7,0,1c-0.5,0.3-1.2,0.3-1.7,0c-0.5-0.3-0.4-0.7,0-1
						C150.5,85.4,151.2,85.4,151.7,85.7z"/>
				</g>
			</g>
		</g>
	</g>
	<path class="st88" d="M154.7,102.9l-7.2,4.2c-3.1,1.8-8.1,1.8-11.1,0c-3.1-1.8-3.1-4.7,0-6.5l7.2-4.2L154.7,102.9z"/>
	<g>
		<g class="st8">
			<g>
				<polygon class="st89" points="153.7,103.5 154.6,102.9 154.7,94.3 153.7,94.9 				"/>
			</g>
			<g class="st8">
				<defs>
					<path id="SVGID_9_" class="st8" d="M145.1,84.3l-1,0.6c1-0.6,2.4-0.5,4,0.4l1-0.6C147.6,83.8,146.2,83.7,145.1,84.3z"/>
				</defs>
				<clipPath id="SVGID_10_">
					<use xlink:href="#SVGID_9_"  style="overflow:visible;"/>
				</clipPath>
				<g class="st90">
					<path class="st89" d="M148.1,85.3l1-0.6c-0.6-0.3-1.2-0.6-1.7-0.7l-1,0.6C147,84.7,147.5,84.9,148.1,85.3L148.1,85.3z"/>
					<path class="st89" d="M146.4,84.6l1-0.6c-0.8-0.2-1.6-0.1-2.2,0.2l-1,0.6C144.9,84.5,145.6,84.4,146.4,84.6L146.4,84.6z"/>
					<path class="st91" d="M144.2,84.8l1-0.6c0,0-0.1,0-0.1,0.1L144.2,84.8C144.2,84.9,144.2,84.9,144.2,84.8L144.2,84.8z"/>
				</g>
			</g>
			<g class="st8">
				<defs>
					<path id="SVGID_11_" class="st8" d="M153.7,94.9l1-0.6c0-3.5-2.5-7.8-5.6-9.6l-1,0.6C151.2,87.1,153.7,91.4,153.7,94.9z"/>
				</defs>
				<clipPath id="SVGID_12_">
					<use xlink:href="#SVGID_11_"  style="overflow:visible;"/>
				</clipPath>
				<g class="st92">
					<path class="st89" d="M153.7,94.9l1-0.6c0-1.4-0.4-2.8-1-4.2l-1,0.6C153.3,92.1,153.7,93.6,153.7,94.9L153.7,94.9z"/>
					<path class="st89" d="M152.7,90.7l1-0.6c-0.5-1.1-1.1-2.1-1.9-3l-1,0.6C151.6,88.6,152.2,89.6,152.7,90.7L152.7,90.7z"/>
					<path class="st89" d="M150.8,87.7l1-0.6c-0.8-1-1.7-1.8-2.7-2.4l-1,0.6C149.1,85.8,150,86.7,150.8,87.7L150.8,87.7z"/>
				</g>
			</g>
			<g>
				<path class="st93" d="M148.1,85.3c-3.1-1.8-5.6-0.4-5.6,3.2l0,8.5l11.2,6.4l0-8.5C153.7,91.4,151.2,87.1,148.1,85.3z"/>
			</g>
		</g>
	</g>
</g>
<g>
	<path class="st77" d="M150.3,103.4l0.9-0.5l-4.5,2.6c-0.8,0.5-1.9,0.8-3.1,1v-7L150.3,103.4z"/>
	<path class="st77" d="M135.8,103.8c0,0.1,0,0.2,0,0.2C135.8,104,135.8,103.9,135.8,103.8z"/>
	<path class="st94" d="M135.9,104.3c0.2-0.4,0.7-0.8,1.3-1.2l6.3-3.7v7c-0.5,0.1-1,0.1-1.6,0.1c-1.8,0-3.5-0.4-4.7-1.1
		c-0.8-0.4-1.3-1-1.4-1.5C135.8,104.1,135.9,104.2,135.9,104.3z"/>
	<path class="st78" d="M135.8,104C135.8,104,135.8,104,135.8,104C135.8,104,135.8,104,135.8,104z"/>
	<path class="st95" d="M137.2,103.1c-0.6,0.4-1.1,0.8-1.3,1.2c0-0.1-0.1-0.2-0.1-0.2c0,0,0,0,0,0c0-0.1,0-0.2,0-0.2
		c0-0.5,0.5-1.2,1.4-1.7l6.3-3.7v1L137.2,103.1z"/>
	<polygon class="st78" points="143.5,99.5 143.5,98.4 151.2,102.9 150.3,103.4 	"/>
</g>
<g class="st8">
	<g>
		<polygon class="st96" points="130.2,133.5 128.9,132.8 128.8,116.2 130.1,117 		"/>
	</g>
	<g>
		<polygon class="st96" points="130.1,117 128.8,116.2 159.4,98.7 160.7,99.5 		"/>
	</g>
	<g>
		<polygon class="st96" points="160.7,99.5 160.7,116 130.2,133.5 130.1,117 		"/>
	</g>
</g>
<g>
	<path class="st87" d="M137.6,92.4c0.3-0.2,0.5,0,0.5,0.3c0,0.3-0.2,0.7-0.5,0.9c-0.3,0.2-0.5,0-0.5-0.3
		C137.1,92.9,137.3,92.5,137.6,92.4z"/>
</g>
<g>
	<g>
		<polygon class="st97" points="134.4,90.5 134.4,91 135.2,90.5 135.2,90 		"/>
	</g>
	<polygon class="st98" points="136.2,92.2 133.3,90.5 133.3,91 136.2,92.7 	"/>
	<polygon class="st99" points="136.2,91.6 134.4,90.5 135.2,90 134.7,89.7 133.3,90.5 136.2,92.2 	"/>
</g>
<g>
	<g class="st8">
		<path class="st100" d="M139.3,91.6l-3.1-1.8c0,0,0,0,0,0L139.3,91.6C139.3,91.6,139.3,91.6,139.3,91.6L139.3,91.6z"/>
		<path class="st61" d="M136.9,93.9c0-0.1,0-0.2,0-0.2c0,0,0,0,0,0c0-0.1,0-0.1,0.1-0.2c0,0,0,0,0-0.1c0-0.1,0.1-0.2,0.1-0.2
			c0,0,0,0,0-0.1c0,0,0-0.1,0.1-0.1c0,0,0,0,0-0.1c0,0,0-0.1,0.1-0.1c0,0,0,0,0-0.1c0,0,0.1-0.1,0.1-0.1c0,0,0,0,0-0.1
			c0,0,0.1-0.1,0.1-0.1c0,0,0,0,0,0c0-0.1,0.1-0.1,0.1-0.2c0,0,0,0,0,0c0,0,0.1-0.1,0.1-0.1c0,0,0,0,0.1,0c0,0,0.1-0.1,0.1-0.1
			c0,0,0,0,0.1,0c0.1,0,0.1-0.1,0.2-0.1c0,0,0.1,0,0.1-0.1c0,0,0,0,0,0c0,0,0.1,0,0.1,0c0,0,0,0,0,0c0,0,0.1,0,0.1,0c0,0,0,0,0,0
			c0,0,0,0,0,0c0,0,0.1,0,0.1,0c0,0,0,0,0,0c0,0,0.1,0,0.1,0c0,0,0,0,0,0c0,0,0.1,0,0.1,0c0,0,0,0,0,0c0,0,0,0,0.1,0c0,0,0,0,0.1,0
			l-3.1-1.8c0,0,0,0,0,0l0,0c0,0,0,0,0,0c0,0,0,0-0.1,0c0,0,0,0,0,0c0,0-0.1,0-0.1,0c0,0,0,0,0,0c0,0-0.1,0-0.1,0c0,0,0,0,0,0
			c0,0-0.1,0-0.1,0c0,0,0,0,0,0c0,0,0,0,0,0c0,0,0,0,0,0c0,0-0.1,0-0.1,0c0,0,0,0,0,0c0,0-0.1,0-0.1,0c0,0,0,0,0,0
			c0,0-0.1,0-0.1,0.1c-0.1,0-0.1,0.1-0.2,0.1c0,0,0,0-0.1,0c0,0-0.1,0.1-0.1,0.1c0,0,0,0-0.1,0c0,0-0.1,0.1-0.1,0.1c0,0,0,0,0,0
			c0,0.1-0.1,0.1-0.1,0.2c0,0,0,0,0,0c0,0,0,0,0,0c0,0-0.1,0.1-0.1,0.1c0,0,0,0,0,0.1c0,0-0.1,0.1-0.1,0.1c0,0,0,0,0,0.1
			c0,0,0,0.1-0.1,0.1c0,0,0,0,0,0.1c0,0,0,0.1-0.1,0.1c0,0,0,0,0,0c0,0,0,0,0,0c0,0.1-0.1,0.2-0.1,0.2c0,0,0,0,0,0.1
			c0,0.1,0,0.1-0.1,0.2c0,0,0,0,0,0c0,0.1,0,0.2,0,0.2c0,0,0,0,0,0.1c0,0.1,0,0.2,0,0.2c0,0.2,0,0.3,0.1,0.4
			c0.1,0.2,0.2,0.4,0.4,0.5l3.1,1.8c-0.3-0.1-0.4-0.5-0.4-0.9C136.9,94.1,136.9,94,136.9,93.9C136.9,93.9,136.9,93.9,136.9,93.9z"/>
		<g>
			<path class="st80" d="M138.3,91.7c0.8-0.5,1.4-0.1,1.4,0.8c0,0.9-0.6,2-1.4,2.5c-0.8,0.5-1.4,0.1-1.4-0.8
				C136.9,93.3,137.5,92.2,138.3,91.7z"/>
		</g>
		<g>
			<path class="st87" d="M138.3,92.8c0.3-0.2,0.5,0,0.5,0.3s-0.2,0.7-0.5,0.9c-0.3,0.2-0.5,0-0.5-0.3
				C137.8,93.3,138.1,92.9,138.3,92.8z"/>
		</g>
	</g>
</g>
<polygon class="st97" points="139.4,94 139.4,94.5 140.7,93.7 140.7,93.2 "/>
<g>
	<polygon class="st99" points="140.2,92.9 139.3,93.4 138.3,92.8 138.3,93.4 139.4,94 140.7,93.2 	"/>
	<g>
		<polygon class="st98" points="138.3,93.9 139.4,94.5 139.4,94 138.3,93.4 		"/>
		<path class="st98" d="M138.7,93.6l-0.7-0.4c-0.1,0.1-0.1,0.3-0.1,0.4l0.5,0.3C138.5,93.8,138.6,93.7,138.7,93.6z"/>
	</g>
	<path class="st99" d="M138.3,92.8c-0.1,0.1-0.2,0.2-0.3,0.4l0.7,0.4c0.1-0.1,0.1-0.3,0.2-0.5L138.3,92.8z"/>
</g>
<path class="st101" d="M105.4,163.8l0.1,5.9v0l0,0l8.6,5l0,2.7l23.1-13.3l-0.1-8.5l-2.2,1.3l-8.6-5l0,10l-1.6,0.9l-8.6-5l0,0.6
	l-0.5-0.3l0,10l-1.5,0.9L105.4,163.8z M125.7,163.3l0.1-5.3l0,0L125.7,163.3L125.7,163.3z"/>
<g>
	<polygon class="st102" points="137.1,155.5 127.4,149.9 104.3,163.2 114,168.8 	"/>
</g>
<g>
	<polygon class="st103" points="114,168.8 104.3,163.2 104.4,171.7 114.1,177.3 	"/>
</g>
<g class="st8">
	<g>
		<polygon class="st104" points="126,157.5 124.6,156.7 126.1,155.8 127.5,156.6 		"/>
	</g>
	<g>
		<polygon class="st104" points="119.8,161 118.4,160.2 124.6,156.7 126,157.5 		"/>
	</g>
	<g>
		<polygon class="st104" points="118.3,161.9 116.9,161.1 118.4,160.2 119.8,161 		"/>
	</g>
	<g>
		<polygon class="st105" points="118.3,162.5 116.9,161.7 116.9,161.1 118.3,161.9 		"/>
	</g>
	<g>
		<polygon class="st106" points="127.5,156.6 127.5,157.2 118.3,162.5 118.3,161.9 119.8,161 126,157.5 		"/>
	</g>
</g>
<g class="st8">
	<g class="st8">
		<g class="st8">
			<path class="st107" d="M133.3,150.1l-1.4-0.8c0.3-0.2,0.5-0.6,0.5-0.9l1.4,0.8C133.8,149.5,133.6,149.9,133.3,150.1L133.3,150.1z
				"/>
		</g>
	</g>
	<g>
		<polygon class="st105" points="133.8,149.2 132.4,148.3 132.4,136.6 133.8,137.4 		"/>
	</g>
	<g class="st8">
		<g class="st8">
			<path class="st107" d="M133.8,137.4l-1.4-0.8c0-0.2-0.1-0.3-0.2-0.3l1.4,0.8C133.7,137.1,133.8,137.2,133.8,137.4L133.8,137.4z"
				/>
		</g>
	</g>
	<g class="st8">
		<g class="st8">
			<path class="st108" d="M133.3,137.1l-1.4-0.8c0.2-0.1,0.3-0.1,0.4,0l1.4,0.8C133.5,137,133.4,137,133.3,137.1L133.3,137.1z"/>
		</g>
	</g>
	<g class="st8">
		<g class="st8">
			<path class="st107" d="M133.6,136.2l-1.4-0.8c0.2-0.1,0.5-0.2,0.6-0.1l1.4,0.8C134.1,136,133.9,136,133.6,136.2L133.6,136.2z"/>
		</g>
	</g>
	<g>
		<polygon class="st109" points="119.8,159.4 118.4,158.6 124.6,155.1 126,155.9 		"/>
	</g>
	<g>
		<polygon class="st110" points="119.8,161 118.4,160.2 118.4,158.6 119.8,159.4 		"/>
	</g>
	<g>
		<polygon class="st111" points="126,155.9 126,157.5 119.8,161 119.8,159.4 		"/>
	</g>
	<g>
		<polygon class="st104" points="112.5,162.1 111.1,161.3 131.9,149.3 133.3,150.1 		"/>
	</g>
	<g class="st8">
		<g class="st8">
			<path class="st107" d="M112.1,162.1l-1.4-0.8c0.1,0.1,0.2,0,0.4,0l1.4,0.8C112.4,162.2,112.2,162.2,112.1,162.1L112.1,162.1z"/>
		</g>
	</g>
	<g class="st8">
		<g class="st8">
			<path class="st107" d="M111.5,163.9l-1.4-0.8c-0.2-0.1-0.3-0.3-0.3-0.6l1.4,0.8C111.2,163.6,111.3,163.8,111.5,163.9L111.5,163.9
				z"/>
		</g>
	</g>
	<g class="st8">
		<g class="st8">
			<path class="st108" d="M112.1,162.1l-1.4-0.8c-0.1-0.1-0.2-0.2-0.2-0.3l1.4,0.8C112,161.9,112,162.1,112.1,162.1L112.1,162.1z"/>
		</g>
	</g>
	<g>
		<polygon class="st105" points="111.2,163.4 109.9,162.6 109.9,161.4 111.2,162.2 		"/>
	</g>
	<g>
		<polygon class="st112" points="112,161.8 110.6,161 110.5,149.2 111.9,150 		"/>
	</g>
	<g>
		<polygon class="st105" points="111.2,162.2 109.9,161.4 109.8,150.5 111.2,151.3 		"/>
	</g>
	<g>
		<polygon class="st113" points="112.5,149.1 111.1,148.3 131.9,136.3 133.3,137.1 		"/>
	</g>
	<g class="st8">
		<g class="st8">
			<path class="st108" d="M111.9,150l-1.4-0.8c0-0.3,0.2-0.8,0.5-0.9l1.4,0.8C112.2,149.3,111.9,149.7,111.9,150L111.9,150z"/>
		</g>
	</g>
	<g>
		<polygon class="st105" points="111.2,151.3 109.8,150.5 109.8,149.4 111.2,150.2 		"/>
	</g>
	<g>
		<polygon class="st104" points="112.1,148.6 110.7,147.8 132.2,135.4 133.6,136.2 		"/>
	</g>
	<g class="st8">
		<g class="st8">
			<path class="st107" d="M111.2,150.2l-1.4-0.8c0-0.6,0.4-1.3,0.9-1.5l1.4,0.8C111.6,148.9,111.2,149.6,111.2,150.2L111.2,150.2z"
				/>
		</g>
	</g>
	<path class="st106" d="M134.5,148.8l0-10.9l0-1.1c0-0.6-0.4-0.8-0.9-0.5l-21.5,12.4c-0.5,0.3-0.9,1-0.9,1.5l0,1.1l0,10.9l0,1.1
		c0,0.6,0.4,0.8,0.9,0.5l7.7-4.4l6.2-3.6l7.7-4.4c0.5-0.3,0.9-1,0.9-1.5L134.5,148.8z M133.6,137c0,0-0.1,0-0.1,0
		C133.5,137,133.5,137,133.6,137z M133.5,149.9c0.1-0.1,0.2-0.3,0.3-0.5C133.7,149.6,133.6,149.8,133.5,149.9z"/>
</g>
<g>
	<path class="st33" d="M67.6,101.6c0.6-0.1,1.1-0.1,1.3-0.1c0.2,0,0.4,0,0.8,0c0.3,0,0.6,0,0.8,0.1c0.2,0,0.8,0.1,1.4,0.3
		c0.6,0.2,0.9,0.3,1.1,0.4c-0.5-0.3-1.7-0.4-3.1-0.3c-0.2-0.1-0.7-0.2-1.1-0.1c-0.4,0.1-0.6,0.2-0.4,0.3c0.2,0.1,0.7,0.2,1.1,0.1
		c0.4-0.1,0.6-0.2,0.4-0.3c1.4-0.1,2.5,0,3.1,0.3c0.1,0,0.2,0.1,0.3,0.2c0.1,0.1,0.2,0.2,0.3,0.2c0.1,0.1,0.1,0.1,0.2,0.2
		c0,0.1,0.1,0.2,0.1,0.2c0.1,0.5-0.8,1-2.6,1.2c-2.3,0.3-5.1,0-6.2-0.6c-0.4-0.2-0.5-0.4-0.5-0.7c0-0.1,0.1-0.2,0.1-0.2
		c0.1-0.1,0.1-0.2,0.2-0.2c0.1-0.1,0.2-0.2,0.3-0.2c0.2-0.1,0.2-0.1,0.5-0.3c0.2-0.1,0.5-0.2,0.9-0.3
		C66.8,101.7,67.2,101.6,67.6,101.6z"/>
</g>
<g>
	<path class="st114" d="M68.3,102l0-27.7c0,0,0,0.1,0.1,0.1c0.2,0.1,0.7,0.2,1.1,0.1c0.3,0,0.5-0.1,0.5-0.2l0,27.7
		c0,0.1-0.2,0.2-0.5,0.2c-0.4,0.1-0.9,0-1.1-0.1C68.3,102.1,68.3,102.1,68.3,102z"/>
</g>
<g>
	<path class="st27" d="M62.4,78.6c0.7-3.4,1.4-6.9,2.1-10.3c0,0.2,0.1,0.4,0.5,0.6c1.1,0.6,3.9,0.9,6.3,0.6c1.7-0.2,2.7-0.7,2.6-1.2
		c0.7,3.4,1.3,6.9,2,10.3c0.1,0.7-1.3,1.4-3.8,1.8c-3.3,0.4-7.4,0.1-9-0.9C62.6,79.2,62.4,78.9,62.4,78.6z"/>
</g>
<g>
	<path class="st115" d="M73.4,67.7c1.1,0.6,0.2,1.4-2.1,1.7c-2.3,0.3-5.1,0-6.3-0.6c-1.1-0.6-0.2-1.4,2.1-1.7
		C69.4,66.8,72.2,67.1,73.4,67.7z"/>
</g>
<g>
	<g class="st8">
		<g>
			<polygon class="st116" points="63.1,150.1 61.7,149.3 61.7,154.1 63.1,154.9 			"/>
		</g>
		<g>
			<polygon class="st117" points="64.7,149.2 63.3,148.4 61.7,149.3 63.1,150.1 			"/>
		</g>
		<g>
			<polygon class="st118" points="63.1,150.1 63.1,154.9 64.7,154 64.7,149.2 			"/>
		</g>
	</g>
</g>
<g>
	<g class="st8">
		<g>
			<polygon class="st116" points="19.5,124.8 18.1,124.1 18.1,128.9 19.5,129.7 			"/>
		</g>
		<g>
			<polygon class="st117" points="21,123.9 19.7,123.2 18.1,124.1 19.5,124.8 			"/>
		</g>
		<g>
			<polygon class="st119" points="19.5,124.8 19.5,129.7 21,128.8 21,123.9 			"/>
		</g>
	</g>
</g>
<g>
	<g class="st8">
		<g>
			<polygon class="st118" points="98.2,130 96.8,129.2 96.8,134.1 98.2,134.9 			"/>
		</g>
		<g>
			<polygon class="st117" points="99.7,129.1 98.4,128.3 96.8,129.2 98.2,130 			"/>
		</g>
		<g>
			<polygon class="st118" points="98.2,130 98.2,134.9 99.7,134 99.7,129.1 			"/>
		</g>
	</g>
</g>
<g>
	<g class="st8">
		<g>
			<polygon class="st103" points="19.4,120.1 19.4,127.7 63.2,153.2 63.2,145.5 			"/>
		</g>
		<g>
			<polygon class="st118" points="63.2,145.5 63.2,153.2 100.4,131.7 100.4,124 			"/>
		</g>
		<g>
			<polygon class="st120" points="19.4,120.1 63.2,145.5 100.4,124 56.7,98.6 			"/>
		</g>
	</g>
</g>
<g>
	<g class="st8">
		<path class="st116" d="M52.5,83.4l-1.3-0.7c-3.4,0.7-8.6,2.9-14.5,6.3l1.3,0.7C43.8,86.4,49.1,84.2,52.5,83.4L52.5,83.4z"/>
		<path class="st116" d="M18.1,105C18.1,105,18.1,105,18.1,105c0-0.1,0-0.2,0-0.2c0,0,0,0,0-0.1c0,0,0-0.1,0-0.1
			c0-0.1,0-0.1,0.1-0.2c0,0,0-0.1,0.1-0.1c0,0,0-0.1,0-0.1c0,0,0-0.1,0-0.1c0-0.1,0.1-0.2,0.1-0.3c0-0.1,0.1-0.1,0.1-0.2
			c0.1-0.1,0.1-0.2,0.2-0.3c0,0,0-0.1,0.1-0.1c0,0,0,0,0,0c0,0,0.1-0.1,0.1-0.1c0.1-0.1,0.1-0.2,0.2-0.3c0,0,0.1-0.1,0.1-0.1
			c0.1-0.1,0.1-0.2,0.2-0.3c0,0,0.1-0.1,0.1-0.1c0.1-0.1,0.2-0.2,0.3-0.3c0,0,0.1-0.1,0.1-0.1c0.1-0.1,0.2-0.3,0.4-0.4
			c0,0,0.1-0.1,0.1-0.1c0.1-0.1,0.2-0.2,0.3-0.4c0-0.1,0.1-0.1,0.1-0.2c0.1-0.1,0.2-0.2,0.3-0.3c0.1-0.1,0.1-0.1,0.2-0.2
			c0.1-0.1,0.2-0.2,0.3-0.3c0.1-0.1,0.1-0.1,0.2-0.2c0.2-0.2,0.3-0.3,0.5-0.5c0,0,0,0,0,0c0.2-0.2,0.4-0.3,0.5-0.5
			c0.1-0.1,0.1-0.1,0.2-0.2c0.1-0.1,0.3-0.2,0.4-0.4c0.1-0.1,0.1-0.1,0.2-0.2c0.1-0.1,0.3-0.2,0.4-0.3c0.1-0.1,0.1-0.1,0.2-0.2
			c0.2-0.1,0.3-0.3,0.5-0.4c0.1,0,0.1-0.1,0.2-0.1c0.2-0.2,0.4-0.3,0.6-0.5c0,0,0.1-0.1,0.2-0.1c0.2-0.1,0.3-0.3,0.5-0.4
			c0.1-0.1,0.2-0.1,0.2-0.2c0.2-0.1,0.3-0.2,0.5-0.4c0.1-0.1,0.2-0.1,0.3-0.2c0.2-0.1,0.3-0.2,0.5-0.4c0.1-0.1,0.2-0.1,0.2-0.2
			c0.2-0.2,0.5-0.4,0.7-0.5c0,0,0,0,0,0c0.3-0.2,0.5-0.4,0.8-0.5c0.1-0.1,0.2-0.1,0.2-0.2c0.2-0.1,0.4-0.3,0.5-0.4
			c0.1-0.1,0.2-0.1,0.3-0.2c0.2-0.1,0.4-0.2,0.5-0.4c0.1-0.1,0.2-0.1,0.3-0.2c0.2-0.1,0.4-0.3,0.6-0.4c0.1,0,0.1-0.1,0.2-0.1
			c0.3-0.2,0.6-0.4,0.8-0.5c0.1,0,0.1-0.1,0.2-0.1c0.2-0.1,0.4-0.3,0.6-0.4c0.1-0.1,0.2-0.1,0.3-0.2c0.2-0.1,0.4-0.2,0.6-0.4
			c0.1-0.1,0.2-0.1,0.3-0.2c0.2-0.1,0.4-0.2,0.6-0.4c0.1-0.1,0.2-0.1,0.3-0.2c0.3-0.2,0.6-0.3,0.9-0.5l0,0
			c5.9-3.4,11.1-5.6,14.5-6.3l0,0c0,0,0.1,0,0.1,0c0.1,0,0.1,0,0.2,0c0.1,0,0.2,0,0.2,0c0.1,0,0.1,0,0.2,0c0.1,0,0.2,0,0.2,0
			c0.1,0,0.1,0,0.2,0c0.1,0,0.2,0,0.2,0c0.1,0,0.1,0,0.2,0c0.1,0,0.2,0,0.2,0c0,0,0.1,0,0.1,0c0.1,0,0.2,0,0.2,0c0,0,0.1,0,0.1,0
			c0.1,0,0.2,0,0.3,0c0,0,0,0,0.1,0c0.1,0,0.1,0,0.2,0c0,0,0,0,0,0c0.1,0,0.2,0.1,0.4,0.1c0,0,0.1,0,0.1,0c0.1,0,0.2,0.1,0.3,0.1
			l1.3,0.7c-0.1-0.1-0.2-0.1-0.3-0.1c0,0-0.1,0-0.1,0c-0.1,0-0.2-0.1-0.4-0.1c-0.1,0-0.1,0-0.2,0c0,0,0,0-0.1,0c-0.1,0-0.2,0-0.3,0
			c0,0-0.1,0-0.1,0c-0.1,0-0.2,0-0.2,0c0,0-0.1,0-0.1,0c-0.1,0-0.1,0-0.2,0c-0.1,0-0.1,0-0.2,0c-0.1,0-0.2,0-0.2,0
			c-0.1,0-0.1,0-0.2,0c-0.1,0-0.2,0-0.2,0c-0.1,0-0.1,0-0.2,0c-0.1,0-0.2,0-0.2,0c-0.1,0-0.1,0-0.2,0c-3.4,0.7-8.7,2.9-14.6,6.3l0,0
			c-0.3,0.2-0.6,0.3-0.9,0.5c-0.1,0.1-0.2,0.1-0.3,0.2c-0.2,0.1-0.4,0.2-0.6,0.4c-0.1,0.1-0.2,0.1-0.3,0.2c-0.2,0.1-0.4,0.2-0.6,0.4
			c-0.1,0.1-0.2,0.1-0.3,0.2c-0.2,0.1-0.4,0.3-0.7,0.4c-0.1,0-0.1,0.1-0.2,0.1c-0.3,0.2-0.6,0.4-0.8,0.5c-0.1,0-0.1,0.1-0.2,0.1
			c-0.2,0.1-0.4,0.3-0.6,0.4c-0.1,0.1-0.2,0.1-0.3,0.2c-0.2,0.1-0.4,0.2-0.5,0.4c-0.1,0.1-0.2,0.1-0.3,0.2c-0.2,0.1-0.4,0.3-0.5,0.4
			c-0.1,0.1-0.2,0.1-0.2,0.2c-0.3,0.2-0.5,0.4-0.8,0.5c0,0,0,0,0,0c-0.2,0.2-0.5,0.4-0.7,0.5c-0.1,0.1-0.2,0.1-0.2,0.2
			c-0.2,0.1-0.3,0.2-0.5,0.4c-0.1,0.1-0.2,0.1-0.3,0.2c-0.2,0.1-0.3,0.2-0.5,0.4c-0.1,0.1-0.2,0.1-0.2,0.2c-0.2,0.1-0.3,0.3-0.5,0.4
			c-0.1,0-0.1,0.1-0.2,0.1c-0.2,0.2-0.4,0.4-0.6,0.5c-0.1,0-0.1,0.1-0.2,0.1c-0.2,0.1-0.3,0.3-0.5,0.4c-0.1,0.1-0.1,0.1-0.2,0.2
			c-0.1,0.1-0.3,0.2-0.4,0.3c-0.1,0.1-0.1,0.1-0.2,0.2c-0.1,0.1-0.3,0.2-0.4,0.4c-0.1,0.1-0.1,0.1-0.2,0.2c-0.2,0.2-0.4,0.3-0.5,0.5
			c0,0,0,0,0,0c-0.2,0.2-0.3,0.3-0.5,0.5c-0.1,0.1-0.1,0.1-0.2,0.2c-0.1,0.1-0.2,0.2-0.3,0.3c-0.1,0.1-0.1,0.1-0.2,0.2
			c-0.1,0.1-0.2,0.2-0.3,0.3c0,0.1-0.1,0.1-0.1,0.2c-0.1,0.1-0.2,0.2-0.3,0.4c0,0-0.1,0.1-0.1,0.1c-0.1,0.1-0.3,0.3-0.4,0.4
			c0,0-0.1,0.1-0.1,0.1c-0.1,0.1-0.2,0.2-0.3,0.3c0,0-0.1,0.1-0.1,0.1c-0.1,0.1-0.1,0.2-0.2,0.3c0,0-0.1,0.1-0.1,0.1
			c-0.1,0.1-0.1,0.2-0.2,0.3c0,0-0.1,0.1-0.1,0.1c0,0-0.1,0.1-0.1,0.1c-0.1,0.1-0.1,0.2-0.2,0.3c0,0.1-0.1,0.1-0.1,0.2
			c0,0.1-0.1,0.2-0.1,0.3c0,0.1-0.1,0.1-0.1,0.2c0,0,0,0.1-0.1,0.1c0,0.1,0,0.1-0.1,0.2c0,0,0,0.1,0,0.1c0,0.1,0,0.1,0,0.2
			c0,0,0,0.1,0,0.1c0,0.1,0,0.2,0,0.3l0,23.6l-1.3-0.8l0-23.6C18.1,105.2,18.1,105.1,18.1,105z"/>
		<g>
			<path class="st118" d="M38,89.8C27.7,95.7,19.4,103,19.4,106l0,11.1l37.2-21.5l0-11.1C56.6,81.5,48.3,83.8,38,89.8z"/>
		</g>
	</g>
</g>
<g>
	<g class="st8">
		<g>
			<polygon class="st121" points="19.4,117.1 19.4,120.1 63.2,145.5 63.2,142.5 			"/>
		</g>
		<g>
			<polygon class="st122" points="63.2,142.5 63.2,145.5 100.4,124 100.4,121 			"/>
		</g>
		<g>
			<polygon class="st102" points="19.4,117.1 63.2,142.5 100.4,121 56.7,95.6 			"/>
		</g>
	</g>
</g>
<g>
	<g class="st8">
		<path class="st123" d="M44.6,103c-1,0.6-1.1,1.6,0,2.2l5.8,3.4c1,0.6,2.7,0.6,3.8,0l9.2-5.3c1-0.6,1.1-1.6,0-2.2l-5.8-3.4
			c-1-0.6-2.8-0.6-3.8,0L44.6,103z"/>
		<path class="st124" d="M44.6,105.2l5.8,3.4c1,0.6,2.7,0.6,3.8,0l9.2-5.3c0.5-0.3,0.8-0.7,0.8-1.1l0,2.7c0,0.4-0.3,0.8-0.8,1.1
			l-9.2,5.3c-1,0.6-2.8,0.6-3.8,0l-5.8-3.4c-0.5-0.3-0.8-0.7-0.8-1.1l0-2.7C43.9,104.5,44.1,104.9,44.6,105.2z"/>
	</g>
</g>
<g>
	<g class="st8">
		<path class="st123" d="M28.8,113c-1,0.6-1.1,1.6,0,2.2l5.8,3.4c1,0.6,2.7,0.6,3.8,0l9.2-5.3c1-0.6,1.1-1.6,0-2.2l-5.8-3.4
			c-1-0.6-2.8-0.6-3.8,0L28.8,113z"/>
		<path class="st124" d="M28.8,115.2l5.8,3.4c1,0.6,2.7,0.6,3.8,0l9.2-5.3c0.5-0.3,0.8-0.7,0.8-1.1l0,2.7c0,0.4-0.3,0.8-0.8,1.1
			l-9.2,5.3c-1,0.6-2.8,0.6-3.8,0l-5.8-3.4c-0.5-0.3-0.8-0.7-0.8-1.1l0-2.7C28,114.5,28.3,114.9,28.8,115.2z"/>
	</g>
</g>
<g>
	<g>
		<g>
			<polygon class="st125" points="34.7,126.2 34.8,129.1 63.2,145.5 63.2,142.5 			"/>
		</g>
		<g>
			<polygon class="st126" points="59.4,140.4 63.2,142.5 63.2,145.5 59.4,143.3 			"/>
			<polygon class="st126" points="50.5,135.2 54.4,137.5 54.4,140.4 50.5,138.2 			"/>
			<polygon class="st126" points="46.9,133.2 46.9,136.1 43.1,133.9 43.1,131 			"/>
			<polygon class="st126" points="38.6,128.4 38.6,131.3 34.8,129.1 34.7,126.2 			"/>
		</g>
		<g>
			<polygon class="st124" points="34.7,126.2 63.2,142.5 100.4,121 72.1,104.6 			"/>
		</g>
	</g>
	<polygon class="st127" points="38.5,128.3 34.7,126.2 72.1,104.6 75.9,106.8 	"/>
	<polygon class="st127" points="46.9,133.2 43.1,131 80.5,109.4 84.2,111.6 	"/>
	<polygon class="st127" points="54.4,137.5 50.5,135.2 87.9,113.7 91.6,115.9 	"/>
	<polygon class="st127" points="63.2,142.5 59.4,140.4 96.7,118.8 100.4,121 	"/>
</g>
</svg>
