<?xml version="1.0" encoding="utf-8"?>
<!-- Generator: Adobe Illustrator 22.0.1, SVG Export Plug-In . SVG Version: 6.00 Build 0)  -->
<svg version="1.1" id="Слой_2" xmlns="http://www.w3.org/2000/svg" xmlns:xlink="http://www.w3.org/1999/xlink" x="0px" y="0px"
	 viewBox="0 0 200 200" style="enable-background:new 0 0 200 200;" xml:space="preserve">
<style type="text/css">
	.st0{fill:#B78441;}
	.st1{fill:#B28749;}
	.st2{fill:#CE9B49;}
	.st3{fill:#CC9E5A;}
	.st4{fill:#E5A345;}
	.st5{fill:#CCDDFF;}
	.st6{fill:#636871;}
	.st7{fill:#FFCA00;}
	.st8{fill:#B7853E;}
	.st9{fill:#BA9058;}
	.st10{fill:#DBDCDE;}
	.st11{fill:#C7C8C9;}
	.st12{fill:#F0F0F0;}
	.st13{fill:#BFCBE3;}
	.st14{fill:#FAFBFD;}
	.st15{fill:#E5E6E8;}
	.st16{enable-background:new    ;}
	.st17{fill:#7AA6AE;}
	.st18{fill:#88B9C3;}
	.st19{clip-path:url(#SVGID_2_);enable-background:new    ;}
	.st20{fill:#9ED7E2;}
	.st21{clip-path:url(#SVGID_4_);enable-background:new    ;}
	.st22{fill:#7EACB5;}
	.st23{fill:#6F979E;}
	.st24{fill:#557379;}
	.st25{fill:#64616C;}
	.st26{fill:#EDDACE;}
	.st27{fill:#FFFFFF;}
	.st28{fill:#EDCAB4;}
	.st29{fill:#1D2225;}
	.st30{fill:#171B1D;}
	.st31{fill:#2B3236;}
	.st32{fill:#1D2124;}
	.st33{fill:#8B9895;}
	.st34{fill:#191919;}
	.st35{fill:#141414;}
	.st36{fill:#252525;}
	.st37{fill:#707B78;}
	.st38{fill:#8C9A97;}
	.st39{fill:#EDF4F9;}
	.st40{fill:url(#SVGID_5_);}
	.st41{fill:url(#SVGID_6_);}
	.st42{fill:url(#SVGID_7_);}
	.st43{fill:url(#SVGID_8_);}
	.st44{fill:url(#SVGID_9_);}
	.st45{fill:url(#SVGID_10_);}
	.st46{fill:url(#SVGID_11_);}
	.st47{fill:url(#SVGID_12_);}
	.st48{fill:url(#SVGID_13_);}
	.st49{fill:url(#SVGID_14_);}
	.st50{fill:url(#SVGID_15_);}
	.st51{fill:#093F61;}
	.st52{fill:#0A4B73;}
	.st53{fill:#0B507A;}
	.st54{fill:#DE4B38;}
	.st55{fill:#FA8778;}
	.st56{fill:#B1C2E3;}
	.st57{fill:#A9BBDF;}
	.st58{fill:#D0D9EA;}
	.st59{fill:#B7C4DF;}
	.st60{fill:#D7D8DA;}
	.st61{fill:#E1E4EA;}
	.st62{fill:#868687;}
	.st63{clip-path:url(#SVGID_17_);enable-background:new    ;}
	.st64{clip-path:url(#SVGID_19_);enable-background:new    ;}
	.st65{fill:#71C6DB;}
	.st66{fill:#49B8B5;}
	.st67{fill:#374246;}
	.st68{fill:#56676E;}
	.st69{fill:#89D8E8;}
	.st70{fill:#60A8BA;}
	.st71{clip-path:url(#SVGID_21_);enable-background:new    ;}
	.st72{fill:#174969;}
	.st73{clip-path:url(#SVGID_23_);}
	.st74{fill:#72CFE3;}
	.st75{fill:#BBC3D3;}
	.st76{fill:#A4B0C8;}
	.st77{fill:#D38C24;}
	.st78{fill:#BDBDBD;}
	.st79{fill:#ECC6AF;}
	.st80{fill:#969696;}
	.st81{fill:#D7D7D7;}
	.st82{fill:#7A7A7A;}
	.st83{fill:#8E8A80;}
	.st84{fill:#E2E8F2;}
	.st85{fill:#DAE1EB;}
	.st86{fill:#ECECEC;}
	.st87{fill:#E6EDF7;}
	.st88{fill:#C1D8F7;}
	.st89{fill:#F25B14;}
	.st90{fill:#844810;}
	.st91{fill:#D9E6F7;}
	.st92{fill:#F26E30;}
	.st93{fill:#9C493F;}
	.st94{fill:#B6B7B8;}
	.st95{opacity:0.8;}
	.st96{fill:#55D6D2;}
	.st97{fill:#BCF1FF;}
	.st98{fill:#68D6F9;}
	.st99{opacity:0.3;fill:#55D6D2;}
	.st100{fill:#414D54;}
	.st101{fill:#5F7078;}
	.st102{fill:#B0ACA8;}
	.st103{fill:#FFF9F5;}
	.st104{fill:#D4CFCB;}
	.st105{fill:#0084FF;}
	.st106{fill:#13D5FD;}
	.st107{fill:#0FACCC;}
	.st108{fill:#68E3FD;}
	.st109{fill:#E49B1D;}
	.st110{fill:#FEFEFF;}
	.st111{fill:#FEC111;}
	.st112{fill:#F85B30;}
	.st113{fill:#CCCCCC;}
	.st114{fill:#FF4A39;}
	.st115{fill:#F29163;}
	.st116{fill:#C45927;}
	.st117{fill:#5AC3F2;}
	.st118{fill:#079FE3;}
	.st119{fill:#0FB4E7;}
	.st120{fill:#008BC9;}
	.st121{fill:#07334E;}
	.st122{fill:#025074;}
	.st123{fill:#71CFF3;}
	.st124{fill:#96180C;}
	.st125{fill:#F12613;}
	.st126{fill:#D12110;}
	.st127{fill:#D14436;}
	.st128{fill:#2C1A22;}
	.st129{fill:#351F29;}
	.st130{fill:#3E242F;}
	.st131{fill:#37202A;}
</style>
<polygon class="st0" points="99.8,7.8 99.8,81.8 121.9,94.4 193.4,61.9 "/>
<polygon class="st1" points="121.9,94.4 193.4,134.9 193.4,61.9 193.4,61.9 "/>
<polygon class="st2" points="6.1,134.9 77.5,94.4 6.1,61.9 "/>
<polygon class="st3" points="99.8,7.8 6.1,61.9 6.1,61.9 77.5,94.4 99.8,81.8 "/>
<polygon class="st4" points="99.7,189 193.4,134.9 193.4,129.2 99.7,183.3 "/>
<polygon class="st5" points="189.8,131.3 183.5,127.8 183.5,127.8 177.6,124.3 177.6,124.3 171.6,120.8 171.6,120.8 165.6,117.4 
	165.6,117.4 159.6,113.9 159.6,113.9 153.6,110.5 153.6,110.5 147.6,107 147.6,107 141.9,103.7 141.9,103.7 135.9,100.2 
	135.9,100.2 129.9,96.8 129.9,96.8 123.9,93.3 123.9,93.3 117.9,89.9 117.9,89.9 111.9,86.4 111.9,86.4 106,83 106,83 99.7,79.4 
	93.5,83 93.5,83 87.5,86.4 87.5,86.4 81.8,89.7 81.8,89.7 75.6,93.3 75.6,93.3 69.6,96.8 69.6,96.8 63.6,100.2 63.6,100.2 
	57.6,103.7 57.6,103.7 51.8,107 51.8,107 45.6,110.6 45.6,110.6 39.9,113.9 39.9,113.9 33.7,117.5 33.7,117.5 27.9,120.8 
	27.9,120.8 21.7,124.4 21.7,124.4 15.9,127.7 15.9,127.7 9.7,131.3 15.9,134.9 15.9,134.9 21.7,138.2 21.7,138.2 27.9,141.8 
	27.9,141.8 33.9,145.3 33.9,145.3 39.9,148.7 39.9,148.7 45.9,152.2 45.9,152.2 51.9,155.7 51.9,155.7 57.8,159.1 57.8,159.1 
	63.8,162.6 63.8,162.6 69.8,166 69.8,166 75.8,169.5 75.8,169.5 81.8,172.9 81.8,172.9 87.8,176.4 87.8,176.4 93.8,179.9 
	93.8,179.9 99.8,183.3 105.7,179.9 105.7,179.9 110.8,176.9 111.7,176.4 111.7,176.4 117.7,172.9 117.7,172.9 122.8,170 
	123.9,169.3 123.9,169.3 129.7,166 129.7,166 134.8,163.1 135.7,162.6 135.7,162.6 141.6,159.1 141.6,159.1 146.8,156.2 
	147.6,155.7 147.6,155.7 153.6,152.2 153.6,152.2 158.7,149.2 159.6,148.7 159.6,148.7 165.6,145.3 165.6,145.3 170.7,142.3 
	171.6,141.8 171.6,141.8 177.6,138.4 177.6,138.4 182.7,135.4 183.5,134.9 183.5,134.9 "/>
<polygon class="st6" points="189.8,131.3 183.5,127.8 183.5,127.8 177.6,124.3 177.6,124.3 171.6,120.8 171.6,120.8 165.6,117.4 
	165.6,117.4 159.6,113.9 159.6,113.9 153.6,110.5 153.6,110.5 147.6,107 147.6,107 141.9,103.7 141.9,103.7 135.9,100.2 
	135.9,100.2 129.9,96.8 129.9,96.8 123.9,93.3 123.9,93.3 117.9,89.9 117.9,89.9 111.9,86.4 111.9,86.4 106,83 106,83 99.7,79.4 
	93.5,83 93.5,83 87.5,86.4 87.5,86.4 81.8,89.7 81.8,89.7 75.6,93.3 75.6,93.3 69.6,96.8 69.6,96.8 63.6,100.2 63.6,100.2 
	57.6,103.7 57.6,103.7 51.8,107 51.8,107 45.6,110.6 45.6,110.6 39.9,113.9 39.9,113.9 33.7,117.5 33.7,117.5 27.9,120.8 
	27.9,120.8 21.7,124.4 21.7,124.4 15.9,127.7 15.9,127.7 9.7,131.3 15.9,134.9 15.9,134.9 21.7,138.2 21.7,138.2 27.9,141.8 
	27.9,141.8 33.9,145.3 33.9,145.3 39.9,148.7 39.9,148.7 45.9,152.2 45.9,152.2 51.9,155.7 51.9,155.7 57.8,159.1 57.8,159.1 
	63.8,162.6 63.8,162.6 69.8,166 69.8,166 75.8,169.5 75.8,169.5 81.8,172.9 81.8,172.9 87.8,176.4 87.8,176.4 93.8,179.9 
	93.8,179.9 99.8,183.3 105.7,179.9 105.7,179.9 110.8,176.9 111.7,176.4 111.7,176.4 117.7,172.9 117.7,172.9 122.8,170 
	123.9,169.3 123.9,169.3 129.7,166 129.7,166 134.8,163.1 135.7,162.6 135.7,162.6 141.6,159.1 141.6,159.1 146.8,156.2 
	147.6,155.7 147.6,155.7 153.6,152.2 153.6,152.2 158.7,149.2 159.6,148.7 159.6,148.7 165.6,145.3 165.6,145.3 170.7,142.3 
	171.6,141.8 171.6,141.8 177.6,138.4 177.6,138.4 182.7,135.4 183.5,134.9 183.5,134.9 "/>
<polygon class="st7" points="73.7,128 84.2,122 84.2,122 98.1,114 98.1,113.9 108.2,108.1 108.2,108.1 109.9,107.1 118.4,102.2 
	127,97.2 180.4,128 178,129.4 175.7,130.7 175.7,130.7 165.6,136.5 164.8,137 164.7,137 153.3,143.7 140.1,151.3 140.1,151.2 
	131.8,156.1 127,158.8 "/>
<polygon class="st2" points="189.8,131.3 99.8,79.4 99.8,11.6 189.8,63.6 "/>
<polygon class="st8" points="9.7,131.3 99.8,79.4 99.8,11.6 9.7,63.6 "/>
<polygon class="st9" points="99.7,189 6.1,134.9 6.1,129.2 99.7,183.3 "/>
<g>
	<g>
		<polygon class="st10" points="62.3,100.8 62.3,101.2 71.3,106.5 71.3,106.1 		"/>
	</g>
	<g>
		<polygon class="st11" points="71.3,106.1 71.3,106.5 80.4,101.2 80.4,100.8 		"/>
	</g>
	<polygon class="st12" points="62.3,100.8 71.3,106.1 80.4,100.8 71.4,95.6 	"/>
</g>
<g>
	<g>
		<polygon class="st10" points="68.1,81.9 68.1,101.1 71.3,103 71.3,83.8 		"/>
	</g>
	<g>
		<polygon class="st11" points="71.3,83.8 71.3,103 74.6,101.1 74.6,81.9 		"/>
	</g>
	<polygon class="st12" points="68.1,81.9 71.3,83.8 74.6,81.9 71.4,80 	"/>
</g>
<path class="st13" d="M82.3,80.4l0-3c0,1.6-1.1,3.2-3.2,4.5l0,3C81.2,83.6,82.3,82,82.3,80.4z"/>
<g>
	<path class="st10" d="M62.3,82.8c0.2,0.1,0.3,0.2,0.5,0.3c0,0,0.1,0,0.1,0.1c0.1,0.1,0.2,0.1,0.4,0.2c0.1,0,0.1,0,0.2,0.1
		c0.1,0.1,0.3,0.1,0.4,0.2c0,0,0,0,0.1,0c0.2,0.1,0.4,0.1,0.5,0.2c4.1,1.4,9.5,1,13-1l1.5-0.9c2.1-1.2,3.2-2.9,3.2-4.5l0,3
		c0,1.6-1.1,3.2-3.2,4.5l-1.5,0.9c-3.5,2-8.8,2.4-13,1v0c0,0,0,0,0,0c-0.2-0.1-0.4-0.1-0.5-0.2c0,0,0,0-0.1,0
		c-0.2-0.1-0.3-0.1-0.4-0.2c-0.1,0-0.1,0-0.2-0.1c-0.1-0.1-0.2-0.1-0.4-0.2c0,0-0.1,0-0.1-0.1c-0.2-0.1-0.3-0.2-0.5-0.3l-4.2-2.5
		l0-3L62.3,82.8z"/>
</g>
<path class="st14" d="M58.3,80.4l4.2,2.5c4.2,2.4,11,2.4,15.2-0.1l1.5-0.9c4.2-2.4,4.3-6.4,0.2-8.8l-4.2-2.5L58.3,80.4z"/>
<path class="st15" d="M69.8,83.1c2.6,0,5.1-0.6,6.9-1.6l1.5-0.9c1.6-0.9,2.5-2,2.5-3.2c0-1.1-0.8-2.2-2.3-3.1l-3.5-2l-14,8.1l2,1.2
	C64.9,82.5,67.3,83.1,69.8,83.1z"/>
<path class="st11" d="M78.5,75.7l-3.5-2L62.3,81l-1.2-0.7l14-8.1l3.5,2c1.5,0.9,2.3,2,2.3,3.1c0,0.2,0,0.5-0.1,0.7
	C80.4,77.2,79.7,76.4,78.5,75.7z"/>
<g>
	<g class="st16">
		<g>
			<polygon class="st17" points="67.6,71.8 68.3,71.5 68.3,75.4 67.6,75.7 			"/>
		</g>
		<g class="st16">
			<g>
				<path class="st17" d="M67.9,71.3l0.7-0.4c-0.1,0.1-0.2,0.3-0.2,0.4l-0.7,0.4C67.7,71.6,67.8,71.4,67.9,71.3L67.9,71.3z"/>
				<path class="st17" d="M67.7,71.7l0.7-0.4c0,0.1,0,0.1,0,0.1l-0.7,0.4C67.6,71.8,67.7,71.8,67.7,71.7L67.7,71.7z"/>
			</g>
		</g>
		<g>
			<polygon class="st18" points="69.2,73.1 69.8,72.8 69.9,72.8 69.3,73.2 			"/>
		</g>
		<g>
			<polygon class="st17" points="69.8,73.5 70.5,73.1 70.5,73.4 69.8,73.8 			"/>
		</g>
		<g>
			<polygon class="st18" points="69.8,73.5 70.4,73.1 70.5,73.1 69.8,73.5 			"/>
		</g>
		<g>
			<defs>
				<path id="SVGID_1_" d="M67.6,70.7l0.7-0.4c0.2-0.1,0.5-0.1,0.9,0.1l-0.7,0.4C68.1,70.5,67.8,70.5,67.6,70.7z"/>
			</defs>
			<use xlink:href="#SVGID_1_"  style="overflow:visible;fill:#9ED7E2;"/>
			<clipPath id="SVGID_2_">
				<use xlink:href="#SVGID_1_"  style="overflow:visible;"/>
			</clipPath>
			<g class="st19">
				<path class="st20" d="M67.6,70.7l0.7-0.4c0.1-0.1,0.2-0.1,0.4-0.1l-0.7,0.4C67.8,70.6,67.7,70.6,67.6,70.7L67.6,70.7z"/>
				<path class="st20" d="M67.9,70.6l0.7-0.4c0.1,0,0.2,0,0.3,0.1l-0.7,0.4C68.1,70.6,68,70.6,67.9,70.6L67.9,70.6z"/>
				<path class="st20" d="M68.2,70.6l0.7-0.4c0.1,0,0.2,0.1,0.3,0.1l-0.7,0.4C68.4,70.7,68.3,70.7,68.2,70.6L68.2,70.6z"/>
			</g>
		</g>
		<g class="st16">
			<defs>
				<path id="SVGID_3_" class="st16" d="M68.5,70.8l0.7-0.4c0,0,0.1,0.1,0.1,0.1c0.3,0.2,0.6,0.5,0.8,0.9c0.3,0.7,0.4,1.4,0.4,1.7
					l-0.7,0.4c0-0.3,0-1-0.4-1.7c-0.2-0.4-0.5-0.7-0.8-0.9C68.6,70.8,68.5,70.8,68.5,70.8z"/>
			</defs>
			<use xlink:href="#SVGID_3_"  style="overflow:visible;fill:#9ED7E2;"/>
			<clipPath id="SVGID_4_">
				<use xlink:href="#SVGID_3_"  style="overflow:visible;"/>
			</clipPath>
			<g class="st21">
				<path class="st22" d="M68.5,70.8l0.7-0.4c0,0,0,0,0,0L68.5,70.8C68.5,70.8,68.5,70.8,68.5,70.8L68.5,70.8z"/>
				<path class="st20" d="M68.5,70.8l0.7-0.4c0,0,0.1,0,0.1,0.1c0.1,0,0.1,0.1,0.2,0.1L68.8,71c-0.1-0.1-0.1-0.1-0.2-0.1
					C68.6,70.8,68.5,70.8,68.5,70.8L68.5,70.8z"/>
				<path class="st20" d="M68.8,71l0.7-0.4c0.2,0.2,0.4,0.5,0.6,0.8c0.1,0.2,0.1,0.3,0.2,0.5l-0.7,0.4c0-0.2-0.1-0.3-0.2-0.5
					C69.2,71.5,69,71.2,68.8,71L68.8,71z"/>
				<path class="st20" d="M69.6,72.2l0.7-0.4c0.1,0.2,0.1,0.4,0.1,0.6l-0.7,0.4C69.7,72.6,69.6,72.4,69.6,72.2L69.6,72.2z"/>
				<path class="st20" d="M69.7,72.8l0.7-0.4c0,0.3,0.1,0.5,0.1,0.7l-0.7,0.4C69.8,73.3,69.7,73.1,69.7,72.8L69.7,72.8z"/>
				<polygon class="st23" points="69.8,73.5 70.4,73.1 70.4,73.1 69.8,73.5 69.8,73.5 				"/>
			</g>
		</g>
		<g>
			<path class="st24" d="M68.5,70.8c0,0,0.1,0.1,0.1,0.1c0.3,0.2,0.6,0.5,0.8,0.9c0.3,0.7,0.4,1.4,0.4,1.7l0.1,0l0,0.3l-0.7-0.4
				l0-0.3l0.1,0c0-0.3,0-0.8-0.3-1.3c-0.1-0.2-0.3-0.4-0.4-0.5c0,0-0.1,0-0.1-0.1c-0.7-0.4-0.8,0.3-0.8,0.4l0,3.9l-0.5-0.3l0-3.9
				l0,0C67.2,71,67.5,70.2,68.5,70.8z"/>
		</g>
	</g>
</g>
<path class="st25" d="M71,81.6c-0.1-0.5,0.4-1.1,1.2-1.2c0.8-0.1,1.5,0.2,1.6,0.7c0.1,0.5-0.4,1.1-1.2,1.2
	C71.8,82.4,71.1,82.1,71,81.6z"/>
<path class="st26" d="M84.1,165.5l-1.5-0.9l0-10l-0.5,0.3l0-0.6l-8.6,5l-1.6-0.9l0-10l-8.6,5l-2.2-1.3l-0.1,8.5L84.1,174l0-2.7
	l8.6-5l0,0l0,0l0.1-5.9L84.1,165.5z M72.4,160l-0.1-5.3l0,0L72.4,160L72.4,160z"/>
<g>
	<polygon class="st27" points="61.1,152.2 70.8,146.6 93.9,159.9 84.2,165.5 	"/>
</g>
<g>
	<polygon class="st28" points="84.2,165.5 93.9,159.9 93.8,168.4 84.1,174 	"/>
</g>
<g class="st16">
	<g>
		<polygon class="st29" points="72.2,154.2 73.6,153.4 72,152.5 70.7,153.3 		"/>
	</g>
	<g>
		<polygon class="st29" points="78.3,157.7 79.7,156.9 73.6,153.4 72.2,154.2 		"/>
	</g>
	<g>
		<polygon class="st29" points="79.8,158.6 81.2,157.8 79.7,156.9 78.3,157.7 		"/>
	</g>
	<g>
		<polygon class="st30" points="79.8,159.2 81.2,158.4 81.2,157.8 79.8,158.6 		"/>
	</g>
	<g>
		<polygon class="st31" points="70.7,153.3 70.7,153.9 79.8,159.2 79.8,158.6 78.3,157.7 72.2,154.2 		"/>
	</g>
</g>
<g class="st16">
	<g class="st16">
		<g class="st16">
			<path class="st32" d="M64.9,146.8l1.4-0.8c-0.3-0.2-0.5-0.6-0.5-0.9l-1.4,0.8C64.3,146.2,64.6,146.6,64.9,146.8L64.9,146.8z"/>
		</g>
	</g>
	<g>
		<polygon class="st30" points="64.3,145.9 65.7,145 65.7,133.3 64.4,134.1 		"/>
	</g>
	<g class="st16">
		<g class="st16">
			<path class="st32" d="M64.4,134.1l1.4-0.8c0-0.2,0.1-0.3,0.2-0.3l-1.4,0.8C64.4,133.8,64.4,133.9,64.4,134.1L64.4,134.1z"/>
		</g>
	</g>
	<g class="st16">
		<g class="st16">
			<path class="st33" d="M64.9,133.8l1.4-0.8c-0.2-0.1-0.3-0.1-0.4,0l-1.4,0.8C64.6,133.7,64.7,133.7,64.9,133.8L64.9,133.8z"/>
		</g>
	</g>
	<g class="st16">
		<g class="st16">
			<path class="st32" d="M64.5,132.9l1.4-0.8c-0.2-0.1-0.5-0.2-0.6-0.1l-1.4,0.8C64.1,132.7,64.3,132.7,64.5,132.9L64.5,132.9z"/>
		</g>
	</g>
	<g>
		<polygon class="st34" points="78.3,156.1 79.7,155.3 73.6,151.8 72.2,152.6 		"/>
	</g>
	<g>
		<polygon class="st35" points="78.3,157.7 79.7,156.9 79.7,155.3 78.3,156.1 		"/>
	</g>
	<g>
		<polygon class="st36" points="72.2,152.6 72.2,154.2 78.3,157.7 78.3,156.1 		"/>
	</g>
	<g>
		<polygon class="st29" points="85.6,158.8 87,158 66.2,146 64.9,146.8 		"/>
	</g>
	<g class="st16">
		<g class="st16">
			<path class="st32" d="M86,158.8l1.4-0.8c-0.1,0.1-0.2,0-0.4,0l-1.4,0.8C85.8,158.9,85.9,158.9,86,158.8L86,158.8z"/>
		</g>
	</g>
	<g class="st16">
		<g class="st16">
			<path class="st32" d="M86.6,160.6l1.4-0.8c0.2-0.1,0.3-0.3,0.3-0.6l-1.4,0.8C86.9,160.3,86.8,160.5,86.6,160.6L86.6,160.6z"/>
		</g>
	</g>
	<g class="st16">
		<g class="st16">
			<path class="st33" d="M86,158.8l1.4-0.8c0.1-0.1,0.2-0.2,0.2-0.3l-1.4,0.8C86.2,158.6,86.1,158.8,86,158.8L86,158.8z"/>
		</g>
	</g>
	<g>
		<polygon class="st30" points="86.9,160.1 88.3,159.3 88.3,158.1 86.9,158.9 		"/>
	</g>
	<g>
		<polygon class="st37" points="86.2,158.5 87.6,157.7 87.6,145.9 86.2,146.7 		"/>
	</g>
	<g>
		<polygon class="st30" points="86.9,158.9 88.3,158.1 88.3,147.2 86.9,148 		"/>
	</g>
	<g>
		<polygon class="st38" points="85.7,145.8 87.1,145 66.3,133 64.9,133.8 		"/>
	</g>
	<g class="st16">
		<g class="st16">
			<path class="st33" d="M86.2,146.7l1.4-0.8c0-0.3-0.2-0.8-0.5-0.9l-1.4,0.8C86,146,86.2,146.4,86.2,146.7L86.2,146.7z"/>
		</g>
	</g>
	<g>
		<path class="st31" d="M64.9,133.8c-0.3-0.2-0.5,0-0.5,0.3l0,11.8c0,0.3,0.2,0.8,0.5,0.9l20.8,12c0.3,0.2,0.5,0,0.5-0.3l0-11.8
			c0-0.3-0.2-0.8-0.5-0.9L64.9,133.8z"/>
	</g>
	<g>
		<polygon class="st30" points="86.9,148 88.3,147.2 88.3,146.1 86.9,146.9 		"/>
	</g>
	<g>
		<polygon class="st29" points="86,145.3 87.4,144.5 65.9,132.1 64.5,132.9 		"/>
	</g>
	<g class="st16">
		<g class="st16">
			<path class="st32" d="M86.9,146.9l1.4-0.8c0-0.6-0.4-1.3-0.9-1.5l-1.4,0.8C86.5,145.6,86.9,146.3,86.9,146.9L86.9,146.9z"/>
		</g>
	</g>
	<g>
		<path class="st31" d="M86,145.3c0.5,0.3,0.9,1,0.9,1.5l0,1.1l0,10.9l0,1.1c0,0.6-0.4,0.8-0.9,0.5l-7.7-4.4l-6.2-3.6l-7.7-4.4
			c-0.5-0.3-0.9-1-0.9-1.5l0-1.1l0-10.9l0-1.1c0-0.6,0.4-0.8,0.9-0.5L86,145.3z M64.3,145.9c0,0.3,0.2,0.8,0.5,0.9l20.8,12
			c0.3,0.2,0.5,0,0.5-0.3l0-11.8c0-0.3-0.2-0.8-0.5-0.9l-20.8-12c-0.3-0.2-0.5,0-0.5,0.3L64.3,145.9L64.3,145.9z"/>
	</g>
</g>
<g class="st16">
	<g>
		<path class="st39" d="M145.8,47.4l33.7,19.5l-0.1,30.8l-33.7-19.5L145.8,47.4z M167.9,70.8l0-0.4l-10.7-6.2l0,10.4l0.6,0.4l10,5.8
			L167.9,70.8L167.9,70.8z M156.1,64l0-0.4l-8.2-4.7l0,10.4l0.6,0.4l7.5,4.4L156.1,64L156.1,64z M177.2,86.2l0-10.4l-8.2-4.7l0,10.4
			l0.6,0.4L177.2,86.2L177.2,86.2z M167.9,62.8l0-0.4l-10.7-6.2l0,7.6l0.6,0.4l10,5.8L167.9,62.8L167.9,62.8z M167.9,81.7l0-0.4
			l-10.7-6.2l0,7.6l0.6,0.4l10,5.8L167.9,81.7L167.9,81.7z M156.1,55.9l0-0.4l-8.2-4.7l0,7.6l0.6,0.4l7.5,4.4L156.1,55.9L156.1,55.9
			z M156.1,74.9l0-0.4l-8.2-4.7l0,7.6l0.6,0.4l7.5,4.4L156.1,74.9L156.1,74.9z M177.3,75.4l0-7.6l-8.2-4.7l0,7.6l0.6,0.4L177.3,75.4
			L177.3,75.4z M177.2,94.3l0-7.6L169,82l0,7.6l0.6,0.4L177.2,94.3L177.2,94.3z"/>
	</g>
	<g>
		
			<linearGradient id="SVGID_5_" gradientUnits="userSpaceOnUse" x1="269.9072" y1="98.5085" x2="249.3723" y2="54.4802" gradientTransform="matrix(1 0 0 1 -98.5239 0)">
			<stop  offset="0" style="stop-color:#9ED7E2"/>
			<stop  offset="1" style="stop-color:#2EABE3"/>
		</linearGradient>
		<polygon class="st40" points="147.9,58.4 148.6,58.8 156.1,63.2 156.1,55.9 156.1,55.5 147.9,50.8 		"/>
		
			<linearGradient id="SVGID_6_" gradientUnits="userSpaceOnUse" x1="276.2577" y1="95.546" x2="255.723" y2="51.5182" gradientTransform="matrix(1 0 0 1 -98.5239 0)">
			<stop  offset="0" style="stop-color:#9ED7E2"/>
			<stop  offset="1" style="stop-color:#2EABE3"/>
		</linearGradient>
		<polygon class="st41" points="157.3,63.8 157.9,64.2 167.9,70 167.9,62.8 167.9,62.4 157.3,56.2 		"/>
		
			<linearGradient id="SVGID_7_" gradientUnits="userSpaceOnUse" x1="282.6086" y1="92.5841" x2="262.0739" y2="48.5562" gradientTransform="matrix(1 0 0 1 -98.5239 0)">
			<stop  offset="0" style="stop-color:#9ED7E2"/>
			<stop  offset="1" style="stop-color:#2EABE3"/>
		</linearGradient>
		<polygon class="st42" points="169.1,63 169.1,70.7 169.7,71 177.3,75.4 177.3,68.1 177.3,67.8 		"/>
		
			<linearGradient id="SVGID_8_" gradientUnits="userSpaceOnUse" x1="272.6113" y1="97.247" x2="252.0765" y2="53.2189" gradientTransform="matrix(1 0 0 1 -98.5239 0)">
			<stop  offset="0" style="stop-color:#9ED7E2"/>
			<stop  offset="1" style="stop-color:#2EABE3"/>
		</linearGradient>
		<polygon class="st43" points="157.2,74.7 157.9,75.1 167.9,80.9 167.9,70.8 167.9,70.4 157.3,64.3 		"/>
		
			<linearGradient id="SVGID_9_" gradientUnits="userSpaceOnUse" x1="262.6138" y1="101.9101" x2="242.0789" y2="57.8818" gradientTransform="matrix(1 0 0 1 -98.5239 0)">
			<stop  offset="0" style="stop-color:#9ED7E2"/>
			<stop  offset="1" style="stop-color:#2EABE3"/>
		</linearGradient>
		<polygon class="st44" points="147.9,77.4 148.5,77.7 156,82.1 156.1,74.9 156.1,74.5 147.9,69.7 		"/>
		
			<linearGradient id="SVGID_10_" gradientUnits="userSpaceOnUse" x1="266.2605" y1="100.2091" x2="245.7256" y2="56.181" gradientTransform="matrix(1 0 0 1 -98.5239 0)">
			<stop  offset="0" style="stop-color:#9ED7E2"/>
			<stop  offset="1" style="stop-color:#2EABE3"/>
		</linearGradient>
		<polygon class="st45" points="147.9,69.3 148.5,69.7 156.1,74 156.1,64 156.1,63.6 147.9,58.9 		"/>
		
			<linearGradient id="SVGID_11_" gradientUnits="userSpaceOnUse" x1="268.9647" y1="98.9479" x2="248.4297" y2="54.9195" gradientTransform="matrix(1 0 0 1 -98.5239 0)">
			<stop  offset="0" style="stop-color:#9ED7E2"/>
			<stop  offset="1" style="stop-color:#2EABE3"/>
		</linearGradient>
		<polygon class="st46" points="157.2,82.7 157.8,83.1 167.9,88.9 167.9,81.7 167.9,81.3 157.2,75.1 		"/>
		
			<linearGradient id="SVGID_12_" gradientUnits="userSpaceOnUse" x1="275.3155" y1="95.9856" x2="254.7809" y2="51.958" gradientTransform="matrix(1 0 0 1 -98.5239 0)">
			<stop  offset="0" style="stop-color:#9ED7E2"/>
			<stop  offset="1" style="stop-color:#2EABE3"/>
		</linearGradient>
		<polygon class="st47" points="169,89.6 169.7,89.9 177.2,94.3 177.2,87.1 177.2,86.7 169,82 		"/>
		
			<linearGradient id="SVGID_13_" gradientUnits="userSpaceOnUse" x1="278.9619" y1="94.2848" x2="258.4272" y2="50.2569" gradientTransform="matrix(1 0 0 1 -98.5239 0)">
			<stop  offset="0" style="stop-color:#9ED7E2"/>
			<stop  offset="1" style="stop-color:#2EABE3"/>
		</linearGradient>
		<polygon class="st48" points="169,81.5 169.7,81.9 177.2,86.2 177.3,76.2 177.3,75.8 169.1,71.1 		"/>
	</g>
</g>
<g>
	
		<linearGradient id="SVGID_14_" gradientUnits="userSpaceOnUse" x1="751.1561" y1="46.9955" x2="747.2545" y2="32.1691" gradientTransform="matrix(-1 0 0 1 829.2504 0)">
		<stop  offset="0" style="stop-color:#9ED7E2"/>
		<stop  offset="1" style="stop-color:#2EABE3"/>
	</linearGradient>
	<polygon class="st49" points="82.9,35.7 75.4,40 75.5,49.7 83,45.4 	"/>
</g>
<g>
	
		<linearGradient id="SVGID_15_" gradientUnits="userSpaceOnUse" x1="743.6475" y1="45.4007" x2="739.7458" y2="30.5745" gradientTransform="matrix(-1 0 0 1 829.2504 0)">
		<stop  offset="0" style="stop-color:#9ED7E2"/>
		<stop  offset="1" style="stop-color:#2EABE3"/>
	</linearGradient>
	<polygon class="st50" points="91.4,40.6 91.3,30.8 83.8,35.2 83.9,44.9 	"/>
</g>
<g class="st16">
	<g>
		<path class="st39" d="M92.6,41.3L74.3,51.9l-0.1-12.5l18.3-10.6L92.6,41.3z M75.5,49.7l7.5-4.3l-0.1-9.7L75.4,40L75.5,49.7
			L75.5,49.7z M83.9,44.9l7.5-4.3l-0.1-9.7l-7.5,4.3L83.9,44.9L83.9,44.9z"/>
	</g>
</g>
<g>
	<g>
		<g class="st16">
			<g>
				<polygon class="st51" points="55.9,76.9 55.9,77.7 54.6,76.9 54.6,76.1 				"/>
			</g>
			<g>
				<polygon class="st51" points="48.1,82.2 48.1,83 46.1,81.8 46.1,81.1 				"/>
			</g>
			<g>
				<polygon class="st52" points="57.4,76.9 57.4,77.6 48.1,83 48.1,82.2 				"/>
			</g>
			<g>
				<polygon class="st53" points="57.4,76.9 48.1,82.2 46.1,81.1 46.9,80.6 48.2,81.4 55.9,76.9 54.6,76.1 55.4,75.7 				"/>
			</g>
		</g>
	</g>
</g>
<g>
	<g>
		<polygon class="st54" points="56.5,77.4 56.5,87.8 48.9,92.2 48.9,81.8 		"/>
	</g>
	<g>
		<polygon class="st55" points="56.5,77.4 48.9,81.8 48.3,81.3 55.8,77 		"/>
	</g>
</g>
<g>
	<g>
		<g>
			<g class="st16">
				<g>
					<polygon class="st56" points="90.2,83.7 100.1,78 99.7,77.8 89.9,83.5 					"/>
				</g>
				<g>
					<polygon class="st57" points="102,90.5 111.8,84.7 100.1,78 90.2,83.7 					"/>
				</g>
				<g>
					<polygon class="st57" points="102.3,90.7 112.2,85 111.8,84.7 102,90.5 					"/>
				</g>
				<g>
					<polygon class="st58" points="102.3,92.2 112.2,86.5 112.2,85 102.3,90.7 					"/>
				</g>
				<g>
					<polygon class="st59" points="89.9,83.5 89.9,85 102.3,92.2 102.3,90.7 102,90.5 90.2,83.7 					"/>
				</g>
				<g>
					<polygon class="st60" points="93.1,74.7 102.9,69 98.4,66.4 88.6,72.1 					"/>
				</g>
				<g>
					<polygon class="st59" points="101.1,90 111,84.3 110.7,79 100.8,84.7 					"/>
				</g>
				<g>
					<polygon class="st60" points="104.3,81.2 114.1,75.5 102.9,69 93.1,74.7 					"/>
				</g>
				<g>
					<path class="st58" d="M88.6,72.1l2.8,7.1l-0.3,5l10.1,5.8l-0.3-5.3c1.9,1.1,3.5-0.2,3.5-2.8c0-0.2,0-1.9,0-2.1l-11.2-5
						L88.6,72.1z"/>
				</g>
				<g>
					<g class="st16">
						<path class="st61" d="M107.5,82.3l5.4-3.1c0.8-0.4,1.3-1.5,1.3-3c0-0.2,0-0.4,0-0.7l-9.8,4.4c0,0.2,0,1.8,0,2
							c0,1.5-0.5,2.6-1.3,3l0,0L107.5,82.3L107.5,82.3z"/>
					</g>
				</g>
			</g>
		</g>
		<g>
			<g class="st16">
				<g>
					<polygon class="st62" points="92.5,74.4 104.2,67.6 104.2,67.5 92.5,74.2 					"/>
				</g>
				<g>
					<polygon class="st62" points="92.5,74.2 104.2,67.5 104.2,67.2 92.5,73.9 					"/>
				</g>
				<g>
					<polygon class="st13" points="92.5,73.9 104.2,67.2 104.2,62 92.5,68.7 					"/>
				</g>
				<g>
					<defs>
						<path id="SVGID_16_" d="M99.9,51.9l-11.7,6.8c0.1-0.1,0.3-0.1,0.5,0l11.7-6.8C100.1,51.8,100,51.8,99.9,51.9z"/>
					</defs>
					<use xlink:href="#SVGID_16_"  style="overflow:visible;fill:#E1E4EA;"/>
					<clipPath id="SVGID_17_">
						<use xlink:href="#SVGID_16_"  style="overflow:visible;"/>
					</clipPath>
					<g class="st63">
						<path class="st61" d="M88.6,58.7l11.7-6.8c-0.1-0.1-0.2-0.1-0.3-0.1l-11.7,6.8C88.4,58.6,88.5,58.7,88.6,58.7L88.6,58.7z"/>
						<path class="st61" d="M88.3,58.6l11.7-6.8c-0.1,0-0.1,0-0.2,0l-11.7,6.8C88.2,58.7,88.3,58.6,88.3,58.6L88.3,58.6z"/>
					</g>
				</g>
				<g>
					<polygon class="st13" points="92.5,68.7 104.2,62 104.2,55 92.5,61.8 					"/>
				</g>
				<g>
					<polygon class="st61" points="91.9,60.6 103.5,53.8 100.3,51.9 88.6,58.7 					"/>
				</g>
				<g>
					<defs>
						<path id="SVGID_18_" d="M92.5,61.8l11.7-6.8c0-0.5-0.3-1-0.7-1.2l-11.7,6.8C92.2,60.8,92.5,61.3,92.5,61.8z"/>
					</defs>
					<use xlink:href="#SVGID_18_"  style="overflow:visible;fill:#E1E4EA;"/>
					<clipPath id="SVGID_19_">
						<use xlink:href="#SVGID_18_"  style="overflow:visible;"/>
					</clipPath>
					<g class="st64">
						<path class="st13" d="M92.5,61.8l11.7-6.8c0-0.2,0-0.3-0.1-0.5l-11.7,6.8C92.5,61.5,92.5,61.6,92.5,61.8L92.5,61.8z"/>
						<path class="st13" d="M92.4,61.3l11.7-6.8c0-0.1-0.1-0.2-0.2-0.3L92.3,61C92.3,61.1,92.4,61.2,92.4,61.3L92.4,61.3z"/>
						<path class="st61" d="M92.3,61l11.7-6.8c-0.1-0.2-0.3-0.3-0.4-0.4l-11.7,6.8C92,60.7,92.2,60.8,92.3,61L92.3,61z"/>
					</g>
				</g>
				<g>
					<path class="st59" d="M88.6,58.7c-0.4-0.2-0.7,0-0.7,0.4l0,6.9l0,5.2l0,0.3l0.1,0.2l4.5,2.6l0-0.1l0-0.3l0-5.2l0-6.9
						c0-0.5-0.3-1-0.7-1.2L88.6,58.7z"/>
				</g>
			</g>
		</g>
		<g>
			<g class="st16">
				<g class="st16">
					<g class="st16">
						<path class="st65" d="M100,77.7c0.6,0.3,1.2,0.6,1.8,0.8c1.6,0.5,3.4,0.7,5.2,0.6l0,1.1c-1.8,0.1-3.6,0-5.2-0.6
							c-0.6-0.2-1.3-0.5-1.8-0.8l-7.5-4.4l0-1.1L100,77.7z"/>
						<path class="st65" d="M107,79.1l0,1.1c1.7-0.1,3.4-0.6,4.7-1.4c1.6-0.9,2.4-2.2,2.4-3.4l0-1.1c0,1.2-0.8,2.5-2.4,3.4
							C110.4,78.5,108.7,79,107,79.1L107,79.1z"/>
					</g>
				</g>
				<g>
					<path class="st66" d="M92.5,73.4l7.5,4.4c3.2,1.9,8.5,1.9,11.7,0c3.2-1.9,3.3-4.9,0-6.8l-7.5-4.4L92.5,73.4z"/>
				</g>
			</g>
		</g>
		<g>
			<g class="st16">
				<g>
					<path class="st67" d="M95.6,55.4c-0.5,0.3-0.5,0.8,0,1.1c0.5,0.3,1.3,0.3,1.8,0c0.5-0.3,0.5-0.8,0-1.1
						C96.9,55.1,96.1,55.1,95.6,55.4z"/>
				</g>
				<g>
					<path class="st68" d="M95.6,55.3c-0.5,0.3-0.5,0.7,0,1s1.3,0.3,1.8,0c0.5-0.3,0.5-0.7,0-1C96.9,55.1,96.1,55.1,95.6,55.3z"/>
				</g>
			</g>
		</g>
	</g>
	<path class="st69" d="M92.5,73.4l7.5,4.4c3.2,1.9,8.5,1.9,11.7,0c3.2-1.9,3.3-4.9,0-6.8l-7.5-4.4L92.5,73.4z"/>
	<g>
		<g class="st16">
			<g>
				<polygon class="st70" points="93.5,74 92.5,73.4 92.4,64.4 93.5,65 				"/>
			</g>
			<g class="st16">
				<defs>
					<path id="SVGID_20_" class="st16" d="M102.4,53.9l1,0.6c-1.1-0.6-2.5-0.5-4.2,0.4l-1-0.6C99.9,53.4,101.4,53.3,102.4,53.9z"/>
				</defs>
				<clipPath id="SVGID_21_">
					<use xlink:href="#SVGID_20_"  style="overflow:visible;"/>
				</clipPath>
				<g class="st71">
					<path class="st70" d="M99.3,54.9l-1-0.6c0.6-0.4,1.2-0.6,1.8-0.7l1,0.6C100.6,54.3,100,54.5,99.3,54.9L99.3,54.9z"/>
					<path class="st70" d="M101.1,54.2l-1-0.6c0.9-0.2,1.6-0.1,2.3,0.2l1,0.6C102.8,54.1,102,54,101.1,54.2L101.1,54.2z"/>
					<path class="st72" d="M103.4,54.4l-1-0.6c0,0,0.1,0,0.1,0.1l1,0.6C103.5,54.5,103.4,54.5,103.4,54.4L103.4,54.4z"/>
				</g>
			</g>
			<g class="st16">
				<defs>
					<path id="SVGID_22_" class="st16" d="M93.5,65l-1-0.6c0-3.7,2.6-8.2,5.8-10.1l1,0.6C96.1,56.8,93.5,61.3,93.5,65z"/>
				</defs>
				<clipPath id="SVGID_23_">
					<use xlink:href="#SVGID_22_"  style="overflow:visible;"/>
				</clipPath>
				<g class="st73">
					<path class="st70" d="M93.5,65l-1-0.6c0-1.4,0.4-3,1-4.4l1,0.6C93.9,62,93.5,63.6,93.5,65L93.5,65z"/>
					<path class="st70" d="M94.5,60.6l-1-0.6c0.5-1.1,1.2-2.2,2-3.2l1,0.6C95.7,58.3,95,59.4,94.5,60.6L94.5,60.6z"/>
					<path class="st70" d="M96.5,57.4l-1-0.6c0.8-1,1.8-1.9,2.8-2.5l1,0.6C98.3,55.5,97.3,56.4,96.5,57.4L96.5,57.4z"/>
				</g>
			</g>
			<g>
				<path class="st74" d="M99.3,54.9c3.2-1.9,5.9-0.4,5.9,3.3l0,9L93.5,74l0-9C93.5,61.3,96.1,56.8,99.3,54.9z"/>
			</g>
		</g>
	</g>
</g>
<g>
	<path class="st58" d="M97.1,73.9l-0.9-0.5l4.8,2.8c0.9,0.5,2,0.9,3.3,1v-7.4L97.1,73.9z"/>
	<path class="st58" d="M112.3,74.3c0,0.1,0,0.2,0,0.3C112.3,74.5,112.3,74.4,112.3,74.3z"/>
	<path class="st75" d="M112.1,74.9c-0.2-0.4-0.7-0.9-1.3-1.2l-6.6-3.8v7.4c0.5,0.1,1.1,0.1,1.6,0.1c1.9,0,3.7-0.4,4.9-1.2
		c0.8-0.5,1.3-1,1.5-1.5C112.2,74.7,112.2,74.8,112.1,74.9z"/>
	<path class="st59" d="M112.2,74.6C112.2,74.6,112.2,74.6,112.2,74.6C112.2,74.6,112.2,74.6,112.2,74.6z"/>
	<path class="st76" d="M110.8,73.6c0.7,0.4,1.1,0.8,1.3,1.2c0-0.1,0.1-0.2,0.1-0.3c0,0,0,0,0,0c0-0.1,0-0.2,0-0.3
		c0-0.6-0.6-1.2-1.5-1.8l-6.6-3.8v1.1L110.8,73.6z"/>
	<polygon class="st59" points="104.2,69.8 104.2,68.7 96.1,73.4 97.1,73.9 	"/>
</g>
<g class="st16">
	<g>
		<polygon class="st77" points="85.1,117.8 83.9,117.1 83.8,105.6 85.1,106.3 		"/>
	</g>
	<g>
		<polygon class="st77" points="85.1,106.3 83.8,105.6 124.8,82.1 126,82.9 		"/>
	</g>
	<g>
		<polygon class="st77" points="126,82.9 126.1,94.4 85.1,117.8 85.1,106.3 		"/>
	</g>
</g>
<g>
	<g class="st16">
		<g>
			<polygon class="st78" points="129,146.5 130.4,145.7 130.4,150.6 129,151.5 			"/>
		</g>
		<g>
			<polygon class="st79" points="127.4,145.6 128.8,144.8 130.4,145.7 129,146.5 			"/>
		</g>
		<g>
			<polygon class="st80" points="129,146.5 129,151.5 127.4,150.5 127.4,145.6 			"/>
		</g>
	</g>
</g>
<g>
	<g class="st16">
		<g>
			<polygon class="st81" points="174.8,120.1 176.2,119.3 176.1,124.3 174.7,125.1 			"/>
		</g>
		<g>
			<polygon class="st79" points="173.2,119.2 174.6,118.4 176.2,119.3 174.8,120.1 			"/>
		</g>
		<g>
			<polygon class="st80" points="174.8,120.1 174.7,125.1 173.2,124.2 173.2,119.2 			"/>
		</g>
	</g>
</g>
<g>
	<g class="st16">
		<g>
			<polygon class="st80" points="93,125.7 94.4,124.9 94.3,129.9 93,130.7 			"/>
		</g>
		<g>
			<polygon class="st79" points="91.4,124.8 92.8,124 94.4,124.9 93,125.7 			"/>
		</g>
		<g>
			<polygon class="st82" points="93,125.7 93,130.7 91.4,129.8 91.4,124.8 			"/>
		</g>
	</g>
</g>
<g>
	<g class="st16">
		<g>
			<polygon class="st83" points="138.9,79.9 140.6,79 140.6,81 138.9,82 			"/>
		</g>
		<g>
			<polygon class="st84" points="137.1,78.9 138.8,77.9 140.7,79.1 139.1,80 			"/>
		</g>
		<g>
			<polygon class="st84" points="138.9,82 140.6,81 174.2,100.5 172.5,101.5 			"/>
		</g>
		<g>
			<polygon class="st81" points="174.5,102.6 176.2,101.7 176.1,122.3 174.5,123.2 			"/>
		</g>
		<g>
			<polygon class="st78" points="174.5,100.6 176.2,99.6 176.2,101.7 174.5,102.6 			"/>
		</g>
		<g>
			<polygon class="st84" points="172.6,99.5 174.2,98.5 176.2,99.6 174.5,100.6 			"/>
		</g>
		<g>
			<polygon class="st78" points="174.5,100.6 174.5,102.6 174.5,123.2 136.9,101.4 136.9,80.8 136.9,78.8 138.9,79.9 138.9,82 
				172.5,101.5 172.6,99.5 			"/>
		</g>
	</g>
</g>
<g>
	<g class="st16">
		<g>
			<polygon class="st85" points="174.5,118.4 174.5,123.2 128.9,149.9 128.9,145 			"/>
		</g>
		<g>
			<polygon class="st86" points="174.5,118.4 128.9,145 91.4,123.2 136.9,96.6 			"/>
		</g>
	</g>
</g>
<g>
	<g class="st16">
		<g>
			<polygon class="st85" points="174.5,113.6 174.5,118.5 128.9,145.1 128.9,140.2 			"/>
		</g>
		<g>
			<polygon class="st87" points="174.5,113.6 128.9,140.2 91.4,118.4 136.9,91.8 			"/>
		</g>
	</g>
</g>
<g>
	<g class="st16">
		<g>
			<polygon class="st88" points="174.5,113.6 174.5,115.8 128.9,142.5 128.9,140.2 			"/>
		</g>
		<g>
			<polygon class="st89" points="155.4,124.8 128.9,140.2 128.9,142.5 155.4,127 			"/>
		</g>
		<g>
			<polygon class="st90" points="128.9,140.2 128.9,142.5 91.4,120.7 91.4,118.4 			"/>
		</g>
		<g>
			<polygon class="st91" points="174.5,113.6 128.9,140.2 91.4,118.4 136.9,91.8 			"/>
		</g>
		<g>
			<polygon class="st92" points="155.3,124.8 128.9,140.2 91.4,118.4 117.8,103 			"/>
		</g>
	</g>
</g>
<g>
	<g class="st16">
		<g>
			<polygon class="st92" points="169.8,109.5 169.8,114 159.5,120.3 159.5,118.2 			"/>
		</g>
		<g>
			<polygon class="st89" points="159.5,118.2 159.5,120.3 144.8,111.7 144.8,111 			"/>
		</g>
		<g>
			<polygon class="st7" points="169.8,109.5 159.5,119.5 144.8,111 155.2,101 			"/>
		</g>
	</g>
</g>
<g>
	<g class="st16">
		<g>
			<polygon class="st92" points="152.3,99.7 152.3,104.1 141.9,110.4 141.9,108.3 			"/>
		</g>
		<g>
			<polygon class="st89" points="141.9,108.3 141.9,110.4 127.2,101.9 127.2,101.1 			"/>
		</g>
		<g>
			<polygon class="st7" points="152.3,99.7 141.9,109.7 127.2,101.1 137.6,91.2 			"/>
		</g>
	</g>
</g>
<g>
	<g class="st16">
		<g>
			<polygon class="st83" points="93.4,113.4 95.1,112.4 95,114.5 93.4,115.4 			"/>
		</g>
		<g>
			<polygon class="st84" points="91.4,112.2 93.1,111.3 95.1,112.4 93.4,113.4 			"/>
		</g>
		<g>
			<polygon class="st84" points="93.4,115.4 95,114.5 128.7,134 127,134.9 			"/>
		</g>
		<polygon class="st81" points="129,134.1 129,136.1 129,149.9 130.6,148.9 130.7,135.1 130.7,133.1 		"/>
		<g>
			<polygon class="st84" points="127,132.9 128.7,132 130.7,133.1 129,134.1 			"/>
		</g>
		<polygon class="st78" points="127,132.9 127,134.9 93.4,115.4 93.4,113.4 91.4,112.2 91.4,114.3 91.4,118.4 91.4,118.4 
			91.4,120.7 91.4,120.8 91.4,120.8 91.4,123.3 91.4,123.3 91.4,128.1 128.9,149.9 128.9,145 128.9,145 128.9,142.6 129,142.7 
			129,136.1 129,134.1 		"/>
	</g>
</g>
<g>
	<path class="st68" d="M112.2,65.7c0.3-0.2,0.5,0,0.5,0.3c0,0.3-0.2,0.7-0.5,0.9c-0.3,0.2-0.5,0-0.5-0.3
		C111.7,66.2,111.9,65.9,112.2,65.7z"/>
</g>
<g>
	<g>
		<polygon class="st51" points="108.9,63.9 108.9,64.4 109.8,63.9 109.8,63.3 		"/>
	</g>
	<polygon class="st52" points="110.8,65.5 107.9,63.8 107.9,64.3 110.8,66 	"/>
	<polygon class="st53" points="110.8,64.9 108.9,63.9 109.8,63.3 109.2,63 107.9,63.8 110.8,65.5 	"/>
</g>
<g>
	<g class="st16">
		<path class="st93" d="M113.9,64.9l-3.1-1.8c0,0,0,0,0,0L113.9,64.9C113.9,64.9,113.9,64.9,113.9,64.9L113.9,64.9z"/>
		<path class="st13" d="M111.5,67.2c0-0.1,0-0.2,0-0.2c0,0,0,0,0,0c0-0.1,0-0.2,0.1-0.2c0,0,0,0,0-0.1c0-0.1,0.1-0.2,0.1-0.2
			c0,0,0,0,0-0.1c0,0,0-0.1,0.1-0.1c0,0,0,0,0-0.1c0,0,0-0.1,0.1-0.1c0,0,0,0,0-0.1c0,0,0.1-0.1,0.1-0.1c0,0,0,0,0-0.1
			c0,0,0.1-0.1,0.1-0.1c0,0,0,0,0,0c0-0.1,0.1-0.1,0.1-0.2c0,0,0,0,0,0c0,0,0.1-0.1,0.1-0.1c0,0,0,0,0.1,0c0,0,0.1-0.1,0.1-0.1
			c0,0,0,0,0.1,0c0.1,0,0.1-0.1,0.2-0.1c0,0,0.1,0,0.1-0.1c0,0,0,0,0,0c0,0,0.1,0,0.1,0c0,0,0,0,0,0c0,0,0.1,0,0.1,0c0,0,0,0,0,0
			c0,0,0,0,0,0c0,0,0.1,0,0.1,0c0,0,0,0,0,0c0,0,0.1,0,0.1,0c0,0,0,0,0,0c0,0,0.1,0,0.1,0c0,0,0,0,0,0c0,0,0,0,0.1,0c0,0,0,0,0.1,0
			l-3.1-1.8c0,0,0,0,0,0l0,0c0,0,0,0,0,0c0,0,0,0-0.1,0c0,0,0,0,0,0c0,0-0.1,0-0.1,0c0,0,0,0,0,0c0,0-0.1,0-0.1,0c0,0,0,0,0,0
			c0,0-0.1,0-0.1,0c0,0,0,0,0,0c0,0,0,0,0,0c0,0,0,0,0,0c0,0-0.1,0-0.1,0c0,0,0,0,0,0c0,0-0.1,0-0.1,0c0,0,0,0,0,0
			c0,0-0.1,0-0.1,0.1c-0.1,0-0.1,0.1-0.2,0.1c0,0,0,0-0.1,0c0,0-0.1,0.1-0.1,0.1c0,0,0,0-0.1,0c0,0-0.1,0.1-0.1,0.1c0,0,0,0,0,0
			c0,0.1-0.1,0.1-0.1,0.2c0,0,0,0,0,0c0,0,0,0,0,0c0,0-0.1,0.1-0.1,0.1c0,0,0,0,0,0.1c0,0-0.1,0.1-0.1,0.1c0,0,0,0,0,0.1
			c0,0,0,0.1-0.1,0.1c0,0,0,0,0,0.1c0,0,0,0.1-0.1,0.1c0,0,0,0,0,0c0,0,0,0,0,0c0,0.1-0.1,0.2-0.1,0.2c0,0,0,0,0,0.1
			c0,0.1,0,0.1-0.1,0.2c0,0,0,0,0,0c0,0.1,0,0.2,0,0.2c0,0,0,0,0,0.1c0,0.1,0,0.2,0,0.2c0,0.2,0,0.3,0.1,0.4
			c0.1,0.2,0.2,0.4,0.4,0.5l3.1,1.8c-0.3-0.1-0.4-0.5-0.4-0.9C111.4,67.4,111.5,67.3,111.5,67.2C111.5,67.2,111.5,67.2,111.5,67.2z"
			/>
		<g>
			<path class="st61" d="M112.9,65c0.8-0.5,1.4-0.1,1.4,0.8c0,0.9-0.6,2-1.4,2.5c-0.8,0.5-1.4,0.1-1.4-0.8
				C111.4,66.6,112.1,65.5,112.9,65z"/>
		</g>
		<g>
			<path class="st68" d="M112.9,66.1c0.3-0.2,0.5,0,0.5,0.3s-0.2,0.7-0.5,0.9c-0.3,0.2-0.5,0-0.5-0.3
				C112.4,66.6,112.6,66.3,112.9,66.1z"/>
		</g>
	</g>
</g>
<polygon class="st51" points="113.9,67.3 113.9,67.8 115.3,67 115.3,66.5 "/>
<g>
	<polygon class="st53" points="114.7,66.2 113.9,66.7 112.9,66.1 112.9,66.7 113.9,67.3 115.3,66.5 	"/>
	<g>
		<polygon class="st52" points="112.9,67.2 113.9,67.8 113.9,67.3 112.9,66.7 		"/>
		<path class="st52" d="M113.2,66.9l-0.7-0.4c-0.1,0.1-0.1,0.3-0.1,0.4l0.5,0.3C113,67.2,113.1,67,113.2,66.9z"/>
	</g>
	<path class="st53" d="M112.8,66.1c-0.1,0.1-0.2,0.2-0.3,0.4l0.7,0.4c0.1-0.1,0.1-0.3,0.2-0.5L112.8,66.1z"/>
</g>
<g>
	<polygon class="st94" points="33.1,65.8 33,111.5 14.1,130 13.4,129.6 13.4,77.2 	"/>
</g>
<polygon class="st12" points="13.4,77.2 14.1,77.7 33.8,66.3 33.8,65.4 "/>
<g>
	<polygon class="st11" points="33.8,66.3 33.8,112 14.1,123.4 14.1,77.7 	"/>
</g>
<g class="st95">
	<polygon class="st96" points="53.5,77.7 53.5,124 33.7,112.5 33.8,66.3 	"/>
</g>
<g>
	<polygon class="st15" points="53.5,122.7 53.5,130 33.9,141.5 33.9,134.1 	"/>
</g>
<g>
	<polygon class="st11" points="33.9,134.1 33.9,141.5 14.1,130 14.1,122.7 	"/>
</g>
<g>
	<polygon class="st11" points="33.9,134.1 33.9,141.5 14.1,130 14.1,122.7 	"/>
</g>
<polygon class="st12" points="53.5,122.7 33.9,134.1 14.1,122.7 33.8,111.2 "/>
<polygon class="st97" points="17,122.7 33.8,112.9 50.7,122.7 33.9,132.4 "/>
<polygon class="st97" points="17,122.7 33.8,112.9 50.7,122.7 33.9,132.4 "/>
<polygon class="st98" points="45.3,125.8 33.8,119.1 22.4,125.7 33.9,132.4 "/>
<g>
	<polygon class="st10" points="33.8,112.9 33.8,119.1 45.3,125.8 50.7,122.7 	"/>
	<polygon class="st11" points="17,122.7 22.4,125.7 33.8,119.1 33.8,112.9 	"/>
</g>
<polygon class="st99" points="53.6,77.7 53.5,122.7 33.9,134.1 33.9,89.1 "/>
<polygon class="st99" points="33.9,89.1 33.9,134.1 14.1,122.7 14.1,77.7 "/>
<g>
	<g class="st16">
		<g>
			<path class="st100" d="M26.2,86.1l0.8,0.5c-0.2-0.1-0.5-0.1-0.7,0.1l-0.8-0.5C25.7,86,26,86,26.2,86.1z"/>
		</g>
		<g>
			<path class="st100" d="M25.5,89.1l-0.8-0.5c-0.2-0.1-0.3-0.3-0.3-0.7c0-0.7,0.5-1.5,1-1.8l0.8,0.5c-0.6,0.3-1,1.1-1,1.8
				C25.2,88.8,25.3,89,25.5,89.1z"/>
		</g>
		<g>
			<path class="st101" d="M26.2,86.7c0.6-0.3,1-0.1,1,0.6c0,0.7-0.5,1.5-1,1.8c-0.6,0.3-1,0.1-1-0.6C25.2,87.8,25.6,87,26.2,86.7z"
				/>
		</g>
	</g>
</g>
<g class="st16">
	<g>
		<polygon class="st77" points="35.7,146.2 34.5,145.5 34.4,134 35.7,134.7 		"/>
	</g>
	<g>
		<polygon class="st77" points="35.7,134.7 34.4,134 64.9,116.5 66.2,117.2 		"/>
	</g>
	<g>
		<polygon class="st77" points="66.2,117.2 66.3,128.7 35.7,146.2 35.7,134.7 		"/>
	</g>
</g>
<g>
	<g class="st16">
		<g>
			<polygon class="st102" points="71.9,69.9 66.6,66.9 66.6,66.4 71.9,69.4 			"/>
		</g>
		<g>
			<polygon class="st103" points="71.9,69.4 66.6,66.4 81.7,57.7 86.9,60.8 			"/>
		</g>
		<g>
			<polygon class="st104" points="86.9,60.8 86.9,61.3 71.9,69.9 71.9,69.4 			"/>
		</g>
	</g>
</g>
<g>
	<path class="st105" d="M79.9,60.7C79.9,60.7,79.9,60.7,79.9,60.7C79.9,60.7,79.9,60.7,79.9,60.7z"/>
	<path class="st105" d="M82,60.7C82,60.7,82,60.7,82,60.7C82,60.7,82,60.7,82,60.7z"/>
	<path class="st105" d="M82.6,59.3C82.6,59.3,82.6,59.3,82.6,59.3C82.6,59.3,82.6,59.3,82.6,59.3C82.6,59.3,82.6,59.3,82.6,59.3z"/>
	<path class="st105" d="M82.6,59.5C82.6,59.5,82.6,59.5,82.6,59.5C82.6,59.5,82.6,59.5,82.6,59.5z"/>
	<path class="st105" d="M82,57.4C82,57.4,82,57.4,82,57.4C82.1,57.4,82.1,57.4,82,57.4C82.1,57.4,82.1,57.4,82,57.4z"/>
	<path class="st105" d="M82.6,59.6C82.6,59.6,82.6,59.6,82.6,59.6C82.6,59.6,82.6,59.6,82.6,59.6z"/>
	<path class="st105" d="M82,57.3C82,57.3,82,57.3,82,57.3C82,57.3,82,57.3,82,57.3C82,57.3,82,57.3,82,57.3z"/>
	<path class="st105" d="M82.3,57.7C82.3,57.7,82.2,57.6,82.3,57.7C82.3,57.6,82.3,57.7,82.3,57.7C82.3,57.7,82.3,57.7,82.3,57.7z"/>
	<path class="st105" d="M82.4,60.1C82.4,60.1,82.4,60,82.4,60.1C82.4,60,82.4,60.1,82.4,60.1C82.4,60.1,82.4,60.1,82.4,60.1z"/>
	<path class="st105" d="M82.1,60.5C82.1,60.6,82.1,60.6,82.1,60.5C82.1,60.6,82.1,60.6,82.1,60.5z"/>
	<path class="st105" d="M82.3,60.3C82.3,60.2,82.3,60.2,82.3,60.3C82.3,60.3,82.3,60.3,82.3,60.3C82.3,60.3,82.3,60.3,82.3,60.3z"/>
	<path class="st105" d="M82.4,60.2C82.4,60.2,82.4,60.2,82.4,60.2C82.4,60.2,82.4,60.2,82.4,60.2z"/>
	<path class="st105" d="M82.3,60.3C82.3,60.3,82.3,60.3,82.3,60.3C82.3,60.3,82.3,60.3,82.3,60.3C82.3,60.4,82.3,60.3,82.3,60.3z"/>
	<path class="st105" d="M82.2,57.6C82.2,57.6,82.2,57.6,82.2,57.6c-0.1-0.1-0.1-0.1-0.1-0.2c0,0,0,0,0,0
		C82.2,57.5,82.2,57.5,82.2,57.6z"/>
	<path class="st105" d="M82.6,59.1C82.6,59.1,82.6,59.1,82.6,59.1C82.6,59.1,82.6,59.1,82.6,59.1z"/>
	<path class="st105" d="M82.4,60c0-0.1,0.1-0.1,0.1-0.2c0,0,0,0,0-0.1C82.5,59.8,82.5,59.9,82.4,60C82.5,59.9,82.5,60,82.4,60z"/>
	<path class="st105" d="M82.3,57.8C82.3,57.8,82.3,57.8,82.3,57.8C82.3,57.8,82.4,57.8,82.3,57.8C82.4,57.8,82.3,57.8,82.3,57.8z"/>
	<path class="st105" d="M82.6,58.7C82.6,58.7,82.6,58.7,82.6,58.7c0,0,0,0.1,0,0.1C82.6,58.8,82.6,58.7,82.6,58.7z"/>
	<path class="st105" d="M82.4,57.9c0,0,0,0.1,0,0.1C82.4,57.9,82.4,57.9,82.4,57.9z"/>
	<path class="st105" d="M82.5,58C82.5,58,82.4,58,82.5,58c0,0,0,0.1,0.1,0.1C82.5,58.1,82.5,58.1,82.5,58z"/>
	<path class="st105" d="M82.6,58.6C82.6,58.6,82.6,58.6,82.6,58.6C82.6,58.6,82.6,58.6,82.6,58.6z"/>
	<path class="st105" d="M82.5,58.3C82.5,58.3,82.5,58.2,82.5,58.3c0,0,0,0.1,0,0.2C82.6,58.4,82.5,58.3,82.5,58.3z"/>
	<path class="st105" d="M82.6,58.9C82.6,58.9,82.6,58.9,82.6,58.9C82.6,58.9,82.6,58.9,82.6,58.9z"/>
	<path class="st105" d="M81.8,57.2C81.8,57.2,81.8,57.2,81.8,57.2C81.8,57.2,81.9,57.2,81.8,57.2C81.9,57.2,81.9,57.2,81.8,57.2z"/>
	<path class="st105" d="M80.3,57.4C80.3,57.3,80.3,57.3,80.3,57.4C80.3,57.3,80.3,57.3,80.3,57.4z"/>
	<path class="st105" d="M80.3,57.4C80.3,57.4,80.3,57.4,80.3,57.4C80.3,57.4,80.3,57.4,80.3,57.4z"/>
	<path class="st105" d="M79.8,57.5C79.8,57.5,79.8,57.5,79.8,57.5C79.8,57.5,79.8,57.5,79.8,57.5z"/>
	<path class="st105" d="M80.4,57.5C80.4,57.5,80.3,57.5,80.4,57.5C80.3,57.5,80.4,57.5,80.4,57.5z"/>
	<path class="st105" d="M81.7,57.3C81.6,57.3,81.6,57.3,81.7,57.3C81.6,57.3,81.6,57.3,81.7,57.3z"/>
	<path class="st105" d="M79.8,57.4C79.8,57.4,79.8,57.4,79.8,57.4C79.8,57.4,79.8,57.4,79.8,57.4C79.8,57.4,79.8,57.4,79.8,57.4z"/>
	<path class="st105" d="M79.9,57.3C79.9,57.3,79.9,57.3,79.9,57.3C79.9,57.3,79.9,57.3,79.9,57.3C79.9,57.3,79.9,57.3,79.9,57.3z"/>
	<path class="st105" d="M81.6,57.4C81.6,57.4,81.6,57.4,81.6,57.4C81.6,57.4,81.6,57.4,81.6,57.4z"/>
	<path class="st105" d="M81.6,57.4C81.6,57.5,81.6,57.5,81.6,57.4C81.6,57.5,81.6,57.5,81.6,57.4z"/>
	<path class="st105" d="M81.5,57.5C81.5,57.5,81.5,57.6,81.5,57.5C81.5,57.6,81.5,57.5,81.5,57.5z"/>
	<polygon class="st105" points="79.7,57.5 79.7,57.5 79.7,57.5 	"/>
	<path class="st105" d="M79.3,58.6c0,0.1,0,0.2,0,0.3c0-0.2,0-0.3,0.1-0.4C79.3,58.5,79.3,58.5,79.3,58.6z"/>
	<path class="st105" d="M79.6,57.7C79.6,57.7,79.6,57.7,79.6,57.7C79.6,57.7,79.6,57.7,79.6,57.7C79.6,57.7,79.6,57.7,79.6,57.7z"/>
	<path class="st105" d="M79.3,59.5C79.3,59.5,79.3,59.5,79.3,59.5C79.3,59.5,79.3,59.5,79.3,59.5C79.3,59.5,79.3,59.5,79.3,59.5z"/>
	<path class="st105" d="M79.3,59C79.3,59,79.3,59,79.3,59C79.3,59,79.3,59,79.3,59C79.3,59,79.3,59,79.3,59z"/>
	<path class="st105" d="M79.5,60.1C79.5,60.1,79.5,60.2,79.5,60.1C79.5,60.2,79.6,60.2,79.5,60.1C79.5,60.1,79.5,60.1,79.5,60.1
		C79.5,60.1,79.5,60.1,79.5,60.1z"/>
	<path class="st105" d="M79.3,59.1C79.3,59.1,79.3,59.1,79.3,59.1C79.3,59.1,79.3,59.1,79.3,59.1z"/>
	<path class="st105" d="M79.3,59.3C79.3,59.3,79.3,59.3,79.3,59.3C79.3,59.3,79.3,59.3,79.3,59.3z"/>
	<path class="st105" d="M79.6,60.3C79.6,60.3,79.6,60.3,79.6,60.3c0,0,0-0.1-0.1-0.1C79.6,60.2,79.6,60.3,79.6,60.3z"/>
	<path class="st105" d="M80.1,57.2C80.1,57.2,80.1,57.2,80.1,57.2C80.1,57.2,80.1,57.2,80.1,57.2z"/>
	<path class="st105" d="M79.8,60.6C79.8,60.6,79.8,60.6,79.8,60.6C79.8,60.6,79.8,60.6,79.8,60.6z"/>
	<path class="st105" d="M79.7,60.5C79.7,60.5,79.7,60.5,79.7,60.5C79.7,60.5,79.7,60.5,79.7,60.5z"/>
	<path class="st105" d="M79.4,59.9C79.4,59.9,79.4,59.9,79.4,59.9C79.4,59.9,79.4,59.9,79.4,59.9z"/>
	<path class="st105" d="M79.4,58.3c0,0.1,0,0.1,0,0.1C79.4,58.3,79.4,58.2,79.4,58.3C79.4,58.2,79.4,58.3,79.4,58.3z"/>
	<path class="st105" d="M79.5,58c0,0,0,0.1-0.1,0.2C79.4,58.1,79.5,58,79.5,58C79.5,58,79.5,58,79.5,58z"/>
	<polygon class="st105" points="80,57.2 80,57.2 80,57.2 	"/>
	<path class="st105" d="M79.6,57.8c0,0,0,0.1-0.1,0.1C79.5,57.8,79.6,57.8,79.6,57.8C79.6,57.7,79.6,57.7,79.6,57.8z"/>
	<path class="st105" d="M79.3,58.9C79.3,58.9,79.3,58.9,79.3,58.9C79.3,58.9,79.3,58.9,79.3,58.9z"/>
	<path class="st106" d="M82.6,59.1C82.6,59.1,82.6,59.1,82.6,59.1c0-0.1,0-0.1,0-0.2c0,0,0,0,0,0c0,0,0-0.1,0-0.1c0,0,0,0,0,0
		c0,0,0-0.1,0-0.1c0,0,0,0,0-0.1c0,0,0,0,0-0.1c0,0,0,0,0,0c0,0,0-0.1,0-0.1c0-0.1,0-0.1-0.1-0.2c0,0,0,0,0,0c0-0.1,0-0.1-0.1-0.2
		c0,0,0,0,0,0c0,0,0,0,0,0c0,0,0-0.1,0-0.1c0,0,0,0,0,0c0,0,0-0.1-0.1-0.1c0,0,0,0,0,0c0,0,0-0.1-0.1-0.1c0,0,0,0,0,0
		c0,0-0.1-0.1-0.1-0.1c0,0,0,0,0,0c0,0,0,0,0,0c0,0,0,0,0,0c0,0,0,0-0.1-0.1c0,0,0,0,0,0c0,0,0,0,0,0c0,0,0,0-0.1,0c0,0,0,0,0,0
		c0,0-0.1,0-0.1-0.1c0,0,0,0,0,0c0,0-0.1,0-0.1,0.1c0,0,0,0.1,0,0.1c0,0,0,0,0,0c0,0,0,0,0,0c0,0,0,0,0,0c0,0,0,0,0,0c0,0,0,0,0,0
		c0,0,0,0,0,0c0,0,0,0,0,0c0,0-0.1,0-0.1,0.1c-0.3,0.2-0.7,0.2-1,0c0,0-0.1,0-0.1-0.1c0,0,0,0,0,0c0,0,0,0,0,0c0,0,0,0,0,0
		c0,0,0,0,0,0c0,0,0,0,0,0c0,0,0,0,0,0l0-0.1c0,0,0,0,0,0c0,0,0,0,0,0c0,0,0,0,0,0c0,0,0,0,0,0c0,0,0,0-0.1,0c0,0,0,0,0,0
		c0,0,0,0,0,0c0,0,0,0,0,0c0,0,0,0,0,0c0,0-0.1,0.1-0.1,0.1c0,0,0,0,0,0c0,0,0,0,0,0c0,0,0,0,0,0c0,0,0,0,0,0.1c0,0,0,0,0,0
		c0,0,0,0,0,0.1c0,0,0,0,0,0c0,0,0,0,0,0c0,0,0,0,0,0c0,0,0,0.1-0.1,0.1c0,0,0,0,0,0c0,0,0,0,0,0c0,0,0,0,0,0c0,0.1-0.1,0.1-0.1,0.2
		c0,0,0,0,0,0c0,0.1-0.1,0.1-0.1,0.2c0,0,0,0,0,0c0,0,0,0,0,0c0,0.1,0,0.1-0.1,0.2c0,0,0,0,0,0c0,0.1,0,0.3-0.1,0.4c0,0,0,0,0,0
		c0,0,0,0,0,0c0,0,0,0,0,0c0,0,0,0,0,0.1c0,0,0,0,0,0.1c0,0,0,0,0,0c0,0,0,0,0,0c0,0,0,0.1,0,0.1c0,0,0,0.1,0,0.1c0,0,0,0,0,0
		c0,0.1,0,0.1,0,0.1c0,0,0,0,0,0c0,0,0,0.1,0,0.1c0,0,0,0.1,0,0.2c0,0,0,0.1,0,0.1c0,0,0,0,0,0.1c0,0,0,0.1,0.1,0.1c0,0,0,0.1,0,0.1
		l0,0c0,0,0,0,0,0c0,0.1,0.1,0.1,0.1,0.2c0,0,0,0.1,0.1,0.1c0,0,0,0,0,0c0,0,0,0,0,0c0,0,0,0,0.1,0.1c0,0,0,0,0,0c0,0,0,0,0,0
		c0,0,0.1,0.1,0.1,0.1c0,0,0,0,0,0c0,0,0,0,0,0c0,0,0.1,0.1,0.1,0.1c0.5,0.3,1.2,0.3,1.7,0c0.1,0,0.1-0.1,0.1-0.1c0,0,0,0,0,0
		c0,0,0,0,0,0c0,0,0,0,0.1-0.1c0,0,0,0,0.1-0.1c0.1-0.1,0.1-0.1,0.1-0.2c0,0,0,0,0,0c0,0,0,0,0-0.1c0,0,0,0,0,0c0,0,0,0,0,0
		c0,0,0,0,0-0.1c0,0,0,0,0,0c0,0,0,0,0,0c0,0,0-0.1,0-0.1c0,0,0,0,0,0c0,0,0,0,0,0c0,0,0-0.1,0-0.1c0,0,0-0.1,0-0.1c0,0,0,0,0,0
		c0,0,0-0.1,0-0.1c0,0,0,0,0,0c0,0,0,0,0,0c0,0,0,0,0-0.1c0,0,0,0,0,0c0,0,0-0.1,0-0.1c0,0,0-0.1,0-0.1c0,0,0,0,0,0
		C82.6,59.3,82.6,59.2,82.6,59.1C82.6,59.2,82.6,59.1,82.6,59.1z"/>
	<path class="st107" d="M81.5,57.3C81.5,57.3,81.5,57.3,81.5,57.3C81.5,57.3,81.5,57.3,81.5,57.3c0,0-0.1,0.1-0.3,0.1c0,0,0,0,0,0
		l0,0c0,0,0,0,0,0c0,0-0.1,0-0.2,0c0,0-0.1,0-0.1,0c-0.1,0-0.1,0-0.2,0c0,0-0.1,0-0.1,0c0,0,0,0,0,0h0c0,0,0,0-0.1,0c0,0,0,0,0,0
		c0,0,0,0,0,0c0,0-0.1,0-0.1,0c0,0,0,0,0,0c0,0,0,0,0,0c0,0,0,0,0,0c0,0,0,0,0,0c0,0,0,0-0.1,0c0,0,0,0,0,0c0,0,0,0,0,0
		c-0.1,0-0.1-0.1-0.1-0.1c0,0,0,0,0,0l0,0.1c0,0,0,0,0,0c0,0,0,0,0,0c0,0,0,0,0,0c0,0,0,0,0,0c0,0,0,0,0,0c0,0,0,0,0,0
		c0,0,0.1,0,0.1,0.1c0.3,0.2,0.7,0.2,1,0c0,0,0.1,0,0.1-0.1c0,0,0,0,0,0c0,0,0,0,0,0c0,0,0,0,0,0c0,0,0,0,0,0c0,0,0,0,0,0
		c0,0,0,0,0,0c0,0,0,0,0,0l0-0.1C81.6,57.2,81.6,57.2,81.5,57.3z"/>
	<path class="st108" d="M80.2,57.1C80.2,57.1,80.2,57.1,80.2,57.1C80.2,57.1,80.2,57.2,80.2,57.1C80.2,57.2,80.2,57.2,80.2,57.1
		c0.1,0.1,0.1,0.1,0.1,0.1c0,0,0,0,0.1,0.1c0,0,0,0,0,0c0,0,0,0,0,0c0,0,0,0,0.1,0c0,0,0,0,0,0c0,0,0,0,0,0c0,0,0,0,0,0c0,0,0,0,0,0
		c0,0,0.1,0,0.1,0c0,0,0,0,0,0c0,0,0,0,0,0c0,0,0.1,0,0.1,0l0,0c0,0,0,0,0,0c0,0,0.1,0,0.1,0c0.1,0,0.1,0,0.2,0c0,0,0.1,0,0.1,0
		c0.1,0,0.1,0,0.2,0c0,0,0,0,0,0l0,0c0,0,0,0,0,0c0.1,0,0.2-0.1,0.2-0.1c0,0,0,0,0,0c0,0,0,0,0,0c0,0,0.1,0,0.1-0.1l0,0.1
		c0,0,0-0.1,0-0.1c0,0,0.1,0,0.1-0.1c0,0,0,0,0,0c0,0,0,0,0.1-0.1c0,0,0,0,0.1-0.1c0,0,0,0,0,0c0,0,0,0,0,0c0,0,0,0,0,0
		c0,0,0-0.1,0-0.1c0,0,0,0,0,0c0,0,0,0,0,0c0,0,0,0,0,0c0,0,0,0,0,0c0,0,0,0,0,0c0,0,0,0,0,0c0,0,0-0.1,0-0.1c0,0,0-0.1,0-0.1
		c0,0,0,0,0,0c0,0,0,0,0,0c0,0,0,0,0,0c0,0,0,0,0,0c0,0,0,0,0,0c0,0,0,0,0,0c0,0,0,0,0,0c0,0,0,0,0,0c0,0,0,0,0,0c0,0,0,0,0,0
		c0,0,0,0,0,0c0,0,0,0,0,0c0,0,0,0,0,0c0,0,0,0,0,0c0,0,0,0,0,0c0,0,0,0,0,0c0,0,0,0,0,0c0,0,0,0,0,0c0,0,0,0,0,0c0,0,0,0,0,0
		c0,0,0,0,0,0c0,0,0,0,0,0c0,0,0,0,0,0c0,0,0,0,0,0c0,0,0,0,0,0c0,0,0,0,0,0c0,0,0,0,0,0c0,0,0,0,0,0c0,0,0,0,0,0c0,0,0,0,0,0
		c0,0,0,0-0.1,0c-0.1,0-0.1,0-0.1-0.1c0,0,0,0,0,0c0,0,0,0,0,0c0,0,0,0-0.1,0c0,0,0,0,0,0c0,0,0,0,0,0c0,0,0,0,0,0c0,0,0,0,0,0
		c0,0,0,0,0,0c0,0,0,0,0,0c0,0-0.1,0-0.1,0c0,0,0,0,0,0c0,0,0,0,0,0c-0.1,0-0.1,0-0.2,0c0,0,0,0-0.1,0c0,0,0,0-0.1,0c0,0,0,0,0,0
		c0,0,0,0-0.1,0c0,0-0.1,0-0.1,0c0,0,0,0-0.1,0c0,0,0,0,0,0c0,0,0,0,0,0c0,0,0,0-0.1,0c0,0,0,0,0,0c0,0,0,0,0,0c0,0,0,0-0.1,0
		c0,0,0,0-0.1,0c0,0,0,0,0,0c0,0,0,0,0,0c0,0,0,0,0,0c0,0-0.1,0-0.1,0.1c0,0,0,0,0,0c0,0,0,0,0,0c0,0,0,0,0,0c0,0,0,0,0,0
		c0,0,0,0-0.1,0.1c0,0,0,0,0,0c0,0,0,0,0,0.1c0,0,0,0,0,0c0,0,0,0,0,0c0,0,0,0,0,0c0,0,0,0,0,0c0,0,0,0,0,0c0,0,0,0,0,0
		c0,0,0,0.1,0,0.1c0,0.1,0,0.1,0,0.1c0,0,0,0,0,0.1c0,0,0,0,0,0c0,0,0,0,0,0c0,0,0,0,0,0c0,0,0,0,0,0c0,0,0,0,0,0c0,0,0,0,0,0
		c0,0,0,0,0,0c0,0,0,0,0,0.1c0,0,0,0,0,0c0,0,0,0,0,0c0,0,0,0,0,0.1c0,0,0,0,0,0.1c0,0,0,0,0,0C80.1,57,80.1,57.1,80.2,57.1
		C80.1,57.1,80.1,57.1,80.2,57.1C80.1,57.1,80.1,57.1,80.2,57.1C80.2,57.1,80.2,57.1,80.2,57.1z"/>
</g>
<g>
	<g>
		<g class="st16">
			<g>
				<path class="st109" d="M76,64.5c0-0.2-0.1-0.4-0.3-0.5c-0.5-0.3-1.2-0.3-1.7,0l-0.1-0.9c0.5-0.3,1.4-0.3,1.9,0
					c0.3,0.2,0.4,0.4,0.4,0.6C76.1,64,76,64.2,76,64.5z"/>
			</g>
			<g>
				<path class="st109" d="M73.5,63.7c0-0.2,0.1-0.4,0.4-0.6L74,64c-0.3,0.1-0.4,0.4-0.4,0.6C73.6,64.2,73.5,64,73.5,63.7z"/>
			</g>
			<g>
				<path class="st109" d="M74,64c0.5-0.3,1.2-0.3,1.7,0c0.5,0.3,0.4,0.7,0,1c-0.5,0.3-1.2,0.3-1.7,0C73.5,64.7,73.5,64.2,74,64z"/>
			</g>
			<g>
				<path class="st109" d="M73.9,63.1c0.5-0.3,1.4-0.3,1.9,0c0.5,0.3,0.5,0.8,0,1.1c-0.5,0.3-1.4,0.3-1.9,0
					C73.4,63.9,73.4,63.4,73.9,63.1z"/>
			</g>
			<g>
				<path class="st109" d="M73.6,64.5c0-0.3-0.1-0.5-0.1-0.8c0,0.2,0.1,0.3,0.4,0.5c0.5,0.3,1.3,0.3,1.9,0c0.2-0.1,0.4-0.3,0.4-0.5
					c0,0.3-0.1,0.5-0.1,0.8c0,0.2-0.1,0.3-0.4,0.4c-0.5,0.3-1.2,0.3-1.7,0C73.8,64.8,73.6,64.7,73.6,64.5z"/>
			</g>
		</g>
		<g>
			<path class="st110" d="M73.9,63.1c0.5-0.3,1.4-0.3,1.9,0c0.5,0.3,0.5,0.8,0,1.1c-0.5,0.3-1.4,0.3-1.9,0
				C73.4,63.9,73.4,63.4,73.9,63.1z"/>
		</g>
		<path class="st109" d="M76,60.6c-0.6-0.4-1.7-0.4-2.4,0c-0.4,0.2-0.5,0.5-0.5,0.8c0.1,0.8,0.2,1.5,0.3,2.3c0-0.2,0.1-0.4,0.4-0.6
			c0.5-0.3,1.4-0.3,1.9,0c0.3,0.2,0.4,0.4,0.4,0.6c0.1-0.8,0.2-1.5,0.4-2.3C76.5,61.1,76.4,60.9,76,60.6z"/>
		<g>
			<path class="st25" d="M73.8,60.7c0.6-0.3,1.6-0.3,2.1,0s0.6,0.9,0,1.2c-0.6,0.3-1.6,0.3-2.1,0C73.1,61.5,73.2,61,73.8,60.7z"/>
		</g>
		<g>
			<path class="st111" d="M73.5,63.7c-0.1-0.8-0.2-1.5-0.3-2.3c0,0.2,0.2,0.4,0.5,0.6c0.6,0.4,1.7,0.4,2.4,0
				c0.3-0.2,0.5-0.4,0.5-0.6c-0.1,0.8-0.2,1.5-0.4,2.3c0,0.2-0.2,0.3-0.4,0.5c-0.5,0.3-1.4,0.3-1.9,0C73.7,64,73.5,63.9,73.5,63.7z"
				/>
		</g>
	</g>
</g>
<g>
	<g>
		<path class="st112" d="M79.5,61.6l0-2l0-0.3c0,0,0-0.1,0-0.1c0,0,0-0.1,0-0.1c0,0,0-0.1,0-0.1c0-0.1,0-0.2-0.1-0.3
			c0,0-0.1-0.1-0.1-0.1c0,0-0.1-0.1-0.1-0.1c0,0,0,0-0.1-0.1c0,0,0,0-0.1-0.1c0,0-0.1-0.1-0.1-0.1c0,0-0.1,0-0.1-0.1
			c0,0-0.1,0-0.1,0c0,0-0.1,0-0.1,0c0,0-0.1,0-0.1,0c0,0-0.1,0-0.2,0c0,0-0.1,0-0.1,0c0,0-0.1,0-0.1,0c0,0-0.1,0-0.2,0
			c0,0-0.1,0-0.1,0c0,0-0.1,0-0.1,0c0,0-0.1,0-0.1,0c0,0-0.1,0-0.2,0c0,0-0.1,0-0.1,0c0,0-0.1,0-0.2,0.1c0,0-0.1,0-0.1,0
			c0,0-0.1,0-0.1,0c0,0-0.1,0.1-0.1,0.1c0,0-0.1,0.1-0.1,0.1c0,0-0.1,0.1-0.1,0.1c0,0,0,0-0.1,0.1c0,0-0.1,0.1-0.1,0.1
			c0,0,0,0.1-0.1,0.1c0,0,0,0,0,0.1c0,0,0,0.1,0,0.1c0,0,0,0.1,0,0.1c0,0,0,0.1,0,0.1c0,0,0,0.1,0,0.2l0,0.3l0,2l0,0.8
			c0,0,0,0.1,0,0.1c0,0,0,0,0,0.1c0,0,0,0.1,0,0.1c0,0,0,0.1,0,0.1c0,0,0.1,0.1,0.1,0.1c0,0,0.1,0.1,0.1,0.1c0,0,0.1,0.1,0.1,0.1
			c0,0,0.1,0,0.1,0c0,0,0.1,0,0.1,0.1c0,0,0.1,0,0.1,0c0,0,0.1,0,0.1,0c0,0,0.1,0,0.1,0c0,0,0.1,0,0.1,0c0.1,0,0.2,0,0.2,0
			c0.1,0,0.1,0,0.2,0c0,0,0.1,0,0.2,0c0.1,0,0.3,0,0.4-0.1c0,0,0.1,0,0.2-0.1c0,0,0.1,0,0.1,0c0,0,0.1,0,0.1,0c0,0,0.1,0,0.1,0
			c0,0,0.1,0,0.1-0.1c0.1,0,0.1-0.1,0.2-0.1c0,0,0,0,0.1-0.1c0,0,0-0.1,0.1-0.1c0,0,0-0.1,0.1-0.1c0,0,0,0,0-0.1c0,0,0,0,0-0.1
			c0,0,0-0.1,0-0.1c0,0,0,0,0-0.1L79.5,61.6z"/>
		<g>
			<path class="st27" d="M78.5,57.3c0.3,0.2,0.3,0.5,0,0.7c-0.3,0.2-0.9,0.2-1.2,0c-0.3-0.2-0.3-0.5,0-0.7
				C77.7,57.1,78.2,57.1,78.5,57.3z"/>
		</g>
		<g>
			<path class="st113" d="M76.9,58.3l0-0.5c0,0.1,0.1,0.3,0.3,0.4c0.4,0.2,1,0.2,1.4,0c0.2-0.1,0.3-0.3,0.3-0.4l0,0.5
				c0,0.2-0.1,0.3-0.3,0.4c-0.4,0.2-1,0.2-1.4,0C77,58.6,76.9,58.5,76.9,58.3z"/>
		</g>
		<g>
			<path class="st27" d="M77.3,57.3C77.3,57.3,77.3,57.3,77.3,57.3c0.1,0,0.1-0.1,0.1-0.1c0,0,0.1,0,0.1,0c0,0,0.1,0,0.1,0
				c0.1,0,0.1,0,0.1,0c0,0,0.1,0,0.1,0c0,0,0.1,0,0.1,0c0,0,0.1,0,0.1,0c0,0,0.1,0,0.1,0c0,0,0,0,0.1,0c0,0,0.1,0,0.1,0
				c0,0,0,0,0.1,0c0,0,0.1,0,0.1,0c0,0,0,0,0.1,0c0,0,0,0,0.1,0c0,0-0.1,0-0.1,0C78.2,57.1,77.7,57.1,77.3,57.3
				C77,57.5,77,57.8,77.3,58c0.3,0.2,0.8,0.2,1.2,0c0.3-0.2,0.3-0.5,0-0.7c0,0,0.1,0,0.1,0c0,0,0,0,0,0c0,0,0.1,0,0.1,0.1
				c0.1,0.1,0.1,0.1,0.1,0.1c0,0,0,0,0,0.1c0,0,0,0,0,0.1c0,0,0,0,0,0.1c0,0,0,0,0,0c0,0,0,0,0,0.1c0,0.2-0.1,0.3-0.3,0.4
				c-0.4,0.2-1,0.2-1.4,0c-0.2-0.1-0.3-0.3-0.3-0.4l0,0c0,0,0-0.1,0-0.1c0,0,0,0,0-0.1c0,0,0-0.1,0.1-0.1c0,0,0,0,0.1-0.1
				c0,0,0,0,0.1-0.1C77.2,57.4,77.2,57.3,77.3,57.3C77.2,57.3,77.3,57.3,77.3,57.3z"/>
		</g>
	</g>
</g>
<g>
	<g>
		<path class="st114" d="M74.9,65.6l0-1c0,0.1,0.1,0.2,0.2,0.3c0.3,0.2,0.8,0.2,1.2,0c0.2-0.1,0.3-0.2,0.3-0.3l0,1
			c0,0.1-0.1,0.3-0.3,0.3c-0.3,0.2-0.9,0.2-1.2,0C75,65.9,74.9,65.8,74.9,65.6z"/>
	</g>
	<g>
		<path class="st113" d="M74.8,64.6l0-0.4c0,0.1,0.1,0.3,0.3,0.4c0.3,0.2,0.9,0.2,1.3,0c0.2-0.1,0.3-0.2,0.3-0.4l0,0.4
			c0,0.1-0.1,0.3-0.3,0.4c-0.4,0.2-0.9,0.2-1.3,0C74.9,64.9,74.8,64.7,74.8,64.6z"/>
	</g>
	<g>
		<path class="st27" d="M76.4,63.8c0.3,0.2,0.3,0.5,0,0.7c-0.4,0.2-0.9,0.2-1.3,0c-0.3-0.2-0.3-0.5,0-0.7
			C75.5,63.6,76,63.6,76.4,63.8z"/>
	</g>
</g>
<g>
	<g>
		<g>
			<polygon class="st92" points="84.5,61.5 85.7,60.8 85.7,57.7 84.5,58.4 			"/>
		</g>
		<g>
			<polygon class="st115" points="84.5,58.4 85.7,57.7 84.4,56.9 83.2,57.7 			"/>
		</g>
		<g>
			<polygon class="st116" points="83.2,57.7 83.2,60.8 84.5,61.5 84.5,58.4 			"/>
		</g>
	</g>
	<g>
		<g>
			<path class="st27" d="M84.9,56.9c0.2,0.1,0.2,0.4,0,0.5c-0.3,0.1-0.7,0.1-0.9,0c-0.2-0.1-0.2-0.4,0-0.5
				C84.3,56.7,84.7,56.7,84.9,56.9z"/>
		</g>
		<g>
			<path class="st113" d="M83.7,57.7l0-0.4c0,0.1,0.1,0.2,0.2,0.3c0.3,0.2,0.8,0.2,1.1,0c0.2-0.1,0.2-0.2,0.2-0.3l0,0.4
				c0,0.1-0.1,0.2-0.2,0.3c-0.3,0.2-0.8,0.2-1.1,0C83.8,57.9,83.7,57.8,83.7,57.7z"/>
		</g>
		<g>
			<path class="st27" d="M83.9,56.9C84,56.9,84,56.8,83.9,56.9C84,56.8,84,56.8,83.9,56.9c0.1-0.1,0.2-0.1,0.2-0.1c0,0,0,0,0.1,0
				c0,0,0.1,0,0.1,0c0,0,0,0,0.1,0c0,0,0,0,0.1,0c0,0,0,0,0.1,0c0,0,0.1,0,0.1,0c0,0,0,0,0.1,0c0,0,0.1,0,0.1,0c0,0,0,0,0.1,0
				c0,0,0.1,0,0.1,0c0,0,0,0,0,0c0,0,0,0,0.1,0c0,0,0,0-0.1,0C84.7,56.7,84.3,56.7,83.9,56.9c-0.2,0.1-0.2,0.4,0,0.5
				c0.2,0.1,0.6,0.1,0.9,0c0.3-0.1,0.3-0.4,0-0.5c0,0,0.1,0,0.1,0c0,0,0,0,0,0c0,0,0,0,0.1,0.1c0,0,0.1,0.1,0.1,0.1c0,0,0,0,0,0.1
				c0,0,0,0,0,0c0,0,0,0,0,0c0,0,0,0,0,0c0,0,0,0,0,0c0,0.1-0.1,0.2-0.2,0.3c-0.3,0.2-0.8,0.2-1.1,0c-0.1-0.1-0.2-0.2-0.2-0.3l0,0
				c0,0,0,0,0-0.1c0,0,0,0,0,0c0,0,0-0.1,0.1-0.1c0,0,0,0,0,0c0,0,0,0,0.1-0.1C83.9,56.9,83.9,56.9,83.9,56.9
				C83.9,56.9,83.9,56.9,83.9,56.9z"/>
		</g>
	</g>
</g>
<g>
	<g>
		<g>
			<path class="st117" d="M72.6,67.5C72.6,67.4,72.6,67.4,72.6,67.5c0.2-0.1,0.2-0.2,0.3-0.2c0.1,0,0.1-0.1,0.2-0.2
				c0.1-0.1,0.2-0.2,0.2-0.2c0,0,0.1-0.1,0.1-0.2c0.1-0.1,0.1-0.3,0.2-0.6c0,0,0-0.1,0-0.1c0-0.1,0-0.1,0-0.2c0-0.1,0-0.2,0-0.2
				c0-0.1,0-0.2-0.1-0.2c0,0,0-0.1,0-0.1c0-0.1-0.1-0.1-0.1-0.2c0,0-0.1-0.1-0.2-0.2c0,0,0-0.1-0.1-0.1c0,0-0.1-0.1-0.1-0.1
				c0,0-0.1-0.1-0.2-0.2c-0.1-0.1-0.2-0.1-0.2-0.1c0,0-0.1,0-0.1-0.1c0,0-0.1,0-0.1-0.1c-0.1,0-0.1,0-0.2-0.1c0,0-0.1,0-0.1,0
				c0,0-0.2,0-0.4-0.1c-0.2,0-0.3,0-0.4,0c-0.1,0-0.1,0-0.2,0c0,0-0.1,0-0.2,0.1c0,0-0.1,0-0.1,0c0,0-0.1,0-0.1,0
				c0,0-0.1,0.1-0.1,0.1c0.1,0,0.2-0.1,0.3-0.1c0.4-0.3,1.2-0.3,1.6,0c0.5,0.3,0.5,0.7,0,0.9c-0.4,0.3-1.2,0.3-1.6,0
				c-0.5-0.3-0.5-0.7,0-0.9c-0.1,0-0.2,0-0.3,0.1c0,0-0.1,0-0.1,0.1c0,0-0.1,0.1-0.1,0.1c-0.1,0.1-0.2,0.1-0.2,0.2
				c-0.1,0.2-0.3,0.3-0.3,0.4c0,0.1-0.1,0.2-0.1,0.2c0,0,0,0.1,0,0.1c0,0.1,0,0.1,0,0.2c0,0,0,0.1,0,0.3c0,0.2,0,0.3,0,0.3
				c0,0.1,0,0.2,0.1,0.3c0,0.1,0.1,0.2,0.1,0.3c0,0,0.1,0.1,0.1,0.2c0.1,0.1,0.2,0.2,0.2,0.2c0,0,0.1,0.1,0.1,0.1
				c0,0,0.1,0.1,0.1,0.1c0.1,0.1,0.2,0.1,0.3,0.2c0.1,0,0.2,0.1,0.2,0.1c0.1,0,0.1,0,0.2,0.1c0,0,0.1,0,0.1,0c0,0,0.2,0,0.4,0
				c0.2,0,0.3,0,0.4,0c0.1,0,0.1,0,0.2,0c0,0,0.1,0,0.2-0.1C72.4,67.6,72.5,67.5,72.6,67.5z"/>
		</g>
		<g>
			<path class="st118" d="M70.7,64.1c-0.4,0.3-0.4,0.7,0,0.9c0.5,0.3,1.2,0.2,1.6,0c0.4-0.3,0.4-0.7,0-0.9
				C71.8,63.9,71.1,63.9,70.7,64.1z"/>
		</g>
		<g>
			<g class="st16">
				<g>
					<path class="st119" d="M71.8,64.3l-0.2-0.1c0,0-0.1,0-0.1,0l0.2,0.1C71.7,64.3,71.7,64.3,71.8,64.3z"/>
				</g>
				<g>
					<path class="st119" d="M71.7,64.4l-0.2-0.1c-0.1,0.1-0.2,0.2-0.2,0.3c0,0,0,0,0,0l0.2,0.1c0,0,0,0,0,0
						C71.5,64.6,71.5,64.4,71.7,64.4z"/>
				</g>
				<g>
					<path class="st120" d="M71.7,64.4c-0.1,0.1-0.2,0.2-0.2,0.3c0,0,0,0,0,0l0.4-0.2c0,0,0,0,0,0C71.8,64.3,71.8,64.3,71.7,64.4z"
						/>
				</g>
			</g>
		</g>
	</g>
</g>
<g class="st16">
	<path class="st121" d="M52.8,69.7C52.8,69.6,52.8,69.6,52.8,69.7c-0.1-0.2-0.2-0.2-0.2-0.3c0,0,0-0.1-0.1-0.1
		c0-0.1-0.1-0.1-0.1-0.2c0,0,0-0.1-0.1-0.1c-0.1-0.1-0.1-0.2-0.2-0.3c0,0,0,0,0-0.1c0-0.1-0.1-0.2-0.1-0.3c0,0,0-0.1,0-0.1
		c0-0.1-0.1-0.2-0.1-0.3c0,0,0-0.1,0-0.1c0-0.1-0.1-0.2-0.1-0.3c0,0,0-0.1,0-0.1c0-0.1-0.1-0.3-0.1-0.4c0,0,0-0.1,0-0.1
		c0-0.1,0-0.2,0-0.3c0,0,0-0.1,0-0.1c0-0.1,0-0.1,0-0.2c0-0.1,0-0.2,0-0.3c0-0.1,0-0.1,0-0.2c0-0.1,0-0.2,0-0.3c0-0.1,0-0.1,0-0.2
		c0-0.2,0-0.3,0-0.5c0-0.2,0-0.4,0-0.5c0-0.1,0-0.1,0-0.2c0-0.1,0-0.2,0-0.4c0,0,0,0,0,0c0-0.2,0-0.5,0.1-0.7c0-0.1,0-0.1,0-0.2
		c0-0.2,0.1-0.3,0.1-0.5c0-0.1,0-0.1,0-0.2c0-0.2,0.1-0.4,0.1-0.6c0,0,0-0.1,0-0.1c0.1-0.2,0.1-0.5,0.2-0.7c0,0,0,0,0-0.1
		c0,0,0-0.1,0-0.1c0-0.2,0.1-0.3,0.2-0.5c0-0.1,0-0.1,0.1-0.2c0.1-0.2,0.1-0.4,0.2-0.6c0,0,0-0.1,0-0.1c0.1-0.2,0.2-0.5,0.3-0.7
		c0-0.1,0.1-0.1,0.1-0.2c0.1-0.2,0.1-0.3,0.2-0.5c0-0.1,0.1-0.1,0.1-0.2c0.1-0.2,0.2-0.4,0.3-0.6c0,0,0-0.1,0-0.1
		c0.1-0.2,0.2-0.4,0.3-0.7c0-0.1,0.1-0.1,0.1-0.2c0.1-0.2,0.2-0.3,0.3-0.5c0-0.1,0.1-0.1,0.1-0.2c0.1-0.2,0.2-0.4,0.3-0.5
		c0,0,0-0.1,0.1-0.1c0.1-0.2,0.3-0.4,0.4-0.6c0-0.1,0.1-0.1,0.1-0.2c0.1-0.2,0.2-0.3,0.3-0.5c0-0.1,0.1-0.1,0.1-0.2
		c0.1-0.2,0.3-0.3,0.4-0.5c0,0,0-0.1,0.1-0.1c0.2-0.2,0.3-0.4,0.5-0.6c0,0,0.1-0.1,0.1-0.1c0.1-0.1,0.2-0.3,0.4-0.4
		c0.1-0.1,0.1-0.1,0.2-0.2c0.1-0.1,0.3-0.3,0.4-0.4c0,0,0.1-0.1,0.1-0.1c0.2-0.2,0.3-0.3,0.5-0.5c0,0,0.1-0.1,0.1-0.1
		c0.1-0.1,0.3-0.2,0.4-0.3c0,0,0.1-0.1,0.1-0.1c0,0,0.1-0.1,0.1-0.1c0.1,0,0.1-0.1,0.2-0.1c0.1-0.1,0.2-0.1,0.3-0.2
		c0.1,0,0.1-0.1,0.2-0.1c0.1-0.1,0.2-0.1,0.3-0.2c0,0,0.1-0.1,0.1-0.1c0.1-0.1,0.3-0.2,0.4-0.3c0.2-0.1,0.3-0.2,0.5-0.3
		c0.1,0,0.1,0,0.1-0.1c0.1,0,0.2-0.1,0.3-0.1c0,0,0,0,0,0c0.2-0.1,0.4-0.2,0.6-0.2c0,0,0.1,0,0.1,0c0.1-0.1,0.3-0.1,0.4-0.2
		c0.1,0,0.1,0,0.2-0.1c0.1,0,0.3-0.1,0.4-0.1c0,0,0.1,0,0.1,0c0.2,0,0.3-0.1,0.5-0.1c0,0,0,0,0,0c0,0,0.1,0,0.1,0c0.1,0,0.2,0,0.3,0
		c0.1,0,0.1,0,0.2,0c0.1,0,0.2,0,0.3,0c0.1,0,0.1,0,0.2,0c0.1,0,0.2,0,0.3,0c0.1,0,0.1,0,0.2,0c0.1,0,0.2,0,0.2,0c0.1,0,0.1,0,0.2,0
		c0.1,0,0.2,0,0.2,0c0.1,0,0.1,0,0.2,0c0.1,0,0.2,0,0.2,0.1c0,0,0.1,0,0.1,0c0.1,0,0.2,0.1,0.2,0.1c0,0,0.1,0,0.1,0
		c0.1,0.1,0.2,0.1,0.3,0.2l0.8,0.4c-0.1-0.1-0.2-0.1-0.3-0.2c0,0-0.1,0-0.1,0c-0.1,0-0.2-0.1-0.2-0.1c0,0-0.1,0-0.1,0
		c-0.1,0-0.2,0-0.2-0.1c-0.1,0-0.1,0-0.2,0c-0.1,0-0.2,0-0.2,0c-0.1,0-0.1,0-0.2,0c-0.1,0-0.2,0-0.2,0c-0.1,0-0.1,0-0.2,0
		c-0.1,0-0.2,0-0.3,0c-0.1,0-0.1,0-0.2,0c-0.1,0-0.2,0-0.3,0c-0.1,0-0.1,0-0.2,0c-0.1,0-0.2,0-0.3,0c0,0-0.1,0-0.1,0
		c-0.2,0-0.3,0.1-0.5,0.1c0,0-0.1,0-0.1,0c-0.1,0-0.3,0.1-0.4,0.1c-0.1,0-0.1,0-0.2,0.1c-0.1,0-0.3,0.1-0.4,0.2c0,0-0.1,0-0.1,0
		c-0.2,0.1-0.4,0.2-0.6,0.2c-0.1,0-0.2,0.1-0.3,0.1c0,0-0.1,0-0.1,0.1c-0.2,0.1-0.3,0.2-0.5,0.3c-0.1,0.1-0.3,0.2-0.4,0.3
		c0,0-0.1,0.1-0.1,0.1c-0.1,0.1-0.2,0.1-0.3,0.2c-0.1,0-0.1,0.1-0.2,0.1c-0.1,0.1-0.2,0.1-0.3,0.2c-0.1,0-0.1,0.1-0.2,0.1
		c-0.1,0.1-0.1,0.1-0.2,0.2c-0.1,0.1-0.3,0.2-0.4,0.3c0,0-0.1,0.1-0.1,0.1c-0.2,0.2-0.4,0.3-0.5,0.5c0,0-0.1,0.1-0.1,0.1
		c-0.1,0.1-0.3,0.3-0.4,0.4C58.1,52,58,52.1,58,52.1c-0.1,0.1-0.2,0.3-0.4,0.4c0,0-0.1,0.1-0.1,0.1c-0.2,0.2-0.3,0.4-0.5,0.6
		c0,0,0,0.1-0.1,0.1c-0.1,0.2-0.3,0.3-0.4,0.5c0,0.1-0.1,0.1-0.1,0.2c-0.1,0.1-0.2,0.3-0.3,0.4c0,0.1-0.1,0.1-0.1,0.2
		c-0.1,0.2-0.3,0.4-0.4,0.6c0,0,0,0.1-0.1,0.1c-0.1,0.2-0.2,0.4-0.3,0.5c0,0.1-0.1,0.1-0.1,0.2c-0.1,0.2-0.2,0.3-0.3,0.5
		c0,0.1-0.1,0.1-0.1,0.2c-0.1,0.2-0.2,0.4-0.3,0.7c0,0,0,0.1,0,0.1c-0.1,0.2-0.2,0.4-0.3,0.6c0,0.1-0.1,0.1-0.1,0.2
		c-0.1,0.2-0.1,0.3-0.2,0.5c0,0.1-0.1,0.1-0.1,0.2c-0.1,0.2-0.2,0.5-0.3,0.7c0,0,0,0.1,0,0.1c-0.1,0.2-0.1,0.4-0.2,0.6
		c0,0.1,0,0.1-0.1,0.2c-0.1,0.2-0.1,0.3-0.2,0.5c0,0.1,0,0.1-0.1,0.2c-0.1,0.2-0.1,0.5-0.2,0.7c0,0,0,0.1,0,0.1
		c0,0.2-0.1,0.4-0.1,0.6c0,0.1,0,0.1,0,0.2c0,0.2-0.1,0.3-0.1,0.5c0,0.1,0,0.1,0,0.2c0,0.2-0.1,0.5-0.1,0.7c0,0.1,0,0.2,0,0.4
		c0,0.1,0,0.1,0,0.2c0,0.2,0,0.4,0,0.5c0,0.2,0,0.3,0,0.5c0,0.1,0,0.1,0,0.2c0,0.1,0,0.2,0,0.3c0,0.1,0,0.1,0,0.2c0,0.1,0,0.2,0,0.3
		c0,0.1,0,0.1,0,0.2c0,0.1,0,0.2,0.1,0.3c0,0,0,0.1,0,0.1c0,0.1,0.1,0.3,0.1,0.4c0,0,0,0.1,0,0.1c0,0.1,0.1,0.2,0.1,0.3
		c0,0,0,0.1,0,0.1c0,0.1,0.1,0.2,0.1,0.3c0,0,0,0.1,0,0.1c0,0.1,0.1,0.2,0.1,0.3c0,0,0,0,0,0.1c0.1,0.1,0.1,0.2,0.2,0.3
		c0,0,0,0.1,0.1,0.1c0,0.1,0.1,0.2,0.1,0.2c0,0,0,0.1,0.1,0.1c0,0.1,0.1,0.1,0.1,0.2c0,0,0,0.1,0.1,0.1c0.1,0.1,0.1,0.2,0.2,0.2
		c0,0,0,0,0,0c0.1,0.1,0.2,0.2,0.2,0.2c0,0,0,0,0.1,0.1c0.1,0.1,0.1,0.1,0.2,0.2c0,0,0.1,0,0.1,0.1c0.1,0,0.1,0.1,0.2,0.1
		c0,0,0.1,0,0.1,0.1c0.1,0.1,0.2,0.1,0.3,0.2l-0.8-0.4c-0.1-0.1-0.2-0.1-0.3-0.2c0,0-0.1,0-0.1-0.1c-0.1,0-0.1-0.1-0.2-0.1
		c0,0-0.1,0-0.1-0.1c-0.1-0.1-0.1-0.1-0.2-0.2c0,0,0,0-0.1-0.1c-0.1-0.1-0.2-0.2-0.2-0.2c0,0,0,0,0,0C52.9,69.8,52.9,69.7,52.8,69.7
		z"/>
	<g>
		<path class="st122" d="M61.4,49.4c-5.1,2.9-9.2,10.1-9.2,16c0,5.9,4.2,8.2,9.3,5.3c5.1-2.9,9.2-10.1,9.2-16S66.5,46.4,61.4,49.4z"
			/>
		<path class="st123" d="M57.3,70.8c1.1,0,2.3-0.4,3.6-1.1c4.8-2.8,8.7-9.5,8.7-15c0-3.4-1.5-5.5-4.1-5.5c-1.1,0-2.3,0.4-3.6,1.1
			c-4.8,2.8-8.7,9.5-8.7,15C53.3,68.8,54.8,70.8,57.3,70.8z"/>
	</g>
</g>
<path class="st124" d="M184.5,129.8C184.5,129.8,184.5,129.8,184.5,129.8C184.5,129.7,184.5,129.7,184.5,129.8
	C184.5,129.7,184.6,129.7,184.5,129.8c0-0.1,0-0.1,0-0.1c0,0,0,0,0-0.1c0,0,0,0,0,0c0,0,0,0,0-0.1c0,0,0,0,0,0c0,0,0,0,0-0.1
	c0,0,0,0,0,0c0,0,0,0,0,0c0,0,0,0,0,0c0,0,0,0,0,0c0,0,0,0,0-0.1c0,0,0,0,0,0c0,0,0,0,0-0.1c0,0,0,0,0,0c0,0,0,0,0,0c0,0,0,0,0-0.1
	c0,0,0,0,0,0c0-0.1,0-0.1-0.1-0.2c0,0,0,0,0,0c0,0,0-0.1-0.1-0.1c0,0,0,0,0,0c0,0,0,0,0,0c0,0,0,0,0,0c-0.1-0.1-0.1-0.2-0.2-0.2
	c0,0,0,0-0.1-0.1c0,0,0,0,0,0c0,0,0,0,0,0c0,0,0,0,0,0c0,0,0,0,0,0c0,0,0,0,0,0c0,0,0,0,0,0c0,0,0,0,0,0c-0.1-0.1-0.2-0.2-0.4-0.3
	c-0.1,0-0.1-0.1-0.2-0.1c-0.1,0-0.1-0.1-0.2-0.1c-0.1-0.1-0.3-0.1-0.3-0.1c0,0,0,0,0,0c-0.1,0-0.1,0-0.2-0.1c0,0,0,0,0,0
	c-0.1,0-0.1,0-0.3-0.1c0,0,0,0,0,0c0,0,0,0-0.1,0c0,0,0,0,0,0c-0.1,0-0.1,0-0.1,0c0,0,0,0,0,0c0,0-0.1,0-0.1,0c0,0-0.1,0-0.1,0
	c0,0,0,0,0,0c0,0,0,0,0,0c0,0,0,0,0,0c-0.1,0-0.2,0-0.2,0c-0.1,0-0.3,0-0.4,0c0,0,0,0,0,0c0,0-0.1,0-0.1,0c0,0,0,0-0.1,0
	c0,0-0.1,0-0.1,0c0,0,0,0,0,0c0,0,0,0,0,0c-0.1,0-0.2,0-0.2,0c-0.1,0-0.2,0-0.3,0c0,0,0,0,0,0c-0.2,0-0.3,0.1-0.5,0.1c0,0,0,0,0,0
	c0,0,0,0,0,0c-0.1,0-0.1,0-0.2,0.1c-0.1,0-0.3,0.1-0.6,0.2c0,0-0.1,0-0.1,0c0,0,0,0,0,0c-0.2,0.1-0.3,0.2-0.4,0.2c0,0-0.1,0-0.1,0.1
	c0,0,0,0,0,0c0,0,0,0,0,0c0,0,0,0-0.1,0c0,0,0,0,0,0c0,0,0,0,0,0c0,0,0,0,0,0c0,0,0,0,0,0c-0.1,0-0.1,0.1-0.2,0.1
	c0,0-0.1,0.1-0.1,0.2c0,0-0.1,0.1-0.1,0.1c0,0.1-0.1,0.1-0.1,0.2c0,0,0,0,0,0c0,0,0,0.1,0,0.1c0,0,0,0,0,0c0,0,0,0.1,0,0.1
	c0,0,0,0.1,0,0.1c0,0,0,0,0,0c0,0,0,0,0,0.1c0,0,0,0,0,0c0,0,0,0.1,0,0.1c0,0,0,0,0,0c0,0,0,0,0,0c0,0,0,0,0,0c0,0,0,0,0,0
	c0,0,0,0,0,0c0,0,0,0,0,0c0,0,0,0.1,0,0.1c0,0,0,0,0,0.1c0,0,0,0.1,0,0.1c0,0,0,0,0,0c0,0,0,0.1,0,0.1c0,0,0,0,0,0c0,0,0,0,0,0
	c0,0,0,0,0,0.1c0,0,0,0,0,0c0,0,0,0,0,0c0,0,0,0.1,0.1,0.2c0,0,0,0,0,0c0,0,0,0,0,0c0,0,0,0.1,0.1,0.1c0,0,0,0,0,0
	c0,0,0,0.1,0.1,0.1c0,0,0.1,0.1,0.1,0.1c0.1,0,0.1,0.1,0.2,0.1c0,0,0.1,0.1,0.1,0.1c0,0,0.1,0,0.1,0.1c0,0,0,0,0.1,0c0,0,0,0,0,0
	c0.1,0,0.1,0.1,0.2,0.1c0,0,0,0,0.1,0c0,0,0,0,0,0c0,0,0,0,0,0c0.1,0,0.2,0.1,0.3,0.1c0,0,0,0,0,0c0.1,0,0.1,0,0.2,0.1
	c0.1,0,0.1,0,0.2,0.1c0,0,0,0,0,0c0,0,0,0,0,0c0,0,0,0,0,0c0,0,0,0,0,0c0,0,0,0,0.1,0c0,0,0,0,0,0c0,0,0,0,0,0
	c0.2,0,0.4,0.1,0.4,0.1c0,0,0,0,0,0c0.1,0,0.2,0,0.2,0c0,0,0,0,0.1,0c0.1,0,0.3,0,0.4,0c0,0,0,0,0,0c0.1,0,0.1,0,0.2,0c0,0,0,0,0,0
	c0,0,0.1,0,0.1,0c0,0,0.1,0,0.2,0c0,0,0.1,0,0.2,0c0,0,0,0,0,0c0.1,0,0.1,0,0.2,0c0,0,0,0,0,0c0.1,0,0.1,0,0.2,0c0,0,0,0,0,0
	c0,0,0,0,0,0c0,0,0,0,0,0c0.1,0,0.2,0,0.2-0.1c0,0,0,0,0,0c0.3-0.1,0.4-0.1,0.4-0.2c0,0,0,0,0,0c0.3-0.1,0.5-0.2,0.6-0.3
	c0,0,0,0,0,0c0,0,0,0,0,0c0,0,0,0,0,0c0,0,0.1,0,0.1-0.1c0,0,0,0,0.1,0c0,0,0,0,0.1-0.1c0,0,0,0,0,0c0,0,0,0,0,0
	c0.1-0.1,0.1-0.1,0.2-0.2c0,0,0,0,0,0c0,0,0.1-0.1,0.1-0.1c0,0,0,0,0,0c0,0,0,0,0,0c0,0,0.1-0.1,0.1-0.1c0,0,0,0,0,0c0,0,0,0,0-0.1
	c0,0,0,0,0,0c0,0,0,0,0-0.1c0,0,0,0,0-0.1c0,0,0,0,0-0.1c0,0,0,0,0,0C184.5,129.9,184.5,129.9,184.5,129.8
	C184.5,129.8,184.5,129.8,184.5,129.8C184.5,129.8,184.5,129.8,184.5,129.8z"/>
<g>
	<path class="st125" d="M178,129.7C178,129.7,178.1,129.7,178,129.7C178.1,129.7,178,129.7,178,129.7z"/>
	<path class="st125" d="M177.9,129.6C177.9,129.6,178,129.6,177.9,129.6C178,129.6,177.9,129.6,177.9,129.6z"/>
	<path class="st125" d="M178,129.6C178,129.7,178,129.7,178,129.6C178,129.7,178,129.7,178,129.6z"/>
	<path class="st125" d="M178.4,130c-0.1-0.1-0.2-0.2-0.3-0.2c0,0,0.1,0.1,0.1,0.1C178.3,129.9,178.4,129.9,178.4,130z"/>
	<path class="st125" d="M186.8,124.7c0-3.3-2.5-5.9-5.7-5.9c-3.1,0-5.7,2.6-5.7,5.9c0,2,1,3.8,2.4,4.8c0,0,0,0,0.1,0.1
		c0,0,0,0-0.1-0.1c0.1,0.1,0.3,0.2,0.4,0.3c0.1,0.1,0.2,0.1,0.3,0.2c0,0,0.1,0.1,0.1,0.1c1.4,0.7,3.6,0.7,4.9,0
		c0.1,0,0.2-0.1,0.2-0.1c0,0,0,0,0.1,0c0,0,0.1-0.1,0.1-0.1c0,0,0,0,0,0c0,0,0,0,0.1,0c0,0,0,0,0.1,0c0,0,0.1-0.1,0.1-0.1
		c0,0,0.1,0,0.1-0.1C185.8,128.5,186.8,126.7,186.8,124.7z"/>
</g>
<g>
	<path class="st126" d="M182.7,120c0-0.2-0.2-0.4-0.4-0.6c-0.1-2.3-0.3-4.1-0.6-5.1c0.1,0.1,0.2,0.1,0.2,0.2
		c0.3,0.7,0.4,1.7,0.5,2.3C182.6,118.2,182.6,119.4,182.7,120z"/>
</g>
<g>
	<path class="st126" d="M180.3,114.5c0-0.1,0.1-0.2,0.2-0.2c0.3-0.2,0.8-0.2,1.1,0c0.3,1,0.5,2.8,0.6,5.1c-0.6-0.4-1.6-0.4-2.2,0
		c-0.3,0.2-0.5,0.4-0.5,0.6C179.6,118.7,179.7,116.2,180.3,114.5z"/>
</g>
<g>
	<path class="st126" d="M179.5,120c0-0.6,0.1-1.8,0.3-3.2c0.1-0.7,0.3-1.6,0.5-2.3c0,0.1,0,0.3,0.2,0.4c0.3,0.2,0.8,0.2,1.1,0
		c0.2-0.1,0.3-0.3,0.2-0.4c0.1,0.3,0.3,1,0.5,2.3c0.1,1,0.2,2,0.3,3.2c0,0.2-0.2,0.5-0.5,0.7c-0.6,0.4-1.6,0.3-2.2,0
		C179.6,120.5,179.5,120.3,179.5,120z"/>
</g>
<g>
	<path class="st126" d="M182.1,114c0.6,0.3,0.5,0.9,0,1.2c-0.6,0.3-1.5,0.3-2.1,0c-0.6-0.3-0.5-0.9,0-1.2
		C180.6,113.7,181.6,113.7,182.1,114z M181.7,114.3c-0.3-0.2-0.8-0.2-1.1,0c-0.3,0.2-0.3,0.5,0,0.6c0.3,0.2,0.8,0.2,1.1,0
		C181.9,114.8,182,114.5,181.7,114.3L181.7,114.3z"/>
</g>
<g>
	<path class="st126" d="M179.2,114.3c0-0.2,0.1-0.5,0.3-0.7c0.3-0.3,0.7-0.4,0.8-0.5c0.2-0.1,0.6-0.1,1.1-0.1c0.5,0.1,0.8,0.2,1,0.3
		c0.1,0,0.1,0.1,0.1,0.2c0,0.2-0.1,0.4-0.3,0.5c-0.6-0.3-1.5-0.4-2.1,0c-0.6,0.3-0.6,0.9,0,1.2c0.6,0.3,1.5,0.4,2.1,0
		c0.6-0.3,0.6-0.9,0-1.2c0.2-0.1,0.3-0.3,0.3-0.5c0-0.1,0-0.2-0.1-0.2c0.4,0.2,0.5,0.5,0.5,0.6c0,0.1,0.1,0.3,0,0.6
		c-0.1,0.3-0.3,0.5-0.4,0.6c-0.2,0.2-0.5,0.3-0.8,0.4c-0.8,0.2-1.4,0-1.7-0.1c-0.1-0.1-0.4-0.2-0.6-0.5
		C179.2,114.7,179.2,114.5,179.2,114.3z"/>
</g>
<g>
	<path class="st124" d="M182.1,113.3c0.6,0.3,0.5,0.9,0,1.2c-0.6,0.3-1.5,0.3-2.1,0c-0.6-0.3-0.5-0.9,0-1.2
		C180.6,113,181.6,113,182.1,113.3z"/>
</g>
<g>
	<path class="st127" d="M179.8,115.2c-0.2-0.1-0.4-0.3-0.5-0.6c-0.1-0.3-0.1-0.6-0.1-0.7c0.1-0.5,0.6-0.8,1.2-1
		c0.5-0.1,0.9-0.1,1.1,0c0.2,0,0.5,0.1,0.9,0.3c-0.1,0-0.1,0-0.2,0c-0.6-0.3-1.5-0.4-2.1,0c-0.6,0.3-0.6,0.9,0,1.2
		c0.6,0.3,1.5,0.4,2.1,0c0.6-0.3,0.6-0.9,0-1.2c0.1,0,0.2-0.1,0.2,0c0.1,0.1,0.2,0.1,0.3,0.3c0.1,0.1,0.1,0.2,0.2,0.3
		c0.1,0.2,0.1,0.5,0.1,0.7c-0.1,0.5-0.6,0.8-1.2,1c-0.5,0.1-0.9,0.1-1.1,0C180.4,115.5,180.1,115.4,179.8,115.2z"/>
</g>
<g>
	<g class="st16">
		<g class="st16">
			<g class="st16">
				<path class="st128" d="M181.1,114.5l-0.3-0.1c0.2-3.6,0.9-7.9,2.8-12l0.3,0.1C182.1,106.6,181.4,110.9,181.1,114.5L181.1,114.5z
					"/>
				<path class="st129" d="M183.9,102.5l-0.3-0.1c0.4-0.9,0.9-1.8,1.4-2.6l0.3,0.1C184.8,100.7,184.3,101.6,183.9,102.5L183.9,102.5
					z"/>
			</g>
		</g>
		<g class="st16">
			<g class="st16">
				<path class="st128" d="M185.1,99.8l-0.3-0.1c0,0,0,0,0,0c-0.1-0.1,0-0.4,0.1-0.7l0.3,0.1C185,99.5,185,99.7,185.1,99.8
					C185.1,99.8,185.1,99.8,185.1,99.8L185.1,99.8z"/>
				<path class="st129" d="M185.2,99.1l-0.3-0.1c0.2-0.3,0.4-0.8,0.7-1.2c0.1-0.2,0.3-0.4,0.4-0.5l0.3,0.1c-0.1,0.2-0.3,0.3-0.4,0.5
					C185.6,98.3,185.4,98.7,185.2,99.1L185.2,99.1z"/>
				<path class="st130" d="M186.3,97.3l-0.3-0.1c0.3-0.4,0.6-0.7,0.8-0.8c0,0,0.1,0,0.1-0.1l0.3,0.1c0,0-0.1,0-0.1,0.1
					C186.9,96.7,186.6,96.9,186.3,97.3L186.3,97.3z"/>
				<path class="st129" d="M187.3,96.5l-0.3-0.1c0,0,0.1,0,0.1,0L187.3,96.5C187.3,96.5,187.3,96.5,187.3,96.5L187.3,96.5z"/>
				<polygon class="st128" points="187.4,96.5 187.1,96.3 187.1,96.3 187.4,96.5 187.4,96.5 				"/>
			</g>
		</g>
		<g class="st16">
			<g class="st16">
				<path class="st128" d="M180.9,113.7l-0.3-0.1c-0.3-3.1-0.7-6.8-0.7-10.5l0.3,0.1C180.2,106.9,180.5,110.6,180.9,113.7
					L180.9,113.7z"/>
			</g>
		</g>
		<g class="st16">
			<g class="st16">
				<path class="st128" d="M180.1,103.2l-0.3-0.1c-0.2-0.1-0.4-0.8-0.4-1.8c0-0.9,0.1-1.7,0.3-2.1l0.3,0.1c-0.2,0.4-0.3,1.2-0.3,2.1
					C179.7,102.4,179.9,103.1,180.1,103.2L180.1,103.2z"/>
				<path class="st129" d="M180,99.3l-0.3-0.1c0-0.1,0.1-0.1,0.1-0.2l0.3,0.1C180.1,99.2,180,99.2,180,99.3L180,99.3z"/>
				<path class="st130" d="M180.1,99.1l-0.3-0.1c0,0,0.1-0.1,0.1-0.1c0,0,0,0,0,0l0.3,0.1C180.2,99,180.2,99,180.1,99.1
					C180.2,99.1,180.1,99.1,180.1,99.1L180.1,99.1z"/>
				<path class="st129" d="M180.2,99l-0.3-0.1c0,0,0.1,0,0.1,0L180.2,99C180.3,99,180.3,99,180.2,99L180.2,99z"/>
				<polygon class="st128" points="180.3,99 180.1,98.9 180.1,98.9 180.3,99 180.3,99 				"/>
			</g>
		</g>
		<g class="st16">
			<g class="st16">
				<path class="st128" d="M176.5,107.2l-0.3-0.1c-0.2-0.1-0.3-0.2-0.5-0.4c-0.6-0.5-0.9-1.2-0.7-1.6l0.3,0.1
					c-0.2,0.3,0.2,1,0.7,1.6C176.2,107,176.4,107.1,176.5,107.2L176.5,107.2z"/>
				<path class="st129" d="M175.3,105.3l-0.3-0.1c0,0,0,0,0-0.1c0,0,0,0,0,0L175.3,105.3C175.3,105.2,175.3,105.2,175.3,105.3
					C175.3,105.2,175.3,105.2,175.3,105.3L175.3,105.3z"/>
				<path class="st130" d="M175.3,105.2l-0.3-0.1c0,0,0.1-0.1,0.1-0.1c0,0,0.1,0,0.1,0l0.3,0.1C175.5,105.1,175.5,105.1,175.3,105.2
					C175.4,105.1,175.4,105.2,175.3,105.2L175.3,105.2z"/>
				<path class="st129" d="M175.5,105.1l-0.3-0.1c0.2,0,0.4,0,0.7,0.2l0.3,0.1C176,105.1,175.7,105,175.5,105.1L175.5,105.1z"/>
				<path class="st128" d="M176.2,105.2l-0.3-0.1c0,0,0.1,0,0.1,0L176.2,105.2C176.3,105.3,176.3,105.2,176.2,105.2L176.2,105.2z"/>
			</g>
		</g>
	</g>
	<g>
		<path class="st131" d="M187.4,96.5c0,0-0.1,0-0.2,0c-0.3,0.2-0.8,0.7-1.2,1.3c-0.6,0.9-1,1.8-0.9,2c0,0,0.1,0,0.2,0
			c-2.9,4.8-3.8,10.4-4.1,14.7c-0.4-3.3-0.8-7.3-0.8-11.4c0.2-0.3,0.4-1.3,0.4-2.3c0-1.2-0.2-2-0.5-1.8c-0.3,0.2-0.5,1.2-0.5,2.4
			c0,1.1,0.2,1.8,0.5,1.8c0.1,3.7,0.4,7.4,0.7,10.5c-0.9-2.8-2.3-5-3.4-6.4c0.2-0.3-0.1-1-0.7-1.6c-0.5-0.5-1.1-0.7-1.4-0.5
			c0,0-0.1,0.1-0.1,0.1c-0.2,0.3,0.1,1,0.7,1.6c0.5,0.5,1,0.7,1.3,0.6c1.2,1.5,2.9,4,3.7,7.3c0.1,0,0.2,0,0.3,0
			c0.2-4.4,1.2-10.2,4.2-15.1c0.3-0.2,0.6-0.7,1-1.2C187.2,97.5,187.5,96.7,187.4,96.5z"/>
	</g>
	<path class="st128" d="M177.3,107.4l-0.3-0.1c1.2,1.5,2.9,4.1,3.7,7.5c0.1,0,0.1,0,0.2,0C180.2,111.4,178.5,108.9,177.3,107.4z"/>
</g>
</svg>
